999
Created by TechSoft software: TechSoft Design Version 3.13
  0
SECTION
  2
HEADER
  9
$ACADVER
  1
AC1032
  9
$DWGCODEPAGE
  3
ANSI_1252
  9
$LASTSAVEDBY
  1

  9
$HANDSEED
  5
249F0
  9
$ANGBASE
 50
0
  9
$ANGDIR
 70
0
  9
$ATTMODE
 70
1
  9
$AUNITS
 70
0
  9
$AUPREC
 70
0
  9
$CECOLOR
 62
256
  9
$CELTSCALE
 40
1
  9
$CELTYPE
  6
BYLAYER
  9
$CELWEIGHT
370
-1
  9
$CHAMFERA
 40
10
  9
$CHAMFERB
 40
10
  9
$CLAYER
  8
Layer 1
  9
$CMLJUST
 70
0
  9
$CMLSCALE
 40
20
  9
$CMLSTYLE
  2
Standard
  9
$DIMSTYLE
  2
Standard
  9
$EXTMAX
 10
440
 20
10
 30
0
  9
$EXTMIN
 10
10
 20
440
 30
0
  9
$TEXTSTYLE
  7
Standard
  9
$TEXTSIZE
 40
20
  9
$LUNITS
 70
2
  9
$LUPREC
 70
4
  9
$MIRRTEXT
 70
0
  9
$EXTNAMES
290
1
  9
$INSBASE
 10
0
 20
0
 30
0
  9
$INSUNITS
 70
4
  9
$LTSCALE
 40
10
  9
$LWDISPLAY
290
0
  9
$PDMODE
 70
0
  9
$PDSIZE
 40
0
  9
$PLINEGEN
 70
1
  9
$PSLTSCALE
 70
1
  9
$TDCREATE
 40
2459187
  9
$TDUCREATE
 40
2459187
  9
$TDUPDATE
 40
2459187
  9
$TDUUPDATE
 40
2459187
  9
$TDINDWG
 40
0
  9
$UCSORG
 10
0
 20
0
 30
0
  9
$UCSXDIR
 10
1
 20
0
 30
0
  9
$UCSYDIR
 10
0
 20
1
 30
0
  9
$DIMADEC
 70
0
  9
$DIMALT
 70
0
  9
$DIMALTD
 70
2
  9
$DIMALTF
 40
25.4
  9
$DIMALTRND
 40
0
  9
$DIMALTTD
 70
2
  9
$DIMALTTZ
 70
0
  9
$DIMALTU
 70
2
  9
$DIMALTZ
 70
0
  9
$DIMAPOST
  1

  9
$DIMATFIT
 70
3
  9
$DIMAUNIT
 70
0
  9
$DIMASZ
 40
0.18
  9
$DIMAZIN
 70
0
  9
$DIMSAH
 70
0
  9
$DIMBLK
  1

  9
$DIMLDRBLK
  1

  9
$DIMCEN
 40
0.09
  9
$DIMCLRD
 70
0
  9
$DIMCLRE
 70
0
  9
$DIMCLRT
 70
0
  9
$DIMDEC
 70
4
  9
$DIMDLE
 40
0
  9
$DIMDLI
 40
0.38
  9
$DIMDSEP
 70
46
  9
$DIMEXE
 40
0.18
  9
$DIMEXO
 40
0.0625
  9
$DIMFXLON
 70
0
  9
$DIMFXL
 40
1
  9
$DIMGAP
 40
0.09
  9
$DIMJUST
 70
0
  9
$DIMLFAC
 40
1
  9
$DIMLUNIT
 70
2
  9
$DIMLWD
 70
-2
  9
$DIMLWE
 70
-2
  9
$DIMPOST
  1

  9
$DIMRND
 40
0
  9
$DIMSCALE
 40
1
  9
$DIMSD1
 70
0
  9
$DIMSD2
 70
0
  9
$DIMSE1
 70
0
  9
$DIMSE2
 70
0
  9
$DIMSOXD
 70
0
  9
$DIMTAD
 70
0
  9
$DIMTDEC
 70
4
  9
$DIMTFAC
 40
1
  9
$DIMTIH
 70
0
  9
$DIMTIX
 70
0
  9
$DIMTM
 40
0
  9
$DIMTMOVE
 70
0
  9
$DIMTOFL
 70
0
  9
$DIMTOH
 70
0
  9
$DIMTOL
 70
0
  9
$DIMLIM
 70
0
  9
$DIMTOLJ
 70
1
  9
$DIMTP
 40
0
  9
$DIMTXT
 40
0.18
  9
$DIMTXTDIRECTION
 70
0
  9
$DIMTZIN
 70
0
  9
$DIMZIN
 70
0
  9
$DIMFRAC
 70
0
  9
$DIMLTYPE
  6
ByBlock
  9
$DIMLTEX1
  6
ByBlock
  9
$DIMLTEX2
  6
ByBlock
  9
$REGENMODE
 70
1
  9
$FILLMODE
 70
1
  9
$QTEXTMODE
 70
0
  9
$DRAGMODE
 70
2
  9
$OSMODE
 70
511
  9
$TRACEWID
 40
1
  9
$DIMTSZ
 40
0
  9
$DIMASO
 70
1
  9
$DIMSHO
 70
1
  9
$DIMTVP
 40
0
  9
$DIMBLK1
  1

  9
$DIMBLK2
  1

  9
$SKETCHINC
 40
1
  9
$FILLETRAD
 40
10
  9
$MENU
  1
.
  9
$ELEVATION
 40
0
  9
$PELEVATION
 40
0
  9
$THICKNESS
 40
0
  9
$LIMCHECK
 70
0
  9
$SKPOLY
 70
0
  9
$TDUSRTIMER
 40
0
  9
$USRTIMER
 70
0
  9
$PLINEWID
 40
0
  9
$COORDS
 70
1
  9
$SPLFRAME
 70
0
  9
$SPLINETYPE
 70
6
  9
$SPLINESEGS
 70
8
  9
$ATTDIA
 70
0
  9
$ATTREQ
 70
1
  9
$HANDLING
 70
1
  9
$SURFTAB1
 70
6
  9
$SURFTAB2
 70
6
  9
$SURFTYPE
 70
6
  9
$SURFU
 70
6
  9
$SURFV
 70
6
  9
$UCSNAME
  2

  9
$PUCSNAME
  2

  9
$PUCSORG
 10
0
 20
0
 30
0
  9
$PUCSXDIR
 10
1
 20
0
 30
0
  9
$PUCSYDIR
 10
0
 20
1
 30
0
  9
$WORLDVIEW
 70
1
  9
$SHADEDGE
 70
3
  9
$SHADEDIF
 70
70
  9
$TILEMODE
 70
1
  9
$MAXACTVP
 70
64
  9
$PLIMCHECK
 70
0
  9
$PLIMMAX
 10
0
 20
0
  9
$PLIMMIN
 10
0
 20
0
  9
$UNITMODE
 70
0
  9
$VISRETAIN
 70
1
  9
$LIMMAX
 10
450
 20
450
  9
$LIMMIN
 10
0
 20
0
  9
$MEASUREMENT
 70
1
  9
$ORTHOMODE
 70
0
  9
$GRIDUNIT
 10
0
 20
0
  9
$SNAPUNIT
 10
0
 20
0
  0
ENDSEC
  0
SECTION
  2
CLASSES
  0
ENDSEC
  0
SECTION
  2
TABLES
  0
TABLE
  2
VPORT
  5
1
330
0
100
AcDbSymbolTable
 70
1
  0
VPORT
  5
E
330
3
100
AcDbSymbolTableRecord
100
AcDbViewportTableRecord
  2
*ACTIVE
 70
0
 10
0
 20
0
 11
1
 21
1
 12
209.475294
 22
86.002634
 13
0
 23
0
 14
10
 24
10
 15
10
 25
10
 16
0
 26
0
 36
1
 17
0
 27
0
 37
0
 40
319.744231
 41
2.129464
 42
50
 43
0
 44
0
 50
0
 51
0
 71
0
 72
100
 73
1
 74
3
 75
0
 76
0
 77
0
 78
0
281
0
 65
1
110
0
120
0
130
0
111
1
121
0
131
0
112
0
122
1
132
0
 79
0
146
0
348
10020
 60
7
 61
5
292
1
282
1
  0
ENDTAB
  0
TABLE
  2
LTYPE
  5
2
330
0
100
AcDbSymbolTable
 70
15
  0
LTYPE
  5
F
330
2
100
AcDbSymbolTableRecord
100
AcDbLinetypeTableRecord
  2
ByBlock
 70
0
  3

 72
65
 73
0
 40
0
  0
LTYPE
  5
10
330
2
100
AcDbSymbolTableRecord
100
AcDbLinetypeTableRecord
  2
ByLayer
 70
0
  3

 72
65
 73
0
 40
0
  0
LTYPE
  5
11
330
2
100
AcDbSymbolTableRecord
100
AcDbLinetypeTableRecord
  2
Continuous
 70
0
  3
Solid line
 72
65
 73
0
 40
0
  0
LTYPE
  5
12
330
2
100
AcDbSymbolTableRecord
100
AcDbLinetypeTableRecord
  2
DOT
 70
0
  3
............................................
 72
65
 73
2
 40
0.25
 49
0
 74
0
 49
-0.25
 74
0
  0
LTYPE
  5
13
330
2
100
AcDbSymbolTableRecord
100
AcDbLinetypeTableRecord
  2
HIDDEN
 70
0
  3
_ _ _ _ _ _ _ _ _ _ _ _ _ _ _ _ _ _ _ _ _ _ 
 72
65
 73
2
 40
0.375
 49
0.25
 74
0
 49
-0.125
 74
0
  0
LTYPE
  5
14
330
2
100
AcDbSymbolTableRecord
100
AcDbLinetypeTableRecord
  2
TSLONGDASH
 70
0
  3
__ __ __ __ __ __ __ __ __ __ __ __ __ __ _ 
 72
65
 73
2
 40
1.28
 49
1
 74
0
 49
-0.28
 74
0
  0
LTYPE
  5
15
330
2
100
AcDbSymbolTableRecord
100
AcDbLinetypeTableRecord
  2
TSDASHDOT
 70
0
  3
______ . ______ . ______ . ______ . ______ .
 72
65
 73
4
 40
1.28
 49
1
 74
0
 49
-0.14
 74
0
 49
0
 74
0
 49
-0.14
 74
0
  0
LTYPE
  5
16
330
2
100
AcDbSymbolTableRecord
100
AcDbLinetypeTableRecord
  2
TSCENTER
 70
0
  3
______ _ ______ _ ______ _ ______ _ ______ _
 72
65
 73
4
 40
2
 49
1.5
 74
0
 49
-0.18
 74
0
 49
0.14
 74
0
 49
-0.18
 74
0
  0
LTYPE
  5
17
330
2
100
AcDbSymbolTableRecord
100
AcDbLinetypeTableRecord
  2
TSPHANTOM
 70
0
  3
_____ _ _ _____ _ _ _____ _ _ _____ _ _ ____
 72
65
 73
6
 40
2.5
 49
1.63
 74
0
 49
-0.19
 74
0
 49
0.15
 74
0
 49
-0.19
 74
0
 49
0.15
 74
0
 49
-0.19
 74
0
  0
LTYPE
  5
18
330
2
100
AcDbSymbolTableRecord
100
AcDbLinetypeTableRecord
  2
DASHED
 70
0
  3
__ __ __ __ __ __ __ __ __ __ __ __ __ __ __
 72
65
 73
2
 40
0.75
 49
0.5
 74
0
 49
-0.25
 74
0
  0
LTYPE
  5
19
330
2
100
AcDbSymbolTableRecord
100
AcDbLinetypeTableRecord
  2
CENTER
 70
0
  3
____ _ ____ _ ____ _ ____ _ ____ _ ____ _ __
 72
65
 73
4
 40
2
 49
1.25
 74
0
 49
-0.25
 74
0
 49
0.25
 74
0
 49
-0.25
 74
0
  0
LTYPE
  5
1A
330
2
100
AcDbSymbolTableRecord
100
AcDbLinetypeTableRecord
  2
PHANTOM
 70
0
  3
_____ _ _ _____ _ _ _____ _ _ _____ _ _ ____
 72
65
 73
6
 40
2.5
 49
1.25
 74
0
 49
-0.25
 74
0
 49
0.25
 74
0
 49
-0.25
 74
0
 49
0.25
 74
0
 49
-0.25
 74
0
  0
LTYPE
  5
1B
330
2
100
AcDbSymbolTableRecord
100
AcDbLinetypeTableRecord
  2
DASHDOT
 70
0
  3
__ . __ . __ . __ . __ . __ . __ . __ . __ .
 72
65
 73
4
 40
1
 49
0.5
 74
0
 49
-0.25
 74
0
 49
0
 74
0
 49
-0.25
 74
0
  0
LTYPE
  5
1C
330
2
100
AcDbSymbolTableRecord
100
AcDbLinetypeTableRecord
  2
BORDER
 70
0
  3
__ __ . __ __ . __ __ . __ __ . __ __ . __ _
 72
65
 73
6
 40
1.75
 49
0.5
 74
0
 49
-0.25
 74
0
 49
0.5
 74
0
 49
-0.25
 74
0
 49
0
 74
0
 49
-0.25
 74
0
  0
LTYPE
  5
1D
330
2
100
AcDbSymbolTableRecord
100
AcDbLinetypeTableRecord
  2
DIVIDE
 70
0
  3
__ . . __ . . __ . . __ . . __ . . __ . . __
 72
65
 73
6
 40
1.25
 49
0.5
 74
0
 49
-0.25
 74
0
 49
0
 74
0
 49
-0.25
 74
0
 49
0
 74
0
 49
-0.25
 74
0
  0
ENDTAB
  0
TABLE
  2
LAYER
  5
3
330
0
100
AcDbSymbolTable
 70
4
  0
LAYER
  5
1E
330
3
100
AcDbSymbolTableRecord
100
AcDbLayerTableRecord
  2
0
 70
0
 62
7
  6
CONTINUOUS
370
-3
390
F
  0
LAYER
  5
1F
330
3
100
AcDbSymbolTableRecord
100
AcDbLayerTableRecord
  2
Layer 1
 70
0
 62
7
  6
CONTINUOUS
370
-3
390
F
  0
LAYER
  5
20
330
3
100
AcDbSymbolTableRecord
100
AcDbLayerTableRecord
  2
Layer 2
 70
0
 62
7
  6
CONTINUOUS
370
-3
390
F
  0
LAYER
  5
21
330
3
100
AcDbSymbolTableRecord
100
AcDbLayerTableRecord
  2
Layer 3
 70
0
 62
7
  6
CONTINUOUS
370
-3
390
F
  0
ENDTAB
  0
TABLE
  2
STYLE
  5
4
330
0
100
AcDbSymbolTable
 70
1
  0
STYLE
  5
22
330
3
100
AcDbSymbolTableRecord
100
AcDbTextStyleTableRecord
  2
Standard
 70
0
 40
0
 41
1
 50
0
 71
0
 42
0.2
  3
txt
  4

  0
ENDTAB
  0
TABLE
  2
VIEW
  5
5
330
0
100
AcDbSymbolTable
 70
0
  0
ENDTAB
  0
TABLE
  2
UCS
  5
6
330
0
100
AcDbSymbolTable
 70
0
  0
ENDTAB
  0
TABLE
  2
APPID
  5
7
330
0
100
AcDbSymbolTable
 70
1
  0
APPID
  5
23
330
7
100
AcDbSymbolTableRecord
100
AcDbRegAppTableRecord
  2
ACAD
 70
0
  0
ENDTAB
  0
TABLE
  2
DIMSTYLE
  5
8
330
0
100
AcDbSymbolTable
 70
1
100
AcDbDimStyleTable
  0
DIMSTYLE
105
24
330
8
100
AcDbSymbolTableRecord
100
AcDbDimStyleTableRecord
  2
Standard
 70
0
  3

  4

  5

  6

  7

 40
1
 41
0.18
 42
0.0625
 43
0.38
 44
0.18
 45
0
 46
0
 47
0
 48
0
140
0.18
141
0.09
142
0
143
25.4
144
1
145
0
146
1
147
0.09
 71
0
 72
0
 73
0
 74
1
 75
0
 76
0
 77
0
 78
0
170
0
171
2
172
0
173
0
174
0
175
0
176
0
177
0
178
0
271
4
272
4
273
2
274
2
275
0
276
0
277
2
278
46
279
0
280
0
281
0
282
0
283
1
284
0
285
0
286
0
288
0
289
3
340
Standard
341

371
-2
372
-2
  0
ENDTAB
  0
TABLE
  2
BLOCK_RECORD
  5
9
330
0
100
AcDbSymbolTable
 70
2
  0
BLOCK_RECORD
  5
A
330
9
100
AcDbSymbolTableRecord
100
AcDbBlockTableRecord
  2
*MODEL_SPACE
 70
0
280
1
281
0
  0
BLOCK_RECORD
  5
B
330
9
100
AcDbSymbolTableRecord
100
AcDbBlockTableRecord
  2
*PAPER_SPACE
 70
0
280
1
281
0
  0
ENDTAB
  0
ENDSEC
  0
SECTION
  2
BLOCKS
  0
BLOCK
  5
25
330
A
100
AcDbEntity
  8
0
100
AcDbBlockBegin
  2
*MODEL_SPACE
 70
0
 10
0
 20
0
 30
0
  3
*MODEL_SPACE
  1

  0
ENDBLK
  5
26
330
A
100
AcDbEntity
  8
0
100
AcDbBlockEnd
  0
BLOCK
  5
27
330
B
100
AcDbEntity
  8
0
100
AcDbBlockBegin
  2
*PAPER_SPACE
 70
0
 10
0
 20
0
 30
0
  3
*PAPER_SPACE
  1

  0
ENDBLK
  5
28
330
B
100
AcDbEntity
  8
0
100
AcDbBlockEnd
  0
ENDSEC
  0
SECTION
  2
ENTITIES
  0
CIRCLE
  5
29
330
A
100
AcDbEntity
  8
Layer 1
  6
CONTINUOUS
 62
1
100
AcDbCircle
 39
0
 10
45
 20
375
 40
1.75
  0
CIRCLE
  5
2A
330
A
100
AcDbEntity
  8
Layer 1
  6
CONTINUOUS
 62
1
100
AcDbCircle
 39
0
 10
45
 20
75
 40
1.75
  0
CIRCLE
  5
2B
330
A
100
AcDbEntity
  8
Layer 1
  6
CONTINUOUS
 62
1
100
AcDbCircle
 39
0
 10
404
 20
75
 40
1.75
  0
CIRCLE
  5
2C
330
A
100
AcDbEntity
  8
Layer 1
  6
CONTINUOUS
 62
1
100
AcDbCircle
 39
0
 10
405
 20
375
 40
1.75
  0
LINE
  5
2D
330
A
100
AcDbEntity
  8
Layer 1
  6
CONTINUOUS
 62
1
100
AcDbLine
 39
0
 10
10
 20
10
 11
440
 21
10
  0
LINE
  5
2E
330
A
100
AcDbEntity
  8
Layer 1
  6
CONTINUOUS
 62
1
100
AcDbLine
 39
0
 10
440
 20
10
 11
440
 21
440
  0
LINE
  5
2F
330
A
100
AcDbEntity
  8
Layer 1
  6
CONTINUOUS
 62
1
100
AcDbLine
 39
0
 10
440
 20
440
 11
10
 21
440
  0
LINE
  5
30
330
A
100
AcDbEntity
  8
Layer 1
  6
CONTINUOUS
 62
1
100
AcDbLine
 39
0
 10
10
 20
440
 11
10
 21
10
  0
LINE
  5
31
330
A
100
AcDbEntity
  8
Layer 1
  6
CONTINUOUS
 62
1
100
AcDbLine
 39
0
 10
67
 20
386
 11
86
 21
386
  0
LINE
  5
32
330
A
100
AcDbEntity
  8
Layer 1
  6
CONTINUOUS
 62
1
100
AcDbLine
 39
0
 10
86
 20
386
 11
86
 21
364
  0
LINE
  5
33
330
A
100
AcDbEntity
  8
Layer 1
  6
CONTINUOUS
 62
1
100
AcDbLine
 39
0
 10
86
 20
364
 11
67
 21
364
  0
LINE
  5
34
330
A
100
AcDbEntity
  8
Layer 1
  6
CONTINUOUS
 62
1
100
AcDbLine
 39
0
 10
67
 20
364
 11
67
 21
386
  0
LINE
  5
35
330
A
100
AcDbEntity
  8
Layer 1
  6
CONTINUOUS
 62
1
100
AcDbLine
 39
0
 10
94
 20
386
 11
116
 21
386
  0
LINE
  5
36
330
A
100
AcDbEntity
  8
Layer 1
  6
CONTINUOUS
 62
1
100
AcDbLine
 39
0
 10
116
 20
386
 11
116
 21
364
  0
LINE
  5
37
330
A
100
AcDbEntity
  8
Layer 1
  6
CONTINUOUS
 62
1
100
AcDbLine
 39
0
 10
116
 20
364
 11
94
 21
364
  0
LINE
  5
38
330
A
100
AcDbEntity
  8
Layer 1
  6
CONTINUOUS
 62
1
100
AcDbLine
 39
0
 10
94
 20
364
 11
94
 21
386
  0
LINE
  5
39
330
A
100
AcDbEntity
  8
Layer 1
  6
CONTINUOUS
 62
1
100
AcDbLine
 39
0
 10
124
 20
386
 11
146
 21
386
  0
LINE
  5
3A
330
A
100
AcDbEntity
  8
Layer 1
  6
CONTINUOUS
 62
1
100
AcDbLine
 39
0
 10
146
 20
386
 11
146
 21
364
  0
LINE
  5
3B
330
A
100
AcDbEntity
  8
Layer 1
  6
CONTINUOUS
 62
1
100
AcDbLine
 39
0
 10
146
 20
364
 11
124
 21
364
  0
LINE
  5
3C
330
A
100
AcDbEntity
  8
Layer 1
  6
CONTINUOUS
 62
1
100
AcDbLine
 39
0
 10
124
 20
364
 11
124
 21
386
  0
LINE
  5
3D
330
A
100
AcDbEntity
  8
Layer 1
  6
CONTINUOUS
 62
1
100
AcDbLine
 39
0
 10
154
 20
386
 11
176
 21
386
  0
LINE
  5
3E
330
A
100
AcDbEntity
  8
Layer 1
  6
CONTINUOUS
 62
1
100
AcDbLine
 39
0
 10
176
 20
386
 11
176
 21
364
  0
LINE
  5
3F
330
A
100
AcDbEntity
  8
Layer 1
  6
CONTINUOUS
 62
1
100
AcDbLine
 39
0
 10
176
 20
364
 11
154
 21
364
  0
LINE
  5
40
330
A
100
AcDbEntity
  8
Layer 1
  6
CONTINUOUS
 62
1
100
AcDbLine
 39
0
 10
154
 20
364
 11
154
 21
386
  0
LINE
  5
41
330
A
100
AcDbEntity
  8
Layer 1
  6
CONTINUOUS
 62
1
100
AcDbLine
 39
0
 10
184
 20
386
 11
206
 21
386
  0
LINE
  5
42
330
A
100
AcDbEntity
  8
Layer 1
  6
CONTINUOUS
 62
1
100
AcDbLine
 39
0
 10
206
 20
386
 11
206
 21
364
  0
LINE
  5
43
330
A
100
AcDbEntity
  8
Layer 1
  6
CONTINUOUS
 62
1
100
AcDbLine
 39
0
 10
206
 20
364
 11
184
 21
364
  0
LINE
  5
44
330
A
100
AcDbEntity
  8
Layer 1
  6
CONTINUOUS
 62
1
100
AcDbLine
 39
0
 10
184
 20
364
 11
184
 21
386
  0
LINE
  5
45
330
A
100
AcDbEntity
  8
Layer 1
  6
CONTINUOUS
 62
1
100
AcDbLine
 39
0
 10
214
 20
386
 11
236
 21
386
  0
LINE
  5
46
330
A
100
AcDbEntity
  8
Layer 1
  6
CONTINUOUS
 62
1
100
AcDbLine
 39
0
 10
236
 20
386
 11
236
 21
364
  0
LINE
  5
47
330
A
100
AcDbEntity
  8
Layer 1
  6
CONTINUOUS
 62
1
100
AcDbLine
 39
0
 10
236
 20
364
 11
214
 21
364
  0
LINE
  5
48
330
A
100
AcDbEntity
  8
Layer 1
  6
CONTINUOUS
 62
1
100
AcDbLine
 39
0
 10
214
 20
364
 11
214
 21
386
  0
LINE
  5
49
330
A
100
AcDbEntity
  8
Layer 1
  6
CONTINUOUS
 62
1
100
AcDbLine
 39
0
 10
244
 20
386
 11
266
 21
386
  0
LINE
  5
4A
330
A
100
AcDbEntity
  8
Layer 1
  6
CONTINUOUS
 62
1
100
AcDbLine
 39
0
 10
266
 20
386
 11
266
 21
364
  0
LINE
  5
4B
330
A
100
AcDbEntity
  8
Layer 1
  6
CONTINUOUS
 62
1
100
AcDbLine
 39
0
 10
266
 20
364
 11
244
 21
364
  0
LINE
  5
4C
330
A
100
AcDbEntity
  8
Layer 1
  6
CONTINUOUS
 62
1
100
AcDbLine
 39
0
 10
244
 20
364
 11
244
 21
386
  0
LINE
  5
4D
330
A
100
AcDbEntity
  8
Layer 1
  6
CONTINUOUS
 62
1
100
AcDbLine
 39
0
 10
274
 20
386
 11
296
 21
386
  0
LINE
  5
4E
330
A
100
AcDbEntity
  8
Layer 1
  6
CONTINUOUS
 62
1
100
AcDbLine
 39
0
 10
296
 20
386
 11
296
 21
364
  0
LINE
  5
4F
330
A
100
AcDbEntity
  8
Layer 1
  6
CONTINUOUS
 62
1
100
AcDbLine
 39
0
 10
296
 20
364
 11
274
 21
364
  0
LINE
  5
50
330
A
100
AcDbEntity
  8
Layer 1
  6
CONTINUOUS
 62
1
100
AcDbLine
 39
0
 10
274
 20
364
 11
274
 21
386
  0
LINE
  5
51
330
A
100
AcDbEntity
  8
Layer 1
  6
CONTINUOUS
 62
1
100
AcDbLine
 39
0
 10
304
 20
386
 11
326
 21
386
  0
LINE
  5
52
330
A
100
AcDbEntity
  8
Layer 1
  6
CONTINUOUS
 62
1
100
AcDbLine
 39
0
 10
326
 20
386
 11
326
 21
364
  0
LINE
  5
53
330
A
100
AcDbEntity
  8
Layer 1
  6
CONTINUOUS
 62
1
100
AcDbLine
 39
0
 10
326
 20
364
 11
304
 21
364
  0
LINE
  5
54
330
A
100
AcDbEntity
  8
Layer 1
  6
CONTINUOUS
 62
1
100
AcDbLine
 39
0
 10
304
 20
364
 11
304
 21
386
  0
LINE
  5
55
330
A
100
AcDbEntity
  8
Layer 1
  6
CONTINUOUS
 62
1
100
AcDbLine
 39
0
 10
334
 20
386
 11
356
 21
386
  0
LINE
  5
56
330
A
100
AcDbEntity
  8
Layer 1
  6
CONTINUOUS
 62
1
100
AcDbLine
 39
0
 10
356
 20
386
 11
356
 21
364
  0
LINE
  5
57
330
A
100
AcDbEntity
  8
Layer 1
  6
CONTINUOUS
 62
1
100
AcDbLine
 39
0
 10
356
 20
364
 11
334
 21
364
  0
LINE
  5
58
330
A
100
AcDbEntity
  8
Layer 1
  6
CONTINUOUS
 62
1
100
AcDbLine
 39
0
 10
334
 20
364
 11
334
 21
386
  0
LINE
  5
59
330
A
100
AcDbEntity
  8
Layer 1
  6
CONTINUOUS
 62
1
100
AcDbLine
 39
0
 10
364
 20
386
 11
383
 21
386
  0
LINE
  5
5A
330
A
100
AcDbEntity
  8
Layer 1
  6
CONTINUOUS
 62
1
100
AcDbLine
 39
0
 10
383
 20
386
 11
383
 21
364
  0
LINE
  5
5B
330
A
100
AcDbEntity
  8
Layer 1
  6
CONTINUOUS
 62
1
100
AcDbLine
 39
0
 10
383
 20
364
 11
364
 21
364
  0
LINE
  5
5C
330
A
100
AcDbEntity
  8
Layer 1
  6
CONTINUOUS
 62
1
100
AcDbLine
 39
0
 10
364
 20
364
 11
364
 21
386
  0
LINE
  5
5D
330
A
100
AcDbEntity
  8
Layer 1
  6
CONTINUOUS
 62
1
100
AcDbLine
 39
0
 10
19
 20
431
 11
31
 21
431
  0
LINE
  5
5E
330
A
100
AcDbEntity
  8
Layer 1
  6
CONTINUOUS
 62
1
100
AcDbLine
 39
0
 10
31
 20
431
 11
31
 21
419
  0
LINE
  5
5F
330
A
100
AcDbEntity
  8
Layer 1
  6
CONTINUOUS
 62
1
100
AcDbLine
 39
0
 10
31
 20
419
 11
19
 21
419
  0
LINE
  5
60
330
A
100
AcDbEntity
  8
Layer 1
  6
CONTINUOUS
 62
1
100
AcDbLine
 39
0
 10
19
 20
419
 11
19
 21
431
  0
LINE
  5
61
330
A
100
AcDbEntity
  8
Layer 1
  6
CONTINUOUS
 62
1
100
AcDbLine
 39
0
 10
419
 20
431
 11
431
 21
431
  0
LINE
  5
62
330
A
100
AcDbEntity
  8
Layer 1
  6
CONTINUOUS
 62
1
100
AcDbLine
 39
0
 10
431
 20
431
 11
431
 21
419
  0
LINE
  5
63
330
A
100
AcDbEntity
  8
Layer 1
  6
CONTINUOUS
 62
1
100
AcDbLine
 39
0
 10
431
 20
419
 11
419
 21
419
  0
LINE
  5
64
330
A
100
AcDbEntity
  8
Layer 1
  6
CONTINUOUS
 62
1
100
AcDbLine
 39
0
 10
419
 20
419
 11
419
 21
431
  0
LINE
  5
65
330
A
100
AcDbEntity
  8
Layer 1
  6
CONTINUOUS
 62
1
100
AcDbLine
 39
0
 10
19
 20
31
 11
31
 21
31
  0
LINE
  5
66
330
A
100
AcDbEntity
  8
Layer 1
  6
CONTINUOUS
 62
1
100
AcDbLine
 39
0
 10
31
 20
31
 11
31
 21
19
  0
LINE
  5
67
330
A
100
AcDbEntity
  8
Layer 1
  6
CONTINUOUS
 62
1
100
AcDbLine
 39
0
 10
31
 20
19
 11
19
 21
19
  0
LINE
  5
68
330
A
100
AcDbEntity
  8
Layer 1
  6
CONTINUOUS
 62
1
100
AcDbLine
 39
0
 10
19
 20
19
 11
19
 21
31
  0
LINE
  5
69
330
A
100
AcDbEntity
  8
Layer 1
  6
CONTINUOUS
 62
1
100
AcDbLine
 39
0
 10
431
 20
31
 11
419
 21
31
  0
LINE
  5
6A
330
A
100
AcDbEntity
  8
Layer 1
  6
CONTINUOUS
 62
1
100
AcDbLine
 39
0
 10
419
 20
31
 11
419
 21
19
  0
LINE
  5
6B
330
A
100
AcDbEntity
  8
Layer 1
  6
CONTINUOUS
 62
1
100
AcDbLine
 39
0
 10
419
 20
19
 11
431
 21
19
  0
LINE
  5
6C
330
A
100
AcDbEntity
  8
Layer 1
  6
CONTINUOUS
 62
1
100
AcDbLine
 39
0
 10
431
 20
19
 11
431
 21
31
  0
LINE
  5
6D
330
A
100
AcDbEntity
  8
Layer 1
  6
CONTINUOUS
 62
1
100
AcDbLine
 39
0
 10
67
 20
356
 11
86
 21
356
  0
LINE
  5
6E
330
A
100
AcDbEntity
  8
Layer 1
  6
CONTINUOUS
 62
1
100
AcDbLine
 39
0
 10
86
 20
356
 11
86
 21
334
  0
LINE
  5
6F
330
A
100
AcDbEntity
  8
Layer 1
  6
CONTINUOUS
 62
1
100
AcDbLine
 39
0
 10
86
 20
334
 11
67
 21
334
  0
LINE
  5
70
330
A
100
AcDbEntity
  8
Layer 1
  6
CONTINUOUS
 62
1
100
AcDbLine
 39
0
 10
67
 20
334
 11
67
 21
356
  0
LINE
  5
71
330
A
100
AcDbEntity
  8
Layer 1
  6
CONTINUOUS
 62
1
100
AcDbLine
 39
0
 10
94
 20
356
 11
116
 21
356
  0
LINE
  5
72
330
A
100
AcDbEntity
  8
Layer 1
  6
CONTINUOUS
 62
1
100
AcDbLine
 39
0
 10
116
 20
356
 11
116
 21
334
  0
LINE
  5
73
330
A
100
AcDbEntity
  8
Layer 1
  6
CONTINUOUS
 62
1
100
AcDbLine
 39
0
 10
116
 20
334
 11
94
 21
334
  0
LINE
  5
74
330
A
100
AcDbEntity
  8
Layer 1
  6
CONTINUOUS
 62
1
100
AcDbLine
 39
0
 10
94
 20
334
 11
94
 21
356
  0
LINE
  5
75
330
A
100
AcDbEntity
  8
Layer 1
  6
CONTINUOUS
 62
1
100
AcDbLine
 39
0
 10
124
 20
356
 11
146
 21
356
  0
LINE
  5
76
330
A
100
AcDbEntity
  8
Layer 1
  6
CONTINUOUS
 62
1
100
AcDbLine
 39
0
 10
146
 20
356
 11
146
 21
334
  0
LINE
  5
77
330
A
100
AcDbEntity
  8
Layer 1
  6
CONTINUOUS
 62
1
100
AcDbLine
 39
0
 10
146
 20
334
 11
124
 21
334
  0
LINE
  5
78
330
A
100
AcDbEntity
  8
Layer 1
  6
CONTINUOUS
 62
1
100
AcDbLine
 39
0
 10
124
 20
334
 11
124
 21
356
  0
LINE
  5
79
330
A
100
AcDbEntity
  8
Layer 1
  6
CONTINUOUS
 62
1
100
AcDbLine
 39
0
 10
154
 20
356
 11
176
 21
356
  0
LINE
  5
7A
330
A
100
AcDbEntity
  8
Layer 1
  6
CONTINUOUS
 62
1
100
AcDbLine
 39
0
 10
176
 20
356
 11
176
 21
334
  0
LINE
  5
7B
330
A
100
AcDbEntity
  8
Layer 1
  6
CONTINUOUS
 62
1
100
AcDbLine
 39
0
 10
176
 20
334
 11
154
 21
334
  0
LINE
  5
7C
330
A
100
AcDbEntity
  8
Layer 1
  6
CONTINUOUS
 62
1
100
AcDbLine
 39
0
 10
154
 20
334
 11
154
 21
356
  0
LINE
  5
7D
330
A
100
AcDbEntity
  8
Layer 1
  6
CONTINUOUS
 62
1
100
AcDbLine
 39
0
 10
184
 20
356
 11
206
 21
356
  0
LINE
  5
7E
330
A
100
AcDbEntity
  8
Layer 1
  6
CONTINUOUS
 62
1
100
AcDbLine
 39
0
 10
206
 20
356
 11
206
 21
334
  0
LINE
  5
7F
330
A
100
AcDbEntity
  8
Layer 1
  6
CONTINUOUS
 62
1
100
AcDbLine
 39
0
 10
206
 20
334
 11
184
 21
334
  0
LINE
  5
80
330
A
100
AcDbEntity
  8
Layer 1
  6
CONTINUOUS
 62
1
100
AcDbLine
 39
0
 10
184
 20
334
 11
184
 21
356
  0
LINE
  5
81
330
A
100
AcDbEntity
  8
Layer 1
  6
CONTINUOUS
 62
1
100
AcDbLine
 39
0
 10
214
 20
356
 11
236
 21
356
  0
LINE
  5
82
330
A
100
AcDbEntity
  8
Layer 1
  6
CONTINUOUS
 62
1
100
AcDbLine
 39
0
 10
236
 20
356
 11
236
 21
334
  0
LINE
  5
83
330
A
100
AcDbEntity
  8
Layer 1
  6
CONTINUOUS
 62
1
100
AcDbLine
 39
0
 10
236
 20
334
 11
214
 21
334
  0
LINE
  5
84
330
A
100
AcDbEntity
  8
Layer 1
  6
CONTINUOUS
 62
1
100
AcDbLine
 39
0
 10
214
 20
334
 11
214
 21
356
  0
LINE
  5
85
330
A
100
AcDbEntity
  8
Layer 1
  6
CONTINUOUS
 62
1
100
AcDbLine
 39
0
 10
244
 20
356
 11
266
 21
356
  0
LINE
  5
86
330
A
100
AcDbEntity
  8
Layer 1
  6
CONTINUOUS
 62
1
100
AcDbLine
 39
0
 10
266
 20
356
 11
266
 21
334
  0
LINE
  5
87
330
A
100
AcDbEntity
  8
Layer 1
  6
CONTINUOUS
 62
1
100
AcDbLine
 39
0
 10
266
 20
334
 11
244
 21
334
  0
LINE
  5
88
330
A
100
AcDbEntity
  8
Layer 1
  6
CONTINUOUS
 62
1
100
AcDbLine
 39
0
 10
244
 20
334
 11
244
 21
356
  0
LINE
  5
89
330
A
100
AcDbEntity
  8
Layer 1
  6
CONTINUOUS
 62
1
100
AcDbLine
 39
0
 10
274
 20
356
 11
296
 21
356
  0
LINE
  5
8A
330
A
100
AcDbEntity
  8
Layer 1
  6
CONTINUOUS
 62
1
100
AcDbLine
 39
0
 10
296
 20
356
 11
296
 21
334
  0
LINE
  5
8B
330
A
100
AcDbEntity
  8
Layer 1
  6
CONTINUOUS
 62
1
100
AcDbLine
 39
0
 10
296
 20
334
 11
274
 21
334
  0
LINE
  5
8C
330
A
100
AcDbEntity
  8
Layer 1
  6
CONTINUOUS
 62
1
100
AcDbLine
 39
0
 10
274
 20
334
 11
274
 21
356
  0
LINE
  5
8D
330
A
100
AcDbEntity
  8
Layer 1
  6
CONTINUOUS
 62
1
100
AcDbLine
 39
0
 10
304
 20
356
 11
326
 21
356
  0
LINE
  5
8E
330
A
100
AcDbEntity
  8
Layer 1
  6
CONTINUOUS
 62
1
100
AcDbLine
 39
0
 10
326
 20
356
 11
326
 21
334
  0
LINE
  5
8F
330
A
100
AcDbEntity
  8
Layer 1
  6
CONTINUOUS
 62
1
100
AcDbLine
 39
0
 10
326
 20
334
 11
304
 21
334
  0
LINE
  5
90
330
A
100
AcDbEntity
  8
Layer 1
  6
CONTINUOUS
 62
1
100
AcDbLine
 39
0
 10
304
 20
334
 11
304
 21
356
  0
LINE
  5
91
330
A
100
AcDbEntity
  8
Layer 1
  6
CONTINUOUS
 62
1
100
AcDbLine
 39
0
 10
334
 20
356
 11
356
 21
356
  0
LINE
  5
92
330
A
100
AcDbEntity
  8
Layer 1
  6
CONTINUOUS
 62
1
100
AcDbLine
 39
0
 10
356
 20
356
 11
356
 21
334
  0
LINE
  5
93
330
A
100
AcDbEntity
  8
Layer 1
  6
CONTINUOUS
 62
1
100
AcDbLine
 39
0
 10
356
 20
334
 11
334
 21
334
  0
LINE
  5
94
330
A
100
AcDbEntity
  8
Layer 1
  6
CONTINUOUS
 62
1
100
AcDbLine
 39
0
 10
334
 20
334
 11
334
 21
356
  0
LINE
  5
95
330
A
100
AcDbEntity
  8
Layer 1
  6
CONTINUOUS
 62
1
100
AcDbLine
 39
0
 10
364
 20
356
 11
383
 21
356
  0
LINE
  5
96
330
A
100
AcDbEntity
  8
Layer 1
  6
CONTINUOUS
 62
1
100
AcDbLine
 39
0
 10
383
 20
356
 11
383
 21
334
  0
LINE
  5
97
330
A
100
AcDbEntity
  8
Layer 1
  6
CONTINUOUS
 62
1
100
AcDbLine
 39
0
 10
383
 20
334
 11
364
 21
334
  0
LINE
  5
98
330
A
100
AcDbEntity
  8
Layer 1
  6
CONTINUOUS
 62
1
100
AcDbLine
 39
0
 10
364
 20
334
 11
364
 21
356
  0
LINE
  5
99
330
A
100
AcDbEntity
  8
Layer 1
  6
CONTINUOUS
 62
1
100
AcDbLine
 39
0
 10
67
 20
326
 11
86
 21
326
  0
LINE
  5
9A
330
A
100
AcDbEntity
  8
Layer 1
  6
CONTINUOUS
 62
1
100
AcDbLine
 39
0
 10
86
 20
326
 11
86
 21
304
  0
LINE
  5
9B
330
A
100
AcDbEntity
  8
Layer 1
  6
CONTINUOUS
 62
1
100
AcDbLine
 39
0
 10
86
 20
304
 11
67
 21
304
  0
LINE
  5
9C
330
A
100
AcDbEntity
  8
Layer 1
  6
CONTINUOUS
 62
1
100
AcDbLine
 39
0
 10
67
 20
304
 11
67
 21
326
  0
LINE
  5
9D
330
A
100
AcDbEntity
  8
Layer 1
  6
CONTINUOUS
 62
1
100
AcDbLine
 39
0
 10
94
 20
326
 11
116
 21
326
  0
LINE
  5
9E
330
A
100
AcDbEntity
  8
Layer 1
  6
CONTINUOUS
 62
1
100
AcDbLine
 39
0
 10
116
 20
326
 11
116
 21
304
  0
LINE
  5
9F
330
A
100
AcDbEntity
  8
Layer 1
  6
CONTINUOUS
 62
1
100
AcDbLine
 39
0
 10
116
 20
304
 11
94
 21
304
  0
LINE
  5
A0
330
A
100
AcDbEntity
  8
Layer 1
  6
CONTINUOUS
 62
1
100
AcDbLine
 39
0
 10
94
 20
304
 11
94
 21
326
  0
LINE
  5
A1
330
A
100
AcDbEntity
  8
Layer 1
  6
CONTINUOUS
 62
1
100
AcDbLine
 39
0
 10
124
 20
326
 11
146
 21
326
  0
LINE
  5
A2
330
A
100
AcDbEntity
  8
Layer 1
  6
CONTINUOUS
 62
1
100
AcDbLine
 39
0
 10
146
 20
326
 11
146
 21
304
  0
LINE
  5
A3
330
A
100
AcDbEntity
  8
Layer 1
  6
CONTINUOUS
 62
1
100
AcDbLine
 39
0
 10
146
 20
304
 11
124
 21
304
  0
LINE
  5
A4
330
A
100
AcDbEntity
  8
Layer 1
  6
CONTINUOUS
 62
1
100
AcDbLine
 39
0
 10
124
 20
304
 11
124
 21
326
  0
LINE
  5
A5
330
A
100
AcDbEntity
  8
Layer 1
  6
CONTINUOUS
 62
1
100
AcDbLine
 39
0
 10
154
 20
326
 11
176
 21
326
  0
LINE
  5
A6
330
A
100
AcDbEntity
  8
Layer 1
  6
CONTINUOUS
 62
1
100
AcDbLine
 39
0
 10
176
 20
326
 11
176
 21
304
  0
LINE
  5
A7
330
A
100
AcDbEntity
  8
Layer 1
  6
CONTINUOUS
 62
1
100
AcDbLine
 39
0
 10
176
 20
304
 11
154
 21
304
  0
LINE
  5
A8
330
A
100
AcDbEntity
  8
Layer 1
  6
CONTINUOUS
 62
1
100
AcDbLine
 39
0
 10
154
 20
304
 11
154
 21
326
  0
LINE
  5
A9
330
A
100
AcDbEntity
  8
Layer 1
  6
CONTINUOUS
 62
1
100
AcDbLine
 39
0
 10
184
 20
326
 11
206
 21
326
  0
LINE
  5
AA
330
A
100
AcDbEntity
  8
Layer 1
  6
CONTINUOUS
 62
1
100
AcDbLine
 39
0
 10
206
 20
326
 11
206
 21
304
  0
LINE
  5
AB
330
A
100
AcDbEntity
  8
Layer 1
  6
CONTINUOUS
 62
1
100
AcDbLine
 39
0
 10
206
 20
304
 11
184
 21
304
  0
LINE
  5
AC
330
A
100
AcDbEntity
  8
Layer 1
  6
CONTINUOUS
 62
1
100
AcDbLine
 39
0
 10
184
 20
304
 11
184
 21
326
  0
LINE
  5
AD
330
A
100
AcDbEntity
  8
Layer 1
  6
CONTINUOUS
 62
1
100
AcDbLine
 39
0
 10
214
 20
326
 11
236
 21
326
  0
LINE
  5
AE
330
A
100
AcDbEntity
  8
Layer 1
  6
CONTINUOUS
 62
1
100
AcDbLine
 39
0
 10
236
 20
326
 11
236
 21
304
  0
LINE
  5
AF
330
A
100
AcDbEntity
  8
Layer 1
  6
CONTINUOUS
 62
1
100
AcDbLine
 39
0
 10
236
 20
304
 11
214
 21
304
  0
LINE
  5
B0
330
A
100
AcDbEntity
  8
Layer 1
  6
CONTINUOUS
 62
1
100
AcDbLine
 39
0
 10
214
 20
304
 11
214
 21
326
  0
LINE
  5
B1
330
A
100
AcDbEntity
  8
Layer 1
  6
CONTINUOUS
 62
1
100
AcDbLine
 39
0
 10
244
 20
326
 11
266
 21
326
  0
LINE
  5
B2
330
A
100
AcDbEntity
  8
Layer 1
  6
CONTINUOUS
 62
1
100
AcDbLine
 39
0
 10
266
 20
326
 11
266
 21
304
  0
LINE
  5
B3
330
A
100
AcDbEntity
  8
Layer 1
  6
CONTINUOUS
 62
1
100
AcDbLine
 39
0
 10
266
 20
304
 11
244
 21
304
  0
LINE
  5
B4
330
A
100
AcDbEntity
  8
Layer 1
  6
CONTINUOUS
 62
1
100
AcDbLine
 39
0
 10
244
 20
304
 11
244
 21
326
  0
LINE
  5
B5
330
A
100
AcDbEntity
  8
Layer 1
  6
CONTINUOUS
 62
1
100
AcDbLine
 39
0
 10
274
 20
326
 11
296
 21
326
  0
LINE
  5
B6
330
A
100
AcDbEntity
  8
Layer 1
  6
CONTINUOUS
 62
1
100
AcDbLine
 39
0
 10
296
 20
326
 11
296
 21
304
  0
LINE
  5
B7
330
A
100
AcDbEntity
  8
Layer 1
  6
CONTINUOUS
 62
1
100
AcDbLine
 39
0
 10
296
 20
304
 11
274
 21
304
  0
LINE
  5
B8
330
A
100
AcDbEntity
  8
Layer 1
  6
CONTINUOUS
 62
1
100
AcDbLine
 39
0
 10
274
 20
304
 11
274
 21
326
  0
LINE
  5
B9
330
A
100
AcDbEntity
  8
Layer 1
  6
CONTINUOUS
 62
1
100
AcDbLine
 39
0
 10
304
 20
326
 11
326
 21
326
  0
LINE
  5
BA
330
A
100
AcDbEntity
  8
Layer 1
  6
CONTINUOUS
 62
1
100
AcDbLine
 39
0
 10
326
 20
326
 11
326
 21
304
  0
LINE
  5
BB
330
A
100
AcDbEntity
  8
Layer 1
  6
CONTINUOUS
 62
1
100
AcDbLine
 39
0
 10
326
 20
304
 11
304
 21
304
  0
LINE
  5
BC
330
A
100
AcDbEntity
  8
Layer 1
  6
CONTINUOUS
 62
1
100
AcDbLine
 39
0
 10
304
 20
304
 11
304
 21
326
  0
LINE
  5
BD
330
A
100
AcDbEntity
  8
Layer 1
  6
CONTINUOUS
 62
1
100
AcDbLine
 39
0
 10
334
 20
326
 11
356
 21
326
  0
LINE
  5
BE
330
A
100
AcDbEntity
  8
Layer 1
  6
CONTINUOUS
 62
1
100
AcDbLine
 39
0
 10
356
 20
326
 11
356
 21
304
  0
LINE
  5
BF
330
A
100
AcDbEntity
  8
Layer 1
  6
CONTINUOUS
 62
1
100
AcDbLine
 39
0
 10
356
 20
304
 11
334
 21
304
  0
LINE
  5
C0
330
A
100
AcDbEntity
  8
Layer 1
  6
CONTINUOUS
 62
1
100
AcDbLine
 39
0
 10
334
 20
304
 11
334
 21
326
  0
LINE
  5
C1
330
A
100
AcDbEntity
  8
Layer 1
  6
CONTINUOUS
 62
1
100
AcDbLine
 39
0
 10
364
 20
326
 11
383
 21
326
  0
LINE
  5
C2
330
A
100
AcDbEntity
  8
Layer 1
  6
CONTINUOUS
 62
1
100
AcDbLine
 39
0
 10
383
 20
326
 11
383
 21
304
  0
LINE
  5
C3
330
A
100
AcDbEntity
  8
Layer 1
  6
CONTINUOUS
 62
1
100
AcDbLine
 39
0
 10
383
 20
304
 11
364
 21
304
  0
LINE
  5
C4
330
A
100
AcDbEntity
  8
Layer 1
  6
CONTINUOUS
 62
1
100
AcDbLine
 39
0
 10
364
 20
304
 11
364
 21
326
  0
LINE
  5
C5
330
A
100
AcDbEntity
  8
Layer 1
  6
CONTINUOUS
 62
1
100
AcDbLine
 39
0
 10
67
 20
296
 11
86
 21
296
  0
LINE
  5
C6
330
A
100
AcDbEntity
  8
Layer 1
  6
CONTINUOUS
 62
1
100
AcDbLine
 39
0
 10
86
 20
296
 11
86
 21
274
  0
LINE
  5
C7
330
A
100
AcDbEntity
  8
Layer 1
  6
CONTINUOUS
 62
1
100
AcDbLine
 39
0
 10
86
 20
274
 11
67
 21
274
  0
LINE
  5
C8
330
A
100
AcDbEntity
  8
Layer 1
  6
CONTINUOUS
 62
1
100
AcDbLine
 39
0
 10
67
 20
274
 11
67
 21
296
  0
LINE
  5
C9
330
A
100
AcDbEntity
  8
Layer 1
  6
CONTINUOUS
 62
1
100
AcDbLine
 39
0
 10
94
 20
296
 11
116
 21
296
  0
LINE
  5
CA
330
A
100
AcDbEntity
  8
Layer 1
  6
CONTINUOUS
 62
1
100
AcDbLine
 39
0
 10
116
 20
296
 11
116
 21
274
  0
LINE
  5
CB
330
A
100
AcDbEntity
  8
Layer 1
  6
CONTINUOUS
 62
1
100
AcDbLine
 39
0
 10
116
 20
274
 11
94
 21
274
  0
LINE
  5
CC
330
A
100
AcDbEntity
  8
Layer 1
  6
CONTINUOUS
 62
1
100
AcDbLine
 39
0
 10
94
 20
274
 11
94
 21
296
  0
LINE
  5
CD
330
A
100
AcDbEntity
  8
Layer 1
  6
CONTINUOUS
 62
1
100
AcDbLine
 39
0
 10
124
 20
296
 11
146
 21
296
  0
LINE
  5
CE
330
A
100
AcDbEntity
  8
Layer 1
  6
CONTINUOUS
 62
1
100
AcDbLine
 39
0
 10
146
 20
296
 11
146
 21
274
  0
LINE
  5
CF
330
A
100
AcDbEntity
  8
Layer 1
  6
CONTINUOUS
 62
1
100
AcDbLine
 39
0
 10
146
 20
274
 11
124
 21
274
  0
LINE
  5
D0
330
A
100
AcDbEntity
  8
Layer 1
  6
CONTINUOUS
 62
1
100
AcDbLine
 39
0
 10
124
 20
274
 11
124
 21
296
  0
LINE
  5
D1
330
A
100
AcDbEntity
  8
Layer 1
  6
CONTINUOUS
 62
1
100
AcDbLine
 39
0
 10
154
 20
296
 11
176
 21
296
  0
LINE
  5
D2
330
A
100
AcDbEntity
  8
Layer 1
  6
CONTINUOUS
 62
1
100
AcDbLine
 39
0
 10
176
 20
296
 11
176
 21
274
  0
LINE
  5
D3
330
A
100
AcDbEntity
  8
Layer 1
  6
CONTINUOUS
 62
1
100
AcDbLine
 39
0
 10
176
 20
274
 11
154
 21
274
  0
LINE
  5
D4
330
A
100
AcDbEntity
  8
Layer 1
  6
CONTINUOUS
 62
1
100
AcDbLine
 39
0
 10
154
 20
274
 11
154
 21
296
  0
LINE
  5
D5
330
A
100
AcDbEntity
  8
Layer 1
  6
CONTINUOUS
 62
1
100
AcDbLine
 39
0
 10
184
 20
296
 11
206
 21
296
  0
LINE
  5
D6
330
A
100
AcDbEntity
  8
Layer 1
  6
CONTINUOUS
 62
1
100
AcDbLine
 39
0
 10
206
 20
296
 11
206
 21
274
  0
LINE
  5
D7
330
A
100
AcDbEntity
  8
Layer 1
  6
CONTINUOUS
 62
1
100
AcDbLine
 39
0
 10
206
 20
274
 11
184
 21
274
  0
LINE
  5
D8
330
A
100
AcDbEntity
  8
Layer 1
  6
CONTINUOUS
 62
1
100
AcDbLine
 39
0
 10
184
 20
274
 11
184
 21
296
  0
LINE
  5
D9
330
A
100
AcDbEntity
  8
Layer 1
  6
CONTINUOUS
 62
1
100
AcDbLine
 39
0
 10
214
 20
296
 11
236
 21
296
  0
LINE
  5
DA
330
A
100
AcDbEntity
  8
Layer 1
  6
CONTINUOUS
 62
1
100
AcDbLine
 39
0
 10
236
 20
296
 11
236
 21
274
  0
LINE
  5
DB
330
A
100
AcDbEntity
  8
Layer 1
  6
CONTINUOUS
 62
1
100
AcDbLine
 39
0
 10
236
 20
274
 11
214
 21
274
  0
LINE
  5
DC
330
A
100
AcDbEntity
  8
Layer 1
  6
CONTINUOUS
 62
1
100
AcDbLine
 39
0
 10
214
 20
274
 11
214
 21
296
  0
LINE
  5
DD
330
A
100
AcDbEntity
  8
Layer 1
  6
CONTINUOUS
 62
1
100
AcDbLine
 39
0
 10
244
 20
296
 11
266
 21
296
  0
LINE
  5
DE
330
A
100
AcDbEntity
  8
Layer 1
  6
CONTINUOUS
 62
1
100
AcDbLine
 39
0
 10
266
 20
296
 11
266
 21
274
  0
LINE
  5
DF
330
A
100
AcDbEntity
  8
Layer 1
  6
CONTINUOUS
 62
1
100
AcDbLine
 39
0
 10
266
 20
274
 11
244
 21
274
  0
LINE
  5
E0
330
A
100
AcDbEntity
  8
Layer 1
  6
CONTINUOUS
 62
1
100
AcDbLine
 39
0
 10
244
 20
274
 11
244
 21
296
  0
LINE
  5
E1
330
A
100
AcDbEntity
  8
Layer 1
  6
CONTINUOUS
 62
1
100
AcDbLine
 39
0
 10
274
 20
296
 11
296
 21
296
  0
LINE
  5
E2
330
A
100
AcDbEntity
  8
Layer 1
  6
CONTINUOUS
 62
1
100
AcDbLine
 39
0
 10
296
 20
296
 11
296
 21
274
  0
LINE
  5
E3
330
A
100
AcDbEntity
  8
Layer 1
  6
CONTINUOUS
 62
1
100
AcDbLine
 39
0
 10
296
 20
274
 11
274
 21
274
  0
LINE
  5
E4
330
A
100
AcDbEntity
  8
Layer 1
  6
CONTINUOUS
 62
1
100
AcDbLine
 39
0
 10
274
 20
274
 11
274
 21
296
  0
LINE
  5
E5
330
A
100
AcDbEntity
  8
Layer 1
  6
CONTINUOUS
 62
1
100
AcDbLine
 39
0
 10
304
 20
296
 11
326
 21
296
  0
LINE
  5
E6
330
A
100
AcDbEntity
  8
Layer 1
  6
CONTINUOUS
 62
1
100
AcDbLine
 39
0
 10
326
 20
296
 11
326
 21
274
  0
LINE
  5
E7
330
A
100
AcDbEntity
  8
Layer 1
  6
CONTINUOUS
 62
1
100
AcDbLine
 39
0
 10
326
 20
274
 11
304
 21
274
  0
LINE
  5
E8
330
A
100
AcDbEntity
  8
Layer 1
  6
CONTINUOUS
 62
1
100
AcDbLine
 39
0
 10
304
 20
274
 11
304
 21
296
  0
LINE
  5
E9
330
A
100
AcDbEntity
  8
Layer 1
  6
CONTINUOUS
 62
1
100
AcDbLine
 39
0
 10
334
 20
296
 11
356
 21
296
  0
LINE
  5
EA
330
A
100
AcDbEntity
  8
Layer 1
  6
CONTINUOUS
 62
1
100
AcDbLine
 39
0
 10
356
 20
296
 11
356
 21
274
  0
LINE
  5
EB
330
A
100
AcDbEntity
  8
Layer 1
  6
CONTINUOUS
 62
1
100
AcDbLine
 39
0
 10
356
 20
274
 11
334
 21
274
  0
LINE
  5
EC
330
A
100
AcDbEntity
  8
Layer 1
  6
CONTINUOUS
 62
1
100
AcDbLine
 39
0
 10
334
 20
274
 11
334
 21
296
  0
LINE
  5
ED
330
A
100
AcDbEntity
  8
Layer 1
  6
CONTINUOUS
 62
1
100
AcDbLine
 39
0
 10
364
 20
296
 11
383
 21
296
  0
LINE
  5
EE
330
A
100
AcDbEntity
  8
Layer 1
  6
CONTINUOUS
 62
1
100
AcDbLine
 39
0
 10
383
 20
296
 11
383
 21
274
  0
LINE
  5
EF
330
A
100
AcDbEntity
  8
Layer 1
  6
CONTINUOUS
 62
1
100
AcDbLine
 39
0
 10
383
 20
274
 11
364
 21
274
  0
LINE
  5
F0
330
A
100
AcDbEntity
  8
Layer 1
  6
CONTINUOUS
 62
1
100
AcDbLine
 39
0
 10
364
 20
274
 11
364
 21
296
  0
LINE
  5
F1
330
A
100
AcDbEntity
  8
Layer 1
  6
CONTINUOUS
 62
1
100
AcDbLine
 39
0
 10
67
 20
266
 11
86
 21
266
  0
LINE
  5
F2
330
A
100
AcDbEntity
  8
Layer 1
  6
CONTINUOUS
 62
1
100
AcDbLine
 39
0
 10
86
 20
266
 11
86
 21
244
  0
LINE
  5
F3
330
A
100
AcDbEntity
  8
Layer 1
  6
CONTINUOUS
 62
1
100
AcDbLine
 39
0
 10
86
 20
244
 11
67
 21
244
  0
LINE
  5
F4
330
A
100
AcDbEntity
  8
Layer 1
  6
CONTINUOUS
 62
1
100
AcDbLine
 39
0
 10
67
 20
244
 11
67
 21
266
  0
LINE
  5
F5
330
A
100
AcDbEntity
  8
Layer 1
  6
CONTINUOUS
 62
1
100
AcDbLine
 39
0
 10
94
 20
266
 11
116
 21
266
  0
LINE
  5
F6
330
A
100
AcDbEntity
  8
Layer 1
  6
CONTINUOUS
 62
1
100
AcDbLine
 39
0
 10
116
 20
266
 11
116
 21
244
  0
LINE
  5
F7
330
A
100
AcDbEntity
  8
Layer 1
  6
CONTINUOUS
 62
1
100
AcDbLine
 39
0
 10
116
 20
244
 11
94
 21
244
  0
LINE
  5
F8
330
A
100
AcDbEntity
  8
Layer 1
  6
CONTINUOUS
 62
1
100
AcDbLine
 39
0
 10
94
 20
244
 11
94
 21
266
  0
LINE
  5
F9
330
A
100
AcDbEntity
  8
Layer 1
  6
CONTINUOUS
 62
1
100
AcDbLine
 39
0
 10
124
 20
266
 11
146
 21
266
  0
LINE
  5
FA
330
A
100
AcDbEntity
  8
Layer 1
  6
CONTINUOUS
 62
1
100
AcDbLine
 39
0
 10
146
 20
266
 11
146
 21
244
  0
LINE
  5
FB
330
A
100
AcDbEntity
  8
Layer 1
  6
CONTINUOUS
 62
1
100
AcDbLine
 39
0
 10
146
 20
244
 11
124
 21
244
  0
LINE
  5
FC
330
A
100
AcDbEntity
  8
Layer 1
  6
CONTINUOUS
 62
1
100
AcDbLine
 39
0
 10
124
 20
244
 11
124
 21
266
  0
LINE
  5
FD
330
A
100
AcDbEntity
  8
Layer 1
  6
CONTINUOUS
 62
1
100
AcDbLine
 39
0
 10
154
 20
266
 11
176
 21
266
  0
LINE
  5
FE
330
A
100
AcDbEntity
  8
Layer 1
  6
CONTINUOUS
 62
1
100
AcDbLine
 39
0
 10
176
 20
266
 11
176
 21
244
  0
LINE
  5
FF
330
A
100
AcDbEntity
  8
Layer 1
  6
CONTINUOUS
 62
1
100
AcDbLine
 39
0
 10
176
 20
244
 11
154
 21
244
  0
LINE
  5
100
330
A
100
AcDbEntity
  8
Layer 1
  6
CONTINUOUS
 62
1
100
AcDbLine
 39
0
 10
154
 20
244
 11
154
 21
266
  0
LINE
  5
101
330
A
100
AcDbEntity
  8
Layer 1
  6
CONTINUOUS
 62
1
100
AcDbLine
 39
0
 10
184
 20
266
 11
206
 21
266
  0
LINE
  5
102
330
A
100
AcDbEntity
  8
Layer 1
  6
CONTINUOUS
 62
1
100
AcDbLine
 39
0
 10
206
 20
266
 11
206
 21
244
  0
LINE
  5
103
330
A
100
AcDbEntity
  8
Layer 1
  6
CONTINUOUS
 62
1
100
AcDbLine
 39
0
 10
206
 20
244
 11
184
 21
244
  0
LINE
  5
104
330
A
100
AcDbEntity
  8
Layer 1
  6
CONTINUOUS
 62
1
100
AcDbLine
 39
0
 10
184
 20
244
 11
184
 21
266
  0
LINE
  5
105
330
A
100
AcDbEntity
  8
Layer 1
  6
CONTINUOUS
 62
1
100
AcDbLine
 39
0
 10
214
 20
266
 11
236
 21
266
  0
LINE
  5
106
330
A
100
AcDbEntity
  8
Layer 1
  6
CONTINUOUS
 62
1
100
AcDbLine
 39
0
 10
236
 20
266
 11
236
 21
244
  0
LINE
  5
107
330
A
100
AcDbEntity
  8
Layer 1
  6
CONTINUOUS
 62
1
100
AcDbLine
 39
0
 10
236
 20
244
 11
214
 21
244
  0
LINE
  5
108
330
A
100
AcDbEntity
  8
Layer 1
  6
CONTINUOUS
 62
1
100
AcDbLine
 39
0
 10
214
 20
244
 11
214
 21
266
  0
LINE
  5
109
330
A
100
AcDbEntity
  8
Layer 1
  6
CONTINUOUS
 62
1
100
AcDbLine
 39
0
 10
244
 20
266
 11
266
 21
266
  0
LINE
  5
10A
330
A
100
AcDbEntity
  8
Layer 1
  6
CONTINUOUS
 62
1
100
AcDbLine
 39
0
 10
266
 20
266
 11
266
 21
244
  0
LINE
  5
10B
330
A
100
AcDbEntity
  8
Layer 1
  6
CONTINUOUS
 62
1
100
AcDbLine
 39
0
 10
266
 20
244
 11
244
 21
244
  0
LINE
  5
10C
330
A
100
AcDbEntity
  8
Layer 1
  6
CONTINUOUS
 62
1
100
AcDbLine
 39
0
 10
244
 20
244
 11
244
 21
266
  0
LINE
  5
10D
330
A
100
AcDbEntity
  8
Layer 1
  6
CONTINUOUS
 62
1
100
AcDbLine
 39
0
 10
274
 20
266
 11
296
 21
266
  0
LINE
  5
10E
330
A
100
AcDbEntity
  8
Layer 1
  6
CONTINUOUS
 62
1
100
AcDbLine
 39
0
 10
296
 20
266
 11
296
 21
244
  0
LINE
  5
10F
330
A
100
AcDbEntity
  8
Layer 1
  6
CONTINUOUS
 62
1
100
AcDbLine
 39
0
 10
296
 20
244
 11
274
 21
244
  0
LINE
  5
110
330
A
100
AcDbEntity
  8
Layer 1
  6
CONTINUOUS
 62
1
100
AcDbLine
 39
0
 10
274
 20
244
 11
274
 21
266
  0
LINE
  5
111
330
A
100
AcDbEntity
  8
Layer 1
  6
CONTINUOUS
 62
1
100
AcDbLine
 39
0
 10
304
 20
266
 11
326
 21
266
  0
LINE
  5
112
330
A
100
AcDbEntity
  8
Layer 1
  6
CONTINUOUS
 62
1
100
AcDbLine
 39
0
 10
326
 20
266
 11
326
 21
244
  0
LINE
  5
113
330
A
100
AcDbEntity
  8
Layer 1
  6
CONTINUOUS
 62
1
100
AcDbLine
 39
0
 10
326
 20
244
 11
304
 21
244
  0
LINE
  5
114
330
A
100
AcDbEntity
  8
Layer 1
  6
CONTINUOUS
 62
1
100
AcDbLine
 39
0
 10
304
 20
244
 11
304
 21
266
  0
LINE
  5
115
330
A
100
AcDbEntity
  8
Layer 1
  6
CONTINUOUS
 62
1
100
AcDbLine
 39
0
 10
334
 20
266
 11
356
 21
266
  0
LINE
  5
116
330
A
100
AcDbEntity
  8
Layer 1
  6
CONTINUOUS
 62
1
100
AcDbLine
 39
0
 10
356
 20
266
 11
356
 21
244
  0
LINE
  5
117
330
A
100
AcDbEntity
  8
Layer 1
  6
CONTINUOUS
 62
1
100
AcDbLine
 39
0
 10
356
 20
244
 11
334
 21
244
  0
LINE
  5
118
330
A
100
AcDbEntity
  8
Layer 1
  6
CONTINUOUS
 62
1
100
AcDbLine
 39
0
 10
334
 20
244
 11
334
 21
266
  0
LINE
  5
119
330
A
100
AcDbEntity
  8
Layer 1
  6
CONTINUOUS
 62
1
100
AcDbLine
 39
0
 10
364
 20
266
 11
383
 21
266
  0
LINE
  5
11A
330
A
100
AcDbEntity
  8
Layer 1
  6
CONTINUOUS
 62
1
100
AcDbLine
 39
0
 10
383
 20
266
 11
383
 21
244
  0
LINE
  5
11B
330
A
100
AcDbEntity
  8
Layer 1
  6
CONTINUOUS
 62
1
100
AcDbLine
 39
0
 10
383
 20
244
 11
364
 21
244
  0
LINE
  5
11C
330
A
100
AcDbEntity
  8
Layer 1
  6
CONTINUOUS
 62
1
100
AcDbLine
 39
0
 10
364
 20
244
 11
364
 21
266
  0
LINE
  5
11D
330
A
100
AcDbEntity
  8
Layer 1
  6
CONTINUOUS
 62
1
100
AcDbLine
 39
0
 10
67
 20
236
 11
86
 21
236
  0
LINE
  5
11E
330
A
100
AcDbEntity
  8
Layer 1
  6
CONTINUOUS
 62
1
100
AcDbLine
 39
0
 10
86
 20
236
 11
86
 21
214
  0
LINE
  5
11F
330
A
100
AcDbEntity
  8
Layer 1
  6
CONTINUOUS
 62
1
100
AcDbLine
 39
0
 10
86
 20
214
 11
67
 21
214
  0
LINE
  5
120
330
A
100
AcDbEntity
  8
Layer 1
  6
CONTINUOUS
 62
1
100
AcDbLine
 39
0
 10
67
 20
214
 11
67
 21
236
  0
LINE
  5
121
330
A
100
AcDbEntity
  8
Layer 1
  6
CONTINUOUS
 62
1
100
AcDbLine
 39
0
 10
94
 20
236
 11
116
 21
236
  0
LINE
  5
122
330
A
100
AcDbEntity
  8
Layer 1
  6
CONTINUOUS
 62
1
100
AcDbLine
 39
0
 10
116
 20
236
 11
116
 21
214
  0
LINE
  5
123
330
A
100
AcDbEntity
  8
Layer 1
  6
CONTINUOUS
 62
1
100
AcDbLine
 39
0
 10
116
 20
214
 11
94
 21
214
  0
LINE
  5
124
330
A
100
AcDbEntity
  8
Layer 1
  6
CONTINUOUS
 62
1
100
AcDbLine
 39
0
 10
94
 20
214
 11
94
 21
236
  0
LINE
  5
125
330
A
100
AcDbEntity
  8
Layer 1
  6
CONTINUOUS
 62
1
100
AcDbLine
 39
0
 10
124
 20
236
 11
146
 21
236
  0
LINE
  5
126
330
A
100
AcDbEntity
  8
Layer 1
  6
CONTINUOUS
 62
1
100
AcDbLine
 39
0
 10
146
 20
236
 11
146
 21
214
  0
LINE
  5
127
330
A
100
AcDbEntity
  8
Layer 1
  6
CONTINUOUS
 62
1
100
AcDbLine
 39
0
 10
146
 20
214
 11
124
 21
214
  0
LINE
  5
128
330
A
100
AcDbEntity
  8
Layer 1
  6
CONTINUOUS
 62
1
100
AcDbLine
 39
0
 10
124
 20
214
 11
124
 21
236
  0
LINE
  5
129
330
A
100
AcDbEntity
  8
Layer 1
  6
CONTINUOUS
 62
1
100
AcDbLine
 39
0
 10
154
 20
236
 11
176
 21
236
  0
LINE
  5
12A
330
A
100
AcDbEntity
  8
Layer 1
  6
CONTINUOUS
 62
1
100
AcDbLine
 39
0
 10
176
 20
236
 11
176
 21
214
  0
LINE
  5
12B
330
A
100
AcDbEntity
  8
Layer 1
  6
CONTINUOUS
 62
1
100
AcDbLine
 39
0
 10
176
 20
214
 11
154
 21
214
  0
LINE
  5
12C
330
A
100
AcDbEntity
  8
Layer 1
  6
CONTINUOUS
 62
1
100
AcDbLine
 39
0
 10
154
 20
214
 11
154
 21
236
  0
LINE
  5
12D
330
A
100
AcDbEntity
  8
Layer 1
  6
CONTINUOUS
 62
1
100
AcDbLine
 39
0
 10
184
 20
236
 11
206
 21
236
  0
LINE
  5
12E
330
A
100
AcDbEntity
  8
Layer 1
  6
CONTINUOUS
 62
1
100
AcDbLine
 39
0
 10
206
 20
236
 11
206
 21
214
  0
LINE
  5
12F
330
A
100
AcDbEntity
  8
Layer 1
  6
CONTINUOUS
 62
1
100
AcDbLine
 39
0
 10
206
 20
214
 11
184
 21
214
  0
LINE
  5
130
330
A
100
AcDbEntity
  8
Layer 1
  6
CONTINUOUS
 62
1
100
AcDbLine
 39
0
 10
184
 20
214
 11
184
 21
236
  0
LINE
  5
131
330
A
100
AcDbEntity
  8
Layer 1
  6
CONTINUOUS
 62
1
100
AcDbLine
 39
0
 10
214
 20
236
 11
236
 21
236
  0
LINE
  5
132
330
A
100
AcDbEntity
  8
Layer 1
  6
CONTINUOUS
 62
1
100
AcDbLine
 39
0
 10
236
 20
236
 11
236
 21
214
  0
LINE
  5
133
330
A
100
AcDbEntity
  8
Layer 1
  6
CONTINUOUS
 62
1
100
AcDbLine
 39
0
 10
236
 20
214
 11
214
 21
214
  0
LINE
  5
134
330
A
100
AcDbEntity
  8
Layer 1
  6
CONTINUOUS
 62
1
100
AcDbLine
 39
0
 10
214
 20
214
 11
214
 21
236
  0
LINE
  5
135
330
A
100
AcDbEntity
  8
Layer 1
  6
CONTINUOUS
 62
1
100
AcDbLine
 39
0
 10
244
 20
236
 11
266
 21
236
  0
LINE
  5
136
330
A
100
AcDbEntity
  8
Layer 1
  6
CONTINUOUS
 62
1
100
AcDbLine
 39
0
 10
266
 20
236
 11
266
 21
214
  0
LINE
  5
137
330
A
100
AcDbEntity
  8
Layer 1
  6
CONTINUOUS
 62
1
100
AcDbLine
 39
0
 10
266
 20
214
 11
244
 21
214
  0
LINE
  5
138
330
A
100
AcDbEntity
  8
Layer 1
  6
CONTINUOUS
 62
1
100
AcDbLine
 39
0
 10
244
 20
214
 11
244
 21
236
  0
LINE
  5
139
330
A
100
AcDbEntity
  8
Layer 1
  6
CONTINUOUS
 62
1
100
AcDbLine
 39
0
 10
274
 20
236
 11
296
 21
236
  0
LINE
  5
13A
330
A
100
AcDbEntity
  8
Layer 1
  6
CONTINUOUS
 62
1
100
AcDbLine
 39
0
 10
296
 20
236
 11
296
 21
214
  0
LINE
  5
13B
330
A
100
AcDbEntity
  8
Layer 1
  6
CONTINUOUS
 62
1
100
AcDbLine
 39
0
 10
296
 20
214
 11
274
 21
214
  0
LINE
  5
13C
330
A
100
AcDbEntity
  8
Layer 1
  6
CONTINUOUS
 62
1
100
AcDbLine
 39
0
 10
274
 20
214
 11
274
 21
236
  0
LINE
  5
13D
330
A
100
AcDbEntity
  8
Layer 1
  6
CONTINUOUS
 62
1
100
AcDbLine
 39
0
 10
304
 20
236
 11
326
 21
236
  0
LINE
  5
13E
330
A
100
AcDbEntity
  8
Layer 1
  6
CONTINUOUS
 62
1
100
AcDbLine
 39
0
 10
326
 20
236
 11
326
 21
214
  0
LINE
  5
13F
330
A
100
AcDbEntity
  8
Layer 1
  6
CONTINUOUS
 62
1
100
AcDbLine
 39
0
 10
326
 20
214
 11
304
 21
214
  0
LINE
  5
140
330
A
100
AcDbEntity
  8
Layer 1
  6
CONTINUOUS
 62
1
100
AcDbLine
 39
0
 10
304
 20
214
 11
304
 21
236
  0
LINE
  5
141
330
A
100
AcDbEntity
  8
Layer 1
  6
CONTINUOUS
 62
1
100
AcDbLine
 39
0
 10
334
 20
236
 11
356
 21
236
  0
LINE
  5
142
330
A
100
AcDbEntity
  8
Layer 1
  6
CONTINUOUS
 62
1
100
AcDbLine
 39
0
 10
356
 20
236
 11
356
 21
214
  0
LINE
  5
143
330
A
100
AcDbEntity
  8
Layer 1
  6
CONTINUOUS
 62
1
100
AcDbLine
 39
0
 10
356
 20
214
 11
334
 21
214
  0
LINE
  5
144
330
A
100
AcDbEntity
  8
Layer 1
  6
CONTINUOUS
 62
1
100
AcDbLine
 39
0
 10
334
 20
214
 11
334
 21
236
  0
LINE
  5
145
330
A
100
AcDbEntity
  8
Layer 1
  6
CONTINUOUS
 62
1
100
AcDbLine
 39
0
 10
364
 20
236
 11
383
 21
236
  0
LINE
  5
146
330
A
100
AcDbEntity
  8
Layer 1
  6
CONTINUOUS
 62
1
100
AcDbLine
 39
0
 10
383
 20
236
 11
383
 21
214
  0
LINE
  5
147
330
A
100
AcDbEntity
  8
Layer 1
  6
CONTINUOUS
 62
1
100
AcDbLine
 39
0
 10
383
 20
214
 11
364
 21
214
  0
LINE
  5
148
330
A
100
AcDbEntity
  8
Layer 1
  6
CONTINUOUS
 62
1
100
AcDbLine
 39
0
 10
364
 20
214
 11
364
 21
236
  0
LINE
  5
149
330
A
100
AcDbEntity
  8
Layer 1
  6
CONTINUOUS
 62
1
100
AcDbLine
 39
0
 10
67
 20
206
 11
86
 21
206
  0
LINE
  5
14A
330
A
100
AcDbEntity
  8
Layer 1
  6
CONTINUOUS
 62
1
100
AcDbLine
 39
0
 10
86
 20
206
 11
86
 21
184
  0
LINE
  5
14B
330
A
100
AcDbEntity
  8
Layer 1
  6
CONTINUOUS
 62
1
100
AcDbLine
 39
0
 10
86
 20
184
 11
67
 21
184
  0
LINE
  5
14C
330
A
100
AcDbEntity
  8
Layer 1
  6
CONTINUOUS
 62
1
100
AcDbLine
 39
0
 10
67
 20
184
 11
67
 21
206
  0
LINE
  5
14D
330
A
100
AcDbEntity
  8
Layer 1
  6
CONTINUOUS
 62
1
100
AcDbLine
 39
0
 10
94
 20
206
 11
116
 21
206
  0
LINE
  5
14E
330
A
100
AcDbEntity
  8
Layer 1
  6
CONTINUOUS
 62
1
100
AcDbLine
 39
0
 10
116
 20
206
 11
116
 21
184
  0
LINE
  5
14F
330
A
100
AcDbEntity
  8
Layer 1
  6
CONTINUOUS
 62
1
100
AcDbLine
 39
0
 10
116
 20
184
 11
94
 21
184
  0
LINE
  5
150
330
A
100
AcDbEntity
  8
Layer 1
  6
CONTINUOUS
 62
1
100
AcDbLine
 39
0
 10
94
 20
184
 11
94
 21
206
  0
LINE
  5
151
330
A
100
AcDbEntity
  8
Layer 1
  6
CONTINUOUS
 62
1
100
AcDbLine
 39
0
 10
124
 20
206
 11
146
 21
206
  0
LINE
  5
152
330
A
100
AcDbEntity
  8
Layer 1
  6
CONTINUOUS
 62
1
100
AcDbLine
 39
0
 10
146
 20
206
 11
146
 21
184
  0
LINE
  5
153
330
A
100
AcDbEntity
  8
Layer 1
  6
CONTINUOUS
 62
1
100
AcDbLine
 39
0
 10
146
 20
184
 11
124
 21
184
  0
LINE
  5
154
330
A
100
AcDbEntity
  8
Layer 1
  6
CONTINUOUS
 62
1
100
AcDbLine
 39
0
 10
124
 20
184
 11
124
 21
206
  0
LINE
  5
155
330
A
100
AcDbEntity
  8
Layer 1
  6
CONTINUOUS
 62
1
100
AcDbLine
 39
0
 10
154
 20
206
 11
176
 21
206
  0
LINE
  5
156
330
A
100
AcDbEntity
  8
Layer 1
  6
CONTINUOUS
 62
1
100
AcDbLine
 39
0
 10
176
 20
206
 11
176
 21
184
  0
LINE
  5
157
330
A
100
AcDbEntity
  8
Layer 1
  6
CONTINUOUS
 62
1
100
AcDbLine
 39
0
 10
176
 20
184
 11
154
 21
184
  0
LINE
  5
158
330
A
100
AcDbEntity
  8
Layer 1
  6
CONTINUOUS
 62
1
100
AcDbLine
 39
0
 10
154
 20
184
 11
154
 21
206
  0
LINE
  5
159
330
A
100
AcDbEntity
  8
Layer 1
  6
CONTINUOUS
 62
1
100
AcDbLine
 39
0
 10
184
 20
206
 11
206
 21
206
  0
LINE
  5
15A
330
A
100
AcDbEntity
  8
Layer 1
  6
CONTINUOUS
 62
1
100
AcDbLine
 39
0
 10
206
 20
206
 11
206
 21
184
  0
LINE
  5
15B
330
A
100
AcDbEntity
  8
Layer 1
  6
CONTINUOUS
 62
1
100
AcDbLine
 39
0
 10
206
 20
184
 11
184
 21
184
  0
LINE
  5
15C
330
A
100
AcDbEntity
  8
Layer 1
  6
CONTINUOUS
 62
1
100
AcDbLine
 39
0
 10
184
 20
184
 11
184
 21
206
  0
LINE
  5
15D
330
A
100
AcDbEntity
  8
Layer 1
  6
CONTINUOUS
 62
1
100
AcDbLine
 39
0
 10
214
 20
206
 11
236
 21
206
  0
LINE
  5
15E
330
A
100
AcDbEntity
  8
Layer 1
  6
CONTINUOUS
 62
1
100
AcDbLine
 39
0
 10
236
 20
206
 11
236
 21
184
  0
LINE
  5
15F
330
A
100
AcDbEntity
  8
Layer 1
  6
CONTINUOUS
 62
1
100
AcDbLine
 39
0
 10
236
 20
184
 11
214
 21
184
  0
LINE
  5
160
330
A
100
AcDbEntity
  8
Layer 1
  6
CONTINUOUS
 62
1
100
AcDbLine
 39
0
 10
214
 20
184
 11
214
 21
206
  0
LINE
  5
161
330
A
100
AcDbEntity
  8
Layer 1
  6
CONTINUOUS
 62
1
100
AcDbLine
 39
0
 10
244
 20
206
 11
266
 21
206
  0
LINE
  5
162
330
A
100
AcDbEntity
  8
Layer 1
  6
CONTINUOUS
 62
1
100
AcDbLine
 39
0
 10
266
 20
206
 11
266
 21
184
  0
LINE
  5
163
330
A
100
AcDbEntity
  8
Layer 1
  6
CONTINUOUS
 62
1
100
AcDbLine
 39
0
 10
266
 20
184
 11
244
 21
184
  0
LINE
  5
164
330
A
100
AcDbEntity
  8
Layer 1
  6
CONTINUOUS
 62
1
100
AcDbLine
 39
0
 10
244
 20
184
 11
244
 21
206
  0
LINE
  5
165
330
A
100
AcDbEntity
  8
Layer 1
  6
CONTINUOUS
 62
1
100
AcDbLine
 39
0
 10
274
 20
206
 11
296
 21
206
  0
LINE
  5
166
330
A
100
AcDbEntity
  8
Layer 1
  6
CONTINUOUS
 62
1
100
AcDbLine
 39
0
 10
296
 20
206
 11
296
 21
184
  0
LINE
  5
167
330
A
100
AcDbEntity
  8
Layer 1
  6
CONTINUOUS
 62
1
100
AcDbLine
 39
0
 10
296
 20
184
 11
274
 21
184
  0
LINE
  5
168
330
A
100
AcDbEntity
  8
Layer 1
  6
CONTINUOUS
 62
1
100
AcDbLine
 39
0
 10
274
 20
184
 11
274
 21
206
  0
LINE
  5
169
330
A
100
AcDbEntity
  8
Layer 1
  6
CONTINUOUS
 62
1
100
AcDbLine
 39
0
 10
304
 20
206
 11
326
 21
206
  0
LINE
  5
16A
330
A
100
AcDbEntity
  8
Layer 1
  6
CONTINUOUS
 62
1
100
AcDbLine
 39
0
 10
326
 20
206
 11
326
 21
184
  0
LINE
  5
16B
330
A
100
AcDbEntity
  8
Layer 1
  6
CONTINUOUS
 62
1
100
AcDbLine
 39
0
 10
326
 20
184
 11
304
 21
184
  0
LINE
  5
16C
330
A
100
AcDbEntity
  8
Layer 1
  6
CONTINUOUS
 62
1
100
AcDbLine
 39
0
 10
304
 20
184
 11
304
 21
206
  0
LINE
  5
16D
330
A
100
AcDbEntity
  8
Layer 1
  6
CONTINUOUS
 62
1
100
AcDbLine
 39
0
 10
334
 20
206
 11
356
 21
206
  0
LINE
  5
16E
330
A
100
AcDbEntity
  8
Layer 1
  6
CONTINUOUS
 62
1
100
AcDbLine
 39
0
 10
356
 20
206
 11
356
 21
184
  0
LINE
  5
16F
330
A
100
AcDbEntity
  8
Layer 1
  6
CONTINUOUS
 62
1
100
AcDbLine
 39
0
 10
356
 20
184
 11
334
 21
184
  0
LINE
  5
170
330
A
100
AcDbEntity
  8
Layer 1
  6
CONTINUOUS
 62
1
100
AcDbLine
 39
0
 10
334
 20
184
 11
334
 21
206
  0
LINE
  5
171
330
A
100
AcDbEntity
  8
Layer 1
  6
CONTINUOUS
 62
1
100
AcDbLine
 39
0
 10
364
 20
206
 11
383
 21
206
  0
LINE
  5
172
330
A
100
AcDbEntity
  8
Layer 1
  6
CONTINUOUS
 62
1
100
AcDbLine
 39
0
 10
383
 20
206
 11
383
 21
184
  0
LINE
  5
173
330
A
100
AcDbEntity
  8
Layer 1
  6
CONTINUOUS
 62
1
100
AcDbLine
 39
0
 10
383
 20
184
 11
364
 21
184
  0
LINE
  5
174
330
A
100
AcDbEntity
  8
Layer 1
  6
CONTINUOUS
 62
1
100
AcDbLine
 39
0
 10
364
 20
184
 11
364
 21
206
  0
LINE
  5
175
330
A
100
AcDbEntity
  8
Layer 1
  6
CONTINUOUS
 62
1
100
AcDbLine
 39
0
 10
67
 20
176
 11
86
 21
176
  0
LINE
  5
176
330
A
100
AcDbEntity
  8
Layer 1
  6
CONTINUOUS
 62
1
100
AcDbLine
 39
0
 10
86
 20
176
 11
86
 21
154
  0
LINE
  5
177
330
A
100
AcDbEntity
  8
Layer 1
  6
CONTINUOUS
 62
1
100
AcDbLine
 39
0
 10
86
 20
154
 11
67
 21
154
  0
LINE
  5
178
330
A
100
AcDbEntity
  8
Layer 1
  6
CONTINUOUS
 62
1
100
AcDbLine
 39
0
 10
67
 20
154
 11
67
 21
176
  0
LINE
  5
179
330
A
100
AcDbEntity
  8
Layer 1
  6
CONTINUOUS
 62
1
100
AcDbLine
 39
0
 10
94
 20
176
 11
116
 21
176
  0
LINE
  5
17A
330
A
100
AcDbEntity
  8
Layer 1
  6
CONTINUOUS
 62
1
100
AcDbLine
 39
0
 10
116
 20
176
 11
116
 21
154
  0
LINE
  5
17B
330
A
100
AcDbEntity
  8
Layer 1
  6
CONTINUOUS
 62
1
100
AcDbLine
 39
0
 10
116
 20
154
 11
94
 21
154
  0
LINE
  5
17C
330
A
100
AcDbEntity
  8
Layer 1
  6
CONTINUOUS
 62
1
100
AcDbLine
 39
0
 10
94
 20
154
 11
94
 21
176
  0
LINE
  5
17D
330
A
100
AcDbEntity
  8
Layer 1
  6
CONTINUOUS
 62
1
100
AcDbLine
 39
0
 10
124
 20
176
 11
146
 21
176
  0
LINE
  5
17E
330
A
100
AcDbEntity
  8
Layer 1
  6
CONTINUOUS
 62
1
100
AcDbLine
 39
0
 10
146
 20
176
 11
146
 21
154
  0
LINE
  5
17F
330
A
100
AcDbEntity
  8
Layer 1
  6
CONTINUOUS
 62
1
100
AcDbLine
 39
0
 10
146
 20
154
 11
124
 21
154
  0
LINE
  5
180
330
A
100
AcDbEntity
  8
Layer 1
  6
CONTINUOUS
 62
1
100
AcDbLine
 39
0
 10
124
 20
154
 11
124
 21
176
  0
LINE
  5
181
330
A
100
AcDbEntity
  8
Layer 1
  6
CONTINUOUS
 62
1
100
AcDbLine
 39
0
 10
154
 20
176
 11
176
 21
176
  0
LINE
  5
182
330
A
100
AcDbEntity
  8
Layer 1
  6
CONTINUOUS
 62
1
100
AcDbLine
 39
0
 10
176
 20
176
 11
176
 21
154
  0
LINE
  5
183
330
A
100
AcDbEntity
  8
Layer 1
  6
CONTINUOUS
 62
1
100
AcDbLine
 39
0
 10
176
 20
154
 11
154
 21
154
  0
LINE
  5
184
330
A
100
AcDbEntity
  8
Layer 1
  6
CONTINUOUS
 62
1
100
AcDbLine
 39
0
 10
154
 20
154
 11
154
 21
176
  0
LINE
  5
185
330
A
100
AcDbEntity
  8
Layer 1
  6
CONTINUOUS
 62
1
100
AcDbLine
 39
0
 10
184
 20
176
 11
206
 21
176
  0
LINE
  5
186
330
A
100
AcDbEntity
  8
Layer 1
  6
CONTINUOUS
 62
1
100
AcDbLine
 39
0
 10
206
 20
176
 11
206
 21
154
  0
LINE
  5
187
330
A
100
AcDbEntity
  8
Layer 1
  6
CONTINUOUS
 62
1
100
AcDbLine
 39
0
 10
206
 20
154
 11
184
 21
154
  0
LINE
  5
188
330
A
100
AcDbEntity
  8
Layer 1
  6
CONTINUOUS
 62
1
100
AcDbLine
 39
0
 10
184
 20
154
 11
184
 21
176
  0
LINE
  5
189
330
A
100
AcDbEntity
  8
Layer 1
  6
CONTINUOUS
 62
1
100
AcDbLine
 39
0
 10
214
 20
176
 11
236
 21
176
  0
LINE
  5
18A
330
A
100
AcDbEntity
  8
Layer 1
  6
CONTINUOUS
 62
1
100
AcDbLine
 39
0
 10
236
 20
176
 11
236
 21
154
  0
LINE
  5
18B
330
A
100
AcDbEntity
  8
Layer 1
  6
CONTINUOUS
 62
1
100
AcDbLine
 39
0
 10
236
 20
154
 11
214
 21
154
  0
LINE
  5
18C
330
A
100
AcDbEntity
  8
Layer 1
  6
CONTINUOUS
 62
1
100
AcDbLine
 39
0
 10
214
 20
154
 11
214
 21
176
  0
LINE
  5
18D
330
A
100
AcDbEntity
  8
Layer 1
  6
CONTINUOUS
 62
1
100
AcDbLine
 39
0
 10
244
 20
176
 11
266
 21
176
  0
LINE
  5
18E
330
A
100
AcDbEntity
  8
Layer 1
  6
CONTINUOUS
 62
1
100
AcDbLine
 39
0
 10
266
 20
176
 11
266
 21
154
  0
LINE
  5
18F
330
A
100
AcDbEntity
  8
Layer 1
  6
CONTINUOUS
 62
1
100
AcDbLine
 39
0
 10
266
 20
154
 11
244
 21
154
  0
LINE
  5
190
330
A
100
AcDbEntity
  8
Layer 1
  6
CONTINUOUS
 62
1
100
AcDbLine
 39
0
 10
244
 20
154
 11
244
 21
176
  0
LINE
  5
191
330
A
100
AcDbEntity
  8
Layer 1
  6
CONTINUOUS
 62
1
100
AcDbLine
 39
0
 10
274
 20
176
 11
296
 21
176
  0
LINE
  5
192
330
A
100
AcDbEntity
  8
Layer 1
  6
CONTINUOUS
 62
1
100
AcDbLine
 39
0
 10
296
 20
176
 11
296
 21
154
  0
LINE
  5
193
330
A
100
AcDbEntity
  8
Layer 1
  6
CONTINUOUS
 62
1
100
AcDbLine
 39
0
 10
296
 20
154
 11
274
 21
154
  0
LINE
  5
194
330
A
100
AcDbEntity
  8
Layer 1
  6
CONTINUOUS
 62
1
100
AcDbLine
 39
0
 10
274
 20
154
 11
274
 21
176
  0
LINE
  5
195
330
A
100
AcDbEntity
  8
Layer 1
  6
CONTINUOUS
 62
1
100
AcDbLine
 39
0
 10
304
 20
176
 11
326
 21
176
  0
LINE
  5
196
330
A
100
AcDbEntity
  8
Layer 1
  6
CONTINUOUS
 62
1
100
AcDbLine
 39
0
 10
326
 20
176
 11
326
 21
154
  0
LINE
  5
197
330
A
100
AcDbEntity
  8
Layer 1
  6
CONTINUOUS
 62
1
100
AcDbLine
 39
0
 10
326
 20
154
 11
304
 21
154
  0
LINE
  5
198
330
A
100
AcDbEntity
  8
Layer 1
  6
CONTINUOUS
 62
1
100
AcDbLine
 39
0
 10
304
 20
154
 11
304
 21
176
  0
LINE
  5
199
330
A
100
AcDbEntity
  8
Layer 1
  6
CONTINUOUS
 62
1
100
AcDbLine
 39
0
 10
334
 20
176
 11
356
 21
176
  0
LINE
  5
19A
330
A
100
AcDbEntity
  8
Layer 1
  6
CONTINUOUS
 62
1
100
AcDbLine
 39
0
 10
356
 20
176
 11
356
 21
154
  0
LINE
  5
19B
330
A
100
AcDbEntity
  8
Layer 1
  6
CONTINUOUS
 62
1
100
AcDbLine
 39
0
 10
356
 20
154
 11
334
 21
154
  0
LINE
  5
19C
330
A
100
AcDbEntity
  8
Layer 1
  6
CONTINUOUS
 62
1
100
AcDbLine
 39
0
 10
334
 20
154
 11
334
 21
176
  0
LINE
  5
19D
330
A
100
AcDbEntity
  8
Layer 1
  6
CONTINUOUS
 62
1
100
AcDbLine
 39
0
 10
364
 20
176
 11
383
 21
176
  0
LINE
  5
19E
330
A
100
AcDbEntity
  8
Layer 1
  6
CONTINUOUS
 62
1
100
AcDbLine
 39
0
 10
383
 20
176
 11
383
 21
154
  0
LINE
  5
19F
330
A
100
AcDbEntity
  8
Layer 1
  6
CONTINUOUS
 62
1
100
AcDbLine
 39
0
 10
383
 20
154
 11
364
 21
154
  0
LINE
  5
1A0
330
A
100
AcDbEntity
  8
Layer 1
  6
CONTINUOUS
 62
1
100
AcDbLine
 39
0
 10
364
 20
154
 11
364
 21
176
  0
LINE
  5
1A1
330
A
100
AcDbEntity
  8
Layer 1
  6
CONTINUOUS
 62
1
100
AcDbLine
 39
0
 10
67
 20
146
 11
86
 21
146
  0
LINE
  5
1A2
330
A
100
AcDbEntity
  8
Layer 1
  6
CONTINUOUS
 62
1
100
AcDbLine
 39
0
 10
86
 20
146
 11
86
 21
124
  0
LINE
  5
1A3
330
A
100
AcDbEntity
  8
Layer 1
  6
CONTINUOUS
 62
1
100
AcDbLine
 39
0
 10
86
 20
124
 11
67
 21
124
  0
LINE
  5
1A4
330
A
100
AcDbEntity
  8
Layer 1
  6
CONTINUOUS
 62
1
100
AcDbLine
 39
0
 10
67
 20
124
 11
67
 21
146
  0
LINE
  5
1A5
330
A
100
AcDbEntity
  8
Layer 1
  6
CONTINUOUS
 62
1
100
AcDbLine
 39
0
 10
94
 20
146
 11
116
 21
146
  0
LINE
  5
1A6
330
A
100
AcDbEntity
  8
Layer 1
  6
CONTINUOUS
 62
1
100
AcDbLine
 39
0
 10
116
 20
146
 11
116
 21
124
  0
LINE
  5
1A7
330
A
100
AcDbEntity
  8
Layer 1
  6
CONTINUOUS
 62
1
100
AcDbLine
 39
0
 10
116
 20
124
 11
94
 21
124
  0
LINE
  5
1A8
330
A
100
AcDbEntity
  8
Layer 1
  6
CONTINUOUS
 62
1
100
AcDbLine
 39
0
 10
94
 20
124
 11
94
 21
146
  0
LINE
  5
1A9
330
A
100
AcDbEntity
  8
Layer 1
  6
CONTINUOUS
 62
1
100
AcDbLine
 39
0
 10
124
 20
146
 11
146
 21
146
  0
LINE
  5
1AA
330
A
100
AcDbEntity
  8
Layer 1
  6
CONTINUOUS
 62
1
100
AcDbLine
 39
0
 10
146
 20
146
 11
146
 21
124
  0
LINE
  5
1AB
330
A
100
AcDbEntity
  8
Layer 1
  6
CONTINUOUS
 62
1
100
AcDbLine
 39
0
 10
146
 20
124
 11
124
 21
124
  0
LINE
  5
1AC
330
A
100
AcDbEntity
  8
Layer 1
  6
CONTINUOUS
 62
1
100
AcDbLine
 39
0
 10
124
 20
124
 11
124
 21
146
  0
LINE
  5
1AD
330
A
100
AcDbEntity
  8
Layer 1
  6
CONTINUOUS
 62
1
100
AcDbLine
 39
0
 10
154
 20
146
 11
176
 21
146
  0
LINE
  5
1AE
330
A
100
AcDbEntity
  8
Layer 1
  6
CONTINUOUS
 62
1
100
AcDbLine
 39
0
 10
176
 20
146
 11
176
 21
124
  0
LINE
  5
1AF
330
A
100
AcDbEntity
  8
Layer 1
  6
CONTINUOUS
 62
1
100
AcDbLine
 39
0
 10
176
 20
124
 11
154
 21
124
  0
LINE
  5
1B0
330
A
100
AcDbEntity
  8
Layer 1
  6
CONTINUOUS
 62
1
100
AcDbLine
 39
0
 10
154
 20
124
 11
154
 21
146
  0
LINE
  5
1B1
330
A
100
AcDbEntity
  8
Layer 1
  6
CONTINUOUS
 62
1
100
AcDbLine
 39
0
 10
184
 20
146
 11
206
 21
146
  0
LINE
  5
1B2
330
A
100
AcDbEntity
  8
Layer 1
  6
CONTINUOUS
 62
1
100
AcDbLine
 39
0
 10
206
 20
146
 11
206
 21
124
  0
LINE
  5
1B3
330
A
100
AcDbEntity
  8
Layer 1
  6
CONTINUOUS
 62
1
100
AcDbLine
 39
0
 10
206
 20
124
 11
184
 21
124
  0
LINE
  5
1B4
330
A
100
AcDbEntity
  8
Layer 1
  6
CONTINUOUS
 62
1
100
AcDbLine
 39
0
 10
184
 20
124
 11
184
 21
146
  0
LINE
  5
1B5
330
A
100
AcDbEntity
  8
Layer 1
  6
CONTINUOUS
 62
1
100
AcDbLine
 39
0
 10
214
 20
146
 11
236
 21
146
  0
LINE
  5
1B6
330
A
100
AcDbEntity
  8
Layer 1
  6
CONTINUOUS
 62
1
100
AcDbLine
 39
0
 10
236
 20
146
 11
236
 21
124
  0
LINE
  5
1B7
330
A
100
AcDbEntity
  8
Layer 1
  6
CONTINUOUS
 62
1
100
AcDbLine
 39
0
 10
236
 20
124
 11
214
 21
124
  0
LINE
  5
1B8
330
A
100
AcDbEntity
  8
Layer 1
  6
CONTINUOUS
 62
1
100
AcDbLine
 39
0
 10
214
 20
124
 11
214
 21
146
  0
LINE
  5
1B9
330
A
100
AcDbEntity
  8
Layer 1
  6
CONTINUOUS
 62
1
100
AcDbLine
 39
0
 10
244
 20
146
 11
266
 21
146
  0
LINE
  5
1BA
330
A
100
AcDbEntity
  8
Layer 1
  6
CONTINUOUS
 62
1
100
AcDbLine
 39
0
 10
266
 20
146
 11
266
 21
124
  0
LINE
  5
1BB
330
A
100
AcDbEntity
  8
Layer 1
  6
CONTINUOUS
 62
1
100
AcDbLine
 39
0
 10
266
 20
124
 11
244
 21
124
  0
LINE
  5
1BC
330
A
100
AcDbEntity
  8
Layer 1
  6
CONTINUOUS
 62
1
100
AcDbLine
 39
0
 10
244
 20
124
 11
244
 21
146
  0
LINE
  5
1BD
330
A
100
AcDbEntity
  8
Layer 1
  6
CONTINUOUS
 62
1
100
AcDbLine
 39
0
 10
274
 20
146
 11
296
 21
146
  0
LINE
  5
1BE
330
A
100
AcDbEntity
  8
Layer 1
  6
CONTINUOUS
 62
1
100
AcDbLine
 39
0
 10
296
 20
146
 11
296
 21
124
  0
LINE
  5
1BF
330
A
100
AcDbEntity
  8
Layer 1
  6
CONTINUOUS
 62
1
100
AcDbLine
 39
0
 10
296
 20
124
 11
274
 21
124
  0
LINE
  5
1C0
330
A
100
AcDbEntity
  8
Layer 1
  6
CONTINUOUS
 62
1
100
AcDbLine
 39
0
 10
274
 20
124
 11
274
 21
146
  0
LINE
  5
1C1
330
A
100
AcDbEntity
  8
Layer 1
  6
CONTINUOUS
 62
1
100
AcDbLine
 39
0
 10
304
 20
146
 11
326
 21
146
  0
LINE
  5
1C2
330
A
100
AcDbEntity
  8
Layer 1
  6
CONTINUOUS
 62
1
100
AcDbLine
 39
0
 10
326
 20
146
 11
326
 21
124
  0
LINE
  5
1C3
330
A
100
AcDbEntity
  8
Layer 1
  6
CONTINUOUS
 62
1
100
AcDbLine
 39
0
 10
326
 20
124
 11
304
 21
124
  0
LINE
  5
1C4
330
A
100
AcDbEntity
  8
Layer 1
  6
CONTINUOUS
 62
1
100
AcDbLine
 39
0
 10
304
 20
124
 11
304
 21
146
  0
LINE
  5
1C5
330
A
100
AcDbEntity
  8
Layer 1
  6
CONTINUOUS
 62
1
100
AcDbLine
 39
0
 10
334
 20
146
 11
356
 21
146
  0
LINE
  5
1C6
330
A
100
AcDbEntity
  8
Layer 1
  6
CONTINUOUS
 62
1
100
AcDbLine
 39
0
 10
356
 20
146
 11
356
 21
124
  0
LINE
  5
1C7
330
A
100
AcDbEntity
  8
Layer 1
  6
CONTINUOUS
 62
1
100
AcDbLine
 39
0
 10
356
 20
124
 11
334
 21
124
  0
LINE
  5
1C8
330
A
100
AcDbEntity
  8
Layer 1
  6
CONTINUOUS
 62
1
100
AcDbLine
 39
0
 10
334
 20
124
 11
334
 21
146
  0
LINE
  5
1C9
330
A
100
AcDbEntity
  8
Layer 1
  6
CONTINUOUS
 62
1
100
AcDbLine
 39
0
 10
364
 20
146
 11
383
 21
146
  0
LINE
  5
1CA
330
A
100
AcDbEntity
  8
Layer 1
  6
CONTINUOUS
 62
1
100
AcDbLine
 39
0
 10
383
 20
146
 11
383
 21
124
  0
LINE
  5
1CB
330
A
100
AcDbEntity
  8
Layer 1
  6
CONTINUOUS
 62
1
100
AcDbLine
 39
0
 10
383
 20
124
 11
364
 21
124
  0
LINE
  5
1CC
330
A
100
AcDbEntity
  8
Layer 1
  6
CONTINUOUS
 62
1
100
AcDbLine
 39
0
 10
364
 20
124
 11
364
 21
146
  0
LINE
  5
1CD
330
A
100
AcDbEntity
  8
Layer 1
  6
CONTINUOUS
 62
1
100
AcDbLine
 39
0
 10
67
 20
116
 11
86
 21
116
  0
LINE
  5
1CE
330
A
100
AcDbEntity
  8
Layer 1
  6
CONTINUOUS
 62
1
100
AcDbLine
 39
0
 10
86
 20
116
 11
86
 21
94
  0
LINE
  5
1CF
330
A
100
AcDbEntity
  8
Layer 1
  6
CONTINUOUS
 62
1
100
AcDbLine
 39
0
 10
86
 20
94
 11
67
 21
94
  0
LINE
  5
1D0
330
A
100
AcDbEntity
  8
Layer 1
  6
CONTINUOUS
 62
1
100
AcDbLine
 39
0
 10
67
 20
94
 11
67
 21
116
  0
LINE
  5
1D1
330
A
100
AcDbEntity
  8
Layer 1
  6
CONTINUOUS
 62
1
100
AcDbLine
 39
0
 10
94
 20
116
 11
116
 21
116
  0
LINE
  5
1D2
330
A
100
AcDbEntity
  8
Layer 1
  6
CONTINUOUS
 62
1
100
AcDbLine
 39
0
 10
116
 20
116
 11
116
 21
94
  0
LINE
  5
1D3
330
A
100
AcDbEntity
  8
Layer 1
  6
CONTINUOUS
 62
1
100
AcDbLine
 39
0
 10
116
 20
94
 11
94
 21
94
  0
LINE
  5
1D4
330
A
100
AcDbEntity
  8
Layer 1
  6
CONTINUOUS
 62
1
100
AcDbLine
 39
0
 10
94
 20
94
 11
94
 21
116
  0
LINE
  5
1D5
330
A
100
AcDbEntity
  8
Layer 1
  6
CONTINUOUS
 62
1
100
AcDbLine
 39
0
 10
124
 20
116
 11
146
 21
116
  0
LINE
  5
1D6
330
A
100
AcDbEntity
  8
Layer 1
  6
CONTINUOUS
 62
1
100
AcDbLine
 39
0
 10
146
 20
116
 11
146
 21
94
  0
LINE
  5
1D7
330
A
100
AcDbEntity
  8
Layer 1
  6
CONTINUOUS
 62
1
100
AcDbLine
 39
0
 10
146
 20
94
 11
124
 21
94
  0
LINE
  5
1D8
330
A
100
AcDbEntity
  8
Layer 1
  6
CONTINUOUS
 62
1
100
AcDbLine
 39
0
 10
124
 20
94
 11
124
 21
116
  0
LINE
  5
1D9
330
A
100
AcDbEntity
  8
Layer 1
  6
CONTINUOUS
 62
1
100
AcDbLine
 39
0
 10
154
 20
116
 11
176
 21
116
  0
LINE
  5
1DA
330
A
100
AcDbEntity
  8
Layer 1
  6
CONTINUOUS
 62
1
100
AcDbLine
 39
0
 10
176
 20
116
 11
176
 21
94
  0
LINE
  5
1DB
330
A
100
AcDbEntity
  8
Layer 1
  6
CONTINUOUS
 62
1
100
AcDbLine
 39
0
 10
176
 20
94
 11
154
 21
94
  0
LINE
  5
1DC
330
A
100
AcDbEntity
  8
Layer 1
  6
CONTINUOUS
 62
1
100
AcDbLine
 39
0
 10
154
 20
94
 11
154
 21
116
  0
LINE
  5
1DD
330
A
100
AcDbEntity
  8
Layer 1
  6
CONTINUOUS
 62
1
100
AcDbLine
 39
0
 10
184
 20
116
 11
206
 21
116
  0
LINE
  5
1DE
330
A
100
AcDbEntity
  8
Layer 1
  6
CONTINUOUS
 62
1
100
AcDbLine
 39
0
 10
206
 20
116
 11
206
 21
94
  0
LINE
  5
1DF
330
A
100
AcDbEntity
  8
Layer 1
  6
CONTINUOUS
 62
1
100
AcDbLine
 39
0
 10
206
 20
94
 11
184
 21
94
  0
LINE
  5
1E0
330
A
100
AcDbEntity
  8
Layer 1
  6
CONTINUOUS
 62
1
100
AcDbLine
 39
0
 10
184
 20
94
 11
184
 21
116
  0
LINE
  5
1E1
330
A
100
AcDbEntity
  8
Layer 1
  6
CONTINUOUS
 62
1
100
AcDbLine
 39
0
 10
214
 20
116
 11
236
 21
116
  0
LINE
  5
1E2
330
A
100
AcDbEntity
  8
Layer 1
  6
CONTINUOUS
 62
1
100
AcDbLine
 39
0
 10
236
 20
116
 11
236
 21
94
  0
LINE
  5
1E3
330
A
100
AcDbEntity
  8
Layer 1
  6
CONTINUOUS
 62
1
100
AcDbLine
 39
0
 10
236
 20
94
 11
214
 21
94
  0
LINE
  5
1E4
330
A
100
AcDbEntity
  8
Layer 1
  6
CONTINUOUS
 62
1
100
AcDbLine
 39
0
 10
214
 20
94
 11
214
 21
116
  0
LINE
  5
1E5
330
A
100
AcDbEntity
  8
Layer 1
  6
CONTINUOUS
 62
1
100
AcDbLine
 39
0
 10
244
 20
116
 11
266
 21
116
  0
LINE
  5
1E6
330
A
100
AcDbEntity
  8
Layer 1
  6
CONTINUOUS
 62
1
100
AcDbLine
 39
0
 10
266
 20
116
 11
266
 21
94
  0
LINE
  5
1E7
330
A
100
AcDbEntity
  8
Layer 1
  6
CONTINUOUS
 62
1
100
AcDbLine
 39
0
 10
266
 20
94
 11
244
 21
94
  0
LINE
  5
1E8
330
A
100
AcDbEntity
  8
Layer 1
  6
CONTINUOUS
 62
1
100
AcDbLine
 39
0
 10
244
 20
94
 11
244
 21
116
  0
LINE
  5
1E9
330
A
100
AcDbEntity
  8
Layer 1
  6
CONTINUOUS
 62
1
100
AcDbLine
 39
0
 10
274
 20
116
 11
296
 21
116
  0
LINE
  5
1EA
330
A
100
AcDbEntity
  8
Layer 1
  6
CONTINUOUS
 62
1
100
AcDbLine
 39
0
 10
296
 20
116
 11
296
 21
94
  0
LINE
  5
1EB
330
A
100
AcDbEntity
  8
Layer 1
  6
CONTINUOUS
 62
1
100
AcDbLine
 39
0
 10
296
 20
94
 11
274
 21
94
  0
LINE
  5
1EC
330
A
100
AcDbEntity
  8
Layer 1
  6
CONTINUOUS
 62
1
100
AcDbLine
 39
0
 10
274
 20
94
 11
274
 21
116
  0
LINE
  5
1ED
330
A
100
AcDbEntity
  8
Layer 1
  6
CONTINUOUS
 62
1
100
AcDbLine
 39
0
 10
304
 20
116
 11
326
 21
116
  0
LINE
  5
1EE
330
A
100
AcDbEntity
  8
Layer 1
  6
CONTINUOUS
 62
1
100
AcDbLine
 39
0
 10
326
 20
116
 11
326
 21
94
  0
LINE
  5
1EF
330
A
100
AcDbEntity
  8
Layer 1
  6
CONTINUOUS
 62
1
100
AcDbLine
 39
0
 10
326
 20
94
 11
304
 21
94
  0
LINE
  5
1F0
330
A
100
AcDbEntity
  8
Layer 1
  6
CONTINUOUS
 62
1
100
AcDbLine
 39
0
 10
304
 20
94
 11
304
 21
116
  0
LINE
  5
1F1
330
A
100
AcDbEntity
  8
Layer 1
  6
CONTINUOUS
 62
1
100
AcDbLine
 39
0
 10
334
 20
116
 11
356
 21
116
  0
LINE
  5
1F2
330
A
100
AcDbEntity
  8
Layer 1
  6
CONTINUOUS
 62
1
100
AcDbLine
 39
0
 10
356
 20
116
 11
356
 21
94
  0
LINE
  5
1F3
330
A
100
AcDbEntity
  8
Layer 1
  6
CONTINUOUS
 62
1
100
AcDbLine
 39
0
 10
356
 20
94
 11
334
 21
94
  0
LINE
  5
1F4
330
A
100
AcDbEntity
  8
Layer 1
  6
CONTINUOUS
 62
1
100
AcDbLine
 39
0
 10
334
 20
94
 11
334
 21
116
  0
LINE
  5
1F5
330
A
100
AcDbEntity
  8
Layer 1
  6
CONTINUOUS
 62
1
100
AcDbLine
 39
0
 10
364
 20
116
 11
383
 21
116
  0
LINE
  5
1F6
330
A
100
AcDbEntity
  8
Layer 1
  6
CONTINUOUS
 62
1
100
AcDbLine
 39
0
 10
383
 20
116
 11
383
 21
94
  0
LINE
  5
1F7
330
A
100
AcDbEntity
  8
Layer 1
  6
CONTINUOUS
 62
1
100
AcDbLine
 39
0
 10
383
 20
94
 11
364
 21
94
  0
LINE
  5
1F8
330
A
100
AcDbEntity
  8
Layer 1
  6
CONTINUOUS
 62
1
100
AcDbLine
 39
0
 10
364
 20
94
 11
364
 21
116
  0
LINE
  5
1F9
330
A
100
AcDbEntity
  8
Layer 1
  6
CONTINUOUS
 62
1
100
AcDbLine
 39
0
 10
67
 20
86
 11
86
 21
86
  0
LINE
  5
1FA
330
A
100
AcDbEntity
  8
Layer 1
  6
CONTINUOUS
 62
1
100
AcDbLine
 39
0
 10
86
 20
86
 11
86
 21
64
  0
LINE
  5
1FB
330
A
100
AcDbEntity
  8
Layer 1
  6
CONTINUOUS
 62
1
100
AcDbLine
 39
0
 10
86
 20
64
 11
67
 21
64
  0
LINE
  5
1FC
330
A
100
AcDbEntity
  8
Layer 1
  6
CONTINUOUS
 62
1
100
AcDbLine
 39
0
 10
67
 20
64
 11
67
 21
86
  0
LINE
  5
1FD
330
A
100
AcDbEntity
  8
Layer 1
  6
CONTINUOUS
 62
1
100
AcDbLine
 39
0
 10
94
 20
86
 11
116
 21
86
  0
LINE
  5
1FE
330
A
100
AcDbEntity
  8
Layer 1
  6
CONTINUOUS
 62
1
100
AcDbLine
 39
0
 10
116
 20
86
 11
116
 21
64
  0
LINE
  5
1FF
330
A
100
AcDbEntity
  8
Layer 1
  6
CONTINUOUS
 62
1
100
AcDbLine
 39
0
 10
116
 20
64
 11
94
 21
64
  0
LINE
  5
200
330
A
100
AcDbEntity
  8
Layer 1
  6
CONTINUOUS
 62
1
100
AcDbLine
 39
0
 10
94
 20
64
 11
94
 21
86
  0
LINE
  5
201
330
A
100
AcDbEntity
  8
Layer 1
  6
CONTINUOUS
 62
1
100
AcDbLine
 39
0
 10
124
 20
86
 11
146
 21
86
  0
LINE
  5
202
330
A
100
AcDbEntity
  8
Layer 1
  6
CONTINUOUS
 62
1
100
AcDbLine
 39
0
 10
146
 20
86
 11
146
 21
64
  0
LINE
  5
203
330
A
100
AcDbEntity
  8
Layer 1
  6
CONTINUOUS
 62
1
100
AcDbLine
 39
0
 10
146
 20
64
 11
124
 21
64
  0
LINE
  5
204
330
A
100
AcDbEntity
  8
Layer 1
  6
CONTINUOUS
 62
1
100
AcDbLine
 39
0
 10
124
 20
64
 11
124
 21
86
  0
LINE
  5
205
330
A
100
AcDbEntity
  8
Layer 1
  6
CONTINUOUS
 62
1
100
AcDbLine
 39
0
 10
154
 20
86
 11
176
 21
86
  0
LINE
  5
206
330
A
100
AcDbEntity
  8
Layer 1
  6
CONTINUOUS
 62
1
100
AcDbLine
 39
0
 10
176
 20
86
 11
176
 21
64
  0
LINE
  5
207
330
A
100
AcDbEntity
  8
Layer 1
  6
CONTINUOUS
 62
1
100
AcDbLine
 39
0
 10
176
 20
64
 11
154
 21
64
  0
LINE
  5
208
330
A
100
AcDbEntity
  8
Layer 1
  6
CONTINUOUS
 62
1
100
AcDbLine
 39
0
 10
154
 20
64
 11
154
 21
86
  0
LINE
  5
209
330
A
100
AcDbEntity
  8
Layer 1
  6
CONTINUOUS
 62
1
100
AcDbLine
 39
0
 10
184
 20
86
 11
206
 21
86
  0
LINE
  5
20A
330
A
100
AcDbEntity
  8
Layer 1
  6
CONTINUOUS
 62
1
100
AcDbLine
 39
0
 10
206
 20
86
 11
206
 21
64
  0
LINE
  5
20B
330
A
100
AcDbEntity
  8
Layer 1
  6
CONTINUOUS
 62
1
100
AcDbLine
 39
0
 10
206
 20
64
 11
184
 21
64
  0
LINE
  5
20C
330
A
100
AcDbEntity
  8
Layer 1
  6
CONTINUOUS
 62
1
100
AcDbLine
 39
0
 10
184
 20
64
 11
184
 21
86
  0
LINE
  5
20D
330
A
100
AcDbEntity
  8
Layer 1
  6
CONTINUOUS
 62
1
100
AcDbLine
 39
0
 10
214
 20
86
 11
236
 21
86
  0
LINE
  5
20E
330
A
100
AcDbEntity
  8
Layer 1
  6
CONTINUOUS
 62
1
100
AcDbLine
 39
0
 10
236
 20
86
 11
236
 21
64
  0
LINE
  5
20F
330
A
100
AcDbEntity
  8
Layer 1
  6
CONTINUOUS
 62
1
100
AcDbLine
 39
0
 10
236
 20
64
 11
214
 21
64
  0
LINE
  5
210
330
A
100
AcDbEntity
  8
Layer 1
  6
CONTINUOUS
 62
1
100
AcDbLine
 39
0
 10
214
 20
64
 11
214
 21
86
  0
LINE
  5
211
330
A
100
AcDbEntity
  8
Layer 1
  6
CONTINUOUS
 62
1
100
AcDbLine
 39
0
 10
244
 20
86
 11
266
 21
86
  0
LINE
  5
212
330
A
100
AcDbEntity
  8
Layer 1
  6
CONTINUOUS
 62
1
100
AcDbLine
 39
0
 10
266
 20
86
 11
266
 21
64
  0
LINE
  5
213
330
A
100
AcDbEntity
  8
Layer 1
  6
CONTINUOUS
 62
1
100
AcDbLine
 39
0
 10
266
 20
64
 11
244
 21
64
  0
LINE
  5
214
330
A
100
AcDbEntity
  8
Layer 1
  6
CONTINUOUS
 62
1
100
AcDbLine
 39
0
 10
244
 20
64
 11
244
 21
86
  0
LINE
  5
215
330
A
100
AcDbEntity
  8
Layer 1
  6
CONTINUOUS
 62
1
100
AcDbLine
 39
0
 10
274
 20
86
 11
296
 21
86
  0
LINE
  5
216
330
A
100
AcDbEntity
  8
Layer 1
  6
CONTINUOUS
 62
1
100
AcDbLine
 39
0
 10
296
 20
86
 11
296
 21
64
  0
LINE
  5
217
330
A
100
AcDbEntity
  8
Layer 1
  6
CONTINUOUS
 62
1
100
AcDbLine
 39
0
 10
296
 20
64
 11
274
 21
64
  0
LINE
  5
218
330
A
100
AcDbEntity
  8
Layer 1
  6
CONTINUOUS
 62
1
100
AcDbLine
 39
0
 10
274
 20
64
 11
274
 21
86
  0
LINE
  5
219
330
A
100
AcDbEntity
  8
Layer 1
  6
CONTINUOUS
 62
1
100
AcDbLine
 39
0
 10
304
 20
86
 11
326
 21
86
  0
LINE
  5
21A
330
A
100
AcDbEntity
  8
Layer 1
  6
CONTINUOUS
 62
1
100
AcDbLine
 39
0
 10
326
 20
86
 11
326
 21
64
  0
LINE
  5
21B
330
A
100
AcDbEntity
  8
Layer 1
  6
CONTINUOUS
 62
1
100
AcDbLine
 39
0
 10
326
 20
64
 11
304
 21
64
  0
LINE
  5
21C
330
A
100
AcDbEntity
  8
Layer 1
  6
CONTINUOUS
 62
1
100
AcDbLine
 39
0
 10
304
 20
64
 11
304
 21
86
  0
LINE
  5
21D
330
A
100
AcDbEntity
  8
Layer 1
  6
CONTINUOUS
 62
1
100
AcDbLine
 39
0
 10
334
 20
86
 11
356
 21
86
  0
LINE
  5
21E
330
A
100
AcDbEntity
  8
Layer 1
  6
CONTINUOUS
 62
1
100
AcDbLine
 39
0
 10
356
 20
86
 11
356
 21
64
  0
LINE
  5
21F
330
A
100
AcDbEntity
  8
Layer 1
  6
CONTINUOUS
 62
1
100
AcDbLine
 39
0
 10
356
 20
64
 11
334
 21
64
  0
LINE
  5
220
330
A
100
AcDbEntity
  8
Layer 1
  6
CONTINUOUS
 62
1
100
AcDbLine
 39
0
 10
334
 20
64
 11
334
 21
86
  0
LINE
  5
221
330
A
100
AcDbEntity
  8
Layer 1
  6
CONTINUOUS
 62
1
100
AcDbLine
 39
0
 10
364
 20
86
 11
383
 21
86
  0
LINE
  5
222
330
A
100
AcDbEntity
  8
Layer 1
  6
CONTINUOUS
 62
1
100
AcDbLine
 39
0
 10
383
 20
86
 11
383
 21
64
  0
LINE
  5
223
330
A
100
AcDbEntity
  8
Layer 1
  6
CONTINUOUS
 62
1
100
AcDbLine
 39
0
 10
383
 20
64
 11
364
 21
64
  0
LINE
  5
224
330
A
100
AcDbEntity
  8
Layer 1
  6
CONTINUOUS
 62
1
100
AcDbLine
 39
0
 10
364
 20
64
 11
364
 21
86
  0
LINE
  5
225
330
A
100
AcDbEntity
  8
Layer 1
  6
CONTINUOUS
 62
1
100
AcDbLine
 39
0
 10
214
 20
51
 11
236
 21
51
  0
LINE
  5
226
330
A
100
AcDbEntity
  8
Layer 1
  6
CONTINUOUS
 62
1
100
AcDbLine
 39
0
 10
236
 20
51
 11
236
 21
32
  0
LINE
  5
227
330
A
100
AcDbEntity
  8
Layer 1
  6
CONTINUOUS
 62
1
100
AcDbLine
 39
0
 10
236
 20
32
 11
214
 21
32
  0
LINE
  5
228
330
A
100
AcDbEntity
  8
Layer 1
  6
CONTINUOUS
 62
1
100
AcDbLine
 39
0
 10
214
 20
32
 11
214
 21
51
  0
ENDSEC
  0
SECTION
  2
OBJECTS
  0
DICTIONARY
  5
C
330
0
100
AcDbDictionary
281
1
  3
ACAD_GROUP
350
D
  0
DICTIONARY
  5
D
330
C
100
AcDbDictionary
281
1
  0
ENDSEC
  0
EOF
