999
Created by TechSoft software: TechSoft Design Version 3.13
  0
SECTION
  2
HEADER
  9
$ACADVER
  1
AC1015
  9
$DWGCODEPAGE
  3
ANSI_1252
  9
$HANDSEED
  5
249F0
  9
$ANGBASE
 50
0
  9
$ANGDIR
 70
0
  9
$ATTMODE
 70
1
  9
$AUNITS
 70
0
  9
$AUPREC
 70
0
  9
$CECOLOR
 62
256
  9
$CELTSCALE
 40
1
  9
$CELTYPE
  6
BYLAYER
  9
$CELWEIGHT
370
-1
  9
$CHAMFERA
 40
10
  9
$CHAMFERB
 40
10
  9
$CLAYER
  8
Layer 1
  9
$CMLJUST
 70
0
  9
$CMLSCALE
 40
20
  9
$CMLSTYLE
  2
Standard
  9
$DIMSTYLE
  2
Standard
  9
$EXTMAX
 10
440
 20
10
 30
0
  9
$EXTMIN
 10
10
 20
440
 30
0
  9
$TEXTSTYLE
  7
Standard
  9
$TEXTSIZE
 40
20
  9
$LUNITS
 70
2
  9
$LUPREC
 70
4
  9
$MIRRTEXT
 70
0
  9
$EXTNAMES
290
1
  9
$INSBASE
 10
0
 20
0
 30
0
  9
$INSUNITS
 70
4
  9
$LTSCALE
 40
10
  9
$LWDISPLAY
290
0
  9
$PDMODE
 70
0
  9
$PDSIZE
 40
0
  9
$PLINEGEN
 70
1
  9
$PSLTSCALE
 70
1
  9
$TDCREATE
 40
2459187
  9
$TDUCREATE
 40
2459187
  9
$TDUPDATE
 40
2459187
  9
$TDUUPDATE
 40
2459187
  9
$TDINDWG
 40
0
  9
$UCSORG
 10
0
 20
0
 30
0
  9
$UCSXDIR
 10
1
 20
0
 30
0
  9
$UCSYDIR
 10
0
 20
1
 30
0
  9
$DIMADEC
 70
0
  9
$DIMALT
 70
0
  9
$DIMALTD
 70
2
  9
$DIMALTF
 40
25.4
  9
$DIMALTRND
 40
0
  9
$DIMALTTD
 70
2
  9
$DIMALTTZ
 70
0
  9
$DIMALTU
 70
2
  9
$DIMALTZ
 70
0
  9
$DIMAPOST
  1

  9
$DIMATFIT
 70
3
  9
$DIMAUNIT
 70
0
  9
$DIMASZ
 40
0.18
  9
$DIMAZIN
 70
0
  9
$DIMSAH
 70
0
  9
$DIMBLK
  1

  9
$DIMLDRBLK
  1

  9
$DIMCEN
 40
0.09
  9
$DIMCLRD
 70
0
  9
$DIMCLRE
 70
0
  9
$DIMCLRT
 70
0
  9
$DIMDEC
 70
4
  9
$DIMDLE
 40
0
  9
$DIMDLI
 40
0.38
  9
$DIMDSEP
 70
46
  9
$DIMEXE
 40
0.18
  9
$DIMEXO
 40
0.0625
  9
$DIMFXLON
 70
0
  9
$DIMFXL
 40
1
  9
$DIMGAP
 40
0.09
  9
$DIMJUST
 70
0
  9
$DIMLFAC
 40
1
  9
$DIMLUNIT
 70
2
  9
$DIMLWD
 70
-2
  9
$DIMLWE
 70
-2
  9
$DIMPOST
  1

  9
$DIMRND
 40
0
  9
$DIMSCALE
 40
1
  9
$DIMSD1
 70
0
  9
$DIMSD2
 70
0
  9
$DIMSE1
 70
0
  9
$DIMSE2
 70
0
  9
$DIMSOXD
 70
0
  9
$DIMTAD
 70
0
  9
$DIMTDEC
 70
4
  9
$DIMTFAC
 40
1
  9
$DIMTIH
 70
0
  9
$DIMTIX
 70
0
  9
$DIMTM
 40
0
  9
$DIMTMOVE
 70
0
  9
$DIMTOFL
 70
0
  9
$DIMTOH
 70
0
  9
$DIMTOL
 70
0
  9
$DIMLIM
 70
0
  9
$DIMTOLJ
 70
1
  9
$DIMTP
 40
0
  9
$DIMTXT
 40
0.18
  9
$DIMTXTDIRECTION
 70
0
  9
$DIMTZIN
 70
0
  9
$DIMZIN
 70
0
  9
$DIMFRAC
 70
0
  9
$DIMLTYPE
  6
ByBlock
  9
$DIMLTEX1
  6
ByBlock
  9
$DIMLTEX2
  6
ByBlock
  9
$REGENMODE
 70
1
  9
$FILLMODE
 70
1
  9
$QTEXTMODE
 70
0
  9
$DRAGMODE
 70
2
  9
$OSMODE
 70
511
  9
$TRACEWID
 40
1
  9
$DIMTSZ
 40
0
  9
$DIMASO
 70
1
  9
$DIMSHO
 70
1
  9
$DIMTVP
 40
0
  9
$DIMBLK1
  1

  9
$DIMBLK2
  1

  9
$SKETCHINC
 40
1
  9
$FILLETRAD
 40
10
  9
$MENU
  1
.
  9
$ELEVATION
 40
0
  9
$PELEVATION
 40
0
  9
$THICKNESS
 40
0
  9
$LIMCHECK
 70
0
  9
$SKPOLY
 70
0
  9
$TDUSRTIMER
 40
0
  9
$USRTIMER
 70
0
  9
$PLINEWID
 40
0
  9
$COORDS
 70
1
  9
$SPLFRAME
 70
0
  9
$SPLINETYPE
 70
6
  9
$SPLINESEGS
 70
8
  9
$ATTDIA
 70
0
  9
$ATTREQ
 70
1
  9
$HANDLING
 70
1
  9
$SURFTAB1
 70
6
  9
$SURFTAB2
 70
6
  9
$SURFTYPE
 70
6
  9
$SURFU
 70
6
  9
$SURFV
 70
6
  9
$UCSNAME
  2

  9
$PUCSNAME
  2

  9
$PUCSORG
 10
0
 20
0
 30
0
  9
$PUCSXDIR
 10
1
 20
0
 30
0
  9
$PUCSYDIR
 10
0
 20
1
 30
0
  9
$WORLDVIEW
 70
1
  9
$SHADEDGE
 70
3
  9
$SHADEDIF
 70
70
  9
$TILEMODE
 70
1
  9
$MAXACTVP
 70
64
  9
$PLIMCHECK
 70
0
  9
$PLIMMAX
 10
0
 20
0
  9
$PLIMMIN
 10
0
 20
0
  9
$UNITMODE
 70
0
  9
$VISRETAIN
 70
1
  9
$LIMMAX
 10
450
 20
450
  9
$LIMMIN
 10
0
 20
0
  9
$MEASUREMENT
 70
1
  9
$ORTHOMODE
 70
0
  9
$GRIDUNIT
 10
0
 20
0
  9
$SNAPUNIT
 10
0
 20
0
  0
ENDSEC
  0
SECTION
  2
CLASSES
  0
ENDSEC
  0
SECTION
  2
TABLES
  0
TABLE
  2
VPORT
  5
1
330
0
100
AcDbSymbolTable
 70
1
  0
VPORT
  5
E
330
3
100
AcDbSymbolTableRecord
100
AcDbViewportTableRecord
  2
*ACTIVE
 70
0
 10
0
 20
0
 11
1
 21
1
 12
209.475294
 22
86.002634
 13
0
 23
0
 14
10
 24
10
 15
10
 25
10
 16
0
 26
0
 36
1
 17
0
 27
0
 37
0
 40
319.744231
 41
2.129464
 42
50
 43
0
 44
0
 50
0
 51
0
 71
0
 72
100
 73
1
 74
3
 75
0
 76
0
 77
0
 78
0
281
0
 65
1
110
0
120
0
130
0
111
1
121
0
131
0
112
0
122
1
132
0
 79
0
146
0
348
10020
 60
7
 61
5
292
1
282
1
  0
ENDTAB
  0
TABLE
  2
LTYPE
  5
2
330
0
100
AcDbSymbolTable
 70
15
  0
LTYPE
  5
F
330
2
100
AcDbSymbolTableRecord
100
AcDbLinetypeTableRecord
  2
ByBlock
 70
0
  3

 72
65
 73
0
 40
0
  0
LTYPE
  5
10
330
2
100
AcDbSymbolTableRecord
100
AcDbLinetypeTableRecord
  2
ByLayer
 70
0
  3

 72
65
 73
0
 40
0
  0
LTYPE
  5
11
330
2
100
AcDbSymbolTableRecord
100
AcDbLinetypeTableRecord
  2
Continuous
 70
0
  3
Solid line
 72
65
 73
0
 40
0
  0
LTYPE
  5
12
330
2
100
AcDbSymbolTableRecord
100
AcDbLinetypeTableRecord
  2
DOT
 70
0
  3
............................................
 72
65
 73
2
 40
0.25
 49
0
 74
0
 49
-0.25
 74
0
  0
LTYPE
  5
13
330
2
100
AcDbSymbolTableRecord
100
AcDbLinetypeTableRecord
  2
HIDDEN
 70
0
  3
_ _ _ _ _ _ _ _ _ _ _ _ _ _ _ _ _ _ _ _ _ _ 
 72
65
 73
2
 40
0.375
 49
0.25
 74
0
 49
-0.125
 74
0
  0
LTYPE
  5
14
330
2
100
AcDbSymbolTableRecord
100
AcDbLinetypeTableRecord
  2
TSLONGDASH
 70
0
  3
__ __ __ __ __ __ __ __ __ __ __ __ __ __ _ 
 72
65
 73
2
 40
1.28
 49
1
 74
0
 49
-0.28
 74
0
  0
LTYPE
  5
15
330
2
100
AcDbSymbolTableRecord
100
AcDbLinetypeTableRecord
  2
TSDASHDOT
 70
0
  3
______ . ______ . ______ . ______ . ______ .
 72
65
 73
4
 40
1.28
 49
1
 74
0
 49
-0.14
 74
0
 49
0
 74
0
 49
-0.14
 74
0
  0
LTYPE
  5
16
330
2
100
AcDbSymbolTableRecord
100
AcDbLinetypeTableRecord
  2
TSCENTER
 70
0
  3
______ _ ______ _ ______ _ ______ _ ______ _
 72
65
 73
4
 40
2
 49
1.5
 74
0
 49
-0.18
 74
0
 49
0.14
 74
0
 49
-0.18
 74
0
  0
LTYPE
  5
17
330
2
100
AcDbSymbolTableRecord
100
AcDbLinetypeTableRecord
  2
TSPHANTOM
 70
0
  3
_____ _ _ _____ _ _ _____ _ _ _____ _ _ ____
 72
65
 73
6
 40
2.5
 49
1.63
 74
0
 49
-0.19
 74
0
 49
0.15
 74
0
 49
-0.19
 74
0
 49
0.15
 74
0
 49
-0.19
 74
0
  0
LTYPE
  5
18
330
2
100
AcDbSymbolTableRecord
100
AcDbLinetypeTableRecord
  2
DASHED
 70
0
  3
__ __ __ __ __ __ __ __ __ __ __ __ __ __ __
 72
65
 73
2
 40
0.75
 49
0.5
 74
0
 49
-0.25
 74
0
  0
LTYPE
  5
19
330
2
100
AcDbSymbolTableRecord
100
AcDbLinetypeTableRecord
  2
CENTER
 70
0
  3
____ _ ____ _ ____ _ ____ _ ____ _ ____ _ __
 72
65
 73
4
 40
2
 49
1.25
 74
0
 49
-0.25
 74
0
 49
0.25
 74
0
 49
-0.25
 74
0
  0
LTYPE
  5
1A
330
2
100
AcDbSymbolTableRecord
100
AcDbLinetypeTableRecord
  2
PHANTOM
 70
0
  3
_____ _ _ _____ _ _ _____ _ _ _____ _ _ ____
 72
65
 73
6
 40
2.5
 49
1.25
 74
0
 49
-0.25
 74
0
 49
0.25
 74
0
 49
-0.25
 74
0
 49
0.25
 74
0
 49
-0.25
 74
0
  0
LTYPE
  5
1B
330
2
100
AcDbSymbolTableRecord
100
AcDbLinetypeTableRecord
  2
DASHDOT
 70
0
  3
__ . __ . __ . __ . __ . __ . __ . __ . __ .
 72
65
 73
4
 40
1
 49
0.5
 74
0
 49
-0.25
 74
0
 49
0
 74
0
 49
-0.25
 74
0
  0
LTYPE
  5
1C
330
2
100
AcDbSymbolTableRecord
100
AcDbLinetypeTableRecord
  2
BORDER
 70
0
  3
__ __ . __ __ . __ __ . __ __ . __ __ . __ _
 72
65
 73
6
 40
1.75
 49
0.5
 74
0
 49
-0.25
 74
0
 49
0.5
 74
0
 49
-0.25
 74
0
 49
0
 74
0
 49
-0.25
 74
0
  0
LTYPE
  5
1D
330
2
100
AcDbSymbolTableRecord
100
AcDbLinetypeTableRecord
  2
DIVIDE
 70
0
  3
__ . . __ . . __ . . __ . . __ . . __ . . __
 72
65
 73
6
 40
1.25
 49
0.5
 74
0
 49
-0.25
 74
0
 49
0
 74
0
 49
-0.25
 74
0
 49
0
 74
0
 49
-0.25
 74
0
  0
ENDTAB
  0
TABLE
  2
LAYER
  5
3
330
0
100
AcDbSymbolTable
 70
4
  0
LAYER
  5
1E
330
3
100
AcDbSymbolTableRecord
100
AcDbLayerTableRecord
  2
0
 70
0
 62
7
  6
CONTINUOUS
370
-3
390
F
  0
LAYER
  5
1F
330
3
100
AcDbSymbolTableRecord
100
AcDbLayerTableRecord
  2
Layer 1
 70
0
 62
7
  6
CONTINUOUS
370
-3
390
F
  0
LAYER
  5
20
330
3
100
AcDbSymbolTableRecord
100
AcDbLayerTableRecord
  2
Layer 2
 70
0
 62
7
  6
CONTINUOUS
370
-3
390
F
  0
LAYER
  5
21
330
3
100
AcDbSymbolTableRecord
100
AcDbLayerTableRecord
  2
Layer 3
 70
0
 62
7
  6
CONTINUOUS
370
-3
390
F
  0
ENDTAB
  0
TABLE
  2
STYLE
  5
4
330
0
100
AcDbSymbolTable
 70
1
  0
STYLE
  5
22
330
3
100
AcDbSymbolTableRecord
100
AcDbTextStyleTableRecord
  2
Standard
 70
0
 40
0
 41
1
 50
0
 71
0
 42
0.2
  3
txt
  4

  0
ENDTAB
  0
TABLE
  2
VIEW
  5
5
330
0
100
AcDbSymbolTable
 70
0
  0
ENDTAB
  0
TABLE
  2
UCS
  5
6
330
0
100
AcDbSymbolTable
 70
0
  0
ENDTAB
  0
TABLE
  2
APPID
  5
7
330
0
100
AcDbSymbolTable
 70
1
  0
APPID
  5
23
330
7
100
AcDbSymbolTableRecord
100
AcDbRegAppTableRecord
  2
ACAD
 70
0
  0
ENDTAB
  0
TABLE
  2
DIMSTYLE
  5
8
330
0
100
AcDbSymbolTable
 70
1
100
AcDbDimStyleTable
  0
DIMSTYLE
105
24
330
8
100
AcDbSymbolTableRecord
100
AcDbDimStyleTableRecord
  2
Standard
 70
0
  3

  4

  5

  6

  7

 40
1
 41
0.18
 42
0.0625
 43
0.38
 44
0.18
 45
0
 46
0
 47
0
 48
0
140
0.18
141
0.09
142
0
143
25.4
144
1
145
0
146
1
147
0.09
 71
0
 72
0
 73
0
 74
1
 75
0
 76
0
 77
0
 78
0
170
0
171
2
172
0
173
0
174
0
175
0
176
0
177
0
178
0
271
4
272
4
273
2
274
2
275
0
276
0
277
2
278
46
279
0
280
0
281
0
282
0
283
1
284
0
285
0
286
0
288
0
289
3
340
Standard
341

371
-2
372
-2
  0
ENDTAB
  0
TABLE
  2
BLOCK_RECORD
  5
9
330
0
100
AcDbSymbolTable
 70
2
  0
BLOCK_RECORD
  5
A
330
9
100
AcDbSymbolTableRecord
100
AcDbBlockTableRecord
  2
*MODEL_SPACE
 70
0
280
1
281
0
  0
BLOCK_RECORD
  5
B
330
9
100
AcDbSymbolTableRecord
100
AcDbBlockTableRecord
  2
*PAPER_SPACE
 70
0
280
1
281
0
  0
ENDTAB
  0
ENDSEC
  0
SECTION
  2
BLOCKS
  0
BLOCK
  5
25
330
A
100
AcDbEntity
  8
0
100
AcDbBlockBegin
  2
*MODEL_SPACE
 70
0
 10
0
 20
0
 30
0
  3
*MODEL_SPACE
  1

  0
ENDBLK
  5
26
330
A
100
AcDbEntity
  8
0
100
AcDbBlockEnd
  0
BLOCK
  5
27
330
B
100
AcDbEntity
  8
0
100
AcDbBlockBegin
  2
*PAPER_SPACE
 70
0
 10
0
 20
0
 30
0
  3
*PAPER_SPACE
  1

  0
ENDBLK
  5
28
330
B
100
AcDbEntity
  8
0
100
AcDbBlockEnd
  0
ENDSEC
  0
SECTION
  2
ENTITIES
  0
LINE
  5
29
330
A
100
AcDbEntity
  8
Layer 1
  6
CONTINUOUS
 62
1
100
AcDbLine
 39
0
 10
10
 20
400
 11
10
 21
440
  0
LINE
  5
2A
330
A
100
AcDbEntity
  8
Layer 1
  6
CONTINUOUS
 62
1
100
AcDbLine
 39
0
 10
10
 20
440
 11
50
 21
440
  0
CIRCLE
  5
2B
330
A
100
AcDbEntity
  8
Layer 1
  6
CONTINUOUS
 62
1
100
AcDbCircle
 39
0
 10
25
 20
25
 40
2.5
  0
CIRCLE
  5
2C
330
A
100
AcDbEntity
  8
Layer 1
  6
CONTINUOUS
 62
1
100
AcDbCircle
 39
0
 10
425
 20
25
 40
2.5
  0
CIRCLE
  5
2D
330
A
100
AcDbEntity
  8
Layer 1
  6
CONTINUOUS
 62
1
100
AcDbCircle
 39
0
 10
425
 20
425
 40
2.5
  0
CIRCLE
  5
2E
330
A
100
AcDbEntity
  8
Layer 1
  6
CONTINUOUS
 62
1
100
AcDbCircle
 39
0
 10
25
 20
425
 40
2.5
  0
CIRCLE
  5
2F
330
A
100
AcDbEntity
  8
Layer 1
  6
CONTINUOUS
 62
1
100
AcDbCircle
 39
0
 10
75
 20
375
 40
2.5
  0
CIRCLE
  5
30
330
A
100
AcDbEntity
  8
Layer 1
  6
CONTINUOUS
 62
1
100
AcDbCircle
 39
0
 10
75
 20
345
 40
2.5
  0
CIRCLE
  5
31
330
A
100
AcDbEntity
  8
Layer 1
  6
CONTINUOUS
 62
1
100
AcDbCircle
 39
0
 10
75
 20
315
 40
2.5
  0
CIRCLE
  5
32
330
A
100
AcDbEntity
  8
Layer 1
  6
CONTINUOUS
 62
1
100
AcDbCircle
 39
0
 10
75
 20
285
 40
2.5
  0
CIRCLE
  5
33
330
A
100
AcDbEntity
  8
Layer 1
  6
CONTINUOUS
 62
1
100
AcDbCircle
 39
0
 10
75
 20
255
 40
2.5
  0
CIRCLE
  5
34
330
A
100
AcDbEntity
  8
Layer 1
  6
CONTINUOUS
 62
1
100
AcDbCircle
 39
0
 10
75
 20
225
 40
2.5
  0
CIRCLE
  5
35
330
A
100
AcDbEntity
  8
Layer 1
  6
CONTINUOUS
 62
1
100
AcDbCircle
 39
0
 10
75
 20
195
 40
2.5
  0
CIRCLE
  5
36
330
A
100
AcDbEntity
  8
Layer 1
  6
CONTINUOUS
 62
1
100
AcDbCircle
 39
0
 10
75
 20
165
 40
2.5
  0
CIRCLE
  5
37
330
A
100
AcDbEntity
  8
Layer 1
  6
CONTINUOUS
 62
1
100
AcDbCircle
 39
0
 10
75
 20
135
 40
2.5
  0
CIRCLE
  5
38
330
A
100
AcDbEntity
  8
Layer 1
  6
CONTINUOUS
 62
1
100
AcDbCircle
 39
0
 10
75
 20
105
 40
2.5
  0
CIRCLE
  5
39
330
A
100
AcDbEntity
  8
Layer 1
  6
CONTINUOUS
 62
1
100
AcDbCircle
 39
0
 10
75
 20
75
 40
2.5
  0
CIRCLE
  5
3A
330
A
100
AcDbEntity
  8
Layer 1
  6
CONTINUOUS
 62
1
100
AcDbCircle
 39
0
 10
105
 20
375
 40
2.5
  0
CIRCLE
  5
3B
330
A
100
AcDbEntity
  8
Layer 1
  6
CONTINUOUS
 62
1
100
AcDbCircle
 39
0
 10
105
 20
345
 40
2.5
  0
CIRCLE
  5
3C
330
A
100
AcDbEntity
  8
Layer 1
  6
CONTINUOUS
 62
1
100
AcDbCircle
 39
0
 10
105
 20
315
 40
2.5
  0
CIRCLE
  5
3D
330
A
100
AcDbEntity
  8
Layer 1
  6
CONTINUOUS
 62
1
100
AcDbCircle
 39
0
 10
105
 20
285
 40
2.5
  0
CIRCLE
  5
3E
330
A
100
AcDbEntity
  8
Layer 1
  6
CONTINUOUS
 62
1
100
AcDbCircle
 39
0
 10
105
 20
255
 40
2.5
  0
CIRCLE
  5
3F
330
A
100
AcDbEntity
  8
Layer 1
  6
CONTINUOUS
 62
1
100
AcDbCircle
 39
0
 10
105
 20
225
 40
2.5
  0
CIRCLE
  5
40
330
A
100
AcDbEntity
  8
Layer 1
  6
CONTINUOUS
 62
1
100
AcDbCircle
 39
0
 10
105
 20
195
 40
2.5
  0
CIRCLE
  5
41
330
A
100
AcDbEntity
  8
Layer 1
  6
CONTINUOUS
 62
1
100
AcDbCircle
 39
0
 10
105
 20
165
 40
2.5
  0
CIRCLE
  5
42
330
A
100
AcDbEntity
  8
Layer 1
  6
CONTINUOUS
 62
1
100
AcDbCircle
 39
0
 10
105
 20
135
 40
2.5
  0
CIRCLE
  5
43
330
A
100
AcDbEntity
  8
Layer 1
  6
CONTINUOUS
 62
1
100
AcDbCircle
 39
0
 10
105
 20
105
 40
2.5
  0
CIRCLE
  5
44
330
A
100
AcDbEntity
  8
Layer 1
  6
CONTINUOUS
 62
1
100
AcDbCircle
 39
0
 10
105
 20
75
 40
2.5
  0
CIRCLE
  5
45
330
A
100
AcDbEntity
  8
Layer 1
  6
CONTINUOUS
 62
1
100
AcDbCircle
 39
0
 10
135
 20
375
 40
2.5
  0
CIRCLE
  5
46
330
A
100
AcDbEntity
  8
Layer 1
  6
CONTINUOUS
 62
1
100
AcDbCircle
 39
0
 10
135
 20
345
 40
2.5
  0
CIRCLE
  5
47
330
A
100
AcDbEntity
  8
Layer 1
  6
CONTINUOUS
 62
1
100
AcDbCircle
 39
0
 10
135
 20
315
 40
2.5
  0
CIRCLE
  5
48
330
A
100
AcDbEntity
  8
Layer 1
  6
CONTINUOUS
 62
1
100
AcDbCircle
 39
0
 10
135
 20
285
 40
2.5
  0
CIRCLE
  5
49
330
A
100
AcDbEntity
  8
Layer 1
  6
CONTINUOUS
 62
1
100
AcDbCircle
 39
0
 10
135
 20
255
 40
2.5
  0
CIRCLE
  5
4A
330
A
100
AcDbEntity
  8
Layer 1
  6
CONTINUOUS
 62
1
100
AcDbCircle
 39
0
 10
135
 20
225
 40
2.5
  0
CIRCLE
  5
4B
330
A
100
AcDbEntity
  8
Layer 1
  6
CONTINUOUS
 62
1
100
AcDbCircle
 39
0
 10
135
 20
195
 40
2.5
  0
CIRCLE
  5
4C
330
A
100
AcDbEntity
  8
Layer 1
  6
CONTINUOUS
 62
1
100
AcDbCircle
 39
0
 10
135
 20
165
 40
2.5
  0
CIRCLE
  5
4D
330
A
100
AcDbEntity
  8
Layer 1
  6
CONTINUOUS
 62
1
100
AcDbCircle
 39
0
 10
135
 20
135
 40
2.5
  0
CIRCLE
  5
4E
330
A
100
AcDbEntity
  8
Layer 1
  6
CONTINUOUS
 62
1
100
AcDbCircle
 39
0
 10
135
 20
105
 40
2.5
  0
CIRCLE
  5
4F
330
A
100
AcDbEntity
  8
Layer 1
  6
CONTINUOUS
 62
1
100
AcDbCircle
 39
0
 10
135
 20
75
 40
2.5
  0
CIRCLE
  5
50
330
A
100
AcDbEntity
  8
Layer 1
  6
CONTINUOUS
 62
1
100
AcDbCircle
 39
0
 10
165
 20
375
 40
2.5
  0
CIRCLE
  5
51
330
A
100
AcDbEntity
  8
Layer 1
  6
CONTINUOUS
 62
1
100
AcDbCircle
 39
0
 10
165
 20
345
 40
2.5
  0
CIRCLE
  5
52
330
A
100
AcDbEntity
  8
Layer 1
  6
CONTINUOUS
 62
1
100
AcDbCircle
 39
0
 10
165
 20
315
 40
2.5
  0
CIRCLE
  5
53
330
A
100
AcDbEntity
  8
Layer 1
  6
CONTINUOUS
 62
1
100
AcDbCircle
 39
0
 10
165
 20
285
 40
2.5
  0
CIRCLE
  5
54
330
A
100
AcDbEntity
  8
Layer 1
  6
CONTINUOUS
 62
1
100
AcDbCircle
 39
0
 10
165
 20
255
 40
2.5
  0
CIRCLE
  5
55
330
A
100
AcDbEntity
  8
Layer 1
  6
CONTINUOUS
 62
1
100
AcDbCircle
 39
0
 10
165
 20
225
 40
2.5
  0
CIRCLE
  5
56
330
A
100
AcDbEntity
  8
Layer 1
  6
CONTINUOUS
 62
1
100
AcDbCircle
 39
0
 10
165
 20
195
 40
2.5
  0
CIRCLE
  5
57
330
A
100
AcDbEntity
  8
Layer 1
  6
CONTINUOUS
 62
1
100
AcDbCircle
 39
0
 10
165
 20
165
 40
2.5
  0
CIRCLE
  5
58
330
A
100
AcDbEntity
  8
Layer 1
  6
CONTINUOUS
 62
1
100
AcDbCircle
 39
0
 10
165
 20
135
 40
2.5
  0
CIRCLE
  5
59
330
A
100
AcDbEntity
  8
Layer 1
  6
CONTINUOUS
 62
1
100
AcDbCircle
 39
0
 10
165
 20
105
 40
2.5
  0
CIRCLE
  5
5A
330
A
100
AcDbEntity
  8
Layer 1
  6
CONTINUOUS
 62
1
100
AcDbCircle
 39
0
 10
165
 20
75
 40
2.5
  0
CIRCLE
  5
5B
330
A
100
AcDbEntity
  8
Layer 1
  6
CONTINUOUS
 62
1
100
AcDbCircle
 39
0
 10
195
 20
375
 40
2.5
  0
CIRCLE
  5
5C
330
A
100
AcDbEntity
  8
Layer 1
  6
CONTINUOUS
 62
1
100
AcDbCircle
 39
0
 10
195
 20
345
 40
2.5
  0
CIRCLE
  5
5D
330
A
100
AcDbEntity
  8
Layer 1
  6
CONTINUOUS
 62
1
100
AcDbCircle
 39
0
 10
195
 20
315
 40
2.5
  0
CIRCLE
  5
5E
330
A
100
AcDbEntity
  8
Layer 1
  6
CONTINUOUS
 62
1
100
AcDbCircle
 39
0
 10
195
 20
285
 40
2.5
  0
CIRCLE
  5
5F
330
A
100
AcDbEntity
  8
Layer 1
  6
CONTINUOUS
 62
1
100
AcDbCircle
 39
0
 10
195
 20
255
 40
2.5
  0
CIRCLE
  5
60
330
A
100
AcDbEntity
  8
Layer 1
  6
CONTINUOUS
 62
1
100
AcDbCircle
 39
0
 10
195
 20
225
 40
2.5
  0
CIRCLE
  5
61
330
A
100
AcDbEntity
  8
Layer 1
  6
CONTINUOUS
 62
1
100
AcDbCircle
 39
0
 10
195
 20
195
 40
2.5
  0
CIRCLE
  5
62
330
A
100
AcDbEntity
  8
Layer 1
  6
CONTINUOUS
 62
1
100
AcDbCircle
 39
0
 10
195
 20
165
 40
2.5
  0
CIRCLE
  5
63
330
A
100
AcDbEntity
  8
Layer 1
  6
CONTINUOUS
 62
1
100
AcDbCircle
 39
0
 10
195
 20
135
 40
2.5
  0
CIRCLE
  5
64
330
A
100
AcDbEntity
  8
Layer 1
  6
CONTINUOUS
 62
1
100
AcDbCircle
 39
0
 10
195
 20
105
 40
2.5
  0
CIRCLE
  5
65
330
A
100
AcDbEntity
  8
Layer 1
  6
CONTINUOUS
 62
1
100
AcDbCircle
 39
0
 10
195
 20
75
 40
2.5
  0
CIRCLE
  5
66
330
A
100
AcDbEntity
  8
Layer 1
  6
CONTINUOUS
 62
1
100
AcDbCircle
 39
0
 10
225
 20
375
 40
2.5
  0
CIRCLE
  5
67
330
A
100
AcDbEntity
  8
Layer 1
  6
CONTINUOUS
 62
1
100
AcDbCircle
 39
0
 10
225
 20
345
 40
2.5
  0
CIRCLE
  5
68
330
A
100
AcDbEntity
  8
Layer 1
  6
CONTINUOUS
 62
1
100
AcDbCircle
 39
0
 10
225
 20
315
 40
2.5
  0
CIRCLE
  5
69
330
A
100
AcDbEntity
  8
Layer 1
  6
CONTINUOUS
 62
1
100
AcDbCircle
 39
0
 10
225
 20
285
 40
2.5
  0
CIRCLE
  5
6A
330
A
100
AcDbEntity
  8
Layer 1
  6
CONTINUOUS
 62
1
100
AcDbCircle
 39
0
 10
225
 20
255
 40
2.5
  0
CIRCLE
  5
6B
330
A
100
AcDbEntity
  8
Layer 1
  6
CONTINUOUS
 62
1
100
AcDbCircle
 39
0
 10
225
 20
225
 40
2.5
  0
CIRCLE
  5
6C
330
A
100
AcDbEntity
  8
Layer 1
  6
CONTINUOUS
 62
1
100
AcDbCircle
 39
0
 10
225
 20
195
 40
2.5
  0
CIRCLE
  5
6D
330
A
100
AcDbEntity
  8
Layer 1
  6
CONTINUOUS
 62
1
100
AcDbCircle
 39
0
 10
225
 20
165
 40
2.5
  0
CIRCLE
  5
6E
330
A
100
AcDbEntity
  8
Layer 1
  6
CONTINUOUS
 62
1
100
AcDbCircle
 39
0
 10
225
 20
135
 40
2.5
  0
CIRCLE
  5
6F
330
A
100
AcDbEntity
  8
Layer 1
  6
CONTINUOUS
 62
1
100
AcDbCircle
 39
0
 10
225
 20
105
 40
2.5
  0
CIRCLE
  5
70
330
A
100
AcDbEntity
  8
Layer 1
  6
CONTINUOUS
 62
1
100
AcDbCircle
 39
0
 10
225
 20
75
 40
2.5
  0
CIRCLE
  5
71
330
A
100
AcDbEntity
  8
Layer 1
  6
CONTINUOUS
 62
1
100
AcDbCircle
 39
0
 10
255
 20
375
 40
2.5
  0
CIRCLE
  5
72
330
A
100
AcDbEntity
  8
Layer 1
  6
CONTINUOUS
 62
1
100
AcDbCircle
 39
0
 10
255
 20
345
 40
2.5
  0
CIRCLE
  5
73
330
A
100
AcDbEntity
  8
Layer 1
  6
CONTINUOUS
 62
1
100
AcDbCircle
 39
0
 10
255
 20
315
 40
2.5
  0
CIRCLE
  5
74
330
A
100
AcDbEntity
  8
Layer 1
  6
CONTINUOUS
 62
1
100
AcDbCircle
 39
0
 10
255
 20
285
 40
2.5
  0
CIRCLE
  5
75
330
A
100
AcDbEntity
  8
Layer 1
  6
CONTINUOUS
 62
1
100
AcDbCircle
 39
0
 10
255
 20
255
 40
2.5
  0
CIRCLE
  5
76
330
A
100
AcDbEntity
  8
Layer 1
  6
CONTINUOUS
 62
1
100
AcDbCircle
 39
0
 10
255
 20
225
 40
2.5
  0
CIRCLE
  5
77
330
A
100
AcDbEntity
  8
Layer 1
  6
CONTINUOUS
 62
1
100
AcDbCircle
 39
0
 10
255
 20
195
 40
2.5
  0
CIRCLE
  5
78
330
A
100
AcDbEntity
  8
Layer 1
  6
CONTINUOUS
 62
1
100
AcDbCircle
 39
0
 10
255
 20
165
 40
2.5
  0
CIRCLE
  5
79
330
A
100
AcDbEntity
  8
Layer 1
  6
CONTINUOUS
 62
1
100
AcDbCircle
 39
0
 10
255
 20
135
 40
2.5
  0
CIRCLE
  5
7A
330
A
100
AcDbEntity
  8
Layer 1
  6
CONTINUOUS
 62
1
100
AcDbCircle
 39
0
 10
255
 20
105
 40
2.5
  0
CIRCLE
  5
7B
330
A
100
AcDbEntity
  8
Layer 1
  6
CONTINUOUS
 62
1
100
AcDbCircle
 39
0
 10
255
 20
75
 40
2.5
  0
CIRCLE
  5
7C
330
A
100
AcDbEntity
  8
Layer 1
  6
CONTINUOUS
 62
1
100
AcDbCircle
 39
0
 10
285
 20
375
 40
2.5
  0
CIRCLE
  5
7D
330
A
100
AcDbEntity
  8
Layer 1
  6
CONTINUOUS
 62
1
100
AcDbCircle
 39
0
 10
285
 20
345
 40
2.5
  0
CIRCLE
  5
7E
330
A
100
AcDbEntity
  8
Layer 1
  6
CONTINUOUS
 62
1
100
AcDbCircle
 39
0
 10
285
 20
315
 40
2.5
  0
CIRCLE
  5
7F
330
A
100
AcDbEntity
  8
Layer 1
  6
CONTINUOUS
 62
1
100
AcDbCircle
 39
0
 10
285
 20
285
 40
2.5
  0
CIRCLE
  5
80
330
A
100
AcDbEntity
  8
Layer 1
  6
CONTINUOUS
 62
1
100
AcDbCircle
 39
0
 10
285
 20
255
 40
2.5
  0
CIRCLE
  5
81
330
A
100
AcDbEntity
  8
Layer 1
  6
CONTINUOUS
 62
1
100
AcDbCircle
 39
0
 10
285
 20
225
 40
2.5
  0
CIRCLE
  5
82
330
A
100
AcDbEntity
  8
Layer 1
  6
CONTINUOUS
 62
1
100
AcDbCircle
 39
0
 10
285
 20
195
 40
2.5
  0
CIRCLE
  5
83
330
A
100
AcDbEntity
  8
Layer 1
  6
CONTINUOUS
 62
1
100
AcDbCircle
 39
0
 10
285
 20
165
 40
2.5
  0
CIRCLE
  5
84
330
A
100
AcDbEntity
  8
Layer 1
  6
CONTINUOUS
 62
1
100
AcDbCircle
 39
0
 10
285
 20
135
 40
2.5
  0
CIRCLE
  5
85
330
A
100
AcDbEntity
  8
Layer 1
  6
CONTINUOUS
 62
1
100
AcDbCircle
 39
0
 10
285
 20
105
 40
2.5
  0
CIRCLE
  5
86
330
A
100
AcDbEntity
  8
Layer 1
  6
CONTINUOUS
 62
1
100
AcDbCircle
 39
0
 10
285
 20
75
 40
2.5
  0
CIRCLE
  5
87
330
A
100
AcDbEntity
  8
Layer 1
  6
CONTINUOUS
 62
1
100
AcDbCircle
 39
0
 10
315
 20
375
 40
2.5
  0
CIRCLE
  5
88
330
A
100
AcDbEntity
  8
Layer 1
  6
CONTINUOUS
 62
1
100
AcDbCircle
 39
0
 10
315
 20
345
 40
2.5
  0
CIRCLE
  5
89
330
A
100
AcDbEntity
  8
Layer 1
  6
CONTINUOUS
 62
1
100
AcDbCircle
 39
0
 10
315
 20
315
 40
2.5
  0
CIRCLE
  5
8A
330
A
100
AcDbEntity
  8
Layer 1
  6
CONTINUOUS
 62
1
100
AcDbCircle
 39
0
 10
315
 20
285
 40
2.5
  0
CIRCLE
  5
8B
330
A
100
AcDbEntity
  8
Layer 1
  6
CONTINUOUS
 62
1
100
AcDbCircle
 39
0
 10
315
 20
255
 40
2.5
  0
CIRCLE
  5
8C
330
A
100
AcDbEntity
  8
Layer 1
  6
CONTINUOUS
 62
1
100
AcDbCircle
 39
0
 10
315
 20
225
 40
2.5
  0
CIRCLE
  5
8D
330
A
100
AcDbEntity
  8
Layer 1
  6
CONTINUOUS
 62
1
100
AcDbCircle
 39
0
 10
315
 20
195
 40
2.5
  0
CIRCLE
  5
8E
330
A
100
AcDbEntity
  8
Layer 1
  6
CONTINUOUS
 62
1
100
AcDbCircle
 39
0
 10
315
 20
165
 40
2.5
  0
CIRCLE
  5
8F
330
A
100
AcDbEntity
  8
Layer 1
  6
CONTINUOUS
 62
1
100
AcDbCircle
 39
0
 10
315
 20
135
 40
2.5
  0
CIRCLE
  5
90
330
A
100
AcDbEntity
  8
Layer 1
  6
CONTINUOUS
 62
1
100
AcDbCircle
 39
0
 10
315
 20
105
 40
2.5
  0
CIRCLE
  5
91
330
A
100
AcDbEntity
  8
Layer 1
  6
CONTINUOUS
 62
1
100
AcDbCircle
 39
0
 10
315
 20
75
 40
2.5
  0
CIRCLE
  5
92
330
A
100
AcDbEntity
  8
Layer 1
  6
CONTINUOUS
 62
1
100
AcDbCircle
 39
0
 10
345
 20
375
 40
2.5
  0
CIRCLE
  5
93
330
A
100
AcDbEntity
  8
Layer 1
  6
CONTINUOUS
 62
1
100
AcDbCircle
 39
0
 10
345
 20
345
 40
2.5
  0
CIRCLE
  5
94
330
A
100
AcDbEntity
  8
Layer 1
  6
CONTINUOUS
 62
1
100
AcDbCircle
 39
0
 10
345
 20
315
 40
2.5
  0
CIRCLE
  5
95
330
A
100
AcDbEntity
  8
Layer 1
  6
CONTINUOUS
 62
1
100
AcDbCircle
 39
0
 10
345
 20
285
 40
2.5
  0
CIRCLE
  5
96
330
A
100
AcDbEntity
  8
Layer 1
  6
CONTINUOUS
 62
1
100
AcDbCircle
 39
0
 10
345
 20
255
 40
2.5
  0
CIRCLE
  5
97
330
A
100
AcDbEntity
  8
Layer 1
  6
CONTINUOUS
 62
1
100
AcDbCircle
 39
0
 10
345
 20
225
 40
2.5
  0
CIRCLE
  5
98
330
A
100
AcDbEntity
  8
Layer 1
  6
CONTINUOUS
 62
1
100
AcDbCircle
 39
0
 10
345
 20
195
 40
2.5
  0
CIRCLE
  5
99
330
A
100
AcDbEntity
  8
Layer 1
  6
CONTINUOUS
 62
1
100
AcDbCircle
 39
0
 10
345
 20
165
 40
2.5
  0
CIRCLE
  5
9A
330
A
100
AcDbEntity
  8
Layer 1
  6
CONTINUOUS
 62
1
100
AcDbCircle
 39
0
 10
345
 20
135
 40
2.5
  0
CIRCLE
  5
9B
330
A
100
AcDbEntity
  8
Layer 1
  6
CONTINUOUS
 62
1
100
AcDbCircle
 39
0
 10
345
 20
105
 40
2.5
  0
CIRCLE
  5
9C
330
A
100
AcDbEntity
  8
Layer 1
  6
CONTINUOUS
 62
1
100
AcDbCircle
 39
0
 10
345
 20
75
 40
2.5
  0
CIRCLE
  5
9D
330
A
100
AcDbEntity
  8
Layer 1
  6
CONTINUOUS
 62
1
100
AcDbCircle
 39
0
 10
375
 20
375
 40
2.5
  0
CIRCLE
  5
9E
330
A
100
AcDbEntity
  8
Layer 1
  6
CONTINUOUS
 62
1
100
AcDbCircle
 39
0
 10
375
 20
345
 40
2.5
  0
CIRCLE
  5
9F
330
A
100
AcDbEntity
  8
Layer 1
  6
CONTINUOUS
 62
1
100
AcDbCircle
 39
0
 10
375
 20
315
 40
2.5
  0
CIRCLE
  5
A0
330
A
100
AcDbEntity
  8
Layer 1
  6
CONTINUOUS
 62
1
100
AcDbCircle
 39
0
 10
375
 20
285
 40
2.5
  0
CIRCLE
  5
A1
330
A
100
AcDbEntity
  8
Layer 1
  6
CONTINUOUS
 62
1
100
AcDbCircle
 39
0
 10
375
 20
255
 40
2.5
  0
CIRCLE
  5
A2
330
A
100
AcDbEntity
  8
Layer 1
  6
CONTINUOUS
 62
1
100
AcDbCircle
 39
0
 10
375
 20
225
 40
2.5
  0
CIRCLE
  5
A3
330
A
100
AcDbEntity
  8
Layer 1
  6
CONTINUOUS
 62
1
100
AcDbCircle
 39
0
 10
375
 20
195
 40
2.5
  0
CIRCLE
  5
A4
330
A
100
AcDbEntity
  8
Layer 1
  6
CONTINUOUS
 62
1
100
AcDbCircle
 39
0
 10
375
 20
165
 40
2.5
  0
CIRCLE
  5
A5
330
A
100
AcDbEntity
  8
Layer 1
  6
CONTINUOUS
 62
1
100
AcDbCircle
 39
0
 10
375
 20
135
 40
2.5
  0
CIRCLE
  5
A6
330
A
100
AcDbEntity
  8
Layer 1
  6
CONTINUOUS
 62
1
100
AcDbCircle
 39
0
 10
375
 20
105
 40
2.5
  0
CIRCLE
  5
A7
330
A
100
AcDbEntity
  8
Layer 1
  6
CONTINUOUS
 62
1
100
AcDbCircle
 39
0
 10
375
 20
75
 40
2.5
  0
CIRCLE
  5
A8
330
A
100
AcDbEntity
  8
Layer 1
  6
CONTINUOUS
 62
1
100
AcDbCircle
 39
0
 10
225
 20
40
 40
2.5
  0
LINE
  5
A9
330
A
100
AcDbEntity
  8
Layer 1
  6
CONTINUOUS
 62
1
100
AcDbLine
 39
0
 10
10
 20
400
 11
30
 21
400
  0
LINE
  5
AA
330
A
100
AcDbEntity
  8
Layer 1
  6
CONTINUOUS
 62
1
100
AcDbLine
 39
0
 10
30
 20
400
 11
30
 21
380
  0
LINE
  5
AB
330
A
100
AcDbEntity
  8
Layer 1
  6
CONTINUOUS
 62
1
100
AcDbLine
 39
0
 10
30
 20
380
 11
10
 21
380
  0
LINE
  5
AC
330
A
100
AcDbEntity
  8
Layer 1
  6
CONTINUOUS
 62
1
100
AcDbLine
 39
0
 10
10
 20
70
 11
30
 21
70
  0
LINE
  5
AD
330
A
100
AcDbEntity
  8
Layer 1
  6
CONTINUOUS
 62
1
100
AcDbLine
 39
0
 10
30
 20
70
 11
30
 21
50
  0
LINE
  5
AE
330
A
100
AcDbEntity
  8
Layer 1
  6
CONTINUOUS
 62
1
100
AcDbLine
 39
0
 10
30
 20
50
 11
10
 21
50
  0
LINE
  5
AF
330
A
100
AcDbEntity
  8
Layer 1
  6
CONTINUOUS
 62
1
100
AcDbLine
 39
0
 10
440
 20
380
 11
420
 21
380
  0
LINE
  5
B0
330
A
100
AcDbEntity
  8
Layer 1
  6
CONTINUOUS
 62
1
100
AcDbLine
 39
0
 10
420
 20
380
 11
420
 21
400
  0
LINE
  5
B1
330
A
100
AcDbEntity
  8
Layer 1
  6
CONTINUOUS
 62
1
100
AcDbLine
 39
0
 10
420
 20
400
 11
440
 21
400
  0
LINE
  5
B2
330
A
100
AcDbEntity
  8
Layer 1
  6
CONTINUOUS
 62
1
100
AcDbLine
 39
0
 10
440
 20
50
 11
420
 21
50
  0
LINE
  5
B3
330
A
100
AcDbEntity
  8
Layer 1
  6
CONTINUOUS
 62
1
100
AcDbLine
 39
0
 10
420
 20
50
 11
420
 21
70
  0
LINE
  5
B4
330
A
100
AcDbEntity
  8
Layer 1
  6
CONTINUOUS
 62
1
100
AcDbLine
 39
0
 10
420
 20
70
 11
440
 21
70
  0
LINE
  5
B5
330
A
100
AcDbEntity
  8
Layer 1
  6
CONTINUOUS
 62
1
100
AcDbLine
 39
0
 10
440
 20
380
 11
440
 21
370
  0
LINE
  5
B6
330
A
100
AcDbEntity
  8
Layer 1
  6
CONTINUOUS
 62
1
100
AcDbLine
 39
0
 10
440
 20
50
 11
440
 21
10
  0
LINE
  5
B7
330
A
100
AcDbEntity
  8
Layer 1
  6
CONTINUOUS
 62
1
100
AcDbLine
 39
0
 10
440
 20
10
 11
399
 21
10
  0
LINE
  5
B8
330
A
100
AcDbEntity
  8
Layer 1
  6
CONTINUOUS
 62
1
100
AcDbLine
 39
0
 10
10
 20
70
 11
10
 21
80
  0
LINE
  5
B9
330
A
100
AcDbEntity
  8
Layer 1
  6
CONTINUOUS
 62
1
100
AcDbLine
 39
0
 10
400
 20
440
 11
440
 21
440
  0
LINE
  5
BA
330
A
100
AcDbEntity
  8
Layer 1
  6
CONTINUOUS
 62
1
100
AcDbLine
 39
0
 10
440
 20
440
 11
440
 21
400
  0
LINE
  5
BB
330
A
100
AcDbEntity
  8
Layer 1
  6
CONTINUOUS
 62
1
100
AcDbLine
 39
0
 10
50
 20
440
 11
50
 21
390
  0
LINE
  5
BC
330
A
100
AcDbEntity
  8
Layer 1
  6
CONTINUOUS
 62
1
100
AcDbLine
 39
0
 10
50
 20
390
 11
400
 21
390
  0
LINE
  5
BD
330
A
100
AcDbEntity
  8
Layer 1
  6
CONTINUOUS
 62
1
100
AcDbLine
 39
0
 10
400
 20
390
 11
400
 21
440
  0
LINE
  5
BE
330
A
100
AcDbEntity
  8
Layer 1
  6
CONTINUOUS
 62
1
100
AcDbLine
 39
0
 10
10
 20
80
 11
65
 21
80
  0
LINE
  5
BF
330
A
100
AcDbEntity
  8
Layer 1
  6
CONTINUOUS
 62
1
100
AcDbLine
 39
0
 10
65
 20
80
 11
65
 21
370
  0
LINE
  5
C0
330
A
100
AcDbEntity
  8
Layer 1
  6
CONTINUOUS
 62
1
100
AcDbLine
 39
0
 10
65
 20
370
 11
10
 21
370
  0
LINE
  5
C1
330
A
100
AcDbEntity
  8
Layer 1
  6
CONTINUOUS
 62
1
100
AcDbLine
 39
0
 10
440
 20
370
 11
385
 21
370
  0
LINE
  5
C2
330
A
100
AcDbEntity
  8
Layer 1
  6
CONTINUOUS
 62
1
100
AcDbLine
 39
0
 10
385
 20
370
 11
385
 21
80
  0
LINE
  5
C3
330
A
100
AcDbEntity
  8
Layer 1
  6
CONTINUOUS
 62
1
100
AcDbLine
 39
0
 10
385
 20
80
 11
440
 21
80
  0
LINE
  5
C4
330
A
100
AcDbEntity
  8
Layer 1
  6
CONTINUOUS
 62
1
100
AcDbLine
 39
0
 10
10
 20
370
 11
10
 21
380
  0
LINE
  5
C5
330
A
100
AcDbEntity
  8
Layer 1
  6
CONTINUOUS
 62
1
100
AcDbLine
 39
0
 10
440
 20
80
 11
440
 21
70
  0
LINE
  5
C6
330
A
100
AcDbEntity
  8
Layer 1
  6
CONTINUOUS
 62
1
100
AcDbLine
 39
0
 10
50
 20
10
 11
50
 21
60
  0
LINE
  5
C7
330
A
100
AcDbEntity
  8
Layer 1
  6
CONTINUOUS
 62
1
100
AcDbLine
 39
0
 10
50
 20
60
 11
180
 21
60
  0
LINE
  5
C8
330
A
100
AcDbEntity
  8
Layer 1
  6
CONTINUOUS
 62
1
100
AcDbLine
 39
0
 10
180
 20
60
 11
180
 21
30
  0
LINE
  5
C9
330
A
100
AcDbEntity
  8
Layer 1
  6
CONTINUOUS
 62
1
100
AcDbLine
 39
0
 10
269
 20
30
 11
269
 21
60
  0
LINE
  5
CA
330
A
100
AcDbEntity
  8
Layer 1
  6
CONTINUOUS
 62
1
100
AcDbLine
 39
0
 10
269
 20
60
 11
399
 21
60
  0
LINE
  5
CB
330
A
100
AcDbEntity
  8
Layer 1
  6
CONTINUOUS
 62
1
100
AcDbLine
 39
0
 10
399
 20
60
 11
399
 21
10
  0
LINE
  5
CC
330
A
100
AcDbEntity
  8
Layer 1
  6
CONTINUOUS
 62
1
100
AcDbLine
 39
0
 10
50
 20
10
 11
10
 21
10
  0
LINE
  5
CD
330
A
100
AcDbEntity
  8
Layer 1
  6
CONTINUOUS
 62
1
100
AcDbLine
 39
0
 10
10
 20
10
 11
10
 21
50
  0
LINE
  5
CE
330
A
100
AcDbEntity
  8
Layer 1
  6
CONTINUOUS
 62
1
100
AcDbLine
 39
0
 10
269
 20
30
 11
180
 21
30
  0
ENDSEC
  0
SECTION
  2
OBJECTS
  0
DICTIONARY
  5
C
330
0
100
AcDbDictionary
281
1
  3
ACAD_GROUP
350
D
  0
DICTIONARY
  5
D
330
C
100
AcDbDictionary
281
1
  0
ENDSEC
  0
EOF
