  0
SECTION
  2
HEADER
  9
$ACADVER
  1
AC1014
  9
$HANDSEED
  5
FFFF
  9
$INSUNITS
 70
     4
  9
$MEASUREMENT
 70
     1
  0
ENDSEC
  0
SECTION
  2
TABLES
  0
TABLE
  2
VPORT
  5
8
330
0
100
AcDbSymbolTable
 70
     4
  0
VPORT
  5
2E
330
8
100
AcDbSymbolTableRecord
100
AcDbViewportTableRecord
  2
*ACTIVE
 70
     0
 10
0.0
 20
0.0
 11
1.0
 21
1.0
 12
210.0
 22
148.5
 13
0.0
 23
0.0
 14
10.0
 24
10.0
 15
10.0
 25
10.0
 16
0.0
 26
0.0
 36
1.0
 17
0.0
 27
0.0
 37
0.0
 40
341.0
 41
1.24
 42
50.0
 43
0.0
 44
0.0
 50
0.0
 51
0.0
 71
     0
 72
   100
 73
     1
 74
     3
 75
     0
 76
     0
 77
     0
 78
     0
  0
ENDTAB
  0
TABLE
  2
LTYPE
  5
5
330
0
100
AcDbSymbolTable
 70
     1
  0
LTYPE
  5
14
330
5
100
AcDbSymbolTableRecord
100
AcDbLinetypeTableRecord
  2
BYBLOCK
 70
     0
  3

 72
    65
 73
     0
 40
0.0
  0
LTYPE
  5
15
330
5
100
AcDbSymbolTableRecord
100
AcDbLinetypeTableRecord
  2
BYLAYER
 70
     0
  3

 72
    65
 73
     0
 40
0.0
  0
LTYPE
  5
16
330
5
100
AcDbSymbolTableRecord
100
AcDbLinetypeTableRecord
  2
CONTINUOUS
 70
     0
  3
Solid line
 72
    65
 73
     0
 40
0.0
  0
ENDTAB
  0
TABLE
  2
LAYER
  5
2
100
AcDbSymbolTable
 70
2
  0
LAYER
  5
50
100
AcDbSymbolTableRecord
100
AcDbLayerTableRecord
  2
0
 70
0
  6
CONTINUOUS
  0
LAYER
  5
51
100
AcDbSymbolTableRecord
100
AcDbLayerTableRecord
  2
Layer_1
 70
0
  6
CONTINUOUS
  0
ENDTAB
  0
TABLE
  2
STYLE
  5
3
330
0
100
AcDbSymbolTable
 70
     1
  0
STYLE
  5
11
330
3
100
AcDbSymbolTableRecord
100
AcDbTextStyleTableRecord
  2
STANDARD
 70
     0
 40
0.0
 41
1.0
 50
0.0
 71
     0
 42
2.5
  3
txt
  4

  0
ENDTAB
  0
TABLE
  2
VIEW
  5
6
330
0
100
AcDbSymbolTable
 70
     0
  0
ENDTAB
  0
TABLE
  2
UCS
  5
7
330
0
100
AcDbSymbolTable
 70
     0
  0
ENDTAB
  0
TABLE
  2
APPID
  5
9
330
0
100
AcDbSymbolTable
 70
     2
  0
APPID
  5
12
330
9
100
AcDbSymbolTableRecord
100
AcDbRegAppTableRecord
  2
ACAD
 70
     0
  0
ENDTAB
  0
TABLE
  2
DIMSTYLE
  5
A
330
0
100
AcDbSymbolTable
 70
     1
  0
DIMSTYLE
105
27
330
A
100
AcDbSymbolTableRecord
100
AcDbDimStyleTableRecord
  2
ISO-25
 70
     0
  3

  4

  5

  6

  7

 40
1.0
 41
2.5
 42
0.625
 43
3.75
 44
1.25
 45
0.0
 46
0.0
 47
0.0
 48
0.0
140
2.5
141
2.5
142
0.0
143
0.03937007874016
144
1.0
145
0.0
146
1.0
147
0.625
 71
     0
 72
     0
 73
     0
 74
     0
 75
     0
 76
     0
 77
     1
 78
     8
170
     0
171
     3
172
     1
173
     0
174
     0
175
     0
176
     0
177
     0
178
     0
270
     2
271
     2
272
     2
273
     2
274
     3
340
11
275
     0
280
     0
281
     0
282
     0
283
     0
284
     8
285
     0
286
     0
287
     3
288
     0
  0
ENDTAB
  0
TABLE
  2
BLOCK_RECORD
  5
1
330
0
100
AcDbSymbolTable
 70
     1
  0
BLOCK_RECORD
  5
1F
330
1
100
AcDbSymbolTableRecord
100
AcDbBlockTableRecord
  2
*MODEL_SPACE
  0
BLOCK_RECORD
  5
1B
330
1
100
AcDbSymbolTableRecord
100
AcDbBlockTableRecord
  2
*PAPER_SPACE
  0
ENDTAB
  0
ENDSEC
  0
SECTION
  2
BLOCKS
  0
BLOCK
  5
20
330
1F
100
AcDbEntity
  8
0
100
AcDbBlockBegin
  2
*MODEL_SPACE
 70
     0
 10
0.0
 20
0.0
 30
0.0
  3
*MODEL_SPACE
  1

  0
ENDBLK
  5
21
330
1F
100
AcDbEntity
  8
0
100
AcDbBlockEnd
  0
BLOCK
  5
1C
330
1B
100
AcDbEntity
 67
     1
  8
0
100
AcDbBlockBegin
  2
*PAPER_SPACE
  1

  0
ENDBLK
  5
1D
330
1B
100
AcDbEntity
 67
     1
  8
0
100
AcDbBlockEnd
  0
ENDSEC
  0
SECTION
  2
ENTITIES
  0
LWPOLYLINE
  5
100
100
AcDbEntity
  8
Layer_1
 62
5
100
AcDbPolyline
 90
4
 70
0
 10
-152.907370
 20
424.745130
 30
0.0
 10
-132.907330
 20
424.745130
 30
0.0
 10
-132.907330
 20
404.745280
 30
0.0
 10
-152.907370
 20
404.745280
 30
0.0
  0
LWPOLYLINE
  5
101
100
AcDbEntity
  8
Layer_1
 62
5
100
AcDbPolyline
 90
4
 70
0
 10
-152.907370
 20
94.745160
 30
0.0
 10
-132.907330
 20
94.745160
 30
0.0
 10
-132.907330
 20
74.745310
 30
0.0
 10
-152.907370
 20
74.745310
 30
0.0
  0
LWPOLYLINE
  5
102
100
AcDbEntity
  8
Layer_1
 62
5
100
AcDbPolyline
 90
4
 70
0
 10
277.092050
 20
404.745280
 30
0.0
 10
257.092200
 20
404.745280
 30
0.0
 10
257.092200
 20
424.745130
 30
0.0
 10
277.092050
 20
424.745130
 30
0.0
  0
LWPOLYLINE
  5
103
100
AcDbEntity
  8
Layer_1
 62
5
100
AcDbPolyline
 90
4
 70
0
 10
277.092050
 20
74.745310
 30
0.0
 10
257.092200
 20
74.745310
 30
0.0
 10
257.092200
 20
94.745160
 30
0.0
 10
277.092050
 20
94.745160
 30
0.0
  0
LWPOLYLINE
  5
104
100
AcDbEntity
  8
Layer_1
 62
5
100
AcDbPolyline
 90
4
 70
0
 10
-112.907480
 20
464.745110
 30
0.0
 10
-112.907480
 20
414.745210
 30
0.0
 10
237.092340
 20
414.745210
 30
0.0
 10
237.092340
 20
464.745110
 30
0.0
  0
LWPOLYLINE
  5
105
100
AcDbEntity
  8
Layer_1
 62
5
100
AcDbPolyline
 90
4
 70
0
 10
-152.907370
 20
104.745350
 30
0.0
 10
-97.907458
 20
104.745350
 30
0.0
 10
-97.907458
 20
394.745353
 30
0.0
 10
-152.907370
 20
394.745353
 30
0.0
  0
LWPOLYLINE
  5
106
100
AcDbEntity
  8
Layer_1
 62
5
100
AcDbPolyline
 90
4
 70
0
 10
277.092050
 20
394.745353
 30
0.0
 10
222.093120
 20
394.745353
 30
0.0
 10
222.093120
 20
104.745350
 30
0.0
 10
277.092050
 20
104.745350
 30
0.0
  0
LWPOLYLINE
  5
107
100
AcDbEntity
  8
Layer_1
 62
5
100
AcDbPolyline
 90
4
 70
0
 10
-112.907480
 20
34.746400
 30
0.0
 10
-112.907480
 20
84.745240
 30
0.0
 10
17.092628
 20
84.745240
 30
0.0
 10
17.092628
 20
54.746250
 30
0.0
  0
LWPOLYLINE
  5
108
100
AcDbEntity
  8
Layer_1
 62
5
100
AcDbPolyline
 90
4
 70
0
 10
106.091850
 20
54.746250
 30
0.0
 10
106.091850
 20
84.745240
 30
0.0
 10
236.092220
 20
84.745240
 30
0.0
 10
236.092220
 20
34.746400
 30
0.0
  0
SPLINE
  5
109
100
AcDbEntity
  8
Layer_1
 62
1
100
AcDbSpline
 70
8
 71
3
 72
8
 73
4
 74
0
 40
0
 40
0
 40
0
 40
0
 40
1
 40
1
 40
1
 40
1
 10
269.209310
 20
84.628550
 30
0.0
 10
269.209310
 20
85.343087
 30
0.0
 10
268.828109
 20
86.003346
 30
0.0
 10
268.209303
 20
86.360614
 30
0.0
  0
SPLINE
  5
10a
100
AcDbEntity
  8
Layer_1
 62
1
100
AcDbSpline
 70
8
 71
3
 72
8
 73
4
 74
0
 40
0
 40
0
 40
0
 40
0
 40
1
 40
1
 40
1
 40
1
 10
268.209303
 20
86.360614
 30
0.0
 10
267.590496
 20
86.717882
 30
0.0
 10
266.828094
 20
86.717882
 30
0.0
 10
266.209288
 20
86.360614
 30
0.0
  0
SPLINE
  5
10b
100
AcDbEntity
  8
Layer_1
 62
1
100
AcDbSpline
 70
8
 71
3
 72
8
 73
4
 74
0
 40
0
 40
0
 40
0
 40
0
 40
1
 40
1
 40
1
 40
1
 10
266.209288
 20
86.360614
 30
0.0
 10
265.590481
 20
86.003346
 30
0.0
 10
265.209280
 20
85.343087
 30
0.0
 10
265.209280
 20
84.628550
 30
0.0
  0
SPLINE
  5
10c
100
AcDbEntity
  8
Layer_1
 62
1
100
AcDbSpline
 70
8
 71
3
 72
8
 73
4
 74
0
 40
0
 40
0
 40
0
 40
0
 40
1
 40
1
 40
1
 40
1
 10
265.209280
 20
84.628550
 30
0.0
 10
265.209280
 20
83.914013
 30
0.0
 10
265.590481
 20
83.253754
 30
0.0
 10
266.209288
 20
82.896486
 30
0.0
  0
SPLINE
  5
10d
100
AcDbEntity
  8
Layer_1
 62
1
100
AcDbSpline
 70
8
 71
3
 72
8
 73
4
 74
0
 40
0
 40
0
 40
0
 40
0
 40
1
 40
1
 40
1
 40
1
 10
266.209288
 20
82.896486
 30
0.0
 10
266.828094
 20
82.539218
 30
0.0
 10
267.590496
 20
82.539218
 30
0.0
 10
268.209303
 20
82.896486
 30
0.0
  0
SPLINE
  5
10e
100
AcDbEntity
  8
Layer_1
 62
1
100
AcDbSpline
 70
8
 71
3
 72
8
 73
4
 74
0
 40
0
 40
0
 40
0
 40
0
 40
1
 40
1
 40
1
 40
1
 10
268.209303
 20
82.896486
 30
0.0
 10
268.828109
 20
83.253754
 30
0.0
 10
269.209310
 20
83.914013
 30
0.0
 10
269.209310
 20
84.628550
 30
0.0
  0
LWPOLYLINE
  5
10f
100
AcDbEntity
  8
Layer_1
 62
5
100
AcDbPolyline
 90
2
 70
0
 10
106.091850
 20
54.746250
 30
0.0
 10
17.092628
 20
54.746250
 30
0.0
  0
SPLINE
  5
110
100
AcDbEntity
  8
Layer_1
 62
1
100
AcDbSpline
 70
8
 71
3
 72
8
 73
4
 74
0
 40
0
 40
0
 40
0
 40
0
 40
1
 40
1
 40
1
 40
1
 10
269.209310
 20
414.745220
 30
0.0
 10
269.209310
 20
415.459757
 30
0.0
 10
268.828109
 20
416.120016
 30
0.0
 10
268.209303
 20
416.477284
 30
0.0
  0
SPLINE
  5
111
100
AcDbEntity
  8
Layer_1
 62
1
100
AcDbSpline
 70
8
 71
3
 72
8
 73
4
 74
0
 40
0
 40
0
 40
0
 40
0
 40
1
 40
1
 40
1
 40
1
 10
268.209303
 20
416.477284
 30
0.0
 10
267.590496
 20
416.834552
 30
0.0
 10
266.828094
 20
416.834552
 30
0.0
 10
266.209288
 20
416.477284
 30
0.0
  0
SPLINE
  5
112
100
AcDbEntity
  8
Layer_1
 62
1
100
AcDbSpline
 70
8
 71
3
 72
8
 73
4
 74
0
 40
0
 40
0
 40
0
 40
0
 40
1
 40
1
 40
1
 40
1
 10
266.209288
 20
416.477284
 30
0.0
 10
265.590481
 20
416.120016
 30
0.0
 10
265.209280
 20
415.459757
 30
0.0
 10
265.209280
 20
414.745220
 30
0.0
  0
SPLINE
  5
113
100
AcDbEntity
  8
Layer_1
 62
1
100
AcDbSpline
 70
8
 71
3
 72
8
 73
4
 74
0
 40
0
 40
0
 40
0
 40
0
 40
1
 40
1
 40
1
 40
1
 10
265.209280
 20
414.745220
 30
0.0
 10
265.209280
 20
414.030683
 30
0.0
 10
265.590481
 20
413.370424
 30
0.0
 10
266.209288
 20
413.013156
 30
0.0
  0
SPLINE
  5
114
100
AcDbEntity
  8
Layer_1
 62
1
100
AcDbSpline
 70
8
 71
3
 72
8
 73
4
 74
0
 40
0
 40
0
 40
0
 40
0
 40
1
 40
1
 40
1
 40
1
 10
266.209288
 20
413.013156
 30
0.0
 10
266.828094
 20
412.655888
 30
0.0
 10
267.590496
 20
412.655888
 30
0.0
 10
268.209303
 20
413.013156
 30
0.0
  0
SPLINE
  5
115
100
AcDbEntity
  8
Layer_1
 62
1
100
AcDbSpline
 70
8
 71
3
 72
8
 73
4
 74
0
 40
0
 40
0
 40
0
 40
0
 40
1
 40
1
 40
1
 40
1
 10
268.209303
 20
413.013156
 30
0.0
 10
268.828109
 20
413.370424
 30
0.0
 10
269.209310
 20
414.030683
 30
0.0
 10
269.209310
 20
414.745220
 30
0.0
  0
LWPOLYLINE
  5
116
100
AcDbEntity
  8
Layer_1
 62
1
100
AcDbPolyline
 90
1
 70
1
 10
269.209310
 20
84.628550
 30
0.0
  0
SPLINE
  5
117
100
AcDbEntity
  8
Layer_1
 62
1
100
AcDbSpline
 70
8
 71
3
 72
8
 73
4
 74
0
 40
0
 40
0
 40
0
 40
0
 40
1
 40
1
 40
1
 40
1
 10
-140.907380
 20
414.745220
 30
0.0
 10
-140.907380
 20
415.459751
 30
0.0
 10
-141.288578
 20
416.120005
 30
0.0
 10
-141.907380
 20
416.477271
 30
0.0
  0
SPLINE
  5
118
100
AcDbEntity
  8
Layer_1
 62
1
100
AcDbSpline
 70
8
 71
3
 72
8
 73
4
 74
0
 40
0
 40
0
 40
0
 40
0
 40
1
 40
1
 40
1
 40
1
 10
-141.907380
 20
416.477271
 30
0.0
 10
-142.526182
 20
416.834536
 30
0.0
 10
-143.288578
 20
416.834536
 30
0.0
 10
-143.907380
 20
416.477271
 30
0.0
  0
SPLINE
  5
119
100
AcDbEntity
  8
Layer_1
 62
1
100
AcDbSpline
 70
8
 71
3
 72
8
 73
4
 74
0
 40
0
 40
0
 40
0
 40
0
 40
1
 40
1
 40
1
 40
1
 10
-143.907380
 20
416.477271
 30
0.0
 10
-144.526182
 20
416.120005
 30
0.0
 10
-144.907380
 20
415.459751
 30
0.0
 10
-144.907380
 20
414.745220
 30
0.0
  0
SPLINE
  5
11a
100
AcDbEntity
  8
Layer_1
 62
1
100
AcDbSpline
 70
8
 71
3
 72
8
 73
4
 74
0
 40
0
 40
0
 40
0
 40
0
 40
1
 40
1
 40
1
 40
1
 10
-144.907380
 20
414.745220
 30
0.0
 10
-144.907380
 20
414.030689
 30
0.0
 10
-144.526182
 20
413.370435
 30
0.0
 10
-143.907380
 20
413.013169
 30
0.0
  0
SPLINE
  5
11b
100
AcDbEntity
  8
Layer_1
 62
1
100
AcDbSpline
 70
8
 71
3
 72
8
 73
4
 74
0
 40
0
 40
0
 40
0
 40
0
 40
1
 40
1
 40
1
 40
1
 10
-143.907380
 20
413.013169
 30
0.0
 10
-143.288578
 20
412.655904
 30
0.0
 10
-142.526182
 20
412.655904
 30
0.0
 10
-141.907380
 20
413.013169
 30
0.0
  0
SPLINE
  5
11c
100
AcDbEntity
  8
Layer_1
 62
1
100
AcDbSpline
 70
8
 71
3
 72
8
 73
4
 74
0
 40
0
 40
0
 40
0
 40
0
 40
1
 40
1
 40
1
 40
1
 10
-141.907380
 20
413.013169
 30
0.0
 10
-141.288578
 20
413.370435
 30
0.0
 10
-140.907380
 20
414.030689
 30
0.0
 10
-140.907380
 20
414.745220
 30
0.0
  0
LWPOLYLINE
  5
11d
100
AcDbEntity
  8
Layer_1
 62
1
100
AcDbPolyline
 90
1
 70
1
 10
269.209310
 20
414.745220
 30
0.0
  0
SPLINE
  5
11e
100
AcDbEntity
  8
Layer_1
 62
1
100
AcDbSpline
 70
8
 71
3
 72
8
 73
4
 74
0
 40
0
 40
0
 40
0
 40
0
 40
1
 40
1
 40
1
 40
1
 10
-140.907380
 20
84.628550
 30
0.0
 10
-140.907380
 20
85.343081
 30
0.0
 10
-141.288578
 20
86.003335
 30
0.0
 10
-141.907380
 20
86.360601
 30
0.0
  0
SPLINE
  5
11f
100
AcDbEntity
  8
Layer_1
 62
1
100
AcDbSpline
 70
8
 71
3
 72
8
 73
4
 74
0
 40
0
 40
0
 40
0
 40
0
 40
1
 40
1
 40
1
 40
1
 10
-141.907380
 20
86.360601
 30
0.0
 10
-142.526182
 20
86.717866
 30
0.0
 10
-143.288578
 20
86.717866
 30
0.0
 10
-143.907380
 20
86.360601
 30
0.0
  0
SPLINE
  5
120
100
AcDbEntity
  8
Layer_1
 62
1
100
AcDbSpline
 70
8
 71
3
 72
8
 73
4
 74
0
 40
0
 40
0
 40
0
 40
0
 40
1
 40
1
 40
1
 40
1
 10
-143.907380
 20
86.360601
 30
0.0
 10
-144.526182
 20
86.003335
 30
0.0
 10
-144.907380
 20
85.343081
 30
0.0
 10
-144.907380
 20
84.628550
 30
0.0
  0
SPLINE
  5
121
100
AcDbEntity
  8
Layer_1
 62
1
100
AcDbSpline
 70
8
 71
3
 72
8
 73
4
 74
0
 40
0
 40
0
 40
0
 40
0
 40
1
 40
1
 40
1
 40
1
 10
-144.907380
 20
84.628550
 30
0.0
 10
-144.907380
 20
83.914019
 30
0.0
 10
-144.526182
 20
83.253765
 30
0.0
 10
-143.907380
 20
82.896499
 30
0.0
  0
SPLINE
  5
122
100
AcDbEntity
  8
Layer_1
 62
1
100
AcDbSpline
 70
8
 71
3
 72
8
 73
4
 74
0
 40
0
 40
0
 40
0
 40
0
 40
1
 40
1
 40
1
 40
1
 10
-143.907380
 20
82.896499
 30
0.0
 10
-143.288578
 20
82.539234
 30
0.0
 10
-142.526182
 20
82.539234
 30
0.0
 10
-141.907380
 20
82.896499
 30
0.0
  0
SPLINE
  5
123
100
AcDbEntity
  8
Layer_1
 62
1
100
AcDbSpline
 70
8
 71
3
 72
8
 73
4
 74
0
 40
0
 40
0
 40
0
 40
0
 40
1
 40
1
 40
1
 40
1
 10
-141.907380
 20
82.896499
 30
0.0
 10
-141.288578
 20
83.253765
 30
0.0
 10
-140.907380
 20
83.914019
 30
0.0
 10
-140.907380
 20
84.628550
 30
0.0
  0
LWPOLYLINE
  5
124
100
AcDbEntity
  8
Layer_1
 62
1
100
AcDbPolyline
 90
1
 70
1
 10
-140.907380
 20
414.745220
 30
0.0
  0
LWPOLYLINE
  5
125
100
AcDbEntity
  8
Layer_1
 62
1
100
AcDbPolyline
 90
1
 70
1
 10
-140.907380
 20
84.628550
 30
0.0
  0
SPLINE
  5
126
100
AcDbEntity
  8
Layer_1
 62
5
100
AcDbSpline
 70
8
 71
3
 72
8
 73
4
 74
0
 40
0
 40
0
 40
0
 40
0
 40
1
 40
1
 40
1
 40
1
 10
-85.407380
 20
399.745220
 30
0.0
 10
-85.408056
 20
401.125454
 30
0.0
 10
-86.527146
 20
402.243996
 30
0.0
 10
-87.907380
 20
402.243996
 30
0.0
  0
SPLINE
  5
127
100
AcDbEntity
  8
Layer_1
 62
5
100
AcDbSpline
 70
8
 71
3
 72
8
 73
4
 74
0
 40
0
 40
0
 40
0
 40
0
 40
1
 40
1
 40
1
 40
1
 10
-87.907380
 20
402.243996
 30
0.0
 10
-89.287614
 20
402.243996
 30
0.0
 10
-90.406704
 20
401.125454
 30
0.0
 10
-90.407380
 20
399.745220
 30
0.0
  0
SPLINE
  5
128
100
AcDbEntity
  8
Layer_1
 62
5
100
AcDbSpline
 70
8
 71
3
 72
8
 73
4
 74
0
 40
0
 40
0
 40
0
 40
0
 40
1
 40
1
 40
1
 40
1
 10
-90.407380
 20
399.745220
 30
0.0
 10
-90.406704
 20
398.364986
 30
0.0
 10
-89.287614
 20
397.246444
 30
0.0
 10
-87.907380
 20
397.246444
 30
0.0
  0
SPLINE
  5
129
100
AcDbEntity
  8
Layer_1
 62
5
100
AcDbSpline
 70
8
 71
3
 72
8
 73
4
 74
0
 40
0
 40
0
 40
0
 40
0
 40
1
 40
1
 40
1
 40
1
 10
-87.907380
 20
397.246444
 30
0.0
 10
-86.527146
 20
397.246444
 30
0.0
 10
-85.408056
 20
398.364986
 30
0.0
 10
-85.407380
 20
399.745220
 30
0.0
  0
LWPOLYLINE
  5
12a
100
AcDbEntity
  8
Layer_1
 62
5
100
AcDbPolyline
 90
4
 70
0
 10
-152.907370
 20
334.745236
 30
0.0
 10
-122.907410
 20
334.745236
 30
0.0
 10
-122.907410
 20
254.745318
 30
0.0
 10
-152.907370
 20
254.745318
 30
0.0
  0
SPLINE
  5
12b
100
AcDbEntity
  8
Layer_1
 62
5
100
AcDbSpline
 70
8
 71
3
 72
8
 73
4
 74
0
 40
0
 40
0
 40
0
 40
0
 40
1
 40
1
 40
1
 40
1
 10
-85.407380
 20
369.745224
 30
0.0
 10
-85.408056
 20
371.125458
 30
0.0
 10
-86.527146
 20
372.244000
 30
0.0
 10
-87.907380
 20
372.244000
 30
0.0
  0
SPLINE
  5
12c
100
AcDbEntity
  8
Layer_1
 62
5
100
AcDbSpline
 70
8
 71
3
 72
8
 73
4
 74
0
 40
0
 40
0
 40
0
 40
0
 40
1
 40
1
 40
1
 40
1
 10
-87.907380
 20
372.244000
 30
0.0
 10
-89.287614
 20
372.244000
 30
0.0
 10
-90.406704
 20
371.125458
 30
0.0
 10
-90.407380
 20
369.745224
 30
0.0
  0
SPLINE
  5
12d
100
AcDbEntity
  8
Layer_1
 62
5
100
AcDbSpline
 70
8
 71
3
 72
8
 73
4
 74
0
 40
0
 40
0
 40
0
 40
0
 40
1
 40
1
 40
1
 40
1
 10
-90.407380
 20
369.745224
 30
0.0
 10
-90.406704
 20
368.364990
 30
0.0
 10
-89.287614
 20
367.246448
 30
0.0
 10
-87.907380
 20
367.246448
 30
0.0
  0
SPLINE
  5
12e
100
AcDbEntity
  8
Layer_1
 62
5
100
AcDbSpline
 70
8
 71
3
 72
8
 73
4
 74
0
 40
0
 40
0
 40
0
 40
0
 40
1
 40
1
 40
1
 40
1
 10
-87.907380
 20
367.246448
 30
0.0
 10
-86.527146
 20
367.246448
 30
0.0
 10
-85.408056
 20
368.364990
 30
0.0
 10
-85.407380
 20
369.745224
 30
0.0
  0
LWPOLYLINE
  5
12f
100
AcDbEntity
  8
Layer_1
 62
5
100
AcDbPolyline
 90
1
 70
1
 10
-85.407380
 20
399.745220
 30
0.0
  0
SPLINE
  5
130
100
AcDbEntity
  8
Layer_1
 62
5
100
AcDbSpline
 70
8
 71
3
 72
8
 73
4
 74
0
 40
0
 40
0
 40
0
 40
0
 40
1
 40
1
 40
1
 40
1
 10
-85.407380
 20
339.745225
 30
0.0
 10
-85.408056
 20
341.125459
 30
0.0
 10
-86.527146
 20
342.244001
 30
0.0
 10
-87.907380
 20
342.244001
 30
0.0
  0
SPLINE
  5
131
100
AcDbEntity
  8
Layer_1
 62
5
100
AcDbSpline
 70
8
 71
3
 72
8
 73
4
 74
0
 40
0
 40
0
 40
0
 40
0
 40
1
 40
1
 40
1
 40
1
 10
-87.907380
 20
342.244001
 30
0.0
 10
-89.287614
 20
342.244001
 30
0.0
 10
-90.406704
 20
341.125459
 30
0.0
 10
-90.407380
 20
339.745225
 30
0.0
  0
SPLINE
  5
132
100
AcDbEntity
  8
Layer_1
 62
5
100
AcDbSpline
 70
8
 71
3
 72
8
 73
4
 74
0
 40
0
 40
0
 40
0
 40
0
 40
1
 40
1
 40
1
 40
1
 10
-90.407380
 20
339.745225
 30
0.0
 10
-90.406704
 20
338.364991
 30
0.0
 10
-89.287614
 20
337.246449
 30
0.0
 10
-87.907380
 20
337.246449
 30
0.0
  0
SPLINE
  5
133
100
AcDbEntity
  8
Layer_1
 62
5
100
AcDbSpline
 70
8
 71
3
 72
8
 73
4
 74
0
 40
0
 40
0
 40
0
 40
0
 40
1
 40
1
 40
1
 40
1
 10
-87.907380
 20
337.246449
 30
0.0
 10
-86.527146
 20
337.246449
 30
0.0
 10
-85.408056
 20
338.364991
 30
0.0
 10
-85.407380
 20
339.745225
 30
0.0
  0
LWPOLYLINE
  5
134
100
AcDbEntity
  8
Layer_1
 62
5
100
AcDbPolyline
 90
1
 70
1
 10
-85.407380
 20
369.745224
 30
0.0
  0
SPLINE
  5
135
100
AcDbEntity
  8
Layer_1
 62
5
100
AcDbSpline
 70
8
 71
3
 72
8
 73
4
 74
0
 40
0
 40
0
 40
0
 40
0
 40
1
 40
1
 40
1
 40
1
 10
-85.407380
 20
309.745225
 30
0.0
 10
-85.408056
 20
311.125459
 30
0.0
 10
-86.527146
 20
312.244001
 30
0.0
 10
-87.907380
 20
312.244001
 30
0.0
  0
SPLINE
  5
136
100
AcDbEntity
  8
Layer_1
 62
5
100
AcDbSpline
 70
8
 71
3
 72
8
 73
4
 74
0
 40
0
 40
0
 40
0
 40
0
 40
1
 40
1
 40
1
 40
1
 10
-87.907380
 20
312.244001
 30
0.0
 10
-89.287614
 20
312.244001
 30
0.0
 10
-90.406704
 20
311.125459
 30
0.0
 10
-90.407380
 20
309.745225
 30
0.0
  0
SPLINE
  5
137
100
AcDbEntity
  8
Layer_1
 62
5
100
AcDbSpline
 70
8
 71
3
 72
8
 73
4
 74
0
 40
0
 40
0
 40
0
 40
0
 40
1
 40
1
 40
1
 40
1
 10
-90.407380
 20
309.745225
 30
0.0
 10
-90.406704
 20
308.364991
 30
0.0
 10
-89.287614
 20
307.246449
 30
0.0
 10
-87.907380
 20
307.246449
 30
0.0
  0
SPLINE
  5
138
100
AcDbEntity
  8
Layer_1
 62
5
100
AcDbSpline
 70
8
 71
3
 72
8
 73
4
 74
0
 40
0
 40
0
 40
0
 40
0
 40
1
 40
1
 40
1
 40
1
 10
-87.907380
 20
307.246449
 30
0.0
 10
-86.527146
 20
307.246449
 30
0.0
 10
-85.408056
 20
308.364991
 30
0.0
 10
-85.407380
 20
309.745225
 30
0.0
  0
LWPOLYLINE
  5
139
100
AcDbEntity
  8
Layer_1
 62
5
100
AcDbPolyline
 90
1
 70
1
 10
-85.407380
 20
339.745225
 30
0.0
  0
SPLINE
  5
13a
100
AcDbEntity
  8
Layer_1
 62
5
100
AcDbSpline
 70
8
 71
3
 72
8
 73
4
 74
0
 40
0
 40
0
 40
0
 40
0
 40
1
 40
1
 40
1
 40
1
 10
-85.407380
 20
279.745225
 30
0.0
 10
-85.408056
 20
281.125459
 30
0.0
 10
-86.527146
 20
282.244001
 30
0.0
 10
-87.907380
 20
282.244001
 30
0.0
  0
SPLINE
  5
13b
100
AcDbEntity
  8
Layer_1
 62
5
100
AcDbSpline
 70
8
 71
3
 72
8
 73
4
 74
0
 40
0
 40
0
 40
0
 40
0
 40
1
 40
1
 40
1
 40
1
 10
-87.907380
 20
282.244001
 30
0.0
 10
-89.287614
 20
282.244001
 30
0.0
 10
-90.406704
 20
281.125459
 30
0.0
 10
-90.407380
 20
279.745225
 30
0.0
  0
SPLINE
  5
13c
100
AcDbEntity
  8
Layer_1
 62
5
100
AcDbSpline
 70
8
 71
3
 72
8
 73
4
 74
0
 40
0
 40
0
 40
0
 40
0
 40
1
 40
1
 40
1
 40
1
 10
-90.407380
 20
279.745225
 30
0.0
 10
-90.406704
 20
278.364991
 30
0.0
 10
-89.287614
 20
277.246449
 30
0.0
 10
-87.907380
 20
277.246449
 30
0.0
  0
SPLINE
  5
13d
100
AcDbEntity
  8
Layer_1
 62
5
100
AcDbSpline
 70
8
 71
3
 72
8
 73
4
 74
0
 40
0
 40
0
 40
0
 40
0
 40
1
 40
1
 40
1
 40
1
 10
-87.907380
 20
277.246449
 30
0.0
 10
-86.527146
 20
277.246449
 30
0.0
 10
-85.408056
 20
278.364991
 30
0.0
 10
-85.407380
 20
279.745225
 30
0.0
  0
LWPOLYLINE
  5
13e
100
AcDbEntity
  8
Layer_1
 62
5
100
AcDbPolyline
 90
1
 70
1
 10
-85.407380
 20
309.745225
 30
0.0
  0
SPLINE
  5
13f
100
AcDbEntity
  8
Layer_1
 62
5
100
AcDbSpline
 70
8
 71
3
 72
8
 73
4
 74
0
 40
0
 40
0
 40
0
 40
0
 40
1
 40
1
 40
1
 40
1
 10
-85.407380
 20
249.745227
 30
0.0
 10
-85.408056
 20
251.125461
 30
0.0
 10
-86.527146
 20
252.244003
 30
0.0
 10
-87.907380
 20
252.244003
 30
0.0
  0
SPLINE
  5
140
100
AcDbEntity
  8
Layer_1
 62
5
100
AcDbSpline
 70
8
 71
3
 72
8
 73
4
 74
0
 40
0
 40
0
 40
0
 40
0
 40
1
 40
1
 40
1
 40
1
 10
-87.907380
 20
252.244003
 30
0.0
 10
-89.287614
 20
252.244003
 30
0.0
 10
-90.406704
 20
251.125461
 30
0.0
 10
-90.407380
 20
249.745227
 30
0.0
  0
SPLINE
  5
141
100
AcDbEntity
  8
Layer_1
 62
5
100
AcDbSpline
 70
8
 71
3
 72
8
 73
4
 74
0
 40
0
 40
0
 40
0
 40
0
 40
1
 40
1
 40
1
 40
1
 10
-90.407380
 20
249.745227
 30
0.0
 10
-90.406704
 20
248.364993
 30
0.0
 10
-89.287614
 20
247.246451
 30
0.0
 10
-87.907380
 20
247.246451
 30
0.0
  0
SPLINE
  5
142
100
AcDbEntity
  8
Layer_1
 62
5
100
AcDbSpline
 70
8
 71
3
 72
8
 73
4
 74
0
 40
0
 40
0
 40
0
 40
0
 40
1
 40
1
 40
1
 40
1
 10
-87.907380
 20
247.246451
 30
0.0
 10
-86.527146
 20
247.246451
 30
0.0
 10
-85.408056
 20
248.364993
 30
0.0
 10
-85.407380
 20
249.745227
 30
0.0
  0
LWPOLYLINE
  5
143
100
AcDbEntity
  8
Layer_1
 62
5
100
AcDbPolyline
 90
1
 70
1
 10
-85.407380
 20
279.745225
 30
0.0
  0
SPLINE
  5
144
100
AcDbEntity
  8
Layer_1
 62
5
100
AcDbSpline
 70
8
 71
3
 72
8
 73
4
 74
0
 40
0
 40
0
 40
0
 40
0
 40
1
 40
1
 40
1
 40
1
 10
-85.407380
 20
219.745227
 30
0.0
 10
-85.408056
 20
221.125461
 30
0.0
 10
-86.527146
 20
222.244003
 30
0.0
 10
-87.907380
 20
222.244003
 30
0.0
  0
SPLINE
  5
145
100
AcDbEntity
  8
Layer_1
 62
5
100
AcDbSpline
 70
8
 71
3
 72
8
 73
4
 74
0
 40
0
 40
0
 40
0
 40
0
 40
1
 40
1
 40
1
 40
1
 10
-87.907380
 20
222.244003
 30
0.0
 10
-89.287614
 20
222.244003
 30
0.0
 10
-90.406704
 20
221.125461
 30
0.0
 10
-90.407380
 20
219.745227
 30
0.0
  0
SPLINE
  5
146
100
AcDbEntity
  8
Layer_1
 62
5
100
AcDbSpline
 70
8
 71
3
 72
8
 73
4
 74
0
 40
0
 40
0
 40
0
 40
0
 40
1
 40
1
 40
1
 40
1
 10
-90.407380
 20
219.745227
 30
0.0
 10
-90.406704
 20
218.364993
 30
0.0
 10
-89.287614
 20
217.246451
 30
0.0
 10
-87.907380
 20
217.246451
 30
0.0
  0
SPLINE
  5
147
100
AcDbEntity
  8
Layer_1
 62
5
100
AcDbSpline
 70
8
 71
3
 72
8
 73
4
 74
0
 40
0
 40
0
 40
0
 40
0
 40
1
 40
1
 40
1
 40
1
 10
-87.907380
 20
217.246451
 30
0.0
 10
-86.527146
 20
217.246451
 30
0.0
 10
-85.408056
 20
218.364993
 30
0.0
 10
-85.407380
 20
219.745227
 30
0.0
  0
LWPOLYLINE
  5
148
100
AcDbEntity
  8
Layer_1
 62
5
100
AcDbPolyline
 90
1
 70
1
 10
-85.407380
 20
249.745227
 30
0.0
  0
SPLINE
  5
149
100
AcDbEntity
  8
Layer_1
 62
5
100
AcDbSpline
 70
8
 71
3
 72
8
 73
4
 74
0
 40
0
 40
0
 40
0
 40
0
 40
1
 40
1
 40
1
 40
1
 10
-85.407380
 20
189.745230
 30
0.0
 10
-85.408056
 20
191.125464
 30
0.0
 10
-86.527146
 20
192.244006
 30
0.0
 10
-87.907380
 20
192.244006
 30
0.0
  0
SPLINE
  5
14a
100
AcDbEntity
  8
Layer_1
 62
5
100
AcDbSpline
 70
8
 71
3
 72
8
 73
4
 74
0
 40
0
 40
0
 40
0
 40
0
 40
1
 40
1
 40
1
 40
1
 10
-87.907380
 20
192.244006
 30
0.0
 10
-89.287614
 20
192.244006
 30
0.0
 10
-90.406704
 20
191.125464
 30
0.0
 10
-90.407380
 20
189.745230
 30
0.0
  0
SPLINE
  5
14b
100
AcDbEntity
  8
Layer_1
 62
5
100
AcDbSpline
 70
8
 71
3
 72
8
 73
4
 74
0
 40
0
 40
0
 40
0
 40
0
 40
1
 40
1
 40
1
 40
1
 10
-90.407380
 20
189.745230
 30
0.0
 10
-90.406704
 20
188.364996
 30
0.0
 10
-89.287614
 20
187.246454
 30
0.0
 10
-87.907380
 20
187.246454
 30
0.0
  0
SPLINE
  5
14c
100
AcDbEntity
  8
Layer_1
 62
5
100
AcDbSpline
 70
8
 71
3
 72
8
 73
4
 74
0
 40
0
 40
0
 40
0
 40
0
 40
1
 40
1
 40
1
 40
1
 10
-87.907380
 20
187.246454
 30
0.0
 10
-86.527146
 20
187.246454
 30
0.0
 10
-85.408056
 20
188.364996
 30
0.0
 10
-85.407380
 20
189.745230
 30
0.0
  0
LWPOLYLINE
  5
14d
100
AcDbEntity
  8
Layer_1
 62
5
100
AcDbPolyline
 90
1
 70
1
 10
-85.407380
 20
219.745227
 30
0.0
  0
SPLINE
  5
14e
100
AcDbEntity
  8
Layer_1
 62
5
100
AcDbSpline
 70
8
 71
3
 72
8
 73
4
 74
0
 40
0
 40
0
 40
0
 40
0
 40
1
 40
1
 40
1
 40
1
 10
-85.407380
 20
159.745230
 30
0.0
 10
-85.408056
 20
161.125464
 30
0.0
 10
-86.527146
 20
162.244006
 30
0.0
 10
-87.907380
 20
162.244006
 30
0.0
  0
SPLINE
  5
14f
100
AcDbEntity
  8
Layer_1
 62
5
100
AcDbSpline
 70
8
 71
3
 72
8
 73
4
 74
0
 40
0
 40
0
 40
0
 40
0
 40
1
 40
1
 40
1
 40
1
 10
-87.907380
 20
162.244006
 30
0.0
 10
-89.287614
 20
162.244006
 30
0.0
 10
-90.406704
 20
161.125464
 30
0.0
 10
-90.407380
 20
159.745230
 30
0.0
  0
SPLINE
  5
150
100
AcDbEntity
  8
Layer_1
 62
5
100
AcDbSpline
 70
8
 71
3
 72
8
 73
4
 74
0
 40
0
 40
0
 40
0
 40
0
 40
1
 40
1
 40
1
 40
1
 10
-90.407380
 20
159.745230
 30
0.0
 10
-90.406704
 20
158.364996
 30
0.0
 10
-89.287614
 20
157.246454
 30
0.0
 10
-87.907380
 20
157.246454
 30
0.0
  0
SPLINE
  5
151
100
AcDbEntity
  8
Layer_1
 62
5
100
AcDbSpline
 70
8
 71
3
 72
8
 73
4
 74
0
 40
0
 40
0
 40
0
 40
0
 40
1
 40
1
 40
1
 40
1
 10
-87.907380
 20
157.246454
 30
0.0
 10
-86.527146
 20
157.246454
 30
0.0
 10
-85.408056
 20
158.364996
 30
0.0
 10
-85.407380
 20
159.745230
 30
0.0
  0
LWPOLYLINE
  5
152
100
AcDbEntity
  8
Layer_1
 62
5
100
AcDbPolyline
 90
1
 70
1
 10
-85.407380
 20
189.745230
 30
0.0
  0
SPLINE
  5
153
100
AcDbEntity
  8
Layer_1
 62
5
100
AcDbSpline
 70
8
 71
3
 72
8
 73
4
 74
0
 40
0
 40
0
 40
0
 40
0
 40
1
 40
1
 40
1
 40
1
 10
-85.407380
 20
129.745230
 30
0.0
 10
-85.408056
 20
131.125464
 30
0.0
 10
-86.527146
 20
132.244006
 30
0.0
 10
-87.907380
 20
132.244006
 30
0.0
  0
SPLINE
  5
154
100
AcDbEntity
  8
Layer_1
 62
5
100
AcDbSpline
 70
8
 71
3
 72
8
 73
4
 74
0
 40
0
 40
0
 40
0
 40
0
 40
1
 40
1
 40
1
 40
1
 10
-87.907380
 20
132.244006
 30
0.0
 10
-89.287614
 20
132.244006
 30
0.0
 10
-90.406704
 20
131.125464
 30
0.0
 10
-90.407380
 20
129.745230
 30
0.0
  0
SPLINE
  5
155
100
AcDbEntity
  8
Layer_1
 62
5
100
AcDbSpline
 70
8
 71
3
 72
8
 73
4
 74
0
 40
0
 40
0
 40
0
 40
0
 40
1
 40
1
 40
1
 40
1
 10
-90.407380
 20
129.745230
 30
0.0
 10
-90.406704
 20
128.364996
 30
0.0
 10
-89.287614
 20
127.246454
 30
0.0
 10
-87.907380
 20
127.246454
 30
0.0
  0
SPLINE
  5
156
100
AcDbEntity
  8
Layer_1
 62
5
100
AcDbSpline
 70
8
 71
3
 72
8
 73
4
 74
0
 40
0
 40
0
 40
0
 40
0
 40
1
 40
1
 40
1
 40
1
 10
-87.907380
 20
127.246454
 30
0.0
 10
-86.527146
 20
127.246454
 30
0.0
 10
-85.408056
 20
128.364996
 30
0.0
 10
-85.407380
 20
129.745230
 30
0.0
  0
LWPOLYLINE
  5
157
100
AcDbEntity
  8
Layer_1
 62
5
100
AcDbPolyline
 90
1
 70
1
 10
-85.407380
 20
159.745230
 30
0.0
  0
SPLINE
  5
158
100
AcDbEntity
  8
Layer_1
 62
5
100
AcDbSpline
 70
8
 71
3
 72
8
 73
4
 74
0
 40
0
 40
0
 40
0
 40
0
 40
1
 40
1
 40
1
 40
1
 10
-85.407380
 20
99.745230
 30
0.0
 10
-85.408056
 20
101.125464
 30
0.0
 10
-86.527146
 20
102.244006
 30
0.0
 10
-87.907380
 20
102.244006
 30
0.0
  0
SPLINE
  5
159
100
AcDbEntity
  8
Layer_1
 62
5
100
AcDbSpline
 70
8
 71
3
 72
8
 73
4
 74
0
 40
0
 40
0
 40
0
 40
0
 40
1
 40
1
 40
1
 40
1
 10
-87.907380
 20
102.244006
 30
0.0
 10
-89.287614
 20
102.244006
 30
0.0
 10
-90.406704
 20
101.125464
 30
0.0
 10
-90.407380
 20
99.745230
 30
0.0
  0
SPLINE
  5
15a
100
AcDbEntity
  8
Layer_1
 62
5
100
AcDbSpline
 70
8
 71
3
 72
8
 73
4
 74
0
 40
0
 40
0
 40
0
 40
0
 40
1
 40
1
 40
1
 40
1
 10
-90.407380
 20
99.745230
 30
0.0
 10
-90.406704
 20
98.364996
 30
0.0
 10
-89.287614
 20
97.246454
 30
0.0
 10
-87.907380
 20
97.246454
 30
0.0
  0
SPLINE
  5
15b
100
AcDbEntity
  8
Layer_1
 62
5
100
AcDbSpline
 70
8
 71
3
 72
8
 73
4
 74
0
 40
0
 40
0
 40
0
 40
0
 40
1
 40
1
 40
1
 40
1
 10
-87.907380
 20
97.246454
 30
0.0
 10
-86.527146
 20
97.246454
 30
0.0
 10
-85.408056
 20
98.364996
 30
0.0
 10
-85.407380
 20
99.745230
 30
0.0
  0
LWPOLYLINE
  5
15c
100
AcDbEntity
  8
Layer_1
 62
5
100
AcDbPolyline
 90
1
 70
1
 10
-85.407380
 20
129.745230
 30
0.0
  0
SPLINE
  5
15d
100
AcDbEntity
  8
Layer_1
 62
5
100
AcDbSpline
 70
8
 71
3
 72
8
 73
4
 74
0
 40
0
 40
0
 40
0
 40
0
 40
1
 40
1
 40
1
 40
1
 10
-55.407382
 20
399.745220
 30
0.0
 10
-55.407382
 20
400.638384
 30
0.0
 10
-55.883879
 20
401.463702
 30
0.0
 10
-56.657382
 20
401.910284
 30
0.0
  0
SPLINE
  5
15e
100
AcDbEntity
  8
Layer_1
 62
5
100
AcDbSpline
 70
8
 71
3
 72
8
 73
4
 74
0
 40
0
 40
0
 40
0
 40
0
 40
1
 40
1
 40
1
 40
1
 10
-56.657382
 20
401.910284
 30
0.0
 10
-57.430885
 20
402.356866
 30
0.0
 10
-58.383880
 20
402.356866
 30
0.0
 10
-59.157383
 20
401.910284
 30
0.0
  0
SPLINE
  5
15f
100
AcDbEntity
  8
Layer_1
 62
5
100
AcDbSpline
 70
8
 71
3
 72
8
 73
4
 74
0
 40
0
 40
0
 40
0
 40
0
 40
1
 40
1
 40
1
 40
1
 10
-59.157383
 20
401.910284
 30
0.0
 10
-59.930886
 20
401.463702
 30
0.0
 10
-60.407383
 20
400.638384
 30
0.0
 10
-60.407383
 20
399.745220
 30
0.0
  0
SPLINE
  5
160
100
AcDbEntity
  8
Layer_1
 62
5
100
AcDbSpline
 70
8
 71
3
 72
8
 73
4
 74
0
 40
0
 40
0
 40
0
 40
0
 40
1
 40
1
 40
1
 40
1
 10
-60.407383
 20
399.745220
 30
0.0
 10
-60.407383
 20
398.364508
 30
0.0
 10
-59.288095
 20
397.245220
 30
0.0
 10
-57.907383
 20
397.245220
 30
0.0
  0
SPLINE
  5
161
100
AcDbEntity
  8
Layer_1
 62
5
100
AcDbSpline
 70
8
 71
3
 72
8
 73
4
 74
0
 40
0
 40
0
 40
0
 40
0
 40
1
 40
1
 40
1
 40
1
 10
-57.907383
 20
397.245220
 30
0.0
 10
-56.526670
 20
397.245220
 30
0.0
 10
-55.407382
 20
398.364508
 30
0.0
 10
-55.407382
 20
399.745220
 30
0.0
  0
LWPOLYLINE
  5
162
100
AcDbEntity
  8
Layer_1
 62
5
100
AcDbPolyline
 90
1
 70
1
 10
-85.407380
 20
99.745230
 30
0.0
  0
SPLINE
  5
163
100
AcDbEntity
  8
Layer_1
 62
5
100
AcDbSpline
 70
8
 71
3
 72
8
 73
4
 74
0
 40
0
 40
0
 40
0
 40
0
 40
1
 40
1
 40
1
 40
1
 10
-55.407382
 20
369.745224
 30
0.0
 10
-55.407382
 20
370.638388
 30
0.0
 10
-55.883879
 20
371.463706
 30
0.0
 10
-56.657382
 20
371.910288
 30
0.0
  0
SPLINE
  5
164
100
AcDbEntity
  8
Layer_1
 62
5
100
AcDbSpline
 70
8
 71
3
 72
8
 73
4
 74
0
 40
0
 40
0
 40
0
 40
0
 40
1
 40
1
 40
1
 40
1
 10
-56.657382
 20
371.910288
 30
0.0
 10
-57.430885
 20
372.356870
 30
0.0
 10
-58.383880
 20
372.356870
 30
0.0
 10
-59.157383
 20
371.910288
 30
0.0
  0
SPLINE
  5
165
100
AcDbEntity
  8
Layer_1
 62
5
100
AcDbSpline
 70
8
 71
3
 72
8
 73
4
 74
0
 40
0
 40
0
 40
0
 40
0
 40
1
 40
1
 40
1
 40
1
 10
-59.157383
 20
371.910288
 30
0.0
 10
-59.930886
 20
371.463706
 30
0.0
 10
-60.407383
 20
370.638388
 30
0.0
 10
-60.407383
 20
369.745224
 30
0.0
  0
SPLINE
  5
166
100
AcDbEntity
  8
Layer_1
 62
5
100
AcDbSpline
 70
8
 71
3
 72
8
 73
4
 74
0
 40
0
 40
0
 40
0
 40
0
 40
1
 40
1
 40
1
 40
1
 10
-60.407383
 20
369.745224
 30
0.0
 10
-60.407383
 20
368.364512
 30
0.0
 10
-59.288095
 20
367.245224
 30
0.0
 10
-57.907383
 20
367.245224
 30
0.0
  0
SPLINE
  5
167
100
AcDbEntity
  8
Layer_1
 62
5
100
AcDbSpline
 70
8
 71
3
 72
8
 73
4
 74
0
 40
0
 40
0
 40
0
 40
0
 40
1
 40
1
 40
1
 40
1
 10
-57.907383
 20
367.245224
 30
0.0
 10
-56.526670
 20
367.245224
 30
0.0
 10
-55.407382
 20
368.364512
 30
0.0
 10
-55.407382
 20
369.745224
 30
0.0
  0
LWPOLYLINE
  5
168
100
AcDbEntity
  8
Layer_1
 62
5
100
AcDbPolyline
 90
1
 70
1
 10
-55.407382
 20
399.745220
 30
0.0
  0
SPLINE
  5
169
100
AcDbEntity
  8
Layer_1
 62
5
100
AcDbSpline
 70
8
 71
3
 72
8
 73
4
 74
0
 40
0
 40
0
 40
0
 40
0
 40
1
 40
1
 40
1
 40
1
 10
-55.407382
 20
339.745225
 30
0.0
 10
-55.407382
 20
340.638389
 30
0.0
 10
-55.883879
 20
341.463707
 30
0.0
 10
-56.657382
 20
341.910289
 30
0.0
  0
SPLINE
  5
16a
100
AcDbEntity
  8
Layer_1
 62
5
100
AcDbSpline
 70
8
 71
3
 72
8
 73
4
 74
0
 40
0
 40
0
 40
0
 40
0
 40
1
 40
1
 40
1
 40
1
 10
-56.657382
 20
341.910289
 30
0.0
 10
-57.430885
 20
342.356871
 30
0.0
 10
-58.383880
 20
342.356871
 30
0.0
 10
-59.157383
 20
341.910289
 30
0.0
  0
SPLINE
  5
16b
100
AcDbEntity
  8
Layer_1
 62
5
100
AcDbSpline
 70
8
 71
3
 72
8
 73
4
 74
0
 40
0
 40
0
 40
0
 40
0
 40
1
 40
1
 40
1
 40
1
 10
-59.157383
 20
341.910289
 30
0.0
 10
-59.930886
 20
341.463707
 30
0.0
 10
-60.407383
 20
340.638389
 30
0.0
 10
-60.407383
 20
339.745225
 30
0.0
  0
SPLINE
  5
16c
100
AcDbEntity
  8
Layer_1
 62
5
100
AcDbSpline
 70
8
 71
3
 72
8
 73
4
 74
0
 40
0
 40
0
 40
0
 40
0
 40
1
 40
1
 40
1
 40
1
 10
-60.407383
 20
339.745225
 30
0.0
 10
-60.407383
 20
338.364513
 30
0.0
 10
-59.288095
 20
337.245225
 30
0.0
 10
-57.907383
 20
337.245225
 30
0.0
  0
SPLINE
  5
16d
100
AcDbEntity
  8
Layer_1
 62
5
100
AcDbSpline
 70
8
 71
3
 72
8
 73
4
 74
0
 40
0
 40
0
 40
0
 40
0
 40
1
 40
1
 40
1
 40
1
 10
-57.907383
 20
337.245225
 30
0.0
 10
-56.526670
 20
337.245225
 30
0.0
 10
-55.407382
 20
338.364513
 30
0.0
 10
-55.407382
 20
339.745225
 30
0.0
  0
LWPOLYLINE
  5
16e
100
AcDbEntity
  8
Layer_1
 62
5
100
AcDbPolyline
 90
1
 70
1
 10
-55.407382
 20
369.745224
 30
0.0
  0
SPLINE
  5
16f
100
AcDbEntity
  8
Layer_1
 62
5
100
AcDbSpline
 70
8
 71
3
 72
8
 73
4
 74
0
 40
0
 40
0
 40
0
 40
0
 40
1
 40
1
 40
1
 40
1
 10
-55.407382
 20
309.745225
 30
0.0
 10
-55.407382
 20
310.638389
 30
0.0
 10
-55.883879
 20
311.463707
 30
0.0
 10
-56.657382
 20
311.910289
 30
0.0
  0
SPLINE
  5
170
100
AcDbEntity
  8
Layer_1
 62
5
100
AcDbSpline
 70
8
 71
3
 72
8
 73
4
 74
0
 40
0
 40
0
 40
0
 40
0
 40
1
 40
1
 40
1
 40
1
 10
-56.657382
 20
311.910289
 30
0.0
 10
-57.430885
 20
312.356871
 30
0.0
 10
-58.383880
 20
312.356871
 30
0.0
 10
-59.157383
 20
311.910289
 30
0.0
  0
SPLINE
  5
171
100
AcDbEntity
  8
Layer_1
 62
5
100
AcDbSpline
 70
8
 71
3
 72
8
 73
4
 74
0
 40
0
 40
0
 40
0
 40
0
 40
1
 40
1
 40
1
 40
1
 10
-59.157383
 20
311.910289
 30
0.0
 10
-59.930886
 20
311.463707
 30
0.0
 10
-60.407383
 20
310.638389
 30
0.0
 10
-60.407383
 20
309.745225
 30
0.0
  0
SPLINE
  5
172
100
AcDbEntity
  8
Layer_1
 62
5
100
AcDbSpline
 70
8
 71
3
 72
8
 73
4
 74
0
 40
0
 40
0
 40
0
 40
0
 40
1
 40
1
 40
1
 40
1
 10
-60.407383
 20
309.745225
 30
0.0
 10
-60.407383
 20
308.364513
 30
0.0
 10
-59.288095
 20
307.245225
 30
0.0
 10
-57.907383
 20
307.245225
 30
0.0
  0
SPLINE
  5
173
100
AcDbEntity
  8
Layer_1
 62
5
100
AcDbSpline
 70
8
 71
3
 72
8
 73
4
 74
0
 40
0
 40
0
 40
0
 40
0
 40
1
 40
1
 40
1
 40
1
 10
-57.907383
 20
307.245225
 30
0.0
 10
-56.526670
 20
307.245225
 30
0.0
 10
-55.407382
 20
308.364513
 30
0.0
 10
-55.407382
 20
309.745225
 30
0.0
  0
LWPOLYLINE
  5
174
100
AcDbEntity
  8
Layer_1
 62
5
100
AcDbPolyline
 90
1
 70
1
 10
-55.407382
 20
339.745225
 30
0.0
  0
SPLINE
  5
175
100
AcDbEntity
  8
Layer_1
 62
5
100
AcDbSpline
 70
8
 71
3
 72
8
 73
4
 74
0
 40
0
 40
0
 40
0
 40
0
 40
1
 40
1
 40
1
 40
1
 10
-55.407382
 20
279.745225
 30
0.0
 10
-55.407382
 20
280.638389
 30
0.0
 10
-55.883879
 20
281.463707
 30
0.0
 10
-56.657382
 20
281.910289
 30
0.0
  0
SPLINE
  5
176
100
AcDbEntity
  8
Layer_1
 62
5
100
AcDbSpline
 70
8
 71
3
 72
8
 73
4
 74
0
 40
0
 40
0
 40
0
 40
0
 40
1
 40
1
 40
1
 40
1
 10
-56.657382
 20
281.910289
 30
0.0
 10
-57.430885
 20
282.356871
 30
0.0
 10
-58.383880
 20
282.356871
 30
0.0
 10
-59.157383
 20
281.910289
 30
0.0
  0
SPLINE
  5
177
100
AcDbEntity
  8
Layer_1
 62
5
100
AcDbSpline
 70
8
 71
3
 72
8
 73
4
 74
0
 40
0
 40
0
 40
0
 40
0
 40
1
 40
1
 40
1
 40
1
 10
-59.157383
 20
281.910289
 30
0.0
 10
-59.930886
 20
281.463707
 30
0.0
 10
-60.407383
 20
280.638389
 30
0.0
 10
-60.407383
 20
279.745225
 30
0.0
  0
SPLINE
  5
178
100
AcDbEntity
  8
Layer_1
 62
5
100
AcDbSpline
 70
8
 71
3
 72
8
 73
4
 74
0
 40
0
 40
0
 40
0
 40
0
 40
1
 40
1
 40
1
 40
1
 10
-60.407383
 20
279.745225
 30
0.0
 10
-60.407383
 20
278.364513
 30
0.0
 10
-59.288095
 20
277.245225
 30
0.0
 10
-57.907383
 20
277.245225
 30
0.0
  0
SPLINE
  5
179
100
AcDbEntity
  8
Layer_1
 62
5
100
AcDbSpline
 70
8
 71
3
 72
8
 73
4
 74
0
 40
0
 40
0
 40
0
 40
0
 40
1
 40
1
 40
1
 40
1
 10
-57.907383
 20
277.245225
 30
0.0
 10
-56.526670
 20
277.245225
 30
0.0
 10
-55.407382
 20
278.364513
 30
0.0
 10
-55.407382
 20
279.745225
 30
0.0
  0
LWPOLYLINE
  5
17a
100
AcDbEntity
  8
Layer_1
 62
5
100
AcDbPolyline
 90
1
 70
1
 10
-55.407382
 20
309.745225
 30
0.0
  0
SPLINE
  5
17b
100
AcDbEntity
  8
Layer_1
 62
5
100
AcDbSpline
 70
8
 71
3
 72
8
 73
4
 74
0
 40
0
 40
0
 40
0
 40
0
 40
1
 40
1
 40
1
 40
1
 10
-55.407382
 20
249.745227
 30
0.0
 10
-55.407382
 20
250.638391
 30
0.0
 10
-55.883879
 20
251.463709
 30
0.0
 10
-56.657382
 20
251.910291
 30
0.0
  0
SPLINE
  5
17c
100
AcDbEntity
  8
Layer_1
 62
5
100
AcDbSpline
 70
8
 71
3
 72
8
 73
4
 74
0
 40
0
 40
0
 40
0
 40
0
 40
1
 40
1
 40
1
 40
1
 10
-56.657382
 20
251.910291
 30
0.0
 10
-57.430885
 20
252.356873
 30
0.0
 10
-58.383880
 20
252.356873
 30
0.0
 10
-59.157383
 20
251.910291
 30
0.0
  0
SPLINE
  5
17d
100
AcDbEntity
  8
Layer_1
 62
5
100
AcDbSpline
 70
8
 71
3
 72
8
 73
4
 74
0
 40
0
 40
0
 40
0
 40
0
 40
1
 40
1
 40
1
 40
1
 10
-59.157383
 20
251.910291
 30
0.0
 10
-59.930886
 20
251.463709
 30
0.0
 10
-60.407383
 20
250.638391
 30
0.0
 10
-60.407383
 20
249.745227
 30
0.0
  0
SPLINE
  5
17e
100
AcDbEntity
  8
Layer_1
 62
5
100
AcDbSpline
 70
8
 71
3
 72
8
 73
4
 74
0
 40
0
 40
0
 40
0
 40
0
 40
1
 40
1
 40
1
 40
1
 10
-60.407383
 20
249.745227
 30
0.0
 10
-60.407383
 20
248.364515
 30
0.0
 10
-59.288095
 20
247.245227
 30
0.0
 10
-57.907383
 20
247.245227
 30
0.0
  0
SPLINE
  5
17f
100
AcDbEntity
  8
Layer_1
 62
5
100
AcDbSpline
 70
8
 71
3
 72
8
 73
4
 74
0
 40
0
 40
0
 40
0
 40
0
 40
1
 40
1
 40
1
 40
1
 10
-57.907383
 20
247.245227
 30
0.0
 10
-56.526670
 20
247.245227
 30
0.0
 10
-55.407382
 20
248.364515
 30
0.0
 10
-55.407382
 20
249.745227
 30
0.0
  0
LWPOLYLINE
  5
180
100
AcDbEntity
  8
Layer_1
 62
5
100
AcDbPolyline
 90
1
 70
1
 10
-55.407382
 20
279.745225
 30
0.0
  0
SPLINE
  5
181
100
AcDbEntity
  8
Layer_1
 62
5
100
AcDbSpline
 70
8
 71
3
 72
8
 73
4
 74
0
 40
0
 40
0
 40
0
 40
0
 40
1
 40
1
 40
1
 40
1
 10
-55.407382
 20
219.745227
 30
0.0
 10
-55.407382
 20
220.638391
 30
0.0
 10
-55.883879
 20
221.463709
 30
0.0
 10
-56.657382
 20
221.910291
 30
0.0
  0
SPLINE
  5
182
100
AcDbEntity
  8
Layer_1
 62
5
100
AcDbSpline
 70
8
 71
3
 72
8
 73
4
 74
0
 40
0
 40
0
 40
0
 40
0
 40
1
 40
1
 40
1
 40
1
 10
-56.657382
 20
221.910291
 30
0.0
 10
-57.430885
 20
222.356873
 30
0.0
 10
-58.383880
 20
222.356873
 30
0.0
 10
-59.157383
 20
221.910291
 30
0.0
  0
SPLINE
  5
183
100
AcDbEntity
  8
Layer_1
 62
5
100
AcDbSpline
 70
8
 71
3
 72
8
 73
4
 74
0
 40
0
 40
0
 40
0
 40
0
 40
1
 40
1
 40
1
 40
1
 10
-59.157383
 20
221.910291
 30
0.0
 10
-59.930886
 20
221.463709
 30
0.0
 10
-60.407383
 20
220.638391
 30
0.0
 10
-60.407383
 20
219.745227
 30
0.0
  0
SPLINE
  5
184
100
AcDbEntity
  8
Layer_1
 62
5
100
AcDbSpline
 70
8
 71
3
 72
8
 73
4
 74
0
 40
0
 40
0
 40
0
 40
0
 40
1
 40
1
 40
1
 40
1
 10
-60.407383
 20
219.745227
 30
0.0
 10
-60.407383
 20
218.364515
 30
0.0
 10
-59.288095
 20
217.245227
 30
0.0
 10
-57.907383
 20
217.245227
 30
0.0
  0
SPLINE
  5
185
100
AcDbEntity
  8
Layer_1
 62
5
100
AcDbSpline
 70
8
 71
3
 72
8
 73
4
 74
0
 40
0
 40
0
 40
0
 40
0
 40
1
 40
1
 40
1
 40
1
 10
-57.907383
 20
217.245227
 30
0.0
 10
-56.526670
 20
217.245227
 30
0.0
 10
-55.407382
 20
218.364515
 30
0.0
 10
-55.407382
 20
219.745227
 30
0.0
  0
LWPOLYLINE
  5
186
100
AcDbEntity
  8
Layer_1
 62
5
100
AcDbPolyline
 90
1
 70
1
 10
-55.407382
 20
249.745227
 30
0.0
  0
SPLINE
  5
187
100
AcDbEntity
  8
Layer_1
 62
5
100
AcDbSpline
 70
8
 71
3
 72
8
 73
4
 74
0
 40
0
 40
0
 40
0
 40
0
 40
1
 40
1
 40
1
 40
1
 10
-55.407382
 20
189.745230
 30
0.0
 10
-55.407382
 20
190.638394
 30
0.0
 10
-55.883879
 20
191.463712
 30
0.0
 10
-56.657382
 20
191.910294
 30
0.0
  0
SPLINE
  5
188
100
AcDbEntity
  8
Layer_1
 62
5
100
AcDbSpline
 70
8
 71
3
 72
8
 73
4
 74
0
 40
0
 40
0
 40
0
 40
0
 40
1
 40
1
 40
1
 40
1
 10
-56.657382
 20
191.910294
 30
0.0
 10
-57.430885
 20
192.356876
 30
0.0
 10
-58.383880
 20
192.356876
 30
0.0
 10
-59.157383
 20
191.910294
 30
0.0
  0
SPLINE
  5
189
100
AcDbEntity
  8
Layer_1
 62
5
100
AcDbSpline
 70
8
 71
3
 72
8
 73
4
 74
0
 40
0
 40
0
 40
0
 40
0
 40
1
 40
1
 40
1
 40
1
 10
-59.157383
 20
191.910294
 30
0.0
 10
-59.930886
 20
191.463712
 30
0.0
 10
-60.407383
 20
190.638394
 30
0.0
 10
-60.407383
 20
189.745230
 30
0.0
  0
SPLINE
  5
18a
100
AcDbEntity
  8
Layer_1
 62
5
100
AcDbSpline
 70
8
 71
3
 72
8
 73
4
 74
0
 40
0
 40
0
 40
0
 40
0
 40
1
 40
1
 40
1
 40
1
 10
-60.407383
 20
189.745230
 30
0.0
 10
-60.407383
 20
188.364518
 30
0.0
 10
-59.288095
 20
187.245230
 30
0.0
 10
-57.907383
 20
187.245230
 30
0.0
  0
SPLINE
  5
18b
100
AcDbEntity
  8
Layer_1
 62
5
100
AcDbSpline
 70
8
 71
3
 72
8
 73
4
 74
0
 40
0
 40
0
 40
0
 40
0
 40
1
 40
1
 40
1
 40
1
 10
-57.907383
 20
187.245230
 30
0.0
 10
-56.526670
 20
187.245230
 30
0.0
 10
-55.407382
 20
188.364518
 30
0.0
 10
-55.407382
 20
189.745230
 30
0.0
  0
LWPOLYLINE
  5
18c
100
AcDbEntity
  8
Layer_1
 62
5
100
AcDbPolyline
 90
1
 70
1
 10
-55.407382
 20
219.745227
 30
0.0
  0
SPLINE
  5
18d
100
AcDbEntity
  8
Layer_1
 62
5
100
AcDbSpline
 70
8
 71
3
 72
8
 73
4
 74
0
 40
0
 40
0
 40
0
 40
0
 40
1
 40
1
 40
1
 40
1
 10
-55.407382
 20
159.745230
 30
0.0
 10
-55.407382
 20
160.638394
 30
0.0
 10
-55.883879
 20
161.463712
 30
0.0
 10
-56.657382
 20
161.910294
 30
0.0
  0
SPLINE
  5
18e
100
AcDbEntity
  8
Layer_1
 62
5
100
AcDbSpline
 70
8
 71
3
 72
8
 73
4
 74
0
 40
0
 40
0
 40
0
 40
0
 40
1
 40
1
 40
1
 40
1
 10
-56.657382
 20
161.910294
 30
0.0
 10
-57.430885
 20
162.356876
 30
0.0
 10
-58.383880
 20
162.356876
 30
0.0
 10
-59.157383
 20
161.910294
 30
0.0
  0
SPLINE
  5
18f
100
AcDbEntity
  8
Layer_1
 62
5
100
AcDbSpline
 70
8
 71
3
 72
8
 73
4
 74
0
 40
0
 40
0
 40
0
 40
0
 40
1
 40
1
 40
1
 40
1
 10
-59.157383
 20
161.910294
 30
0.0
 10
-59.930886
 20
161.463712
 30
0.0
 10
-60.407383
 20
160.638394
 30
0.0
 10
-60.407383
 20
159.745230
 30
0.0
  0
SPLINE
  5
190
100
AcDbEntity
  8
Layer_1
 62
5
100
AcDbSpline
 70
8
 71
3
 72
8
 73
4
 74
0
 40
0
 40
0
 40
0
 40
0
 40
1
 40
1
 40
1
 40
1
 10
-60.407383
 20
159.745230
 30
0.0
 10
-60.407383
 20
158.364518
 30
0.0
 10
-59.288095
 20
157.245230
 30
0.0
 10
-57.907383
 20
157.245230
 30
0.0
  0
SPLINE
  5
191
100
AcDbEntity
  8
Layer_1
 62
5
100
AcDbSpline
 70
8
 71
3
 72
8
 73
4
 74
0
 40
0
 40
0
 40
0
 40
0
 40
1
 40
1
 40
1
 40
1
 10
-57.907383
 20
157.245230
 30
0.0
 10
-56.526670
 20
157.245230
 30
0.0
 10
-55.407382
 20
158.364518
 30
0.0
 10
-55.407382
 20
159.745230
 30
0.0
  0
LWPOLYLINE
  5
192
100
AcDbEntity
  8
Layer_1
 62
5
100
AcDbPolyline
 90
1
 70
1
 10
-55.407382
 20
189.745230
 30
0.0
  0
SPLINE
  5
193
100
AcDbEntity
  8
Layer_1
 62
5
100
AcDbSpline
 70
8
 71
3
 72
8
 73
4
 74
0
 40
0
 40
0
 40
0
 40
0
 40
1
 40
1
 40
1
 40
1
 10
-55.407382
 20
129.745230
 30
0.0
 10
-55.407382
 20
130.638394
 30
0.0
 10
-55.883879
 20
131.463712
 30
0.0
 10
-56.657382
 20
131.910294
 30
0.0
  0
SPLINE
  5
194
100
AcDbEntity
  8
Layer_1
 62
5
100
AcDbSpline
 70
8
 71
3
 72
8
 73
4
 74
0
 40
0
 40
0
 40
0
 40
0
 40
1
 40
1
 40
1
 40
1
 10
-56.657382
 20
131.910294
 30
0.0
 10
-57.430885
 20
132.356876
 30
0.0
 10
-58.383880
 20
132.356876
 30
0.0
 10
-59.157383
 20
131.910294
 30
0.0
  0
SPLINE
  5
195
100
AcDbEntity
  8
Layer_1
 62
5
100
AcDbSpline
 70
8
 71
3
 72
8
 73
4
 74
0
 40
0
 40
0
 40
0
 40
0
 40
1
 40
1
 40
1
 40
1
 10
-59.157383
 20
131.910294
 30
0.0
 10
-59.930886
 20
131.463712
 30
0.0
 10
-60.407383
 20
130.638394
 30
0.0
 10
-60.407383
 20
129.745230
 30
0.0
  0
SPLINE
  5
196
100
AcDbEntity
  8
Layer_1
 62
5
100
AcDbSpline
 70
8
 71
3
 72
8
 73
4
 74
0
 40
0
 40
0
 40
0
 40
0
 40
1
 40
1
 40
1
 40
1
 10
-60.407383
 20
129.745230
 30
0.0
 10
-60.407383
 20
128.364518
 30
0.0
 10
-59.288095
 20
127.245230
 30
0.0
 10
-57.907383
 20
127.245230
 30
0.0
  0
SPLINE
  5
197
100
AcDbEntity
  8
Layer_1
 62
5
100
AcDbSpline
 70
8
 71
3
 72
8
 73
4
 74
0
 40
0
 40
0
 40
0
 40
0
 40
1
 40
1
 40
1
 40
1
 10
-57.907383
 20
127.245230
 30
0.0
 10
-56.526670
 20
127.245230
 30
0.0
 10
-55.407382
 20
128.364518
 30
0.0
 10
-55.407382
 20
129.745230
 30
0.0
  0
LWPOLYLINE
  5
198
100
AcDbEntity
  8
Layer_1
 62
5
100
AcDbPolyline
 90
1
 70
1
 10
-55.407382
 20
159.745230
 30
0.0
  0
SPLINE
  5
199
100
AcDbEntity
  8
Layer_1
 62
5
100
AcDbSpline
 70
8
 71
3
 72
8
 73
4
 74
0
 40
0
 40
0
 40
0
 40
0
 40
1
 40
1
 40
1
 40
1
 10
-55.407382
 20
99.745230
 30
0.0
 10
-55.407382
 20
100.638394
 30
0.0
 10
-55.883879
 20
101.463712
 30
0.0
 10
-56.657382
 20
101.910294
 30
0.0
  0
SPLINE
  5
19a
100
AcDbEntity
  8
Layer_1
 62
5
100
AcDbSpline
 70
8
 71
3
 72
8
 73
4
 74
0
 40
0
 40
0
 40
0
 40
0
 40
1
 40
1
 40
1
 40
1
 10
-56.657382
 20
101.910294
 30
0.0
 10
-57.430885
 20
102.356876
 30
0.0
 10
-58.383880
 20
102.356876
 30
0.0
 10
-59.157383
 20
101.910294
 30
0.0
  0
SPLINE
  5
19b
100
AcDbEntity
  8
Layer_1
 62
5
100
AcDbSpline
 70
8
 71
3
 72
8
 73
4
 74
0
 40
0
 40
0
 40
0
 40
0
 40
1
 40
1
 40
1
 40
1
 10
-59.157383
 20
101.910294
 30
0.0
 10
-59.930886
 20
101.463712
 30
0.0
 10
-60.407383
 20
100.638394
 30
0.0
 10
-60.407383
 20
99.745230
 30
0.0
  0
SPLINE
  5
19c
100
AcDbEntity
  8
Layer_1
 62
5
100
AcDbSpline
 70
8
 71
3
 72
8
 73
4
 74
0
 40
0
 40
0
 40
0
 40
0
 40
1
 40
1
 40
1
 40
1
 10
-60.407383
 20
99.745230
 30
0.0
 10
-60.407383
 20
98.364518
 30
0.0
 10
-59.288095
 20
97.245230
 30
0.0
 10
-57.907383
 20
97.245230
 30
0.0
  0
SPLINE
  5
19d
100
AcDbEntity
  8
Layer_1
 62
5
100
AcDbSpline
 70
8
 71
3
 72
8
 73
4
 74
0
 40
0
 40
0
 40
0
 40
0
 40
1
 40
1
 40
1
 40
1
 10
-57.907383
 20
97.245230
 30
0.0
 10
-56.526670
 20
97.245230
 30
0.0
 10
-55.407382
 20
98.364518
 30
0.0
 10
-55.407382
 20
99.745230
 30
0.0
  0
LWPOLYLINE
  5
19e
100
AcDbEntity
  8
Layer_1
 62
5
100
AcDbPolyline
 90
1
 70
1
 10
-55.407382
 20
129.745230
 30
0.0
  0
SPLINE
  5
19f
100
AcDbEntity
  8
Layer_1
 62
5
100
AcDbSpline
 70
8
 71
3
 72
8
 73
4
 74
0
 40
0
 40
0
 40
0
 40
0
 40
1
 40
1
 40
1
 40
1
 10
-25.407382
 20
399.745220
 30
0.0
 10
-25.408058
 20
401.125454
 30
0.0
 10
-26.527148
 20
402.243996
 30
0.0
 10
-27.907382
 20
402.243996
 30
0.0
  0
SPLINE
  5
1a0
100
AcDbEntity
  8
Layer_1
 62
5
100
AcDbSpline
 70
8
 71
3
 72
8
 73
4
 74
0
 40
0
 40
0
 40
0
 40
0
 40
1
 40
1
 40
1
 40
1
 10
-27.907382
 20
402.243996
 30
0.0
 10
-29.287616
 20
402.243996
 30
0.0
 10
-30.406706
 20
401.125454
 30
0.0
 10
-30.407382
 20
399.745220
 30
0.0
  0
SPLINE
  5
1a1
100
AcDbEntity
  8
Layer_1
 62
5
100
AcDbSpline
 70
8
 71
3
 72
8
 73
4
 74
0
 40
0
 40
0
 40
0
 40
0
 40
1
 40
1
 40
1
 40
1
 10
-30.407382
 20
399.745220
 30
0.0
 10
-30.406706
 20
398.364986
 30
0.0
 10
-29.287616
 20
397.246444
 30
0.0
 10
-27.907382
 20
397.246444
 30
0.0
  0
SPLINE
  5
1a2
100
AcDbEntity
  8
Layer_1
 62
5
100
AcDbSpline
 70
8
 71
3
 72
8
 73
4
 74
0
 40
0
 40
0
 40
0
 40
0
 40
1
 40
1
 40
1
 40
1
 10
-27.907382
 20
397.246444
 30
0.0
 10
-26.527148
 20
397.246444
 30
0.0
 10
-25.408058
 20
398.364986
 30
0.0
 10
-25.407382
 20
399.745220
 30
0.0
  0
LWPOLYLINE
  5
1a3
100
AcDbEntity
  8
Layer_1
 62
5
100
AcDbPolyline
 90
1
 70
1
 10
-55.407382
 20
99.745230
 30
0.0
  0
SPLINE
  5
1a4
100
AcDbEntity
  8
Layer_1
 62
5
100
AcDbSpline
 70
8
 71
3
 72
8
 73
4
 74
0
 40
0
 40
0
 40
0
 40
0
 40
1
 40
1
 40
1
 40
1
 10
-25.407382
 20
369.745224
 30
0.0
 10
-25.408058
 20
371.125458
 30
0.0
 10
-26.527148
 20
372.244000
 30
0.0
 10
-27.907382
 20
372.244000
 30
0.0
  0
SPLINE
  5
1a5
100
AcDbEntity
  8
Layer_1
 62
5
100
AcDbSpline
 70
8
 71
3
 72
8
 73
4
 74
0
 40
0
 40
0
 40
0
 40
0
 40
1
 40
1
 40
1
 40
1
 10
-27.907382
 20
372.244000
 30
0.0
 10
-29.287616
 20
372.244000
 30
0.0
 10
-30.406706
 20
371.125458
 30
0.0
 10
-30.407382
 20
369.745224
 30
0.0
  0
SPLINE
  5
1a6
100
AcDbEntity
  8
Layer_1
 62
5
100
AcDbSpline
 70
8
 71
3
 72
8
 73
4
 74
0
 40
0
 40
0
 40
0
 40
0
 40
1
 40
1
 40
1
 40
1
 10
-30.407382
 20
369.745224
 30
0.0
 10
-30.406706
 20
368.364990
 30
0.0
 10
-29.287616
 20
367.246448
 30
0.0
 10
-27.907382
 20
367.246448
 30
0.0
  0
SPLINE
  5
1a7
100
AcDbEntity
  8
Layer_1
 62
5
100
AcDbSpline
 70
8
 71
3
 72
8
 73
4
 74
0
 40
0
 40
0
 40
0
 40
0
 40
1
 40
1
 40
1
 40
1
 10
-27.907382
 20
367.246448
 30
0.0
 10
-26.527148
 20
367.246448
 30
0.0
 10
-25.408058
 20
368.364990
 30
0.0
 10
-25.407382
 20
369.745224
 30
0.0
  0
LWPOLYLINE
  5
1a8
100
AcDbEntity
  8
Layer_1
 62
5
100
AcDbPolyline
 90
1
 70
1
 10
-25.407382
 20
399.745220
 30
0.0
  0
SPLINE
  5
1a9
100
AcDbEntity
  8
Layer_1
 62
5
100
AcDbSpline
 70
8
 71
3
 72
8
 73
4
 74
0
 40
0
 40
0
 40
0
 40
0
 40
1
 40
1
 40
1
 40
1
 10
-25.407382
 20
339.745225
 30
0.0
 10
-25.408058
 20
341.125459
 30
0.0
 10
-26.527148
 20
342.244001
 30
0.0
 10
-27.907382
 20
342.244001
 30
0.0
  0
SPLINE
  5
1aa
100
AcDbEntity
  8
Layer_1
 62
5
100
AcDbSpline
 70
8
 71
3
 72
8
 73
4
 74
0
 40
0
 40
0
 40
0
 40
0
 40
1
 40
1
 40
1
 40
1
 10
-27.907382
 20
342.244001
 30
0.0
 10
-29.287616
 20
342.244001
 30
0.0
 10
-30.406706
 20
341.125459
 30
0.0
 10
-30.407382
 20
339.745225
 30
0.0
  0
SPLINE
  5
1ab
100
AcDbEntity
  8
Layer_1
 62
5
100
AcDbSpline
 70
8
 71
3
 72
8
 73
4
 74
0
 40
0
 40
0
 40
0
 40
0
 40
1
 40
1
 40
1
 40
1
 10
-30.407382
 20
339.745225
 30
0.0
 10
-30.406706
 20
338.364991
 30
0.0
 10
-29.287616
 20
337.246449
 30
0.0
 10
-27.907382
 20
337.246449
 30
0.0
  0
SPLINE
  5
1ac
100
AcDbEntity
  8
Layer_1
 62
5
100
AcDbSpline
 70
8
 71
3
 72
8
 73
4
 74
0
 40
0
 40
0
 40
0
 40
0
 40
1
 40
1
 40
1
 40
1
 10
-27.907382
 20
337.246449
 30
0.0
 10
-26.527148
 20
337.246449
 30
0.0
 10
-25.408058
 20
338.364991
 30
0.0
 10
-25.407382
 20
339.745225
 30
0.0
  0
LWPOLYLINE
  5
1ad
100
AcDbEntity
  8
Layer_1
 62
5
100
AcDbPolyline
 90
1
 70
1
 10
-25.407382
 20
369.745224
 30
0.0
  0
SPLINE
  5
1ae
100
AcDbEntity
  8
Layer_1
 62
5
100
AcDbSpline
 70
8
 71
3
 72
8
 73
4
 74
0
 40
0
 40
0
 40
0
 40
0
 40
1
 40
1
 40
1
 40
1
 10
-25.407382
 20
309.745225
 30
0.0
 10
-25.408058
 20
311.125459
 30
0.0
 10
-26.527148
 20
312.244001
 30
0.0
 10
-27.907382
 20
312.244001
 30
0.0
  0
SPLINE
  5
1af
100
AcDbEntity
  8
Layer_1
 62
5
100
AcDbSpline
 70
8
 71
3
 72
8
 73
4
 74
0
 40
0
 40
0
 40
0
 40
0
 40
1
 40
1
 40
1
 40
1
 10
-27.907382
 20
312.244001
 30
0.0
 10
-29.287616
 20
312.244001
 30
0.0
 10
-30.406706
 20
311.125459
 30
0.0
 10
-30.407382
 20
309.745225
 30
0.0
  0
SPLINE
  5
1b0
100
AcDbEntity
  8
Layer_1
 62
5
100
AcDbSpline
 70
8
 71
3
 72
8
 73
4
 74
0
 40
0
 40
0
 40
0
 40
0
 40
1
 40
1
 40
1
 40
1
 10
-30.407382
 20
309.745225
 30
0.0
 10
-30.406706
 20
308.364991
 30
0.0
 10
-29.287616
 20
307.246449
 30
0.0
 10
-27.907382
 20
307.246449
 30
0.0
  0
SPLINE
  5
1b1
100
AcDbEntity
  8
Layer_1
 62
5
100
AcDbSpline
 70
8
 71
3
 72
8
 73
4
 74
0
 40
0
 40
0
 40
0
 40
0
 40
1
 40
1
 40
1
 40
1
 10
-27.907382
 20
307.246449
 30
0.0
 10
-26.527148
 20
307.246449
 30
0.0
 10
-25.408058
 20
308.364991
 30
0.0
 10
-25.407382
 20
309.745225
 30
0.0
  0
LWPOLYLINE
  5
1b2
100
AcDbEntity
  8
Layer_1
 62
5
100
AcDbPolyline
 90
1
 70
1
 10
-25.407382
 20
339.745225
 30
0.0
  0
SPLINE
  5
1b3
100
AcDbEntity
  8
Layer_1
 62
5
100
AcDbSpline
 70
8
 71
3
 72
8
 73
4
 74
0
 40
0
 40
0
 40
0
 40
0
 40
1
 40
1
 40
1
 40
1
 10
-25.407382
 20
279.745225
 30
0.0
 10
-25.408058
 20
281.125459
 30
0.0
 10
-26.527148
 20
282.244001
 30
0.0
 10
-27.907382
 20
282.244001
 30
0.0
  0
SPLINE
  5
1b4
100
AcDbEntity
  8
Layer_1
 62
5
100
AcDbSpline
 70
8
 71
3
 72
8
 73
4
 74
0
 40
0
 40
0
 40
0
 40
0
 40
1
 40
1
 40
1
 40
1
 10
-27.907382
 20
282.244001
 30
0.0
 10
-29.287616
 20
282.244001
 30
0.0
 10
-30.406706
 20
281.125459
 30
0.0
 10
-30.407382
 20
279.745225
 30
0.0
  0
SPLINE
  5
1b5
100
AcDbEntity
  8
Layer_1
 62
5
100
AcDbSpline
 70
8
 71
3
 72
8
 73
4
 74
0
 40
0
 40
0
 40
0
 40
0
 40
1
 40
1
 40
1
 40
1
 10
-30.407382
 20
279.745225
 30
0.0
 10
-30.406706
 20
278.364991
 30
0.0
 10
-29.287616
 20
277.246449
 30
0.0
 10
-27.907382
 20
277.246449
 30
0.0
  0
SPLINE
  5
1b6
100
AcDbEntity
  8
Layer_1
 62
5
100
AcDbSpline
 70
8
 71
3
 72
8
 73
4
 74
0
 40
0
 40
0
 40
0
 40
0
 40
1
 40
1
 40
1
 40
1
 10
-27.907382
 20
277.246449
 30
0.0
 10
-26.527148
 20
277.246449
 30
0.0
 10
-25.408058
 20
278.364991
 30
0.0
 10
-25.407382
 20
279.745225
 30
0.0
  0
LWPOLYLINE
  5
1b7
100
AcDbEntity
  8
Layer_1
 62
5
100
AcDbPolyline
 90
1
 70
1
 10
-25.407382
 20
309.745225
 30
0.0
  0
SPLINE
  5
1b8
100
AcDbEntity
  8
Layer_1
 62
5
100
AcDbSpline
 70
8
 71
3
 72
8
 73
4
 74
0
 40
0
 40
0
 40
0
 40
0
 40
1
 40
1
 40
1
 40
1
 10
-25.407382
 20
249.745227
 30
0.0
 10
-25.408058
 20
251.125461
 30
0.0
 10
-26.527148
 20
252.244003
 30
0.0
 10
-27.907382
 20
252.244003
 30
0.0
  0
SPLINE
  5
1b9
100
AcDbEntity
  8
Layer_1
 62
5
100
AcDbSpline
 70
8
 71
3
 72
8
 73
4
 74
0
 40
0
 40
0
 40
0
 40
0
 40
1
 40
1
 40
1
 40
1
 10
-27.907382
 20
252.244003
 30
0.0
 10
-29.287616
 20
252.244003
 30
0.0
 10
-30.406706
 20
251.125461
 30
0.0
 10
-30.407382
 20
249.745227
 30
0.0
  0
SPLINE
  5
1ba
100
AcDbEntity
  8
Layer_1
 62
5
100
AcDbSpline
 70
8
 71
3
 72
8
 73
4
 74
0
 40
0
 40
0
 40
0
 40
0
 40
1
 40
1
 40
1
 40
1
 10
-30.407382
 20
249.745227
 30
0.0
 10
-30.406706
 20
248.364993
 30
0.0
 10
-29.287616
 20
247.246451
 30
0.0
 10
-27.907382
 20
247.246451
 30
0.0
  0
SPLINE
  5
1bb
100
AcDbEntity
  8
Layer_1
 62
5
100
AcDbSpline
 70
8
 71
3
 72
8
 73
4
 74
0
 40
0
 40
0
 40
0
 40
0
 40
1
 40
1
 40
1
 40
1
 10
-27.907382
 20
247.246451
 30
0.0
 10
-26.527148
 20
247.246451
 30
0.0
 10
-25.408058
 20
248.364993
 30
0.0
 10
-25.407382
 20
249.745227
 30
0.0
  0
LWPOLYLINE
  5
1bc
100
AcDbEntity
  8
Layer_1
 62
5
100
AcDbPolyline
 90
1
 70
1
 10
-25.407382
 20
279.745225
 30
0.0
  0
SPLINE
  5
1bd
100
AcDbEntity
  8
Layer_1
 62
5
100
AcDbSpline
 70
8
 71
3
 72
8
 73
4
 74
0
 40
0
 40
0
 40
0
 40
0
 40
1
 40
1
 40
1
 40
1
 10
-25.407382
 20
219.745227
 30
0.0
 10
-25.408058
 20
221.125461
 30
0.0
 10
-26.527148
 20
222.244003
 30
0.0
 10
-27.907382
 20
222.244003
 30
0.0
  0
SPLINE
  5
1be
100
AcDbEntity
  8
Layer_1
 62
5
100
AcDbSpline
 70
8
 71
3
 72
8
 73
4
 74
0
 40
0
 40
0
 40
0
 40
0
 40
1
 40
1
 40
1
 40
1
 10
-27.907382
 20
222.244003
 30
0.0
 10
-29.287616
 20
222.244003
 30
0.0
 10
-30.406706
 20
221.125461
 30
0.0
 10
-30.407382
 20
219.745227
 30
0.0
  0
SPLINE
  5
1bf
100
AcDbEntity
  8
Layer_1
 62
5
100
AcDbSpline
 70
8
 71
3
 72
8
 73
4
 74
0
 40
0
 40
0
 40
0
 40
0
 40
1
 40
1
 40
1
 40
1
 10
-30.407382
 20
219.745227
 30
0.0
 10
-30.406706
 20
218.364993
 30
0.0
 10
-29.287616
 20
217.246451
 30
0.0
 10
-27.907382
 20
217.246451
 30
0.0
  0
SPLINE
  5
1c0
100
AcDbEntity
  8
Layer_1
 62
5
100
AcDbSpline
 70
8
 71
3
 72
8
 73
4
 74
0
 40
0
 40
0
 40
0
 40
0
 40
1
 40
1
 40
1
 40
1
 10
-27.907382
 20
217.246451
 30
0.0
 10
-26.527148
 20
217.246451
 30
0.0
 10
-25.408058
 20
218.364993
 30
0.0
 10
-25.407382
 20
219.745227
 30
0.0
  0
LWPOLYLINE
  5
1c1
100
AcDbEntity
  8
Layer_1
 62
5
100
AcDbPolyline
 90
1
 70
1
 10
-25.407382
 20
249.745227
 30
0.0
  0
SPLINE
  5
1c2
100
AcDbEntity
  8
Layer_1
 62
5
100
AcDbSpline
 70
8
 71
3
 72
8
 73
4
 74
0
 40
0
 40
0
 40
0
 40
0
 40
1
 40
1
 40
1
 40
1
 10
-25.407382
 20
189.745230
 30
0.0
 10
-25.408058
 20
191.125464
 30
0.0
 10
-26.527148
 20
192.244006
 30
0.0
 10
-27.907382
 20
192.244006
 30
0.0
  0
SPLINE
  5
1c3
100
AcDbEntity
  8
Layer_1
 62
5
100
AcDbSpline
 70
8
 71
3
 72
8
 73
4
 74
0
 40
0
 40
0
 40
0
 40
0
 40
1
 40
1
 40
1
 40
1
 10
-27.907382
 20
192.244006
 30
0.0
 10
-29.287616
 20
192.244006
 30
0.0
 10
-30.406706
 20
191.125464
 30
0.0
 10
-30.407382
 20
189.745230
 30
0.0
  0
SPLINE
  5
1c4
100
AcDbEntity
  8
Layer_1
 62
5
100
AcDbSpline
 70
8
 71
3
 72
8
 73
4
 74
0
 40
0
 40
0
 40
0
 40
0
 40
1
 40
1
 40
1
 40
1
 10
-30.407382
 20
189.745230
 30
0.0
 10
-30.406706
 20
188.364996
 30
0.0
 10
-29.287616
 20
187.246454
 30
0.0
 10
-27.907382
 20
187.246454
 30
0.0
  0
SPLINE
  5
1c5
100
AcDbEntity
  8
Layer_1
 62
5
100
AcDbSpline
 70
8
 71
3
 72
8
 73
4
 74
0
 40
0
 40
0
 40
0
 40
0
 40
1
 40
1
 40
1
 40
1
 10
-27.907382
 20
187.246454
 30
0.0
 10
-26.527148
 20
187.246454
 30
0.0
 10
-25.408058
 20
188.364996
 30
0.0
 10
-25.407382
 20
189.745230
 30
0.0
  0
LWPOLYLINE
  5
1c6
100
AcDbEntity
  8
Layer_1
 62
5
100
AcDbPolyline
 90
1
 70
1
 10
-25.407382
 20
219.745227
 30
0.0
  0
SPLINE
  5
1c7
100
AcDbEntity
  8
Layer_1
 62
5
100
AcDbSpline
 70
8
 71
3
 72
8
 73
4
 74
0
 40
0
 40
0
 40
0
 40
0
 40
1
 40
1
 40
1
 40
1
 10
-25.407382
 20
159.745230
 30
0.0
 10
-25.408058
 20
161.125464
 30
0.0
 10
-26.527148
 20
162.244006
 30
0.0
 10
-27.907382
 20
162.244006
 30
0.0
  0
SPLINE
  5
1c8
100
AcDbEntity
  8
Layer_1
 62
5
100
AcDbSpline
 70
8
 71
3
 72
8
 73
4
 74
0
 40
0
 40
0
 40
0
 40
0
 40
1
 40
1
 40
1
 40
1
 10
-27.907382
 20
162.244006
 30
0.0
 10
-29.287616
 20
162.244006
 30
0.0
 10
-30.406706
 20
161.125464
 30
0.0
 10
-30.407382
 20
159.745230
 30
0.0
  0
SPLINE
  5
1c9
100
AcDbEntity
  8
Layer_1
 62
5
100
AcDbSpline
 70
8
 71
3
 72
8
 73
4
 74
0
 40
0
 40
0
 40
0
 40
0
 40
1
 40
1
 40
1
 40
1
 10
-30.407382
 20
159.745230
 30
0.0
 10
-30.406706
 20
158.364996
 30
0.0
 10
-29.287616
 20
157.246454
 30
0.0
 10
-27.907382
 20
157.246454
 30
0.0
  0
SPLINE
  5
1ca
100
AcDbEntity
  8
Layer_1
 62
5
100
AcDbSpline
 70
8
 71
3
 72
8
 73
4
 74
0
 40
0
 40
0
 40
0
 40
0
 40
1
 40
1
 40
1
 40
1
 10
-27.907382
 20
157.246454
 30
0.0
 10
-26.527148
 20
157.246454
 30
0.0
 10
-25.408058
 20
158.364996
 30
0.0
 10
-25.407382
 20
159.745230
 30
0.0
  0
LWPOLYLINE
  5
1cb
100
AcDbEntity
  8
Layer_1
 62
5
100
AcDbPolyline
 90
1
 70
1
 10
-25.407382
 20
189.745230
 30
0.0
  0
SPLINE
  5
1cc
100
AcDbEntity
  8
Layer_1
 62
5
100
AcDbSpline
 70
8
 71
3
 72
8
 73
4
 74
0
 40
0
 40
0
 40
0
 40
0
 40
1
 40
1
 40
1
 40
1
 10
-25.407382
 20
129.745230
 30
0.0
 10
-25.408058
 20
131.125464
 30
0.0
 10
-26.527148
 20
132.244006
 30
0.0
 10
-27.907382
 20
132.244006
 30
0.0
  0
SPLINE
  5
1cd
100
AcDbEntity
  8
Layer_1
 62
5
100
AcDbSpline
 70
8
 71
3
 72
8
 73
4
 74
0
 40
0
 40
0
 40
0
 40
0
 40
1
 40
1
 40
1
 40
1
 10
-27.907382
 20
132.244006
 30
0.0
 10
-29.287616
 20
132.244006
 30
0.0
 10
-30.406706
 20
131.125464
 30
0.0
 10
-30.407382
 20
129.745230
 30
0.0
  0
SPLINE
  5
1ce
100
AcDbEntity
  8
Layer_1
 62
5
100
AcDbSpline
 70
8
 71
3
 72
8
 73
4
 74
0
 40
0
 40
0
 40
0
 40
0
 40
1
 40
1
 40
1
 40
1
 10
-30.407382
 20
129.745230
 30
0.0
 10
-30.406706
 20
128.364996
 30
0.0
 10
-29.287616
 20
127.246454
 30
0.0
 10
-27.907382
 20
127.246454
 30
0.0
  0
SPLINE
  5
1cf
100
AcDbEntity
  8
Layer_1
 62
5
100
AcDbSpline
 70
8
 71
3
 72
8
 73
4
 74
0
 40
0
 40
0
 40
0
 40
0
 40
1
 40
1
 40
1
 40
1
 10
-27.907382
 20
127.246454
 30
0.0
 10
-26.527148
 20
127.246454
 30
0.0
 10
-25.408058
 20
128.364996
 30
0.0
 10
-25.407382
 20
129.745230
 30
0.0
  0
LWPOLYLINE
  5
1d0
100
AcDbEntity
  8
Layer_1
 62
5
100
AcDbPolyline
 90
1
 70
1
 10
-25.407382
 20
159.745230
 30
0.0
  0
SPLINE
  5
1d1
100
AcDbEntity
  8
Layer_1
 62
5
100
AcDbSpline
 70
8
 71
3
 72
8
 73
4
 74
0
 40
0
 40
0
 40
0
 40
0
 40
1
 40
1
 40
1
 40
1
 10
-25.407382
 20
99.745230
 30
0.0
 10
-25.408058
 20
101.125464
 30
0.0
 10
-26.527148
 20
102.244006
 30
0.0
 10
-27.907382
 20
102.244006
 30
0.0
  0
SPLINE
  5
1d2
100
AcDbEntity
  8
Layer_1
 62
5
100
AcDbSpline
 70
8
 71
3
 72
8
 73
4
 74
0
 40
0
 40
0
 40
0
 40
0
 40
1
 40
1
 40
1
 40
1
 10
-27.907382
 20
102.244006
 30
0.0
 10
-29.287616
 20
102.244006
 30
0.0
 10
-30.406706
 20
101.125464
 30
0.0
 10
-30.407382
 20
99.745230
 30
0.0
  0
SPLINE
  5
1d3
100
AcDbEntity
  8
Layer_1
 62
5
100
AcDbSpline
 70
8
 71
3
 72
8
 73
4
 74
0
 40
0
 40
0
 40
0
 40
0
 40
1
 40
1
 40
1
 40
1
 10
-30.407382
 20
99.745230
 30
0.0
 10
-30.406706
 20
98.364996
 30
0.0
 10
-29.287616
 20
97.246454
 30
0.0
 10
-27.907382
 20
97.246454
 30
0.0
  0
SPLINE
  5
1d4
100
AcDbEntity
  8
Layer_1
 62
5
100
AcDbSpline
 70
8
 71
3
 72
8
 73
4
 74
0
 40
0
 40
0
 40
0
 40
0
 40
1
 40
1
 40
1
 40
1
 10
-27.907382
 20
97.246454
 30
0.0
 10
-26.527148
 20
97.246454
 30
0.0
 10
-25.408058
 20
98.364996
 30
0.0
 10
-25.407382
 20
99.745230
 30
0.0
  0
LWPOLYLINE
  5
1d5
100
AcDbEntity
  8
Layer_1
 62
5
100
AcDbPolyline
 90
1
 70
1
 10
-25.407382
 20
129.745230
 30
0.0
  0
SPLINE
  5
1d6
100
AcDbEntity
  8
Layer_1
 62
5
100
AcDbSpline
 70
8
 71
3
 72
8
 73
4
 74
0
 40
0
 40
0
 40
0
 40
0
 40
1
 40
1
 40
1
 40
1
 10
4.592619
 20
399.745220
 30
0.0
 10
4.592357
 20
401.125747
 30
0.0
 10
3.473145
 20
402.244746
 30
0.0
 10
2.092619
 20
402.244746
 30
0.0
  0
SPLINE
  5
1d7
100
AcDbEntity
  8
Layer_1
 62
5
100
AcDbSpline
 70
8
 71
3
 72
8
 73
4
 74
0
 40
0
 40
0
 40
0
 40
0
 40
1
 40
1
 40
1
 40
1
 10
2.092619
 20
402.244746
 30
0.0
 10
0.712092
 20
402.244746
 30
0.0
 10
-0.407120
 20
401.125747
 30
0.0
 10
-0.407382
 20
399.745220
 30
0.0
  0
SPLINE
  5
1d8
100
AcDbEntity
  8
Layer_1
 62
5
100
AcDbSpline
 70
8
 71
3
 72
8
 73
4
 74
0
 40
0
 40
0
 40
0
 40
0
 40
1
 40
1
 40
1
 40
1
 10
-0.407382
 20
399.745220
 30
0.0
 10
-0.407120
 20
398.364693
 30
0.0
 10
0.712092
 20
397.245694
 30
0.0
 10
2.092619
 20
397.245694
 30
0.0
  0
SPLINE
  5
1d9
100
AcDbEntity
  8
Layer_1
 62
5
100
AcDbSpline
 70
8
 71
3
 72
8
 73
4
 74
0
 40
0
 40
0
 40
0
 40
0
 40
1
 40
1
 40
1
 40
1
 10
2.092619
 20
397.245694
 30
0.0
 10
3.473145
 20
397.245694
 30
0.0
 10
4.592357
 20
398.364693
 30
0.0
 10
4.592619
 20
399.745220
 30
0.0
  0
LWPOLYLINE
  5
1da
100
AcDbEntity
  8
Layer_1
 62
5
100
AcDbPolyline
 90
1
 70
1
 10
-25.407382
 20
99.745230
 30
0.0
  0
SPLINE
  5
1db
100
AcDbEntity
  8
Layer_1
 62
5
100
AcDbSpline
 70
8
 71
3
 72
8
 73
4
 74
0
 40
0
 40
0
 40
0
 40
0
 40
1
 40
1
 40
1
 40
1
 10
4.592619
 20
369.745224
 30
0.0
 10
4.592357
 20
371.125751
 30
0.0
 10
3.473145
 20
372.244750
 30
0.0
 10
2.092619
 20
372.244750
 30
0.0
  0
SPLINE
  5
1dc
100
AcDbEntity
  8
Layer_1
 62
5
100
AcDbSpline
 70
8
 71
3
 72
8
 73
4
 74
0
 40
0
 40
0
 40
0
 40
0
 40
1
 40
1
 40
1
 40
1
 10
2.092619
 20
372.244750
 30
0.0
 10
0.712092
 20
372.244750
 30
0.0
 10
-0.407120
 20
371.125751
 30
0.0
 10
-0.407382
 20
369.745224
 30
0.0
  0
SPLINE
  5
1dd
100
AcDbEntity
  8
Layer_1
 62
5
100
AcDbSpline
 70
8
 71
3
 72
8
 73
4
 74
0
 40
0
 40
0
 40
0
 40
0
 40
1
 40
1
 40
1
 40
1
 10
-0.407382
 20
369.745224
 30
0.0
 10
-0.407120
 20
368.364697
 30
0.0
 10
0.712092
 20
367.245698
 30
0.0
 10
2.092619
 20
367.245698
 30
0.0
  0
SPLINE
  5
1de
100
AcDbEntity
  8
Layer_1
 62
5
100
AcDbSpline
 70
8
 71
3
 72
8
 73
4
 74
0
 40
0
 40
0
 40
0
 40
0
 40
1
 40
1
 40
1
 40
1
 10
2.092619
 20
367.245698
 30
0.0
 10
3.473145
 20
367.245698
 30
0.0
 10
4.592357
 20
368.364697
 30
0.0
 10
4.592619
 20
369.745224
 30
0.0
  0
LWPOLYLINE
  5
1df
100
AcDbEntity
  8
Layer_1
 62
5
100
AcDbPolyline
 90
1
 70
1
 10
4.592619
 20
399.745220
 30
0.0
  0
SPLINE
  5
1e0
100
AcDbEntity
  8
Layer_1
 62
5
100
AcDbSpline
 70
8
 71
3
 72
8
 73
4
 74
0
 40
0
 40
0
 40
0
 40
0
 40
1
 40
1
 40
1
 40
1
 10
4.592619
 20
339.745225
 30
0.0
 10
4.592357
 20
341.125752
 30
0.0
 10
3.473145
 20
342.244751
 30
0.0
 10
2.092619
 20
342.244751
 30
0.0
  0
SPLINE
  5
1e1
100
AcDbEntity
  8
Layer_1
 62
5
100
AcDbSpline
 70
8
 71
3
 72
8
 73
4
 74
0
 40
0
 40
0
 40
0
 40
0
 40
1
 40
1
 40
1
 40
1
 10
2.092619
 20
342.244751
 30
0.0
 10
0.712092
 20
342.244751
 30
0.0
 10
-0.407120
 20
341.125752
 30
0.0
 10
-0.407382
 20
339.745225
 30
0.0
  0
SPLINE
  5
1e2
100
AcDbEntity
  8
Layer_1
 62
5
100
AcDbSpline
 70
8
 71
3
 72
8
 73
4
 74
0
 40
0
 40
0
 40
0
 40
0
 40
1
 40
1
 40
1
 40
1
 10
-0.407382
 20
339.745225
 30
0.0
 10
-0.407120
 20
338.364698
 30
0.0
 10
0.712092
 20
337.245699
 30
0.0
 10
2.092619
 20
337.245699
 30
0.0
  0
SPLINE
  5
1e3
100
AcDbEntity
  8
Layer_1
 62
5
100
AcDbSpline
 70
8
 71
3
 72
8
 73
4
 74
0
 40
0
 40
0
 40
0
 40
0
 40
1
 40
1
 40
1
 40
1
 10
2.092619
 20
337.245699
 30
0.0
 10
3.473145
 20
337.245699
 30
0.0
 10
4.592357
 20
338.364698
 30
0.0
 10
4.592619
 20
339.745225
 30
0.0
  0
LWPOLYLINE
  5
1e4
100
AcDbEntity
  8
Layer_1
 62
5
100
AcDbPolyline
 90
1
 70
1
 10
4.592619
 20
369.745224
 30
0.0
  0
SPLINE
  5
1e5
100
AcDbEntity
  8
Layer_1
 62
5
100
AcDbSpline
 70
8
 71
3
 72
8
 73
4
 74
0
 40
0
 40
0
 40
0
 40
0
 40
1
 40
1
 40
1
 40
1
 10
4.592619
 20
309.745225
 30
0.0
 10
4.592357
 20
311.125752
 30
0.0
 10
3.473145
 20
312.244751
 30
0.0
 10
2.092619
 20
312.244751
 30
0.0
  0
SPLINE
  5
1e6
100
AcDbEntity
  8
Layer_1
 62
5
100
AcDbSpline
 70
8
 71
3
 72
8
 73
4
 74
0
 40
0
 40
0
 40
0
 40
0
 40
1
 40
1
 40
1
 40
1
 10
2.092619
 20
312.244751
 30
0.0
 10
0.712092
 20
312.244751
 30
0.0
 10
-0.407120
 20
311.125752
 30
0.0
 10
-0.407382
 20
309.745225
 30
0.0
  0
SPLINE
  5
1e7
100
AcDbEntity
  8
Layer_1
 62
5
100
AcDbSpline
 70
8
 71
3
 72
8
 73
4
 74
0
 40
0
 40
0
 40
0
 40
0
 40
1
 40
1
 40
1
 40
1
 10
-0.407382
 20
309.745225
 30
0.0
 10
-0.407120
 20
308.364698
 30
0.0
 10
0.712092
 20
307.245699
 30
0.0
 10
2.092619
 20
307.245699
 30
0.0
  0
SPLINE
  5
1e8
100
AcDbEntity
  8
Layer_1
 62
5
100
AcDbSpline
 70
8
 71
3
 72
8
 73
4
 74
0
 40
0
 40
0
 40
0
 40
0
 40
1
 40
1
 40
1
 40
1
 10
2.092619
 20
307.245699
 30
0.0
 10
3.473145
 20
307.245699
 30
0.0
 10
4.592357
 20
308.364698
 30
0.0
 10
4.592619
 20
309.745225
 30
0.0
  0
LWPOLYLINE
  5
1e9
100
AcDbEntity
  8
Layer_1
 62
5
100
AcDbPolyline
 90
1
 70
1
 10
4.592619
 20
339.745225
 30
0.0
  0
SPLINE
  5
1ea
100
AcDbEntity
  8
Layer_1
 62
5
100
AcDbSpline
 70
8
 71
3
 72
8
 73
4
 74
0
 40
0
 40
0
 40
0
 40
0
 40
1
 40
1
 40
1
 40
1
 10
4.592619
 20
279.745225
 30
0.0
 10
4.592357
 20
281.125752
 30
0.0
 10
3.473145
 20
282.244751
 30
0.0
 10
2.092619
 20
282.244751
 30
0.0
  0
SPLINE
  5
1eb
100
AcDbEntity
  8
Layer_1
 62
5
100
AcDbSpline
 70
8
 71
3
 72
8
 73
4
 74
0
 40
0
 40
0
 40
0
 40
0
 40
1
 40
1
 40
1
 40
1
 10
2.092619
 20
282.244751
 30
0.0
 10
0.712092
 20
282.244751
 30
0.0
 10
-0.407120
 20
281.125752
 30
0.0
 10
-0.407382
 20
279.745225
 30
0.0
  0
SPLINE
  5
1ec
100
AcDbEntity
  8
Layer_1
 62
5
100
AcDbSpline
 70
8
 71
3
 72
8
 73
4
 74
0
 40
0
 40
0
 40
0
 40
0
 40
1
 40
1
 40
1
 40
1
 10
-0.407382
 20
279.745225
 30
0.0
 10
-0.407120
 20
278.364698
 30
0.0
 10
0.712092
 20
277.245699
 30
0.0
 10
2.092619
 20
277.245699
 30
0.0
  0
SPLINE
  5
1ed
100
AcDbEntity
  8
Layer_1
 62
5
100
AcDbSpline
 70
8
 71
3
 72
8
 73
4
 74
0
 40
0
 40
0
 40
0
 40
0
 40
1
 40
1
 40
1
 40
1
 10
2.092619
 20
277.245699
 30
0.0
 10
3.473145
 20
277.245699
 30
0.0
 10
4.592357
 20
278.364698
 30
0.0
 10
4.592619
 20
279.745225
 30
0.0
  0
LWPOLYLINE
  5
1ee
100
AcDbEntity
  8
Layer_1
 62
5
100
AcDbPolyline
 90
1
 70
1
 10
4.592619
 20
309.745225
 30
0.0
  0
SPLINE
  5
1ef
100
AcDbEntity
  8
Layer_1
 62
5
100
AcDbSpline
 70
8
 71
3
 72
8
 73
4
 74
0
 40
0
 40
0
 40
0
 40
0
 40
1
 40
1
 40
1
 40
1
 10
4.592619
 20
249.745227
 30
0.0
 10
4.592357
 20
251.125754
 30
0.0
 10
3.473145
 20
252.244753
 30
0.0
 10
2.092619
 20
252.244753
 30
0.0
  0
SPLINE
  5
1f0
100
AcDbEntity
  8
Layer_1
 62
5
100
AcDbSpline
 70
8
 71
3
 72
8
 73
4
 74
0
 40
0
 40
0
 40
0
 40
0
 40
1
 40
1
 40
1
 40
1
 10
2.092619
 20
252.244753
 30
0.0
 10
0.712092
 20
252.244753
 30
0.0
 10
-0.407120
 20
251.125754
 30
0.0
 10
-0.407382
 20
249.745227
 30
0.0
  0
SPLINE
  5
1f1
100
AcDbEntity
  8
Layer_1
 62
5
100
AcDbSpline
 70
8
 71
3
 72
8
 73
4
 74
0
 40
0
 40
0
 40
0
 40
0
 40
1
 40
1
 40
1
 40
1
 10
-0.407382
 20
249.745227
 30
0.0
 10
-0.407120
 20
248.364700
 30
0.0
 10
0.712092
 20
247.245701
 30
0.0
 10
2.092619
 20
247.245701
 30
0.0
  0
SPLINE
  5
1f2
100
AcDbEntity
  8
Layer_1
 62
5
100
AcDbSpline
 70
8
 71
3
 72
8
 73
4
 74
0
 40
0
 40
0
 40
0
 40
0
 40
1
 40
1
 40
1
 40
1
 10
2.092619
 20
247.245701
 30
0.0
 10
3.473145
 20
247.245701
 30
0.0
 10
4.592357
 20
248.364700
 30
0.0
 10
4.592619
 20
249.745227
 30
0.0
  0
LWPOLYLINE
  5
1f3
100
AcDbEntity
  8
Layer_1
 62
5
100
AcDbPolyline
 90
1
 70
1
 10
4.592619
 20
279.745225
 30
0.0
  0
SPLINE
  5
1f4
100
AcDbEntity
  8
Layer_1
 62
5
100
AcDbSpline
 70
8
 71
3
 72
8
 73
4
 74
0
 40
0
 40
0
 40
0
 40
0
 40
1
 40
1
 40
1
 40
1
 10
4.592619
 20
219.745227
 30
0.0
 10
4.592357
 20
221.125754
 30
0.0
 10
3.473145
 20
222.244753
 30
0.0
 10
2.092619
 20
222.244753
 30
0.0
  0
SPLINE
  5
1f5
100
AcDbEntity
  8
Layer_1
 62
5
100
AcDbSpline
 70
8
 71
3
 72
8
 73
4
 74
0
 40
0
 40
0
 40
0
 40
0
 40
1
 40
1
 40
1
 40
1
 10
2.092619
 20
222.244753
 30
0.0
 10
0.712092
 20
222.244753
 30
0.0
 10
-0.407120
 20
221.125754
 30
0.0
 10
-0.407382
 20
219.745227
 30
0.0
  0
SPLINE
  5
1f6
100
AcDbEntity
  8
Layer_1
 62
5
100
AcDbSpline
 70
8
 71
3
 72
8
 73
4
 74
0
 40
0
 40
0
 40
0
 40
0
 40
1
 40
1
 40
1
 40
1
 10
-0.407382
 20
219.745227
 30
0.0
 10
-0.407120
 20
218.364700
 30
0.0
 10
0.712092
 20
217.245701
 30
0.0
 10
2.092619
 20
217.245701
 30
0.0
  0
SPLINE
  5
1f7
100
AcDbEntity
  8
Layer_1
 62
5
100
AcDbSpline
 70
8
 71
3
 72
8
 73
4
 74
0
 40
0
 40
0
 40
0
 40
0
 40
1
 40
1
 40
1
 40
1
 10
2.092619
 20
217.245701
 30
0.0
 10
3.473145
 20
217.245701
 30
0.0
 10
4.592357
 20
218.364700
 30
0.0
 10
4.592619
 20
219.745227
 30
0.0
  0
LWPOLYLINE
  5
1f8
100
AcDbEntity
  8
Layer_1
 62
5
100
AcDbPolyline
 90
1
 70
1
 10
4.592619
 20
249.745227
 30
0.0
  0
SPLINE
  5
1f9
100
AcDbEntity
  8
Layer_1
 62
5
100
AcDbSpline
 70
8
 71
3
 72
8
 73
4
 74
0
 40
0
 40
0
 40
0
 40
0
 40
1
 40
1
 40
1
 40
1
 10
4.592619
 20
189.745230
 30
0.0
 10
4.592357
 20
191.125757
 30
0.0
 10
3.473145
 20
192.244756
 30
0.0
 10
2.092619
 20
192.244756
 30
0.0
  0
SPLINE
  5
1fa
100
AcDbEntity
  8
Layer_1
 62
5
100
AcDbSpline
 70
8
 71
3
 72
8
 73
4
 74
0
 40
0
 40
0
 40
0
 40
0
 40
1
 40
1
 40
1
 40
1
 10
2.092619
 20
192.244756
 30
0.0
 10
0.712092
 20
192.244756
 30
0.0
 10
-0.407120
 20
191.125757
 30
0.0
 10
-0.407382
 20
189.745230
 30
0.0
  0
SPLINE
  5
1fb
100
AcDbEntity
  8
Layer_1
 62
5
100
AcDbSpline
 70
8
 71
3
 72
8
 73
4
 74
0
 40
0
 40
0
 40
0
 40
0
 40
1
 40
1
 40
1
 40
1
 10
-0.407382
 20
189.745230
 30
0.0
 10
-0.407120
 20
188.364703
 30
0.0
 10
0.712092
 20
187.245704
 30
0.0
 10
2.092619
 20
187.245704
 30
0.0
  0
SPLINE
  5
1fc
100
AcDbEntity
  8
Layer_1
 62
5
100
AcDbSpline
 70
8
 71
3
 72
8
 73
4
 74
0
 40
0
 40
0
 40
0
 40
0
 40
1
 40
1
 40
1
 40
1
 10
2.092619
 20
187.245704
 30
0.0
 10
3.473145
 20
187.245704
 30
0.0
 10
4.592357
 20
188.364703
 30
0.0
 10
4.592619
 20
189.745230
 30
0.0
  0
LWPOLYLINE
  5
1fd
100
AcDbEntity
  8
Layer_1
 62
5
100
AcDbPolyline
 90
1
 70
1
 10
4.592619
 20
219.745227
 30
0.0
  0
SPLINE
  5
1fe
100
AcDbEntity
  8
Layer_1
 62
5
100
AcDbSpline
 70
8
 71
3
 72
8
 73
4
 74
0
 40
0
 40
0
 40
0
 40
0
 40
1
 40
1
 40
1
 40
1
 10
4.592619
 20
159.745230
 30
0.0
 10
4.592357
 20
161.125757
 30
0.0
 10
3.473145
 20
162.244756
 30
0.0
 10
2.092619
 20
162.244756
 30
0.0
  0
SPLINE
  5
1ff
100
AcDbEntity
  8
Layer_1
 62
5
100
AcDbSpline
 70
8
 71
3
 72
8
 73
4
 74
0
 40
0
 40
0
 40
0
 40
0
 40
1
 40
1
 40
1
 40
1
 10
2.092619
 20
162.244756
 30
0.0
 10
0.712092
 20
162.244756
 30
0.0
 10
-0.407120
 20
161.125757
 30
0.0
 10
-0.407382
 20
159.745230
 30
0.0
  0
SPLINE
  5
200
100
AcDbEntity
  8
Layer_1
 62
5
100
AcDbSpline
 70
8
 71
3
 72
8
 73
4
 74
0
 40
0
 40
0
 40
0
 40
0
 40
1
 40
1
 40
1
 40
1
 10
-0.407382
 20
159.745230
 30
0.0
 10
-0.407120
 20
158.364703
 30
0.0
 10
0.712092
 20
157.245704
 30
0.0
 10
2.092619
 20
157.245704
 30
0.0
  0
SPLINE
  5
201
100
AcDbEntity
  8
Layer_1
 62
5
100
AcDbSpline
 70
8
 71
3
 72
8
 73
4
 74
0
 40
0
 40
0
 40
0
 40
0
 40
1
 40
1
 40
1
 40
1
 10
2.092619
 20
157.245704
 30
0.0
 10
3.473145
 20
157.245704
 30
0.0
 10
4.592357
 20
158.364703
 30
0.0
 10
4.592619
 20
159.745230
 30
0.0
  0
LWPOLYLINE
  5
202
100
AcDbEntity
  8
Layer_1
 62
5
100
AcDbPolyline
 90
1
 70
1
 10
4.592619
 20
189.745230
 30
0.0
  0
SPLINE
  5
203
100
AcDbEntity
  8
Layer_1
 62
5
100
AcDbSpline
 70
8
 71
3
 72
8
 73
4
 74
0
 40
0
 40
0
 40
0
 40
0
 40
1
 40
1
 40
1
 40
1
 10
4.592619
 20
129.745230
 30
0.0
 10
4.592357
 20
131.125757
 30
0.0
 10
3.473145
 20
132.244756
 30
0.0
 10
2.092619
 20
132.244756
 30
0.0
  0
SPLINE
  5
204
100
AcDbEntity
  8
Layer_1
 62
5
100
AcDbSpline
 70
8
 71
3
 72
8
 73
4
 74
0
 40
0
 40
0
 40
0
 40
0
 40
1
 40
1
 40
1
 40
1
 10
2.092619
 20
132.244756
 30
0.0
 10
0.712092
 20
132.244756
 30
0.0
 10
-0.407120
 20
131.125757
 30
0.0
 10
-0.407382
 20
129.745230
 30
0.0
  0
SPLINE
  5
205
100
AcDbEntity
  8
Layer_1
 62
5
100
AcDbSpline
 70
8
 71
3
 72
8
 73
4
 74
0
 40
0
 40
0
 40
0
 40
0
 40
1
 40
1
 40
1
 40
1
 10
-0.407382
 20
129.745230
 30
0.0
 10
-0.407120
 20
128.364703
 30
0.0
 10
0.712092
 20
127.245704
 30
0.0
 10
2.092619
 20
127.245704
 30
0.0
  0
SPLINE
  5
206
100
AcDbEntity
  8
Layer_1
 62
5
100
AcDbSpline
 70
8
 71
3
 72
8
 73
4
 74
0
 40
0
 40
0
 40
0
 40
0
 40
1
 40
1
 40
1
 40
1
 10
2.092619
 20
127.245704
 30
0.0
 10
3.473145
 20
127.245704
 30
0.0
 10
4.592357
 20
128.364703
 30
0.0
 10
4.592619
 20
129.745230
 30
0.0
  0
LWPOLYLINE
  5
207
100
AcDbEntity
  8
Layer_1
 62
5
100
AcDbPolyline
 90
1
 70
1
 10
4.592619
 20
159.745230
 30
0.0
  0
SPLINE
  5
208
100
AcDbEntity
  8
Layer_1
 62
5
100
AcDbSpline
 70
8
 71
3
 72
8
 73
4
 74
0
 40
0
 40
0
 40
0
 40
0
 40
1
 40
1
 40
1
 40
1
 10
4.592619
 20
99.745230
 30
0.0
 10
4.592357
 20
101.125757
 30
0.0
 10
3.473145
 20
102.244756
 30
0.0
 10
2.092619
 20
102.244756
 30
0.0
  0
SPLINE
  5
209
100
AcDbEntity
  8
Layer_1
 62
5
100
AcDbSpline
 70
8
 71
3
 72
8
 73
4
 74
0
 40
0
 40
0
 40
0
 40
0
 40
1
 40
1
 40
1
 40
1
 10
2.092619
 20
102.244756
 30
0.0
 10
0.712092
 20
102.244756
 30
0.0
 10
-0.407120
 20
101.125757
 30
0.0
 10
-0.407382
 20
99.745230
 30
0.0
  0
SPLINE
  5
20a
100
AcDbEntity
  8
Layer_1
 62
5
100
AcDbSpline
 70
8
 71
3
 72
8
 73
4
 74
0
 40
0
 40
0
 40
0
 40
0
 40
1
 40
1
 40
1
 40
1
 10
-0.407382
 20
99.745230
 30
0.0
 10
-0.407120
 20
98.364703
 30
0.0
 10
0.712092
 20
97.245704
 30
0.0
 10
2.092619
 20
97.245704
 30
0.0
  0
SPLINE
  5
20b
100
AcDbEntity
  8
Layer_1
 62
5
100
AcDbSpline
 70
8
 71
3
 72
8
 73
4
 74
0
 40
0
 40
0
 40
0
 40
0
 40
1
 40
1
 40
1
 40
1
 10
2.092619
 20
97.245704
 30
0.0
 10
3.473145
 20
97.245704
 30
0.0
 10
4.592357
 20
98.364703
 30
0.0
 10
4.592619
 20
99.745230
 30
0.0
  0
LWPOLYLINE
  5
20c
100
AcDbEntity
  8
Layer_1
 62
5
100
AcDbPolyline
 90
1
 70
1
 10
4.592619
 20
129.745230
 30
0.0
  0
SPLINE
  5
20d
100
AcDbEntity
  8
Layer_1
 62
5
100
AcDbSpline
 70
8
 71
3
 72
8
 73
4
 74
0
 40
0
 40
0
 40
0
 40
0
 40
1
 40
1
 40
1
 40
1
 10
34.592617
 20
399.745220
 30
0.0
 10
34.592617
 20
400.638384
 30
0.0
 10
34.116120
 20
401.463702
 30
0.0
 10
33.342617
 20
401.910284
 30
0.0
  0
SPLINE
  5
20e
100
AcDbEntity
  8
Layer_1
 62
5
100
AcDbSpline
 70
8
 71
3
 72
8
 73
4
 74
0
 40
0
 40
0
 40
0
 40
0
 40
1
 40
1
 40
1
 40
1
 10
33.342617
 20
401.910284
 30
0.0
 10
32.569114
 20
402.356866
 30
0.0
 10
31.616119
 20
402.356866
 30
0.0
 10
30.842616
 20
401.910284
 30
0.0
  0
SPLINE
  5
20f
100
AcDbEntity
  8
Layer_1
 62
5
100
AcDbSpline
 70
8
 71
3
 72
8
 73
4
 74
0
 40
0
 40
0
 40
0
 40
0
 40
1
 40
1
 40
1
 40
1
 10
30.842616
 20
401.910284
 30
0.0
 10
30.069113
 20
401.463702
 30
0.0
 10
29.592616
 20
400.638384
 30
0.0
 10
29.592616
 20
399.745220
 30
0.0
  0
SPLINE
  5
210
100
AcDbEntity
  8
Layer_1
 62
5
100
AcDbSpline
 70
8
 71
3
 72
8
 73
4
 74
0
 40
0
 40
0
 40
0
 40
0
 40
1
 40
1
 40
1
 40
1
 10
29.592616
 20
399.745220
 30
0.0
 10
29.592616
 20
398.852056
 30
0.0
 10
30.069113
 20
398.026738
 30
0.0
 10
30.842616
 20
397.580156
 30
0.0
  0
SPLINE
  5
211
100
AcDbEntity
  8
Layer_1
 62
5
100
AcDbSpline
 70
8
 71
3
 72
8
 73
4
 74
0
 40
0
 40
0
 40
0
 40
0
 40
1
 40
1
 40
1
 40
1
 10
30.842616
 20
397.580156
 30
0.0
 10
31.616119
 20
397.133574
 30
0.0
 10
32.569114
 20
397.133574
 30
0.0
 10
33.342617
 20
397.580156
 30
0.0
  0
SPLINE
  5
212
100
AcDbEntity
  8
Layer_1
 62
5
100
AcDbSpline
 70
8
 71
3
 72
8
 73
4
 74
0
 40
0
 40
0
 40
0
 40
0
 40
1
 40
1
 40
1
 40
1
 10
33.342617
 20
397.580156
 30
0.0
 10
34.116120
 20
398.026738
 30
0.0
 10
34.592617
 20
398.852056
 30
0.0
 10
34.592617
 20
399.745220
 30
0.0
  0
LWPOLYLINE
  5
213
100
AcDbEntity
  8
Layer_1
 62
5
100
AcDbPolyline
 90
1
 70
1
 10
4.592619
 20
99.745230
 30
0.0
  0
SPLINE
  5
214
100
AcDbEntity
  8
Layer_1
 62
5
100
AcDbSpline
 70
8
 71
3
 72
8
 73
4
 74
0
 40
0
 40
0
 40
0
 40
0
 40
1
 40
1
 40
1
 40
1
 10
34.592617
 20
369.745224
 30
0.0
 10
34.592617
 20
370.638388
 30
0.0
 10
34.116120
 20
371.463706
 30
0.0
 10
33.342617
 20
371.910288
 30
0.0
  0
SPLINE
  5
215
100
AcDbEntity
  8
Layer_1
 62
5
100
AcDbSpline
 70
8
 71
3
 72
8
 73
4
 74
0
 40
0
 40
0
 40
0
 40
0
 40
1
 40
1
 40
1
 40
1
 10
33.342617
 20
371.910288
 30
0.0
 10
32.569114
 20
372.356870
 30
0.0
 10
31.616119
 20
372.356870
 30
0.0
 10
30.842616
 20
371.910288
 30
0.0
  0
SPLINE
  5
216
100
AcDbEntity
  8
Layer_1
 62
5
100
AcDbSpline
 70
8
 71
3
 72
8
 73
4
 74
0
 40
0
 40
0
 40
0
 40
0
 40
1
 40
1
 40
1
 40
1
 10
30.842616
 20
371.910288
 30
0.0
 10
30.069113
 20
371.463706
 30
0.0
 10
29.592616
 20
370.638388
 30
0.0
 10
29.592616
 20
369.745224
 30
0.0
  0
SPLINE
  5
217
100
AcDbEntity
  8
Layer_1
 62
5
100
AcDbSpline
 70
8
 71
3
 72
8
 73
4
 74
0
 40
0
 40
0
 40
0
 40
0
 40
1
 40
1
 40
1
 40
1
 10
29.592616
 20
369.745224
 30
0.0
 10
29.592616
 20
368.852060
 30
0.0
 10
30.069113
 20
368.026742
 30
0.0
 10
30.842616
 20
367.580160
 30
0.0
  0
SPLINE
  5
218
100
AcDbEntity
  8
Layer_1
 62
5
100
AcDbSpline
 70
8
 71
3
 72
8
 73
4
 74
0
 40
0
 40
0
 40
0
 40
0
 40
1
 40
1
 40
1
 40
1
 10
30.842616
 20
367.580160
 30
0.0
 10
31.616119
 20
367.133578
 30
0.0
 10
32.569114
 20
367.133578
 30
0.0
 10
33.342617
 20
367.580160
 30
0.0
  0
SPLINE
  5
219
100
AcDbEntity
  8
Layer_1
 62
5
100
AcDbSpline
 70
8
 71
3
 72
8
 73
4
 74
0
 40
0
 40
0
 40
0
 40
0
 40
1
 40
1
 40
1
 40
1
 10
33.342617
 20
367.580160
 30
0.0
 10
34.116120
 20
368.026742
 30
0.0
 10
34.592617
 20
368.852060
 30
0.0
 10
34.592617
 20
369.745224
 30
0.0
  0
LWPOLYLINE
  5
21a
100
AcDbEntity
  8
Layer_1
 62
5
100
AcDbPolyline
 90
1
 70
1
 10
34.592617
 20
399.745220
 30
0.0
  0
SPLINE
  5
21b
100
AcDbEntity
  8
Layer_1
 62
5
100
AcDbSpline
 70
8
 71
3
 72
8
 73
4
 74
0
 40
0
 40
0
 40
0
 40
0
 40
1
 40
1
 40
1
 40
1
 10
34.592617
 20
339.745225
 30
0.0
 10
34.592617
 20
340.638389
 30
0.0
 10
34.116120
 20
341.463707
 30
0.0
 10
33.342617
 20
341.910289
 30
0.0
  0
SPLINE
  5
21c
100
AcDbEntity
  8
Layer_1
 62
5
100
AcDbSpline
 70
8
 71
3
 72
8
 73
4
 74
0
 40
0
 40
0
 40
0
 40
0
 40
1
 40
1
 40
1
 40
1
 10
33.342617
 20
341.910289
 30
0.0
 10
32.569114
 20
342.356871
 30
0.0
 10
31.616119
 20
342.356871
 30
0.0
 10
30.842616
 20
341.910289
 30
0.0
  0
SPLINE
  5
21d
100
AcDbEntity
  8
Layer_1
 62
5
100
AcDbSpline
 70
8
 71
3
 72
8
 73
4
 74
0
 40
0
 40
0
 40
0
 40
0
 40
1
 40
1
 40
1
 40
1
 10
30.842616
 20
341.910289
 30
0.0
 10
30.069113
 20
341.463707
 30
0.0
 10
29.592616
 20
340.638389
 30
0.0
 10
29.592616
 20
339.745225
 30
0.0
  0
SPLINE
  5
21e
100
AcDbEntity
  8
Layer_1
 62
5
100
AcDbSpline
 70
8
 71
3
 72
8
 73
4
 74
0
 40
0
 40
0
 40
0
 40
0
 40
1
 40
1
 40
1
 40
1
 10
29.592616
 20
339.745225
 30
0.0
 10
29.592616
 20
338.852061
 30
0.0
 10
30.069113
 20
338.026743
 30
0.0
 10
30.842616
 20
337.580161
 30
0.0
  0
SPLINE
  5
21f
100
AcDbEntity
  8
Layer_1
 62
5
100
AcDbSpline
 70
8
 71
3
 72
8
 73
4
 74
0
 40
0
 40
0
 40
0
 40
0
 40
1
 40
1
 40
1
 40
1
 10
30.842616
 20
337.580161
 30
0.0
 10
31.616119
 20
337.133579
 30
0.0
 10
32.569114
 20
337.133579
 30
0.0
 10
33.342617
 20
337.580161
 30
0.0
  0
SPLINE
  5
220
100
AcDbEntity
  8
Layer_1
 62
5
100
AcDbSpline
 70
8
 71
3
 72
8
 73
4
 74
0
 40
0
 40
0
 40
0
 40
0
 40
1
 40
1
 40
1
 40
1
 10
33.342617
 20
337.580161
 30
0.0
 10
34.116120
 20
338.026743
 30
0.0
 10
34.592617
 20
338.852061
 30
0.0
 10
34.592617
 20
339.745225
 30
0.0
  0
LWPOLYLINE
  5
221
100
AcDbEntity
  8
Layer_1
 62
5
100
AcDbPolyline
 90
1
 70
1
 10
34.592617
 20
369.745224
 30
0.0
  0
SPLINE
  5
222
100
AcDbEntity
  8
Layer_1
 62
5
100
AcDbSpline
 70
8
 71
3
 72
8
 73
4
 74
0
 40
0
 40
0
 40
0
 40
0
 40
1
 40
1
 40
1
 40
1
 10
34.592617
 20
309.745225
 30
0.0
 10
34.592617
 20
310.638389
 30
0.0
 10
34.116120
 20
311.463707
 30
0.0
 10
33.342617
 20
311.910289
 30
0.0
  0
SPLINE
  5
223
100
AcDbEntity
  8
Layer_1
 62
5
100
AcDbSpline
 70
8
 71
3
 72
8
 73
4
 74
0
 40
0
 40
0
 40
0
 40
0
 40
1
 40
1
 40
1
 40
1
 10
33.342617
 20
311.910289
 30
0.0
 10
32.569114
 20
312.356871
 30
0.0
 10
31.616119
 20
312.356871
 30
0.0
 10
30.842616
 20
311.910289
 30
0.0
  0
SPLINE
  5
224
100
AcDbEntity
  8
Layer_1
 62
5
100
AcDbSpline
 70
8
 71
3
 72
8
 73
4
 74
0
 40
0
 40
0
 40
0
 40
0
 40
1
 40
1
 40
1
 40
1
 10
30.842616
 20
311.910289
 30
0.0
 10
30.069113
 20
311.463707
 30
0.0
 10
29.592616
 20
310.638389
 30
0.0
 10
29.592616
 20
309.745225
 30
0.0
  0
SPLINE
  5
225
100
AcDbEntity
  8
Layer_1
 62
5
100
AcDbSpline
 70
8
 71
3
 72
8
 73
4
 74
0
 40
0
 40
0
 40
0
 40
0
 40
1
 40
1
 40
1
 40
1
 10
29.592616
 20
309.745225
 30
0.0
 10
29.592616
 20
308.852061
 30
0.0
 10
30.069113
 20
308.026743
 30
0.0
 10
30.842616
 20
307.580161
 30
0.0
  0
SPLINE
  5
226
100
AcDbEntity
  8
Layer_1
 62
5
100
AcDbSpline
 70
8
 71
3
 72
8
 73
4
 74
0
 40
0
 40
0
 40
0
 40
0
 40
1
 40
1
 40
1
 40
1
 10
30.842616
 20
307.580161
 30
0.0
 10
31.616119
 20
307.133579
 30
0.0
 10
32.569114
 20
307.133579
 30
0.0
 10
33.342617
 20
307.580161
 30
0.0
  0
SPLINE
  5
227
100
AcDbEntity
  8
Layer_1
 62
5
100
AcDbSpline
 70
8
 71
3
 72
8
 73
4
 74
0
 40
0
 40
0
 40
0
 40
0
 40
1
 40
1
 40
1
 40
1
 10
33.342617
 20
307.580161
 30
0.0
 10
34.116120
 20
308.026743
 30
0.0
 10
34.592617
 20
308.852061
 30
0.0
 10
34.592617
 20
309.745225
 30
0.0
  0
LWPOLYLINE
  5
228
100
AcDbEntity
  8
Layer_1
 62
5
100
AcDbPolyline
 90
1
 70
1
 10
34.592617
 20
339.745225
 30
0.0
  0
SPLINE
  5
229
100
AcDbEntity
  8
Layer_1
 62
5
100
AcDbSpline
 70
8
 71
3
 72
8
 73
4
 74
0
 40
0
 40
0
 40
0
 40
0
 40
1
 40
1
 40
1
 40
1
 10
34.592617
 20
279.745225
 30
0.0
 10
34.592617
 20
280.638389
 30
0.0
 10
34.116120
 20
281.463707
 30
0.0
 10
33.342617
 20
281.910289
 30
0.0
  0
SPLINE
  5
22a
100
AcDbEntity
  8
Layer_1
 62
5
100
AcDbSpline
 70
8
 71
3
 72
8
 73
4
 74
0
 40
0
 40
0
 40
0
 40
0
 40
1
 40
1
 40
1
 40
1
 10
33.342617
 20
281.910289
 30
0.0
 10
32.569114
 20
282.356871
 30
0.0
 10
31.616119
 20
282.356871
 30
0.0
 10
30.842616
 20
281.910289
 30
0.0
  0
SPLINE
  5
22b
100
AcDbEntity
  8
Layer_1
 62
5
100
AcDbSpline
 70
8
 71
3
 72
8
 73
4
 74
0
 40
0
 40
0
 40
0
 40
0
 40
1
 40
1
 40
1
 40
1
 10
30.842616
 20
281.910289
 30
0.0
 10
30.069113
 20
281.463707
 30
0.0
 10
29.592616
 20
280.638389
 30
0.0
 10
29.592616
 20
279.745225
 30
0.0
  0
SPLINE
  5
22c
100
AcDbEntity
  8
Layer_1
 62
5
100
AcDbSpline
 70
8
 71
3
 72
8
 73
4
 74
0
 40
0
 40
0
 40
0
 40
0
 40
1
 40
1
 40
1
 40
1
 10
29.592616
 20
279.745225
 30
0.0
 10
29.592616
 20
278.852061
 30
0.0
 10
30.069113
 20
278.026743
 30
0.0
 10
30.842616
 20
277.580161
 30
0.0
  0
SPLINE
  5
22d
100
AcDbEntity
  8
Layer_1
 62
5
100
AcDbSpline
 70
8
 71
3
 72
8
 73
4
 74
0
 40
0
 40
0
 40
0
 40
0
 40
1
 40
1
 40
1
 40
1
 10
30.842616
 20
277.580161
 30
0.0
 10
31.616119
 20
277.133579
 30
0.0
 10
32.569114
 20
277.133579
 30
0.0
 10
33.342617
 20
277.580161
 30
0.0
  0
SPLINE
  5
22e
100
AcDbEntity
  8
Layer_1
 62
5
100
AcDbSpline
 70
8
 71
3
 72
8
 73
4
 74
0
 40
0
 40
0
 40
0
 40
0
 40
1
 40
1
 40
1
 40
1
 10
33.342617
 20
277.580161
 30
0.0
 10
34.116120
 20
278.026743
 30
0.0
 10
34.592617
 20
278.852061
 30
0.0
 10
34.592617
 20
279.745225
 30
0.0
  0
LWPOLYLINE
  5
22f
100
AcDbEntity
  8
Layer_1
 62
5
100
AcDbPolyline
 90
1
 70
1
 10
34.592617
 20
309.745225
 30
0.0
  0
SPLINE
  5
230
100
AcDbEntity
  8
Layer_1
 62
5
100
AcDbSpline
 70
8
 71
3
 72
8
 73
4
 74
0
 40
0
 40
0
 40
0
 40
0
 40
1
 40
1
 40
1
 40
1
 10
34.592617
 20
249.745227
 30
0.0
 10
34.592617
 20
250.638391
 30
0.0
 10
34.116120
 20
251.463709
 30
0.0
 10
33.342617
 20
251.910291
 30
0.0
  0
SPLINE
  5
231
100
AcDbEntity
  8
Layer_1
 62
5
100
AcDbSpline
 70
8
 71
3
 72
8
 73
4
 74
0
 40
0
 40
0
 40
0
 40
0
 40
1
 40
1
 40
1
 40
1
 10
33.342617
 20
251.910291
 30
0.0
 10
32.569114
 20
252.356873
 30
0.0
 10
31.616119
 20
252.356873
 30
0.0
 10
30.842616
 20
251.910291
 30
0.0
  0
SPLINE
  5
232
100
AcDbEntity
  8
Layer_1
 62
5
100
AcDbSpline
 70
8
 71
3
 72
8
 73
4
 74
0
 40
0
 40
0
 40
0
 40
0
 40
1
 40
1
 40
1
 40
1
 10
30.842616
 20
251.910291
 30
0.0
 10
30.069113
 20
251.463709
 30
0.0
 10
29.592616
 20
250.638391
 30
0.0
 10
29.592616
 20
249.745227
 30
0.0
  0
SPLINE
  5
233
100
AcDbEntity
  8
Layer_1
 62
5
100
AcDbSpline
 70
8
 71
3
 72
8
 73
4
 74
0
 40
0
 40
0
 40
0
 40
0
 40
1
 40
1
 40
1
 40
1
 10
29.592616
 20
249.745227
 30
0.0
 10
29.592616
 20
248.852063
 30
0.0
 10
30.069113
 20
248.026745
 30
0.0
 10
30.842616
 20
247.580163
 30
0.0
  0
SPLINE
  5
234
100
AcDbEntity
  8
Layer_1
 62
5
100
AcDbSpline
 70
8
 71
3
 72
8
 73
4
 74
0
 40
0
 40
0
 40
0
 40
0
 40
1
 40
1
 40
1
 40
1
 10
30.842616
 20
247.580163
 30
0.0
 10
31.616119
 20
247.133581
 30
0.0
 10
32.569114
 20
247.133581
 30
0.0
 10
33.342617
 20
247.580163
 30
0.0
  0
SPLINE
  5
235
100
AcDbEntity
  8
Layer_1
 62
5
100
AcDbSpline
 70
8
 71
3
 72
8
 73
4
 74
0
 40
0
 40
0
 40
0
 40
0
 40
1
 40
1
 40
1
 40
1
 10
33.342617
 20
247.580163
 30
0.0
 10
34.116120
 20
248.026745
 30
0.0
 10
34.592617
 20
248.852063
 30
0.0
 10
34.592617
 20
249.745227
 30
0.0
  0
LWPOLYLINE
  5
236
100
AcDbEntity
  8
Layer_1
 62
5
100
AcDbPolyline
 90
1
 70
1
 10
34.592617
 20
279.745225
 30
0.0
  0
SPLINE
  5
237
100
AcDbEntity
  8
Layer_1
 62
5
100
AcDbSpline
 70
8
 71
3
 72
8
 73
4
 74
0
 40
0
 40
0
 40
0
 40
0
 40
1
 40
1
 40
1
 40
1
 10
34.592617
 20
219.745227
 30
0.0
 10
34.592617
 20
220.638391
 30
0.0
 10
34.116120
 20
221.463709
 30
0.0
 10
33.342617
 20
221.910291
 30
0.0
  0
SPLINE
  5
238
100
AcDbEntity
  8
Layer_1
 62
5
100
AcDbSpline
 70
8
 71
3
 72
8
 73
4
 74
0
 40
0
 40
0
 40
0
 40
0
 40
1
 40
1
 40
1
 40
1
 10
33.342617
 20
221.910291
 30
0.0
 10
32.569114
 20
222.356873
 30
0.0
 10
31.616119
 20
222.356873
 30
0.0
 10
30.842616
 20
221.910291
 30
0.0
  0
SPLINE
  5
239
100
AcDbEntity
  8
Layer_1
 62
5
100
AcDbSpline
 70
8
 71
3
 72
8
 73
4
 74
0
 40
0
 40
0
 40
0
 40
0
 40
1
 40
1
 40
1
 40
1
 10
30.842616
 20
221.910291
 30
0.0
 10
30.069113
 20
221.463709
 30
0.0
 10
29.592616
 20
220.638391
 30
0.0
 10
29.592616
 20
219.745227
 30
0.0
  0
SPLINE
  5
23a
100
AcDbEntity
  8
Layer_1
 62
5
100
AcDbSpline
 70
8
 71
3
 72
8
 73
4
 74
0
 40
0
 40
0
 40
0
 40
0
 40
1
 40
1
 40
1
 40
1
 10
29.592616
 20
219.745227
 30
0.0
 10
29.592616
 20
218.852063
 30
0.0
 10
30.069113
 20
218.026745
 30
0.0
 10
30.842616
 20
217.580163
 30
0.0
  0
SPLINE
  5
23b
100
AcDbEntity
  8
Layer_1
 62
5
100
AcDbSpline
 70
8
 71
3
 72
8
 73
4
 74
0
 40
0
 40
0
 40
0
 40
0
 40
1
 40
1
 40
1
 40
1
 10
30.842616
 20
217.580163
 30
0.0
 10
31.616119
 20
217.133581
 30
0.0
 10
32.569114
 20
217.133581
 30
0.0
 10
33.342617
 20
217.580163
 30
0.0
  0
SPLINE
  5
23c
100
AcDbEntity
  8
Layer_1
 62
5
100
AcDbSpline
 70
8
 71
3
 72
8
 73
4
 74
0
 40
0
 40
0
 40
0
 40
0
 40
1
 40
1
 40
1
 40
1
 10
33.342617
 20
217.580163
 30
0.0
 10
34.116120
 20
218.026745
 30
0.0
 10
34.592617
 20
218.852063
 30
0.0
 10
34.592617
 20
219.745227
 30
0.0
  0
LWPOLYLINE
  5
23d
100
AcDbEntity
  8
Layer_1
 62
5
100
AcDbPolyline
 90
1
 70
1
 10
34.592617
 20
249.745227
 30
0.0
  0
SPLINE
  5
23e
100
AcDbEntity
  8
Layer_1
 62
5
100
AcDbSpline
 70
8
 71
3
 72
8
 73
4
 74
0
 40
0
 40
0
 40
0
 40
0
 40
1
 40
1
 40
1
 40
1
 10
34.592617
 20
189.745230
 30
0.0
 10
34.592617
 20
190.638394
 30
0.0
 10
34.116120
 20
191.463712
 30
0.0
 10
33.342617
 20
191.910294
 30
0.0
  0
SPLINE
  5
23f
100
AcDbEntity
  8
Layer_1
 62
5
100
AcDbSpline
 70
8
 71
3
 72
8
 73
4
 74
0
 40
0
 40
0
 40
0
 40
0
 40
1
 40
1
 40
1
 40
1
 10
33.342617
 20
191.910294
 30
0.0
 10
32.569114
 20
192.356876
 30
0.0
 10
31.616119
 20
192.356876
 30
0.0
 10
30.842616
 20
191.910294
 30
0.0
  0
SPLINE
  5
240
100
AcDbEntity
  8
Layer_1
 62
5
100
AcDbSpline
 70
8
 71
3
 72
8
 73
4
 74
0
 40
0
 40
0
 40
0
 40
0
 40
1
 40
1
 40
1
 40
1
 10
30.842616
 20
191.910294
 30
0.0
 10
30.069113
 20
191.463712
 30
0.0
 10
29.592616
 20
190.638394
 30
0.0
 10
29.592616
 20
189.745230
 30
0.0
  0
SPLINE
  5
241
100
AcDbEntity
  8
Layer_1
 62
5
100
AcDbSpline
 70
8
 71
3
 72
8
 73
4
 74
0
 40
0
 40
0
 40
0
 40
0
 40
1
 40
1
 40
1
 40
1
 10
29.592616
 20
189.745230
 30
0.0
 10
29.592616
 20
188.852066
 30
0.0
 10
30.069113
 20
188.026748
 30
0.0
 10
30.842616
 20
187.580166
 30
0.0
  0
SPLINE
  5
242
100
AcDbEntity
  8
Layer_1
 62
5
100
AcDbSpline
 70
8
 71
3
 72
8
 73
4
 74
0
 40
0
 40
0
 40
0
 40
0
 40
1
 40
1
 40
1
 40
1
 10
30.842616
 20
187.580166
 30
0.0
 10
31.616119
 20
187.133584
 30
0.0
 10
32.569114
 20
187.133584
 30
0.0
 10
33.342617
 20
187.580166
 30
0.0
  0
SPLINE
  5
243
100
AcDbEntity
  8
Layer_1
 62
5
100
AcDbSpline
 70
8
 71
3
 72
8
 73
4
 74
0
 40
0
 40
0
 40
0
 40
0
 40
1
 40
1
 40
1
 40
1
 10
33.342617
 20
187.580166
 30
0.0
 10
34.116120
 20
188.026748
 30
0.0
 10
34.592617
 20
188.852066
 30
0.0
 10
34.592617
 20
189.745230
 30
0.0
  0
LWPOLYLINE
  5
244
100
AcDbEntity
  8
Layer_1
 62
5
100
AcDbPolyline
 90
1
 70
1
 10
34.592617
 20
219.745227
 30
0.0
  0
SPLINE
  5
245
100
AcDbEntity
  8
Layer_1
 62
5
100
AcDbSpline
 70
8
 71
3
 72
8
 73
4
 74
0
 40
0
 40
0
 40
0
 40
0
 40
1
 40
1
 40
1
 40
1
 10
34.592617
 20
159.745230
 30
0.0
 10
34.592617
 20
160.638394
 30
0.0
 10
34.116120
 20
161.463712
 30
0.0
 10
33.342617
 20
161.910294
 30
0.0
  0
SPLINE
  5
246
100
AcDbEntity
  8
Layer_1
 62
5
100
AcDbSpline
 70
8
 71
3
 72
8
 73
4
 74
0
 40
0
 40
0
 40
0
 40
0
 40
1
 40
1
 40
1
 40
1
 10
33.342617
 20
161.910294
 30
0.0
 10
32.569114
 20
162.356876
 30
0.0
 10
31.616119
 20
162.356876
 30
0.0
 10
30.842616
 20
161.910294
 30
0.0
  0
SPLINE
  5
247
100
AcDbEntity
  8
Layer_1
 62
5
100
AcDbSpline
 70
8
 71
3
 72
8
 73
4
 74
0
 40
0
 40
0
 40
0
 40
0
 40
1
 40
1
 40
1
 40
1
 10
30.842616
 20
161.910294
 30
0.0
 10
30.069113
 20
161.463712
 30
0.0
 10
29.592616
 20
160.638394
 30
0.0
 10
29.592616
 20
159.745230
 30
0.0
  0
SPLINE
  5
248
100
AcDbEntity
  8
Layer_1
 62
5
100
AcDbSpline
 70
8
 71
3
 72
8
 73
4
 74
0
 40
0
 40
0
 40
0
 40
0
 40
1
 40
1
 40
1
 40
1
 10
29.592616
 20
159.745230
 30
0.0
 10
29.592616
 20
158.852066
 30
0.0
 10
30.069113
 20
158.026748
 30
0.0
 10
30.842616
 20
157.580166
 30
0.0
  0
SPLINE
  5
249
100
AcDbEntity
  8
Layer_1
 62
5
100
AcDbSpline
 70
8
 71
3
 72
8
 73
4
 74
0
 40
0
 40
0
 40
0
 40
0
 40
1
 40
1
 40
1
 40
1
 10
30.842616
 20
157.580166
 30
0.0
 10
31.616119
 20
157.133584
 30
0.0
 10
32.569114
 20
157.133584
 30
0.0
 10
33.342617
 20
157.580166
 30
0.0
  0
SPLINE
  5
24a
100
AcDbEntity
  8
Layer_1
 62
5
100
AcDbSpline
 70
8
 71
3
 72
8
 73
4
 74
0
 40
0
 40
0
 40
0
 40
0
 40
1
 40
1
 40
1
 40
1
 10
33.342617
 20
157.580166
 30
0.0
 10
34.116120
 20
158.026748
 30
0.0
 10
34.592617
 20
158.852066
 30
0.0
 10
34.592617
 20
159.745230
 30
0.0
  0
LWPOLYLINE
  5
24b
100
AcDbEntity
  8
Layer_1
 62
5
100
AcDbPolyline
 90
1
 70
1
 10
34.592617
 20
189.745230
 30
0.0
  0
SPLINE
  5
24c
100
AcDbEntity
  8
Layer_1
 62
5
100
AcDbSpline
 70
8
 71
3
 72
8
 73
4
 74
0
 40
0
 40
0
 40
0
 40
0
 40
1
 40
1
 40
1
 40
1
 10
34.592617
 20
129.745230
 30
0.0
 10
34.592617
 20
130.638394
 30
0.0
 10
34.116120
 20
131.463712
 30
0.0
 10
33.342617
 20
131.910294
 30
0.0
  0
SPLINE
  5
24d
100
AcDbEntity
  8
Layer_1
 62
5
100
AcDbSpline
 70
8
 71
3
 72
8
 73
4
 74
0
 40
0
 40
0
 40
0
 40
0
 40
1
 40
1
 40
1
 40
1
 10
33.342617
 20
131.910294
 30
0.0
 10
32.569114
 20
132.356876
 30
0.0
 10
31.616119
 20
132.356876
 30
0.0
 10
30.842616
 20
131.910294
 30
0.0
  0
SPLINE
  5
24e
100
AcDbEntity
  8
Layer_1
 62
5
100
AcDbSpline
 70
8
 71
3
 72
8
 73
4
 74
0
 40
0
 40
0
 40
0
 40
0
 40
1
 40
1
 40
1
 40
1
 10
30.842616
 20
131.910294
 30
0.0
 10
30.069113
 20
131.463712
 30
0.0
 10
29.592616
 20
130.638394
 30
0.0
 10
29.592616
 20
129.745230
 30
0.0
  0
SPLINE
  5
24f
100
AcDbEntity
  8
Layer_1
 62
5
100
AcDbSpline
 70
8
 71
3
 72
8
 73
4
 74
0
 40
0
 40
0
 40
0
 40
0
 40
1
 40
1
 40
1
 40
1
 10
29.592616
 20
129.745230
 30
0.0
 10
29.592616
 20
128.852066
 30
0.0
 10
30.069113
 20
128.026748
 30
0.0
 10
30.842616
 20
127.580166
 30
0.0
  0
SPLINE
  5
250
100
AcDbEntity
  8
Layer_1
 62
5
100
AcDbSpline
 70
8
 71
3
 72
8
 73
4
 74
0
 40
0
 40
0
 40
0
 40
0
 40
1
 40
1
 40
1
 40
1
 10
30.842616
 20
127.580166
 30
0.0
 10
31.616119
 20
127.133584
 30
0.0
 10
32.569114
 20
127.133584
 30
0.0
 10
33.342617
 20
127.580166
 30
0.0
  0
SPLINE
  5
251
100
AcDbEntity
  8
Layer_1
 62
5
100
AcDbSpline
 70
8
 71
3
 72
8
 73
4
 74
0
 40
0
 40
0
 40
0
 40
0
 40
1
 40
1
 40
1
 40
1
 10
33.342617
 20
127.580166
 30
0.0
 10
34.116120
 20
128.026748
 30
0.0
 10
34.592617
 20
128.852066
 30
0.0
 10
34.592617
 20
129.745230
 30
0.0
  0
LWPOLYLINE
  5
252
100
AcDbEntity
  8
Layer_1
 62
5
100
AcDbPolyline
 90
1
 70
1
 10
34.592617
 20
159.745230
 30
0.0
  0
SPLINE
  5
253
100
AcDbEntity
  8
Layer_1
 62
5
100
AcDbSpline
 70
8
 71
3
 72
8
 73
4
 74
0
 40
0
 40
0
 40
0
 40
0
 40
1
 40
1
 40
1
 40
1
 10
34.592617
 20
99.745230
 30
0.0
 10
34.592617
 20
100.638394
 30
0.0
 10
34.116120
 20
101.463712
 30
0.0
 10
33.342617
 20
101.910294
 30
0.0
  0
SPLINE
  5
254
100
AcDbEntity
  8
Layer_1
 62
5
100
AcDbSpline
 70
8
 71
3
 72
8
 73
4
 74
0
 40
0
 40
0
 40
0
 40
0
 40
1
 40
1
 40
1
 40
1
 10
33.342617
 20
101.910294
 30
0.0
 10
32.569114
 20
102.356876
 30
0.0
 10
31.616119
 20
102.356876
 30
0.0
 10
30.842616
 20
101.910294
 30
0.0
  0
SPLINE
  5
255
100
AcDbEntity
  8
Layer_1
 62
5
100
AcDbSpline
 70
8
 71
3
 72
8
 73
4
 74
0
 40
0
 40
0
 40
0
 40
0
 40
1
 40
1
 40
1
 40
1
 10
30.842616
 20
101.910294
 30
0.0
 10
30.069113
 20
101.463712
 30
0.0
 10
29.592616
 20
100.638394
 30
0.0
 10
29.592616
 20
99.745230
 30
0.0
  0
SPLINE
  5
256
100
AcDbEntity
  8
Layer_1
 62
5
100
AcDbSpline
 70
8
 71
3
 72
8
 73
4
 74
0
 40
0
 40
0
 40
0
 40
0
 40
1
 40
1
 40
1
 40
1
 10
29.592616
 20
99.745230
 30
0.0
 10
29.592616
 20
98.852066
 30
0.0
 10
30.069113
 20
98.026748
 30
0.0
 10
30.842616
 20
97.580166
 30
0.0
  0
SPLINE
  5
257
100
AcDbEntity
  8
Layer_1
 62
5
100
AcDbSpline
 70
8
 71
3
 72
8
 73
4
 74
0
 40
0
 40
0
 40
0
 40
0
 40
1
 40
1
 40
1
 40
1
 10
30.842616
 20
97.580166
 30
0.0
 10
31.616119
 20
97.133584
 30
0.0
 10
32.569114
 20
97.133584
 30
0.0
 10
33.342617
 20
97.580166
 30
0.0
  0
SPLINE
  5
258
100
AcDbEntity
  8
Layer_1
 62
5
100
AcDbSpline
 70
8
 71
3
 72
8
 73
4
 74
0
 40
0
 40
0
 40
0
 40
0
 40
1
 40
1
 40
1
 40
1
 10
33.342617
 20
97.580166
 30
0.0
 10
34.116120
 20
98.026748
 30
0.0
 10
34.592617
 20
98.852066
 30
0.0
 10
34.592617
 20
99.745230
 30
0.0
  0
LWPOLYLINE
  5
259
100
AcDbEntity
  8
Layer_1
 62
5
100
AcDbPolyline
 90
1
 70
1
 10
34.592617
 20
129.745230
 30
0.0
  0
SPLINE
  5
25a
100
AcDbEntity
  8
Layer_1
 62
5
100
AcDbSpline
 70
8
 71
3
 72
8
 73
4
 74
0
 40
0
 40
0
 40
0
 40
0
 40
1
 40
1
 40
1
 40
1
 10
64.592617
 20
399.745220
 30
0.0
 10
64.591941
 20
401.125454
 30
0.0
 10
63.472851
 20
402.243996
 30
0.0
 10
62.092617
 20
402.243996
 30
0.0
  0
SPLINE
  5
25b
100
AcDbEntity
  8
Layer_1
 62
5
100
AcDbSpline
 70
8
 71
3
 72
8
 73
4
 74
0
 40
0
 40
0
 40
0
 40
0
 40
1
 40
1
 40
1
 40
1
 10
62.092617
 20
402.243996
 30
0.0
 10
60.712383
 20
402.243996
 30
0.0
 10
59.593293
 20
401.125454
 30
0.0
 10
59.592617
 20
399.745220
 30
0.0
  0
SPLINE
  5
25c
100
AcDbEntity
  8
Layer_1
 62
5
100
AcDbSpline
 70
8
 71
3
 72
8
 73
4
 74
0
 40
0
 40
0
 40
0
 40
0
 40
1
 40
1
 40
1
 40
1
 10
59.592617
 20
399.745220
 30
0.0
 10
59.593293
 20
398.364986
 30
0.0
 10
60.712383
 20
397.246444
 30
0.0
 10
62.092617
 20
397.246444
 30
0.0
  0
SPLINE
  5
25d
100
AcDbEntity
  8
Layer_1
 62
5
100
AcDbSpline
 70
8
 71
3
 72
8
 73
4
 74
0
 40
0
 40
0
 40
0
 40
0
 40
1
 40
1
 40
1
 40
1
 10
62.092617
 20
397.246444
 30
0.0
 10
63.472851
 20
397.246444
 30
0.0
 10
64.591941
 20
398.364986
 30
0.0
 10
64.592617
 20
399.745220
 30
0.0
  0
LWPOLYLINE
  5
25e
100
AcDbEntity
  8
Layer_1
 62
5
100
AcDbPolyline
 90
1
 70
1
 10
34.592617
 20
99.745230
 30
0.0
  0
SPLINE
  5
25f
100
AcDbEntity
  8
Layer_1
 62
5
100
AcDbSpline
 70
8
 71
3
 72
8
 73
4
 74
0
 40
0
 40
0
 40
0
 40
0
 40
1
 40
1
 40
1
 40
1
 10
64.592617
 20
369.745224
 30
0.0
 10
64.591941
 20
371.125458
 30
0.0
 10
63.472851
 20
372.244000
 30
0.0
 10
62.092617
 20
372.244000
 30
0.0
  0
SPLINE
  5
260
100
AcDbEntity
  8
Layer_1
 62
5
100
AcDbSpline
 70
8
 71
3
 72
8
 73
4
 74
0
 40
0
 40
0
 40
0
 40
0
 40
1
 40
1
 40
1
 40
1
 10
62.092617
 20
372.244000
 30
0.0
 10
60.712383
 20
372.244000
 30
0.0
 10
59.593293
 20
371.125458
 30
0.0
 10
59.592617
 20
369.745224
 30
0.0
  0
SPLINE
  5
261
100
AcDbEntity
  8
Layer_1
 62
5
100
AcDbSpline
 70
8
 71
3
 72
8
 73
4
 74
0
 40
0
 40
0
 40
0
 40
0
 40
1
 40
1
 40
1
 40
1
 10
59.592617
 20
369.745224
 30
0.0
 10
59.593293
 20
368.364990
 30
0.0
 10
60.712383
 20
367.246448
 30
0.0
 10
62.092617
 20
367.246448
 30
0.0
  0
SPLINE
  5
262
100
AcDbEntity
  8
Layer_1
 62
5
100
AcDbSpline
 70
8
 71
3
 72
8
 73
4
 74
0
 40
0
 40
0
 40
0
 40
0
 40
1
 40
1
 40
1
 40
1
 10
62.092617
 20
367.246448
 30
0.0
 10
63.472851
 20
367.246448
 30
0.0
 10
64.591941
 20
368.364990
 30
0.0
 10
64.592617
 20
369.745224
 30
0.0
  0
LWPOLYLINE
  5
263
100
AcDbEntity
  8
Layer_1
 62
5
100
AcDbPolyline
 90
1
 70
1
 10
64.592617
 20
399.745220
 30
0.0
  0
SPLINE
  5
264
100
AcDbEntity
  8
Layer_1
 62
5
100
AcDbSpline
 70
8
 71
3
 72
8
 73
4
 74
0
 40
0
 40
0
 40
0
 40
0
 40
1
 40
1
 40
1
 40
1
 10
64.592617
 20
339.745225
 30
0.0
 10
64.591941
 20
341.125459
 30
0.0
 10
63.472851
 20
342.244001
 30
0.0
 10
62.092617
 20
342.244001
 30
0.0
  0
SPLINE
  5
265
100
AcDbEntity
  8
Layer_1
 62
5
100
AcDbSpline
 70
8
 71
3
 72
8
 73
4
 74
0
 40
0
 40
0
 40
0
 40
0
 40
1
 40
1
 40
1
 40
1
 10
62.092617
 20
342.244001
 30
0.0
 10
60.712383
 20
342.244001
 30
0.0
 10
59.593293
 20
341.125459
 30
0.0
 10
59.592617
 20
339.745225
 30
0.0
  0
SPLINE
  5
266
100
AcDbEntity
  8
Layer_1
 62
5
100
AcDbSpline
 70
8
 71
3
 72
8
 73
4
 74
0
 40
0
 40
0
 40
0
 40
0
 40
1
 40
1
 40
1
 40
1
 10
59.592617
 20
339.745225
 30
0.0
 10
59.593293
 20
338.364991
 30
0.0
 10
60.712383
 20
337.246449
 30
0.0
 10
62.092617
 20
337.246449
 30
0.0
  0
SPLINE
  5
267
100
AcDbEntity
  8
Layer_1
 62
5
100
AcDbSpline
 70
8
 71
3
 72
8
 73
4
 74
0
 40
0
 40
0
 40
0
 40
0
 40
1
 40
1
 40
1
 40
1
 10
62.092617
 20
337.246449
 30
0.0
 10
63.472851
 20
337.246449
 30
0.0
 10
64.591941
 20
338.364991
 30
0.0
 10
64.592617
 20
339.745225
 30
0.0
  0
LWPOLYLINE
  5
268
100
AcDbEntity
  8
Layer_1
 62
5
100
AcDbPolyline
 90
1
 70
1
 10
64.592617
 20
369.745224
 30
0.0
  0
SPLINE
  5
269
100
AcDbEntity
  8
Layer_1
 62
5
100
AcDbSpline
 70
8
 71
3
 72
8
 73
4
 74
0
 40
0
 40
0
 40
0
 40
0
 40
1
 40
1
 40
1
 40
1
 10
64.592617
 20
309.745225
 30
0.0
 10
64.591941
 20
311.125459
 30
0.0
 10
63.472851
 20
312.244001
 30
0.0
 10
62.092617
 20
312.244001
 30
0.0
  0
SPLINE
  5
26a
100
AcDbEntity
  8
Layer_1
 62
5
100
AcDbSpline
 70
8
 71
3
 72
8
 73
4
 74
0
 40
0
 40
0
 40
0
 40
0
 40
1
 40
1
 40
1
 40
1
 10
62.092617
 20
312.244001
 30
0.0
 10
60.712383
 20
312.244001
 30
0.0
 10
59.593293
 20
311.125459
 30
0.0
 10
59.592617
 20
309.745225
 30
0.0
  0
SPLINE
  5
26b
100
AcDbEntity
  8
Layer_1
 62
5
100
AcDbSpline
 70
8
 71
3
 72
8
 73
4
 74
0
 40
0
 40
0
 40
0
 40
0
 40
1
 40
1
 40
1
 40
1
 10
59.592617
 20
309.745225
 30
0.0
 10
59.593293
 20
308.364991
 30
0.0
 10
60.712383
 20
307.246449
 30
0.0
 10
62.092617
 20
307.246449
 30
0.0
  0
SPLINE
  5
26c
100
AcDbEntity
  8
Layer_1
 62
5
100
AcDbSpline
 70
8
 71
3
 72
8
 73
4
 74
0
 40
0
 40
0
 40
0
 40
0
 40
1
 40
1
 40
1
 40
1
 10
62.092617
 20
307.246449
 30
0.0
 10
63.472851
 20
307.246449
 30
0.0
 10
64.591941
 20
308.364991
 30
0.0
 10
64.592617
 20
309.745225
 30
0.0
  0
LWPOLYLINE
  5
26d
100
AcDbEntity
  8
Layer_1
 62
5
100
AcDbPolyline
 90
1
 70
1
 10
64.592617
 20
339.745225
 30
0.0
  0
SPLINE
  5
26e
100
AcDbEntity
  8
Layer_1
 62
5
100
AcDbSpline
 70
8
 71
3
 72
8
 73
4
 74
0
 40
0
 40
0
 40
0
 40
0
 40
1
 40
1
 40
1
 40
1
 10
64.592617
 20
279.745225
 30
0.0
 10
64.591941
 20
281.125459
 30
0.0
 10
63.472851
 20
282.244001
 30
0.0
 10
62.092617
 20
282.244001
 30
0.0
  0
SPLINE
  5
26f
100
AcDbEntity
  8
Layer_1
 62
5
100
AcDbSpline
 70
8
 71
3
 72
8
 73
4
 74
0
 40
0
 40
0
 40
0
 40
0
 40
1
 40
1
 40
1
 40
1
 10
62.092617
 20
282.244001
 30
0.0
 10
60.712383
 20
282.244001
 30
0.0
 10
59.593293
 20
281.125459
 30
0.0
 10
59.592617
 20
279.745225
 30
0.0
  0
SPLINE
  5
270
100
AcDbEntity
  8
Layer_1
 62
5
100
AcDbSpline
 70
8
 71
3
 72
8
 73
4
 74
0
 40
0
 40
0
 40
0
 40
0
 40
1
 40
1
 40
1
 40
1
 10
59.592617
 20
279.745225
 30
0.0
 10
59.593293
 20
278.364991
 30
0.0
 10
60.712383
 20
277.246449
 30
0.0
 10
62.092617
 20
277.246449
 30
0.0
  0
SPLINE
  5
271
100
AcDbEntity
  8
Layer_1
 62
5
100
AcDbSpline
 70
8
 71
3
 72
8
 73
4
 74
0
 40
0
 40
0
 40
0
 40
0
 40
1
 40
1
 40
1
 40
1
 10
62.092617
 20
277.246449
 30
0.0
 10
63.472851
 20
277.246449
 30
0.0
 10
64.591941
 20
278.364991
 30
0.0
 10
64.592617
 20
279.745225
 30
0.0
  0
LWPOLYLINE
  5
272
100
AcDbEntity
  8
Layer_1
 62
5
100
AcDbPolyline
 90
1
 70
1
 10
64.592617
 20
309.745225
 30
0.0
  0
SPLINE
  5
273
100
AcDbEntity
  8
Layer_1
 62
5
100
AcDbSpline
 70
8
 71
3
 72
8
 73
4
 74
0
 40
0
 40
0
 40
0
 40
0
 40
1
 40
1
 40
1
 40
1
 10
64.592617
 20
249.745227
 30
0.0
 10
64.591941
 20
251.125461
 30
0.0
 10
63.472851
 20
252.244003
 30
0.0
 10
62.092617
 20
252.244003
 30
0.0
  0
SPLINE
  5
274
100
AcDbEntity
  8
Layer_1
 62
5
100
AcDbSpline
 70
8
 71
3
 72
8
 73
4
 74
0
 40
0
 40
0
 40
0
 40
0
 40
1
 40
1
 40
1
 40
1
 10
62.092617
 20
252.244003
 30
0.0
 10
60.712383
 20
252.244003
 30
0.0
 10
59.593293
 20
251.125461
 30
0.0
 10
59.592617
 20
249.745227
 30
0.0
  0
SPLINE
  5
275
100
AcDbEntity
  8
Layer_1
 62
5
100
AcDbSpline
 70
8
 71
3
 72
8
 73
4
 74
0
 40
0
 40
0
 40
0
 40
0
 40
1
 40
1
 40
1
 40
1
 10
59.592617
 20
249.745227
 30
0.0
 10
59.593293
 20
248.364993
 30
0.0
 10
60.712383
 20
247.246451
 30
0.0
 10
62.092617
 20
247.246451
 30
0.0
  0
SPLINE
  5
276
100
AcDbEntity
  8
Layer_1
 62
5
100
AcDbSpline
 70
8
 71
3
 72
8
 73
4
 74
0
 40
0
 40
0
 40
0
 40
0
 40
1
 40
1
 40
1
 40
1
 10
62.092617
 20
247.246451
 30
0.0
 10
63.472851
 20
247.246451
 30
0.0
 10
64.591941
 20
248.364993
 30
0.0
 10
64.592617
 20
249.745227
 30
0.0
  0
LWPOLYLINE
  5
277
100
AcDbEntity
  8
Layer_1
 62
5
100
AcDbPolyline
 90
1
 70
1
 10
64.592617
 20
279.745225
 30
0.0
  0
SPLINE
  5
278
100
AcDbEntity
  8
Layer_1
 62
5
100
AcDbSpline
 70
8
 71
3
 72
8
 73
4
 74
0
 40
0
 40
0
 40
0
 40
0
 40
1
 40
1
 40
1
 40
1
 10
64.592617
 20
219.745227
 30
0.0
 10
64.591941
 20
221.125461
 30
0.0
 10
63.472851
 20
222.244003
 30
0.0
 10
62.092617
 20
222.244003
 30
0.0
  0
SPLINE
  5
279
100
AcDbEntity
  8
Layer_1
 62
5
100
AcDbSpline
 70
8
 71
3
 72
8
 73
4
 74
0
 40
0
 40
0
 40
0
 40
0
 40
1
 40
1
 40
1
 40
1
 10
62.092617
 20
222.244003
 30
0.0
 10
60.712383
 20
222.244003
 30
0.0
 10
59.593293
 20
221.125461
 30
0.0
 10
59.592617
 20
219.745227
 30
0.0
  0
SPLINE
  5
27a
100
AcDbEntity
  8
Layer_1
 62
5
100
AcDbSpline
 70
8
 71
3
 72
8
 73
4
 74
0
 40
0
 40
0
 40
0
 40
0
 40
1
 40
1
 40
1
 40
1
 10
59.592617
 20
219.745227
 30
0.0
 10
59.593293
 20
218.364993
 30
0.0
 10
60.712383
 20
217.246451
 30
0.0
 10
62.092617
 20
217.246451
 30
0.0
  0
SPLINE
  5
27b
100
AcDbEntity
  8
Layer_1
 62
5
100
AcDbSpline
 70
8
 71
3
 72
8
 73
4
 74
0
 40
0
 40
0
 40
0
 40
0
 40
1
 40
1
 40
1
 40
1
 10
62.092617
 20
217.246451
 30
0.0
 10
63.472851
 20
217.246451
 30
0.0
 10
64.591941
 20
218.364993
 30
0.0
 10
64.592617
 20
219.745227
 30
0.0
  0
LWPOLYLINE
  5
27c
100
AcDbEntity
  8
Layer_1
 62
5
100
AcDbPolyline
 90
1
 70
1
 10
64.592617
 20
249.745227
 30
0.0
  0
SPLINE
  5
27d
100
AcDbEntity
  8
Layer_1
 62
5
100
AcDbSpline
 70
8
 71
3
 72
8
 73
4
 74
0
 40
0
 40
0
 40
0
 40
0
 40
1
 40
1
 40
1
 40
1
 10
64.592617
 20
189.745230
 30
0.0
 10
64.591941
 20
191.125464
 30
0.0
 10
63.472851
 20
192.244006
 30
0.0
 10
62.092617
 20
192.244006
 30
0.0
  0
SPLINE
  5
27e
100
AcDbEntity
  8
Layer_1
 62
5
100
AcDbSpline
 70
8
 71
3
 72
8
 73
4
 74
0
 40
0
 40
0
 40
0
 40
0
 40
1
 40
1
 40
1
 40
1
 10
62.092617
 20
192.244006
 30
0.0
 10
60.712383
 20
192.244006
 30
0.0
 10
59.593293
 20
191.125464
 30
0.0
 10
59.592617
 20
189.745230
 30
0.0
  0
SPLINE
  5
27f
100
AcDbEntity
  8
Layer_1
 62
5
100
AcDbSpline
 70
8
 71
3
 72
8
 73
4
 74
0
 40
0
 40
0
 40
0
 40
0
 40
1
 40
1
 40
1
 40
1
 10
59.592617
 20
189.745230
 30
0.0
 10
59.593293
 20
188.364996
 30
0.0
 10
60.712383
 20
187.246454
 30
0.0
 10
62.092617
 20
187.246454
 30
0.0
  0
SPLINE
  5
280
100
AcDbEntity
  8
Layer_1
 62
5
100
AcDbSpline
 70
8
 71
3
 72
8
 73
4
 74
0
 40
0
 40
0
 40
0
 40
0
 40
1
 40
1
 40
1
 40
1
 10
62.092617
 20
187.246454
 30
0.0
 10
63.472851
 20
187.246454
 30
0.0
 10
64.591941
 20
188.364996
 30
0.0
 10
64.592617
 20
189.745230
 30
0.0
  0
LWPOLYLINE
  5
281
100
AcDbEntity
  8
Layer_1
 62
5
100
AcDbPolyline
 90
1
 70
1
 10
64.592617
 20
219.745227
 30
0.0
  0
SPLINE
  5
282
100
AcDbEntity
  8
Layer_1
 62
5
100
AcDbSpline
 70
8
 71
3
 72
8
 73
4
 74
0
 40
0
 40
0
 40
0
 40
0
 40
1
 40
1
 40
1
 40
1
 10
64.592617
 20
159.745230
 30
0.0
 10
64.591941
 20
161.125464
 30
0.0
 10
63.472851
 20
162.244006
 30
0.0
 10
62.092617
 20
162.244006
 30
0.0
  0
SPLINE
  5
283
100
AcDbEntity
  8
Layer_1
 62
5
100
AcDbSpline
 70
8
 71
3
 72
8
 73
4
 74
0
 40
0
 40
0
 40
0
 40
0
 40
1
 40
1
 40
1
 40
1
 10
62.092617
 20
162.244006
 30
0.0
 10
60.712383
 20
162.244006
 30
0.0
 10
59.593293
 20
161.125464
 30
0.0
 10
59.592617
 20
159.745230
 30
0.0
  0
SPLINE
  5
284
100
AcDbEntity
  8
Layer_1
 62
5
100
AcDbSpline
 70
8
 71
3
 72
8
 73
4
 74
0
 40
0
 40
0
 40
0
 40
0
 40
1
 40
1
 40
1
 40
1
 10
59.592617
 20
159.745230
 30
0.0
 10
59.593293
 20
158.364996
 30
0.0
 10
60.712383
 20
157.246454
 30
0.0
 10
62.092617
 20
157.246454
 30
0.0
  0
SPLINE
  5
285
100
AcDbEntity
  8
Layer_1
 62
5
100
AcDbSpline
 70
8
 71
3
 72
8
 73
4
 74
0
 40
0
 40
0
 40
0
 40
0
 40
1
 40
1
 40
1
 40
1
 10
62.092617
 20
157.246454
 30
0.0
 10
63.472851
 20
157.246454
 30
0.0
 10
64.591941
 20
158.364996
 30
0.0
 10
64.592617
 20
159.745230
 30
0.0
  0
LWPOLYLINE
  5
286
100
AcDbEntity
  8
Layer_1
 62
5
100
AcDbPolyline
 90
1
 70
1
 10
64.592617
 20
189.745230
 30
0.0
  0
SPLINE
  5
287
100
AcDbEntity
  8
Layer_1
 62
5
100
AcDbSpline
 70
8
 71
3
 72
8
 73
4
 74
0
 40
0
 40
0
 40
0
 40
0
 40
1
 40
1
 40
1
 40
1
 10
64.592617
 20
129.745230
 30
0.0
 10
64.591941
 20
131.125464
 30
0.0
 10
63.472851
 20
132.244006
 30
0.0
 10
62.092617
 20
132.244006
 30
0.0
  0
SPLINE
  5
288
100
AcDbEntity
  8
Layer_1
 62
5
100
AcDbSpline
 70
8
 71
3
 72
8
 73
4
 74
0
 40
0
 40
0
 40
0
 40
0
 40
1
 40
1
 40
1
 40
1
 10
62.092617
 20
132.244006
 30
0.0
 10
60.712383
 20
132.244006
 30
0.0
 10
59.593293
 20
131.125464
 30
0.0
 10
59.592617
 20
129.745230
 30
0.0
  0
SPLINE
  5
289
100
AcDbEntity
  8
Layer_1
 62
5
100
AcDbSpline
 70
8
 71
3
 72
8
 73
4
 74
0
 40
0
 40
0
 40
0
 40
0
 40
1
 40
1
 40
1
 40
1
 10
59.592617
 20
129.745230
 30
0.0
 10
59.593293
 20
128.364996
 30
0.0
 10
60.712383
 20
127.246454
 30
0.0
 10
62.092617
 20
127.246454
 30
0.0
  0
SPLINE
  5
28a
100
AcDbEntity
  8
Layer_1
 62
5
100
AcDbSpline
 70
8
 71
3
 72
8
 73
4
 74
0
 40
0
 40
0
 40
0
 40
0
 40
1
 40
1
 40
1
 40
1
 10
62.092617
 20
127.246454
 30
0.0
 10
63.472851
 20
127.246454
 30
0.0
 10
64.591941
 20
128.364996
 30
0.0
 10
64.592617
 20
129.745230
 30
0.0
  0
LWPOLYLINE
  5
28b
100
AcDbEntity
  8
Layer_1
 62
5
100
AcDbPolyline
 90
1
 70
1
 10
64.592617
 20
159.745230
 30
0.0
  0
SPLINE
  5
28c
100
AcDbEntity
  8
Layer_1
 62
5
100
AcDbSpline
 70
8
 71
3
 72
8
 73
4
 74
0
 40
0
 40
0
 40
0
 40
0
 40
1
 40
1
 40
1
 40
1
 10
64.592617
 20
99.745230
 30
0.0
 10
64.591941
 20
101.125464
 30
0.0
 10
63.472851
 20
102.244006
 30
0.0
 10
62.092617
 20
102.244006
 30
0.0
  0
SPLINE
  5
28d
100
AcDbEntity
  8
Layer_1
 62
5
100
AcDbSpline
 70
8
 71
3
 72
8
 73
4
 74
0
 40
0
 40
0
 40
0
 40
0
 40
1
 40
1
 40
1
 40
1
 10
62.092617
 20
102.244006
 30
0.0
 10
60.712383
 20
102.244006
 30
0.0
 10
59.593293
 20
101.125464
 30
0.0
 10
59.592617
 20
99.745230
 30
0.0
  0
SPLINE
  5
28e
100
AcDbEntity
  8
Layer_1
 62
5
100
AcDbSpline
 70
8
 71
3
 72
8
 73
4
 74
0
 40
0
 40
0
 40
0
 40
0
 40
1
 40
1
 40
1
 40
1
 10
59.592617
 20
99.745230
 30
0.0
 10
59.593293
 20
98.364996
 30
0.0
 10
60.712383
 20
97.246454
 30
0.0
 10
62.092617
 20
97.246454
 30
0.0
  0
SPLINE
  5
28f
100
AcDbEntity
  8
Layer_1
 62
5
100
AcDbSpline
 70
8
 71
3
 72
8
 73
4
 74
0
 40
0
 40
0
 40
0
 40
0
 40
1
 40
1
 40
1
 40
1
 10
62.092617
 20
97.246454
 30
0.0
 10
63.472851
 20
97.246454
 30
0.0
 10
64.591941
 20
98.364996
 30
0.0
 10
64.592617
 20
99.745230
 30
0.0
  0
LWPOLYLINE
  5
290
100
AcDbEntity
  8
Layer_1
 62
5
100
AcDbPolyline
 90
1
 70
1
 10
64.592617
 20
129.745230
 30
0.0
  0
SPLINE
  5
291
100
AcDbEntity
  8
Layer_1
 62
5
100
AcDbSpline
 70
8
 71
3
 72
8
 73
4
 74
0
 40
0
 40
0
 40
0
 40
0
 40
1
 40
1
 40
1
 40
1
 10
94.592618
 20
399.745220
 30
0.0
 10
94.592618
 20
400.638384
 30
0.0
 10
94.116121
 20
401.463702
 30
0.0
 10
93.342618
 20
401.910284
 30
0.0
  0
SPLINE
  5
292
100
AcDbEntity
  8
Layer_1
 62
5
100
AcDbSpline
 70
8
 71
3
 72
8
 73
4
 74
0
 40
0
 40
0
 40
0
 40
0
 40
1
 40
1
 40
1
 40
1
 10
93.342618
 20
401.910284
 30
0.0
 10
92.569115
 20
402.356866
 30
0.0
 10
91.616120
 20
402.356866
 30
0.0
 10
90.842617
 20
401.910284
 30
0.0
  0
SPLINE
  5
293
100
AcDbEntity
  8
Layer_1
 62
5
100
AcDbSpline
 70
8
 71
3
 72
8
 73
4
 74
0
 40
0
 40
0
 40
0
 40
0
 40
1
 40
1
 40
1
 40
1
 10
90.842617
 20
401.910284
 30
0.0
 10
90.069114
 20
401.463702
 30
0.0
 10
89.592617
 20
400.638384
 30
0.0
 10
89.592617
 20
399.745220
 30
0.0
  0
SPLINE
  5
294
100
AcDbEntity
  8
Layer_1
 62
5
100
AcDbSpline
 70
8
 71
3
 72
8
 73
4
 74
0
 40
0
 40
0
 40
0
 40
0
 40
1
 40
1
 40
1
 40
1
 10
89.592617
 20
399.745220
 30
0.0
 10
89.592617
 20
398.852056
 30
0.0
 10
90.069114
 20
398.026738
 30
0.0
 10
90.842617
 20
397.580156
 30
0.0
  0
SPLINE
  5
295
100
AcDbEntity
  8
Layer_1
 62
5
100
AcDbSpline
 70
8
 71
3
 72
8
 73
4
 74
0
 40
0
 40
0
 40
0
 40
0
 40
1
 40
1
 40
1
 40
1
 10
90.842617
 20
397.580156
 30
0.0
 10
91.616120
 20
397.133574
 30
0.0
 10
92.569115
 20
397.133574
 30
0.0
 10
93.342618
 20
397.580156
 30
0.0
  0
SPLINE
  5
296
100
AcDbEntity
  8
Layer_1
 62
5
100
AcDbSpline
 70
8
 71
3
 72
8
 73
4
 74
0
 40
0
 40
0
 40
0
 40
0
 40
1
 40
1
 40
1
 40
1
 10
93.342618
 20
397.580156
 30
0.0
 10
94.116121
 20
398.026738
 30
0.0
 10
94.592618
 20
398.852056
 30
0.0
 10
94.592618
 20
399.745220
 30
0.0
  0
LWPOLYLINE
  5
297
100
AcDbEntity
  8
Layer_1
 62
5
100
AcDbPolyline
 90
1
 70
1
 10
64.592617
 20
99.745230
 30
0.0
  0
SPLINE
  5
298
100
AcDbEntity
  8
Layer_1
 62
5
100
AcDbSpline
 70
8
 71
3
 72
8
 73
4
 74
0
 40
0
 40
0
 40
0
 40
0
 40
1
 40
1
 40
1
 40
1
 10
94.592618
 20
369.745224
 30
0.0
 10
94.592618
 20
370.638388
 30
0.0
 10
94.116121
 20
371.463706
 30
0.0
 10
93.342618
 20
371.910288
 30
0.0
  0
SPLINE
  5
299
100
AcDbEntity
  8
Layer_1
 62
5
100
AcDbSpline
 70
8
 71
3
 72
8
 73
4
 74
0
 40
0
 40
0
 40
0
 40
0
 40
1
 40
1
 40
1
 40
1
 10
93.342618
 20
371.910288
 30
0.0
 10
92.569115
 20
372.356870
 30
0.0
 10
91.616120
 20
372.356870
 30
0.0
 10
90.842617
 20
371.910288
 30
0.0
  0
SPLINE
  5
29a
100
AcDbEntity
  8
Layer_1
 62
5
100
AcDbSpline
 70
8
 71
3
 72
8
 73
4
 74
0
 40
0
 40
0
 40
0
 40
0
 40
1
 40
1
 40
1
 40
1
 10
90.842617
 20
371.910288
 30
0.0
 10
90.069114
 20
371.463706
 30
0.0
 10
89.592617
 20
370.638388
 30
0.0
 10
89.592617
 20
369.745224
 30
0.0
  0
SPLINE
  5
29b
100
AcDbEntity
  8
Layer_1
 62
5
100
AcDbSpline
 70
8
 71
3
 72
8
 73
4
 74
0
 40
0
 40
0
 40
0
 40
0
 40
1
 40
1
 40
1
 40
1
 10
89.592617
 20
369.745224
 30
0.0
 10
89.592617
 20
368.852060
 30
0.0
 10
90.069114
 20
368.026742
 30
0.0
 10
90.842617
 20
367.580160
 30
0.0
  0
SPLINE
  5
29c
100
AcDbEntity
  8
Layer_1
 62
5
100
AcDbSpline
 70
8
 71
3
 72
8
 73
4
 74
0
 40
0
 40
0
 40
0
 40
0
 40
1
 40
1
 40
1
 40
1
 10
90.842617
 20
367.580160
 30
0.0
 10
91.616120
 20
367.133578
 30
0.0
 10
92.569115
 20
367.133578
 30
0.0
 10
93.342618
 20
367.580160
 30
0.0
  0
SPLINE
  5
29d
100
AcDbEntity
  8
Layer_1
 62
5
100
AcDbSpline
 70
8
 71
3
 72
8
 73
4
 74
0
 40
0
 40
0
 40
0
 40
0
 40
1
 40
1
 40
1
 40
1
 10
93.342618
 20
367.580160
 30
0.0
 10
94.116121
 20
368.026742
 30
0.0
 10
94.592618
 20
368.852060
 30
0.0
 10
94.592618
 20
369.745224
 30
0.0
  0
LWPOLYLINE
  5
29e
100
AcDbEntity
  8
Layer_1
 62
5
100
AcDbPolyline
 90
1
 70
1
 10
94.592618
 20
399.745220
 30
0.0
  0
SPLINE
  5
29f
100
AcDbEntity
  8
Layer_1
 62
5
100
AcDbSpline
 70
8
 71
3
 72
8
 73
4
 74
0
 40
0
 40
0
 40
0
 40
0
 40
1
 40
1
 40
1
 40
1
 10
94.592618
 20
339.745225
 30
0.0
 10
94.592618
 20
340.638389
 30
0.0
 10
94.116121
 20
341.463707
 30
0.0
 10
93.342618
 20
341.910289
 30
0.0
  0
SPLINE
  5
2a0
100
AcDbEntity
  8
Layer_1
 62
5
100
AcDbSpline
 70
8
 71
3
 72
8
 73
4
 74
0
 40
0
 40
0
 40
0
 40
0
 40
1
 40
1
 40
1
 40
1
 10
93.342618
 20
341.910289
 30
0.0
 10
92.569115
 20
342.356871
 30
0.0
 10
91.616120
 20
342.356871
 30
0.0
 10
90.842617
 20
341.910289
 30
0.0
  0
SPLINE
  5
2a1
100
AcDbEntity
  8
Layer_1
 62
5
100
AcDbSpline
 70
8
 71
3
 72
8
 73
4
 74
0
 40
0
 40
0
 40
0
 40
0
 40
1
 40
1
 40
1
 40
1
 10
90.842617
 20
341.910289
 30
0.0
 10
90.069114
 20
341.463707
 30
0.0
 10
89.592617
 20
340.638389
 30
0.0
 10
89.592617
 20
339.745225
 30
0.0
  0
SPLINE
  5
2a2
100
AcDbEntity
  8
Layer_1
 62
5
100
AcDbSpline
 70
8
 71
3
 72
8
 73
4
 74
0
 40
0
 40
0
 40
0
 40
0
 40
1
 40
1
 40
1
 40
1
 10
89.592617
 20
339.745225
 30
0.0
 10
89.592617
 20
338.852061
 30
0.0
 10
90.069114
 20
338.026743
 30
0.0
 10
90.842617
 20
337.580161
 30
0.0
  0
SPLINE
  5
2a3
100
AcDbEntity
  8
Layer_1
 62
5
100
AcDbSpline
 70
8
 71
3
 72
8
 73
4
 74
0
 40
0
 40
0
 40
0
 40
0
 40
1
 40
1
 40
1
 40
1
 10
90.842617
 20
337.580161
 30
0.0
 10
91.616120
 20
337.133579
 30
0.0
 10
92.569115
 20
337.133579
 30
0.0
 10
93.342618
 20
337.580161
 30
0.0
  0
SPLINE
  5
2a4
100
AcDbEntity
  8
Layer_1
 62
5
100
AcDbSpline
 70
8
 71
3
 72
8
 73
4
 74
0
 40
0
 40
0
 40
0
 40
0
 40
1
 40
1
 40
1
 40
1
 10
93.342618
 20
337.580161
 30
0.0
 10
94.116121
 20
338.026743
 30
0.0
 10
94.592618
 20
338.852061
 30
0.0
 10
94.592618
 20
339.745225
 30
0.0
  0
LWPOLYLINE
  5
2a5
100
AcDbEntity
  8
Layer_1
 62
5
100
AcDbPolyline
 90
1
 70
1
 10
94.592618
 20
369.745224
 30
0.0
  0
SPLINE
  5
2a6
100
AcDbEntity
  8
Layer_1
 62
5
100
AcDbSpline
 70
8
 71
3
 72
8
 73
4
 74
0
 40
0
 40
0
 40
0
 40
0
 40
1
 40
1
 40
1
 40
1
 10
94.592618
 20
309.745225
 30
0.0
 10
94.592618
 20
310.638389
 30
0.0
 10
94.116121
 20
311.463707
 30
0.0
 10
93.342618
 20
311.910289
 30
0.0
  0
SPLINE
  5
2a7
100
AcDbEntity
  8
Layer_1
 62
5
100
AcDbSpline
 70
8
 71
3
 72
8
 73
4
 74
0
 40
0
 40
0
 40
0
 40
0
 40
1
 40
1
 40
1
 40
1
 10
93.342618
 20
311.910289
 30
0.0
 10
92.569115
 20
312.356871
 30
0.0
 10
91.616120
 20
312.356871
 30
0.0
 10
90.842617
 20
311.910289
 30
0.0
  0
SPLINE
  5
2a8
100
AcDbEntity
  8
Layer_1
 62
5
100
AcDbSpline
 70
8
 71
3
 72
8
 73
4
 74
0
 40
0
 40
0
 40
0
 40
0
 40
1
 40
1
 40
1
 40
1
 10
90.842617
 20
311.910289
 30
0.0
 10
90.069114
 20
311.463707
 30
0.0
 10
89.592617
 20
310.638389
 30
0.0
 10
89.592617
 20
309.745225
 30
0.0
  0
SPLINE
  5
2a9
100
AcDbEntity
  8
Layer_1
 62
5
100
AcDbSpline
 70
8
 71
3
 72
8
 73
4
 74
0
 40
0
 40
0
 40
0
 40
0
 40
1
 40
1
 40
1
 40
1
 10
89.592617
 20
309.745225
 30
0.0
 10
89.592617
 20
308.852061
 30
0.0
 10
90.069114
 20
308.026743
 30
0.0
 10
90.842617
 20
307.580161
 30
0.0
  0
SPLINE
  5
2aa
100
AcDbEntity
  8
Layer_1
 62
5
100
AcDbSpline
 70
8
 71
3
 72
8
 73
4
 74
0
 40
0
 40
0
 40
0
 40
0
 40
1
 40
1
 40
1
 40
1
 10
90.842617
 20
307.580161
 30
0.0
 10
91.616120
 20
307.133579
 30
0.0
 10
92.569115
 20
307.133579
 30
0.0
 10
93.342618
 20
307.580161
 30
0.0
  0
SPLINE
  5
2ab
100
AcDbEntity
  8
Layer_1
 62
5
100
AcDbSpline
 70
8
 71
3
 72
8
 73
4
 74
0
 40
0
 40
0
 40
0
 40
0
 40
1
 40
1
 40
1
 40
1
 10
93.342618
 20
307.580161
 30
0.0
 10
94.116121
 20
308.026743
 30
0.0
 10
94.592618
 20
308.852061
 30
0.0
 10
94.592618
 20
309.745225
 30
0.0
  0
LWPOLYLINE
  5
2ac
100
AcDbEntity
  8
Layer_1
 62
5
100
AcDbPolyline
 90
1
 70
1
 10
94.592618
 20
339.745225
 30
0.0
  0
SPLINE
  5
2ad
100
AcDbEntity
  8
Layer_1
 62
5
100
AcDbSpline
 70
8
 71
3
 72
8
 73
4
 74
0
 40
0
 40
0
 40
0
 40
0
 40
1
 40
1
 40
1
 40
1
 10
94.592618
 20
279.745225
 30
0.0
 10
94.592618
 20
280.638389
 30
0.0
 10
94.116121
 20
281.463707
 30
0.0
 10
93.342618
 20
281.910289
 30
0.0
  0
SPLINE
  5
2ae
100
AcDbEntity
  8
Layer_1
 62
5
100
AcDbSpline
 70
8
 71
3
 72
8
 73
4
 74
0
 40
0
 40
0
 40
0
 40
0
 40
1
 40
1
 40
1
 40
1
 10
93.342618
 20
281.910289
 30
0.0
 10
92.569115
 20
282.356871
 30
0.0
 10
91.616120
 20
282.356871
 30
0.0
 10
90.842617
 20
281.910289
 30
0.0
  0
SPLINE
  5
2af
100
AcDbEntity
  8
Layer_1
 62
5
100
AcDbSpline
 70
8
 71
3
 72
8
 73
4
 74
0
 40
0
 40
0
 40
0
 40
0
 40
1
 40
1
 40
1
 40
1
 10
90.842617
 20
281.910289
 30
0.0
 10
90.069114
 20
281.463707
 30
0.0
 10
89.592617
 20
280.638389
 30
0.0
 10
89.592617
 20
279.745225
 30
0.0
  0
SPLINE
  5
2b0
100
AcDbEntity
  8
Layer_1
 62
5
100
AcDbSpline
 70
8
 71
3
 72
8
 73
4
 74
0
 40
0
 40
0
 40
0
 40
0
 40
1
 40
1
 40
1
 40
1
 10
89.592617
 20
279.745225
 30
0.0
 10
89.592617
 20
278.852061
 30
0.0
 10
90.069114
 20
278.026743
 30
0.0
 10
90.842617
 20
277.580161
 30
0.0
  0
SPLINE
  5
2b1
100
AcDbEntity
  8
Layer_1
 62
5
100
AcDbSpline
 70
8
 71
3
 72
8
 73
4
 74
0
 40
0
 40
0
 40
0
 40
0
 40
1
 40
1
 40
1
 40
1
 10
90.842617
 20
277.580161
 30
0.0
 10
91.616120
 20
277.133579
 30
0.0
 10
92.569115
 20
277.133579
 30
0.0
 10
93.342618
 20
277.580161
 30
0.0
  0
SPLINE
  5
2b2
100
AcDbEntity
  8
Layer_1
 62
5
100
AcDbSpline
 70
8
 71
3
 72
8
 73
4
 74
0
 40
0
 40
0
 40
0
 40
0
 40
1
 40
1
 40
1
 40
1
 10
93.342618
 20
277.580161
 30
0.0
 10
94.116121
 20
278.026743
 30
0.0
 10
94.592618
 20
278.852061
 30
0.0
 10
94.592618
 20
279.745225
 30
0.0
  0
LWPOLYLINE
  5
2b3
100
AcDbEntity
  8
Layer_1
 62
5
100
AcDbPolyline
 90
1
 70
1
 10
94.592618
 20
309.745225
 30
0.0
  0
SPLINE
  5
2b4
100
AcDbEntity
  8
Layer_1
 62
5
100
AcDbSpline
 70
8
 71
3
 72
8
 73
4
 74
0
 40
0
 40
0
 40
0
 40
0
 40
1
 40
1
 40
1
 40
1
 10
94.592618
 20
249.745227
 30
0.0
 10
94.592618
 20
250.638391
 30
0.0
 10
94.116121
 20
251.463709
 30
0.0
 10
93.342618
 20
251.910291
 30
0.0
  0
SPLINE
  5
2b5
100
AcDbEntity
  8
Layer_1
 62
5
100
AcDbSpline
 70
8
 71
3
 72
8
 73
4
 74
0
 40
0
 40
0
 40
0
 40
0
 40
1
 40
1
 40
1
 40
1
 10
93.342618
 20
251.910291
 30
0.0
 10
92.569115
 20
252.356873
 30
0.0
 10
91.616120
 20
252.356873
 30
0.0
 10
90.842617
 20
251.910291
 30
0.0
  0
SPLINE
  5
2b6
100
AcDbEntity
  8
Layer_1
 62
5
100
AcDbSpline
 70
8
 71
3
 72
8
 73
4
 74
0
 40
0
 40
0
 40
0
 40
0
 40
1
 40
1
 40
1
 40
1
 10
90.842617
 20
251.910291
 30
0.0
 10
90.069114
 20
251.463709
 30
0.0
 10
89.592617
 20
250.638391
 30
0.0
 10
89.592617
 20
249.745227
 30
0.0
  0
SPLINE
  5
2b7
100
AcDbEntity
  8
Layer_1
 62
5
100
AcDbSpline
 70
8
 71
3
 72
8
 73
4
 74
0
 40
0
 40
0
 40
0
 40
0
 40
1
 40
1
 40
1
 40
1
 10
89.592617
 20
249.745227
 30
0.0
 10
89.592617
 20
248.852063
 30
0.0
 10
90.069114
 20
248.026745
 30
0.0
 10
90.842617
 20
247.580163
 30
0.0
  0
SPLINE
  5
2b8
100
AcDbEntity
  8
Layer_1
 62
5
100
AcDbSpline
 70
8
 71
3
 72
8
 73
4
 74
0
 40
0
 40
0
 40
0
 40
0
 40
1
 40
1
 40
1
 40
1
 10
90.842617
 20
247.580163
 30
0.0
 10
91.616120
 20
247.133581
 30
0.0
 10
92.569115
 20
247.133581
 30
0.0
 10
93.342618
 20
247.580163
 30
0.0
  0
SPLINE
  5
2b9
100
AcDbEntity
  8
Layer_1
 62
5
100
AcDbSpline
 70
8
 71
3
 72
8
 73
4
 74
0
 40
0
 40
0
 40
0
 40
0
 40
1
 40
1
 40
1
 40
1
 10
93.342618
 20
247.580163
 30
0.0
 10
94.116121
 20
248.026745
 30
0.0
 10
94.592618
 20
248.852063
 30
0.0
 10
94.592618
 20
249.745227
 30
0.0
  0
LWPOLYLINE
  5
2ba
100
AcDbEntity
  8
Layer_1
 62
5
100
AcDbPolyline
 90
1
 70
1
 10
94.592618
 20
279.745225
 30
0.0
  0
SPLINE
  5
2bb
100
AcDbEntity
  8
Layer_1
 62
5
100
AcDbSpline
 70
8
 71
3
 72
8
 73
4
 74
0
 40
0
 40
0
 40
0
 40
0
 40
1
 40
1
 40
1
 40
1
 10
94.592618
 20
219.745227
 30
0.0
 10
94.592618
 20
220.638391
 30
0.0
 10
94.116121
 20
221.463709
 30
0.0
 10
93.342618
 20
221.910291
 30
0.0
  0
SPLINE
  5
2bc
100
AcDbEntity
  8
Layer_1
 62
5
100
AcDbSpline
 70
8
 71
3
 72
8
 73
4
 74
0
 40
0
 40
0
 40
0
 40
0
 40
1
 40
1
 40
1
 40
1
 10
93.342618
 20
221.910291
 30
0.0
 10
92.569115
 20
222.356873
 30
0.0
 10
91.616120
 20
222.356873
 30
0.0
 10
90.842617
 20
221.910291
 30
0.0
  0
SPLINE
  5
2bd
100
AcDbEntity
  8
Layer_1
 62
5
100
AcDbSpline
 70
8
 71
3
 72
8
 73
4
 74
0
 40
0
 40
0
 40
0
 40
0
 40
1
 40
1
 40
1
 40
1
 10
90.842617
 20
221.910291
 30
0.0
 10
90.069114
 20
221.463709
 30
0.0
 10
89.592617
 20
220.638391
 30
0.0
 10
89.592617
 20
219.745227
 30
0.0
  0
SPLINE
  5
2be
100
AcDbEntity
  8
Layer_1
 62
5
100
AcDbSpline
 70
8
 71
3
 72
8
 73
4
 74
0
 40
0
 40
0
 40
0
 40
0
 40
1
 40
1
 40
1
 40
1
 10
89.592617
 20
219.745227
 30
0.0
 10
89.592617
 20
218.852063
 30
0.0
 10
90.069114
 20
218.026745
 30
0.0
 10
90.842617
 20
217.580163
 30
0.0
  0
SPLINE
  5
2bf
100
AcDbEntity
  8
Layer_1
 62
5
100
AcDbSpline
 70
8
 71
3
 72
8
 73
4
 74
0
 40
0
 40
0
 40
0
 40
0
 40
1
 40
1
 40
1
 40
1
 10
90.842617
 20
217.580163
 30
0.0
 10
91.616120
 20
217.133581
 30
0.0
 10
92.569115
 20
217.133581
 30
0.0
 10
93.342618
 20
217.580163
 30
0.0
  0
SPLINE
  5
2c0
100
AcDbEntity
  8
Layer_1
 62
5
100
AcDbSpline
 70
8
 71
3
 72
8
 73
4
 74
0
 40
0
 40
0
 40
0
 40
0
 40
1
 40
1
 40
1
 40
1
 10
93.342618
 20
217.580163
 30
0.0
 10
94.116121
 20
218.026745
 30
0.0
 10
94.592618
 20
218.852063
 30
0.0
 10
94.592618
 20
219.745227
 30
0.0
  0
LWPOLYLINE
  5
2c1
100
AcDbEntity
  8
Layer_1
 62
5
100
AcDbPolyline
 90
1
 70
1
 10
94.592618
 20
249.745227
 30
0.0
  0
SPLINE
  5
2c2
100
AcDbEntity
  8
Layer_1
 62
5
100
AcDbSpline
 70
8
 71
3
 72
8
 73
4
 74
0
 40
0
 40
0
 40
0
 40
0
 40
1
 40
1
 40
1
 40
1
 10
94.592618
 20
189.745230
 30
0.0
 10
94.592618
 20
190.638394
 30
0.0
 10
94.116121
 20
191.463712
 30
0.0
 10
93.342618
 20
191.910294
 30
0.0
  0
SPLINE
  5
2c3
100
AcDbEntity
  8
Layer_1
 62
5
100
AcDbSpline
 70
8
 71
3
 72
8
 73
4
 74
0
 40
0
 40
0
 40
0
 40
0
 40
1
 40
1
 40
1
 40
1
 10
93.342618
 20
191.910294
 30
0.0
 10
92.569115
 20
192.356876
 30
0.0
 10
91.616120
 20
192.356876
 30
0.0
 10
90.842617
 20
191.910294
 30
0.0
  0
SPLINE
  5
2c4
100
AcDbEntity
  8
Layer_1
 62
5
100
AcDbSpline
 70
8
 71
3
 72
8
 73
4
 74
0
 40
0
 40
0
 40
0
 40
0
 40
1
 40
1
 40
1
 40
1
 10
90.842617
 20
191.910294
 30
0.0
 10
90.069114
 20
191.463712
 30
0.0
 10
89.592617
 20
190.638394
 30
0.0
 10
89.592617
 20
189.745230
 30
0.0
  0
SPLINE
  5
2c5
100
AcDbEntity
  8
Layer_1
 62
5
100
AcDbSpline
 70
8
 71
3
 72
8
 73
4
 74
0
 40
0
 40
0
 40
0
 40
0
 40
1
 40
1
 40
1
 40
1
 10
89.592617
 20
189.745230
 30
0.0
 10
89.592617
 20
188.852066
 30
0.0
 10
90.069114
 20
188.026748
 30
0.0
 10
90.842617
 20
187.580166
 30
0.0
  0
SPLINE
  5
2c6
100
AcDbEntity
  8
Layer_1
 62
5
100
AcDbSpline
 70
8
 71
3
 72
8
 73
4
 74
0
 40
0
 40
0
 40
0
 40
0
 40
1
 40
1
 40
1
 40
1
 10
90.842617
 20
187.580166
 30
0.0
 10
91.616120
 20
187.133584
 30
0.0
 10
92.569115
 20
187.133584
 30
0.0
 10
93.342618
 20
187.580166
 30
0.0
  0
SPLINE
  5
2c7
100
AcDbEntity
  8
Layer_1
 62
5
100
AcDbSpline
 70
8
 71
3
 72
8
 73
4
 74
0
 40
0
 40
0
 40
0
 40
0
 40
1
 40
1
 40
1
 40
1
 10
93.342618
 20
187.580166
 30
0.0
 10
94.116121
 20
188.026748
 30
0.0
 10
94.592618
 20
188.852066
 30
0.0
 10
94.592618
 20
189.745230
 30
0.0
  0
LWPOLYLINE
  5
2c8
100
AcDbEntity
  8
Layer_1
 62
5
100
AcDbPolyline
 90
1
 70
1
 10
94.592618
 20
219.745227
 30
0.0
  0
SPLINE
  5
2c9
100
AcDbEntity
  8
Layer_1
 62
5
100
AcDbSpline
 70
8
 71
3
 72
8
 73
4
 74
0
 40
0
 40
0
 40
0
 40
0
 40
1
 40
1
 40
1
 40
1
 10
94.592618
 20
159.745230
 30
0.0
 10
94.592618
 20
160.638394
 30
0.0
 10
94.116121
 20
161.463712
 30
0.0
 10
93.342618
 20
161.910294
 30
0.0
  0
SPLINE
  5
2ca
100
AcDbEntity
  8
Layer_1
 62
5
100
AcDbSpline
 70
8
 71
3
 72
8
 73
4
 74
0
 40
0
 40
0
 40
0
 40
0
 40
1
 40
1
 40
1
 40
1
 10
93.342618
 20
161.910294
 30
0.0
 10
92.569115
 20
162.356876
 30
0.0
 10
91.616120
 20
162.356876
 30
0.0
 10
90.842617
 20
161.910294
 30
0.0
  0
SPLINE
  5
2cb
100
AcDbEntity
  8
Layer_1
 62
5
100
AcDbSpline
 70
8
 71
3
 72
8
 73
4
 74
0
 40
0
 40
0
 40
0
 40
0
 40
1
 40
1
 40
1
 40
1
 10
90.842617
 20
161.910294
 30
0.0
 10
90.069114
 20
161.463712
 30
0.0
 10
89.592617
 20
160.638394
 30
0.0
 10
89.592617
 20
159.745230
 30
0.0
  0
SPLINE
  5
2cc
100
AcDbEntity
  8
Layer_1
 62
5
100
AcDbSpline
 70
8
 71
3
 72
8
 73
4
 74
0
 40
0
 40
0
 40
0
 40
0
 40
1
 40
1
 40
1
 40
1
 10
89.592617
 20
159.745230
 30
0.0
 10
89.592617
 20
158.852066
 30
0.0
 10
90.069114
 20
158.026748
 30
0.0
 10
90.842617
 20
157.580166
 30
0.0
  0
SPLINE
  5
2cd
100
AcDbEntity
  8
Layer_1
 62
5
100
AcDbSpline
 70
8
 71
3
 72
8
 73
4
 74
0
 40
0
 40
0
 40
0
 40
0
 40
1
 40
1
 40
1
 40
1
 10
90.842617
 20
157.580166
 30
0.0
 10
91.616120
 20
157.133584
 30
0.0
 10
92.569115
 20
157.133584
 30
0.0
 10
93.342618
 20
157.580166
 30
0.0
  0
SPLINE
  5
2ce
100
AcDbEntity
  8
Layer_1
 62
5
100
AcDbSpline
 70
8
 71
3
 72
8
 73
4
 74
0
 40
0
 40
0
 40
0
 40
0
 40
1
 40
1
 40
1
 40
1
 10
93.342618
 20
157.580166
 30
0.0
 10
94.116121
 20
158.026748
 30
0.0
 10
94.592618
 20
158.852066
 30
0.0
 10
94.592618
 20
159.745230
 30
0.0
  0
LWPOLYLINE
  5
2cf
100
AcDbEntity
  8
Layer_1
 62
5
100
AcDbPolyline
 90
1
 70
1
 10
94.592618
 20
189.745230
 30
0.0
  0
SPLINE
  5
2d0
100
AcDbEntity
  8
Layer_1
 62
5
100
AcDbSpline
 70
8
 71
3
 72
8
 73
4
 74
0
 40
0
 40
0
 40
0
 40
0
 40
1
 40
1
 40
1
 40
1
 10
94.592618
 20
129.745230
 30
0.0
 10
94.592618
 20
130.638394
 30
0.0
 10
94.116121
 20
131.463712
 30
0.0
 10
93.342618
 20
131.910294
 30
0.0
  0
SPLINE
  5
2d1
100
AcDbEntity
  8
Layer_1
 62
5
100
AcDbSpline
 70
8
 71
3
 72
8
 73
4
 74
0
 40
0
 40
0
 40
0
 40
0
 40
1
 40
1
 40
1
 40
1
 10
93.342618
 20
131.910294
 30
0.0
 10
92.569115
 20
132.356876
 30
0.0
 10
91.616120
 20
132.356876
 30
0.0
 10
90.842617
 20
131.910294
 30
0.0
  0
SPLINE
  5
2d2
100
AcDbEntity
  8
Layer_1
 62
5
100
AcDbSpline
 70
8
 71
3
 72
8
 73
4
 74
0
 40
0
 40
0
 40
0
 40
0
 40
1
 40
1
 40
1
 40
1
 10
90.842617
 20
131.910294
 30
0.0
 10
90.069114
 20
131.463712
 30
0.0
 10
89.592617
 20
130.638394
 30
0.0
 10
89.592617
 20
129.745230
 30
0.0
  0
SPLINE
  5
2d3
100
AcDbEntity
  8
Layer_1
 62
5
100
AcDbSpline
 70
8
 71
3
 72
8
 73
4
 74
0
 40
0
 40
0
 40
0
 40
0
 40
1
 40
1
 40
1
 40
1
 10
89.592617
 20
129.745230
 30
0.0
 10
89.592617
 20
128.852066
 30
0.0
 10
90.069114
 20
128.026748
 30
0.0
 10
90.842617
 20
127.580166
 30
0.0
  0
SPLINE
  5
2d4
100
AcDbEntity
  8
Layer_1
 62
5
100
AcDbSpline
 70
8
 71
3
 72
8
 73
4
 74
0
 40
0
 40
0
 40
0
 40
0
 40
1
 40
1
 40
1
 40
1
 10
90.842617
 20
127.580166
 30
0.0
 10
91.616120
 20
127.133584
 30
0.0
 10
92.569115
 20
127.133584
 30
0.0
 10
93.342618
 20
127.580166
 30
0.0
  0
SPLINE
  5
2d5
100
AcDbEntity
  8
Layer_1
 62
5
100
AcDbSpline
 70
8
 71
3
 72
8
 73
4
 74
0
 40
0
 40
0
 40
0
 40
0
 40
1
 40
1
 40
1
 40
1
 10
93.342618
 20
127.580166
 30
0.0
 10
94.116121
 20
128.026748
 30
0.0
 10
94.592618
 20
128.852066
 30
0.0
 10
94.592618
 20
129.745230
 30
0.0
  0
LWPOLYLINE
  5
2d6
100
AcDbEntity
  8
Layer_1
 62
5
100
AcDbPolyline
 90
1
 70
1
 10
94.592618
 20
159.745230
 30
0.0
  0
SPLINE
  5
2d7
100
AcDbEntity
  8
Layer_1
 62
5
100
AcDbSpline
 70
8
 71
3
 72
8
 73
4
 74
0
 40
0
 40
0
 40
0
 40
0
 40
1
 40
1
 40
1
 40
1
 10
94.592618
 20
99.745230
 30
0.0
 10
94.592618
 20
100.638394
 30
0.0
 10
94.116121
 20
101.463712
 30
0.0
 10
93.342618
 20
101.910294
 30
0.0
  0
SPLINE
  5
2d8
100
AcDbEntity
  8
Layer_1
 62
5
100
AcDbSpline
 70
8
 71
3
 72
8
 73
4
 74
0
 40
0
 40
0
 40
0
 40
0
 40
1
 40
1
 40
1
 40
1
 10
93.342618
 20
101.910294
 30
0.0
 10
92.569115
 20
102.356876
 30
0.0
 10
91.616120
 20
102.356876
 30
0.0
 10
90.842617
 20
101.910294
 30
0.0
  0
SPLINE
  5
2d9
100
AcDbEntity
  8
Layer_1
 62
5
100
AcDbSpline
 70
8
 71
3
 72
8
 73
4
 74
0
 40
0
 40
0
 40
0
 40
0
 40
1
 40
1
 40
1
 40
1
 10
90.842617
 20
101.910294
 30
0.0
 10
90.069114
 20
101.463712
 30
0.0
 10
89.592617
 20
100.638394
 30
0.0
 10
89.592617
 20
99.745230
 30
0.0
  0
SPLINE
  5
2da
100
AcDbEntity
  8
Layer_1
 62
5
100
AcDbSpline
 70
8
 71
3
 72
8
 73
4
 74
0
 40
0
 40
0
 40
0
 40
0
 40
1
 40
1
 40
1
 40
1
 10
89.592617
 20
99.745230
 30
0.0
 10
89.592617
 20
98.852066
 30
0.0
 10
90.069114
 20
98.026748
 30
0.0
 10
90.842617
 20
97.580166
 30
0.0
  0
SPLINE
  5
2db
100
AcDbEntity
  8
Layer_1
 62
5
100
AcDbSpline
 70
8
 71
3
 72
8
 73
4
 74
0
 40
0
 40
0
 40
0
 40
0
 40
1
 40
1
 40
1
 40
1
 10
90.842617
 20
97.580166
 30
0.0
 10
91.616120
 20
97.133584
 30
0.0
 10
92.569115
 20
97.133584
 30
0.0
 10
93.342618
 20
97.580166
 30
0.0
  0
SPLINE
  5
2dc
100
AcDbEntity
  8
Layer_1
 62
5
100
AcDbSpline
 70
8
 71
3
 72
8
 73
4
 74
0
 40
0
 40
0
 40
0
 40
0
 40
1
 40
1
 40
1
 40
1
 10
93.342618
 20
97.580166
 30
0.0
 10
94.116121
 20
98.026748
 30
0.0
 10
94.592618
 20
98.852066
 30
0.0
 10
94.592618
 20
99.745230
 30
0.0
  0
LWPOLYLINE
  5
2dd
100
AcDbEntity
  8
Layer_1
 62
5
100
AcDbPolyline
 90
1
 70
1
 10
94.592618
 20
129.745230
 30
0.0
  0
SPLINE
  5
2de
100
AcDbEntity
  8
Layer_1
 62
5
100
AcDbSpline
 70
8
 71
3
 72
8
 73
4
 74
0
 40
0
 40
0
 40
0
 40
0
 40
1
 40
1
 40
1
 40
1
 10
124.592620
 20
399.745220
 30
0.0
 10
124.590413
 20
401.124373
 30
0.0
 10
123.471770
 20
402.241228
 30
0.0
 10
122.092615
 20
402.241228
 30
0.0
  0
SPLINE
  5
2df
100
AcDbEntity
  8
Layer_1
 62
5
100
AcDbSpline
 70
8
 71
3
 72
8
 73
4
 74
0
 40
0
 40
0
 40
0
 40
0
 40
1
 40
1
 40
1
 40
1
 10
122.092615
 20
402.241228
 30
0.0
 10
120.713460
 20
402.241228
 30
0.0
 10
119.594817
 20
401.124373
 30
0.0
 10
119.592610
 20
399.745220
 30
0.0
  0
SPLINE
  5
2e0
100
AcDbEntity
  8
Layer_1
 62
5
100
AcDbSpline
 70
8
 71
3
 72
8
 73
4
 74
0
 40
0
 40
0
 40
0
 40
0
 40
1
 40
1
 40
1
 40
1
 10
119.592610
 20
399.745220
 30
0.0
 10
119.594817
 20
398.366067
 30
0.0
 10
120.713460
 20
397.249212
 30
0.0
 10
122.092615
 20
397.249212
 30
0.0
  0
SPLINE
  5
2e1
100
AcDbEntity
  8
Layer_1
 62
5
100
AcDbSpline
 70
8
 71
3
 72
8
 73
4
 74
0
 40
0
 40
0
 40
0
 40
0
 40
1
 40
1
 40
1
 40
1
 10
122.092615
 20
397.249212
 30
0.0
 10
123.471770
 20
397.249212
 30
0.0
 10
124.590413
 20
398.366067
 30
0.0
 10
124.592620
 20
399.745220
 30
0.0
  0
LWPOLYLINE
  5
2e2
100
AcDbEntity
  8
Layer_1
 62
5
100
AcDbPolyline
 90
1
 70
1
 10
94.592618
 20
99.745230
 30
0.0
  0
SPLINE
  5
2e3
100
AcDbEntity
  8
Layer_1
 62
5
100
AcDbSpline
 70
8
 71
3
 72
8
 73
4
 74
0
 40
0
 40
0
 40
0
 40
0
 40
1
 40
1
 40
1
 40
1
 10
124.592620
 20
369.745224
 30
0.0
 10
124.590413
 20
371.124377
 30
0.0
 10
123.471770
 20
372.241232
 30
0.0
 10
122.092615
 20
372.241232
 30
0.0
  0
SPLINE
  5
2e4
100
AcDbEntity
  8
Layer_1
 62
5
100
AcDbSpline
 70
8
 71
3
 72
8
 73
4
 74
0
 40
0
 40
0
 40
0
 40
0
 40
1
 40
1
 40
1
 40
1
 10
122.092615
 20
372.241232
 30
0.0
 10
120.713460
 20
372.241232
 30
0.0
 10
119.594817
 20
371.124377
 30
0.0
 10
119.592610
 20
369.745224
 30
0.0
  0
SPLINE
  5
2e5
100
AcDbEntity
  8
Layer_1
 62
5
100
AcDbSpline
 70
8
 71
3
 72
8
 73
4
 74
0
 40
0
 40
0
 40
0
 40
0
 40
1
 40
1
 40
1
 40
1
 10
119.592610
 20
369.745224
 30
0.0
 10
119.594817
 20
368.366071
 30
0.0
 10
120.713460
 20
367.249216
 30
0.0
 10
122.092615
 20
367.249216
 30
0.0
  0
SPLINE
  5
2e6
100
AcDbEntity
  8
Layer_1
 62
5
100
AcDbSpline
 70
8
 71
3
 72
8
 73
4
 74
0
 40
0
 40
0
 40
0
 40
0
 40
1
 40
1
 40
1
 40
1
 10
122.092615
 20
367.249216
 30
0.0
 10
123.471770
 20
367.249216
 30
0.0
 10
124.590413
 20
368.366071
 30
0.0
 10
124.592620
 20
369.745224
 30
0.0
  0
LWPOLYLINE
  5
2e7
100
AcDbEntity
  8
Layer_1
 62
5
100
AcDbPolyline
 90
1
 70
1
 10
124.592620
 20
399.745220
 30
0.0
  0
SPLINE
  5
2e8
100
AcDbEntity
  8
Layer_1
 62
5
100
AcDbSpline
 70
8
 71
3
 72
8
 73
4
 74
0
 40
0
 40
0
 40
0
 40
0
 40
1
 40
1
 40
1
 40
1
 10
124.592620
 20
339.745225
 30
0.0
 10
124.590413
 20
341.124378
 30
0.0
 10
123.471770
 20
342.241233
 30
0.0
 10
122.092615
 20
342.241233
 30
0.0
  0
SPLINE
  5
2e9
100
AcDbEntity
  8
Layer_1
 62
5
100
AcDbSpline
 70
8
 71
3
 72
8
 73
4
 74
0
 40
0
 40
0
 40
0
 40
0
 40
1
 40
1
 40
1
 40
1
 10
122.092615
 20
342.241233
 30
0.0
 10
120.713460
 20
342.241233
 30
0.0
 10
119.594817
 20
341.124378
 30
0.0
 10
119.592610
 20
339.745225
 30
0.0
  0
SPLINE
  5
2ea
100
AcDbEntity
  8
Layer_1
 62
5
100
AcDbSpline
 70
8
 71
3
 72
8
 73
4
 74
0
 40
0
 40
0
 40
0
 40
0
 40
1
 40
1
 40
1
 40
1
 10
119.592610
 20
339.745225
 30
0.0
 10
119.594817
 20
338.366072
 30
0.0
 10
120.713460
 20
337.249217
 30
0.0
 10
122.092615
 20
337.249217
 30
0.0
  0
SPLINE
  5
2eb
100
AcDbEntity
  8
Layer_1
 62
5
100
AcDbSpline
 70
8
 71
3
 72
8
 73
4
 74
0
 40
0
 40
0
 40
0
 40
0
 40
1
 40
1
 40
1
 40
1
 10
122.092615
 20
337.249217
 30
0.0
 10
123.471770
 20
337.249217
 30
0.0
 10
124.590413
 20
338.366072
 30
0.0
 10
124.592620
 20
339.745225
 30
0.0
  0
LWPOLYLINE
  5
2ec
100
AcDbEntity
  8
Layer_1
 62
5
100
AcDbPolyline
 90
1
 70
1
 10
124.592620
 20
369.745224
 30
0.0
  0
SPLINE
  5
2ed
100
AcDbEntity
  8
Layer_1
 62
5
100
AcDbSpline
 70
8
 71
3
 72
8
 73
4
 74
0
 40
0
 40
0
 40
0
 40
0
 40
1
 40
1
 40
1
 40
1
 10
124.592620
 20
309.745225
 30
0.0
 10
124.590413
 20
311.124378
 30
0.0
 10
123.471770
 20
312.241233
 30
0.0
 10
122.092615
 20
312.241233
 30
0.0
  0
SPLINE
  5
2ee
100
AcDbEntity
  8
Layer_1
 62
5
100
AcDbSpline
 70
8
 71
3
 72
8
 73
4
 74
0
 40
0
 40
0
 40
0
 40
0
 40
1
 40
1
 40
1
 40
1
 10
122.092615
 20
312.241233
 30
0.0
 10
120.713460
 20
312.241233
 30
0.0
 10
119.594817
 20
311.124378
 30
0.0
 10
119.592610
 20
309.745225
 30
0.0
  0
SPLINE
  5
2ef
100
AcDbEntity
  8
Layer_1
 62
5
100
AcDbSpline
 70
8
 71
3
 72
8
 73
4
 74
0
 40
0
 40
0
 40
0
 40
0
 40
1
 40
1
 40
1
 40
1
 10
119.592610
 20
309.745225
 30
0.0
 10
119.594817
 20
308.366072
 30
0.0
 10
120.713460
 20
307.249217
 30
0.0
 10
122.092615
 20
307.249217
 30
0.0
  0
SPLINE
  5
2f0
100
AcDbEntity
  8
Layer_1
 62
5
100
AcDbSpline
 70
8
 71
3
 72
8
 73
4
 74
0
 40
0
 40
0
 40
0
 40
0
 40
1
 40
1
 40
1
 40
1
 10
122.092615
 20
307.249217
 30
0.0
 10
123.471770
 20
307.249217
 30
0.0
 10
124.590413
 20
308.366072
 30
0.0
 10
124.592620
 20
309.745225
 30
0.0
  0
LWPOLYLINE
  5
2f1
100
AcDbEntity
  8
Layer_1
 62
5
100
AcDbPolyline
 90
1
 70
1
 10
124.592620
 20
339.745225
 30
0.0
  0
SPLINE
  5
2f2
100
AcDbEntity
  8
Layer_1
 62
5
100
AcDbSpline
 70
8
 71
3
 72
8
 73
4
 74
0
 40
0
 40
0
 40
0
 40
0
 40
1
 40
1
 40
1
 40
1
 10
124.592620
 20
279.745225
 30
0.0
 10
124.590413
 20
281.124378
 30
0.0
 10
123.471770
 20
282.241233
 30
0.0
 10
122.092615
 20
282.241233
 30
0.0
  0
SPLINE
  5
2f3
100
AcDbEntity
  8
Layer_1
 62
5
100
AcDbSpline
 70
8
 71
3
 72
8
 73
4
 74
0
 40
0
 40
0
 40
0
 40
0
 40
1
 40
1
 40
1
 40
1
 10
122.092615
 20
282.241233
 30
0.0
 10
120.713460
 20
282.241233
 30
0.0
 10
119.594817
 20
281.124378
 30
0.0
 10
119.592610
 20
279.745225
 30
0.0
  0
SPLINE
  5
2f4
100
AcDbEntity
  8
Layer_1
 62
5
100
AcDbSpline
 70
8
 71
3
 72
8
 73
4
 74
0
 40
0
 40
0
 40
0
 40
0
 40
1
 40
1
 40
1
 40
1
 10
119.592610
 20
279.745225
 30
0.0
 10
119.594817
 20
278.366072
 30
0.0
 10
120.713460
 20
277.249217
 30
0.0
 10
122.092615
 20
277.249217
 30
0.0
  0
SPLINE
  5
2f5
100
AcDbEntity
  8
Layer_1
 62
5
100
AcDbSpline
 70
8
 71
3
 72
8
 73
4
 74
0
 40
0
 40
0
 40
0
 40
0
 40
1
 40
1
 40
1
 40
1
 10
122.092615
 20
277.249217
 30
0.0
 10
123.471770
 20
277.249217
 30
0.0
 10
124.590413
 20
278.366072
 30
0.0
 10
124.592620
 20
279.745225
 30
0.0
  0
LWPOLYLINE
  5
2f6
100
AcDbEntity
  8
Layer_1
 62
5
100
AcDbPolyline
 90
1
 70
1
 10
124.592620
 20
309.745225
 30
0.0
  0
SPLINE
  5
2f7
100
AcDbEntity
  8
Layer_1
 62
5
100
AcDbSpline
 70
8
 71
3
 72
8
 73
4
 74
0
 40
0
 40
0
 40
0
 40
0
 40
1
 40
1
 40
1
 40
1
 10
124.592620
 20
249.745227
 30
0.0
 10
124.590413
 20
251.124380
 30
0.0
 10
123.471770
 20
252.241235
 30
0.0
 10
122.092615
 20
252.241235
 30
0.0
  0
SPLINE
  5
2f8
100
AcDbEntity
  8
Layer_1
 62
5
100
AcDbSpline
 70
8
 71
3
 72
8
 73
4
 74
0
 40
0
 40
0
 40
0
 40
0
 40
1
 40
1
 40
1
 40
1
 10
122.092615
 20
252.241235
 30
0.0
 10
120.713460
 20
252.241235
 30
0.0
 10
119.594817
 20
251.124380
 30
0.0
 10
119.592610
 20
249.745227
 30
0.0
  0
SPLINE
  5
2f9
100
AcDbEntity
  8
Layer_1
 62
5
100
AcDbSpline
 70
8
 71
3
 72
8
 73
4
 74
0
 40
0
 40
0
 40
0
 40
0
 40
1
 40
1
 40
1
 40
1
 10
119.592610
 20
249.745227
 30
0.0
 10
119.594817
 20
248.366074
 30
0.0
 10
120.713460
 20
247.249219
 30
0.0
 10
122.092615
 20
247.249219
 30
0.0
  0
SPLINE
  5
2fa
100
AcDbEntity
  8
Layer_1
 62
5
100
AcDbSpline
 70
8
 71
3
 72
8
 73
4
 74
0
 40
0
 40
0
 40
0
 40
0
 40
1
 40
1
 40
1
 40
1
 10
122.092615
 20
247.249219
 30
0.0
 10
123.471770
 20
247.249219
 30
0.0
 10
124.590413
 20
248.366074
 30
0.0
 10
124.592620
 20
249.745227
 30
0.0
  0
LWPOLYLINE
  5
2fb
100
AcDbEntity
  8
Layer_1
 62
5
100
AcDbPolyline
 90
1
 70
1
 10
124.592620
 20
279.745225
 30
0.0
  0
SPLINE
  5
2fc
100
AcDbEntity
  8
Layer_1
 62
5
100
AcDbSpline
 70
8
 71
3
 72
8
 73
4
 74
0
 40
0
 40
0
 40
0
 40
0
 40
1
 40
1
 40
1
 40
1
 10
124.592620
 20
219.745227
 30
0.0
 10
124.590413
 20
221.124380
 30
0.0
 10
123.471770
 20
222.241235
 30
0.0
 10
122.092615
 20
222.241235
 30
0.0
  0
SPLINE
  5
2fd
100
AcDbEntity
  8
Layer_1
 62
5
100
AcDbSpline
 70
8
 71
3
 72
8
 73
4
 74
0
 40
0
 40
0
 40
0
 40
0
 40
1
 40
1
 40
1
 40
1
 10
122.092615
 20
222.241235
 30
0.0
 10
120.713460
 20
222.241235
 30
0.0
 10
119.594817
 20
221.124380
 30
0.0
 10
119.592610
 20
219.745227
 30
0.0
  0
SPLINE
  5
2fe
100
AcDbEntity
  8
Layer_1
 62
5
100
AcDbSpline
 70
8
 71
3
 72
8
 73
4
 74
0
 40
0
 40
0
 40
0
 40
0
 40
1
 40
1
 40
1
 40
1
 10
119.592610
 20
219.745227
 30
0.0
 10
119.594817
 20
218.366074
 30
0.0
 10
120.713460
 20
217.249219
 30
0.0
 10
122.092615
 20
217.249219
 30
0.0
  0
SPLINE
  5
2ff
100
AcDbEntity
  8
Layer_1
 62
5
100
AcDbSpline
 70
8
 71
3
 72
8
 73
4
 74
0
 40
0
 40
0
 40
0
 40
0
 40
1
 40
1
 40
1
 40
1
 10
122.092615
 20
217.249219
 30
0.0
 10
123.471770
 20
217.249219
 30
0.0
 10
124.590413
 20
218.366074
 30
0.0
 10
124.592620
 20
219.745227
 30
0.0
  0
LWPOLYLINE
  5
300
100
AcDbEntity
  8
Layer_1
 62
5
100
AcDbPolyline
 90
1
 70
1
 10
124.592620
 20
249.745227
 30
0.0
  0
SPLINE
  5
301
100
AcDbEntity
  8
Layer_1
 62
5
100
AcDbSpline
 70
8
 71
3
 72
8
 73
4
 74
0
 40
0
 40
0
 40
0
 40
0
 40
1
 40
1
 40
1
 40
1
 10
124.592620
 20
189.745230
 30
0.0
 10
124.590413
 20
191.124383
 30
0.0
 10
123.471770
 20
192.241238
 30
0.0
 10
122.092615
 20
192.241238
 30
0.0
  0
SPLINE
  5
302
100
AcDbEntity
  8
Layer_1
 62
5
100
AcDbSpline
 70
8
 71
3
 72
8
 73
4
 74
0
 40
0
 40
0
 40
0
 40
0
 40
1
 40
1
 40
1
 40
1
 10
122.092615
 20
192.241238
 30
0.0
 10
120.713460
 20
192.241238
 30
0.0
 10
119.594817
 20
191.124383
 30
0.0
 10
119.592610
 20
189.745230
 30
0.0
  0
SPLINE
  5
303
100
AcDbEntity
  8
Layer_1
 62
5
100
AcDbSpline
 70
8
 71
3
 72
8
 73
4
 74
0
 40
0
 40
0
 40
0
 40
0
 40
1
 40
1
 40
1
 40
1
 10
119.592610
 20
189.745230
 30
0.0
 10
119.594817
 20
188.366077
 30
0.0
 10
120.713460
 20
187.249222
 30
0.0
 10
122.092615
 20
187.249222
 30
0.0
  0
SPLINE
  5
304
100
AcDbEntity
  8
Layer_1
 62
5
100
AcDbSpline
 70
8
 71
3
 72
8
 73
4
 74
0
 40
0
 40
0
 40
0
 40
0
 40
1
 40
1
 40
1
 40
1
 10
122.092615
 20
187.249222
 30
0.0
 10
123.471770
 20
187.249222
 30
0.0
 10
124.590413
 20
188.366077
 30
0.0
 10
124.592620
 20
189.745230
 30
0.0
  0
LWPOLYLINE
  5
305
100
AcDbEntity
  8
Layer_1
 62
5
100
AcDbPolyline
 90
1
 70
1
 10
124.592620
 20
219.745227
 30
0.0
  0
SPLINE
  5
306
100
AcDbEntity
  8
Layer_1
 62
5
100
AcDbSpline
 70
8
 71
3
 72
8
 73
4
 74
0
 40
0
 40
0
 40
0
 40
0
 40
1
 40
1
 40
1
 40
1
 10
124.592620
 20
159.745230
 30
0.0
 10
124.590413
 20
161.124383
 30
0.0
 10
123.471770
 20
162.241238
 30
0.0
 10
122.092615
 20
162.241238
 30
0.0
  0
SPLINE
  5
307
100
AcDbEntity
  8
Layer_1
 62
5
100
AcDbSpline
 70
8
 71
3
 72
8
 73
4
 74
0
 40
0
 40
0
 40
0
 40
0
 40
1
 40
1
 40
1
 40
1
 10
122.092615
 20
162.241238
 30
0.0
 10
120.713460
 20
162.241238
 30
0.0
 10
119.594817
 20
161.124383
 30
0.0
 10
119.592610
 20
159.745230
 30
0.0
  0
SPLINE
  5
308
100
AcDbEntity
  8
Layer_1
 62
5
100
AcDbSpline
 70
8
 71
3
 72
8
 73
4
 74
0
 40
0
 40
0
 40
0
 40
0
 40
1
 40
1
 40
1
 40
1
 10
119.592610
 20
159.745230
 30
0.0
 10
119.594817
 20
158.366077
 30
0.0
 10
120.713460
 20
157.249222
 30
0.0
 10
122.092615
 20
157.249222
 30
0.0
  0
SPLINE
  5
309
100
AcDbEntity
  8
Layer_1
 62
5
100
AcDbSpline
 70
8
 71
3
 72
8
 73
4
 74
0
 40
0
 40
0
 40
0
 40
0
 40
1
 40
1
 40
1
 40
1
 10
122.092615
 20
157.249222
 30
0.0
 10
123.471770
 20
157.249222
 30
0.0
 10
124.590413
 20
158.366077
 30
0.0
 10
124.592620
 20
159.745230
 30
0.0
  0
LWPOLYLINE
  5
30a
100
AcDbEntity
  8
Layer_1
 62
5
100
AcDbPolyline
 90
1
 70
1
 10
124.592620
 20
189.745230
 30
0.0
  0
SPLINE
  5
30b
100
AcDbEntity
  8
Layer_1
 62
5
100
AcDbSpline
 70
8
 71
3
 72
8
 73
4
 74
0
 40
0
 40
0
 40
0
 40
0
 40
1
 40
1
 40
1
 40
1
 10
124.592620
 20
129.745230
 30
0.0
 10
124.590413
 20
131.124383
 30
0.0
 10
123.471770
 20
132.241238
 30
0.0
 10
122.092615
 20
132.241238
 30
0.0
  0
SPLINE
  5
30c
100
AcDbEntity
  8
Layer_1
 62
5
100
AcDbSpline
 70
8
 71
3
 72
8
 73
4
 74
0
 40
0
 40
0
 40
0
 40
0
 40
1
 40
1
 40
1
 40
1
 10
122.092615
 20
132.241238
 30
0.0
 10
120.713460
 20
132.241238
 30
0.0
 10
119.594817
 20
131.124383
 30
0.0
 10
119.592610
 20
129.745230
 30
0.0
  0
SPLINE
  5
30d
100
AcDbEntity
  8
Layer_1
 62
5
100
AcDbSpline
 70
8
 71
3
 72
8
 73
4
 74
0
 40
0
 40
0
 40
0
 40
0
 40
1
 40
1
 40
1
 40
1
 10
119.592610
 20
129.745230
 30
0.0
 10
119.594817
 20
128.366077
 30
0.0
 10
120.713460
 20
127.249222
 30
0.0
 10
122.092615
 20
127.249222
 30
0.0
  0
SPLINE
  5
30e
100
AcDbEntity
  8
Layer_1
 62
5
100
AcDbSpline
 70
8
 71
3
 72
8
 73
4
 74
0
 40
0
 40
0
 40
0
 40
0
 40
1
 40
1
 40
1
 40
1
 10
122.092615
 20
127.249222
 30
0.0
 10
123.471770
 20
127.249222
 30
0.0
 10
124.590413
 20
128.366077
 30
0.0
 10
124.592620
 20
129.745230
 30
0.0
  0
LWPOLYLINE
  5
30f
100
AcDbEntity
  8
Layer_1
 62
5
100
AcDbPolyline
 90
1
 70
1
 10
124.592620
 20
159.745230
 30
0.0
  0
SPLINE
  5
310
100
AcDbEntity
  8
Layer_1
 62
5
100
AcDbSpline
 70
8
 71
3
 72
8
 73
4
 74
0
 40
0
 40
0
 40
0
 40
0
 40
1
 40
1
 40
1
 40
1
 10
124.592620
 20
99.745230
 30
0.0
 10
124.590413
 20
101.124383
 30
0.0
 10
123.471770
 20
102.241238
 30
0.0
 10
122.092615
 20
102.241238
 30
0.0
  0
SPLINE
  5
311
100
AcDbEntity
  8
Layer_1
 62
5
100
AcDbSpline
 70
8
 71
3
 72
8
 73
4
 74
0
 40
0
 40
0
 40
0
 40
0
 40
1
 40
1
 40
1
 40
1
 10
122.092615
 20
102.241238
 30
0.0
 10
120.713460
 20
102.241238
 30
0.0
 10
119.594817
 20
101.124383
 30
0.0
 10
119.592610
 20
99.745230
 30
0.0
  0
SPLINE
  5
312
100
AcDbEntity
  8
Layer_1
 62
5
100
AcDbSpline
 70
8
 71
3
 72
8
 73
4
 74
0
 40
0
 40
0
 40
0
 40
0
 40
1
 40
1
 40
1
 40
1
 10
119.592610
 20
99.745230
 30
0.0
 10
119.594817
 20
98.366077
 30
0.0
 10
120.713460
 20
97.249222
 30
0.0
 10
122.092615
 20
97.249222
 30
0.0
  0
SPLINE
  5
313
100
AcDbEntity
  8
Layer_1
 62
5
100
AcDbSpline
 70
8
 71
3
 72
8
 73
4
 74
0
 40
0
 40
0
 40
0
 40
0
 40
1
 40
1
 40
1
 40
1
 10
122.092615
 20
97.249222
 30
0.0
 10
123.471770
 20
97.249222
 30
0.0
 10
124.590413
 20
98.366077
 30
0.0
 10
124.592620
 20
99.745230
 30
0.0
  0
LWPOLYLINE
  5
314
100
AcDbEntity
  8
Layer_1
 62
5
100
AcDbPolyline
 90
1
 70
1
 10
124.592620
 20
129.745230
 30
0.0
  0
SPLINE
  5
315
100
AcDbEntity
  8
Layer_1
 62
5
100
AcDbSpline
 70
8
 71
3
 72
8
 73
4
 74
0
 40
0
 40
0
 40
0
 40
0
 40
1
 40
1
 40
1
 40
1
 10
154.592620
 20
399.745220
 30
0.0
 10
154.589862
 20
401.123977
 30
0.0
 10
153.471385
 20
402.240220
 30
0.0
 10
152.092625
 20
402.240220
 30
0.0
  0
SPLINE
  5
316
100
AcDbEntity
  8
Layer_1
 62
5
100
AcDbSpline
 70
8
 71
3
 72
8
 73
4
 74
0
 40
0
 40
0
 40
0
 40
0
 40
1
 40
1
 40
1
 40
1
 10
152.092625
 20
402.240220
 30
0.0
 10
150.713865
 20
402.240220
 30
0.0
 10
149.595388
 20
401.123977
 30
0.0
 10
149.592630
 20
399.745220
 30
0.0
  0
SPLINE
  5
317
100
AcDbEntity
  8
Layer_1
 62
5
100
AcDbSpline
 70
8
 71
3
 72
8
 73
4
 74
0
 40
0
 40
0
 40
0
 40
0
 40
1
 40
1
 40
1
 40
1
 10
149.592630
 20
399.745220
 30
0.0
 10
149.595388
 20
398.366463
 30
0.0
 10
150.713865
 20
397.250220
 30
0.0
 10
152.092625
 20
397.250220
 30
0.0
  0
SPLINE
  5
318
100
AcDbEntity
  8
Layer_1
 62
5
100
AcDbSpline
 70
8
 71
3
 72
8
 73
4
 74
0
 40
0
 40
0
 40
0
 40
0
 40
1
 40
1
 40
1
 40
1
 10
152.092625
 20
397.250220
 30
0.0
 10
153.471385
 20
397.250220
 30
0.0
 10
154.589862
 20
398.366463
 30
0.0
 10
154.592620
 20
399.745220
 30
0.0
  0
LWPOLYLINE
  5
319
100
AcDbEntity
  8
Layer_1
 62
5
100
AcDbPolyline
 90
1
 70
1
 10
124.592620
 20
99.745230
 30
0.0
  0
SPLINE
  5
31a
100
AcDbEntity
  8
Layer_1
 62
5
100
AcDbSpline
 70
8
 71
3
 72
8
 73
4
 74
0
 40
0
 40
0
 40
0
 40
0
 40
1
 40
1
 40
1
 40
1
 10
154.592620
 20
369.745224
 30
0.0
 10
154.589862
 20
371.123981
 30
0.0
 10
153.471385
 20
372.240224
 30
0.0
 10
152.092625
 20
372.240224
 30
0.0
  0
SPLINE
  5
31b
100
AcDbEntity
  8
Layer_1
 62
5
100
AcDbSpline
 70
8
 71
3
 72
8
 73
4
 74
0
 40
0
 40
0
 40
0
 40
0
 40
1
 40
1
 40
1
 40
1
 10
152.092625
 20
372.240224
 30
0.0
 10
150.713865
 20
372.240224
 30
0.0
 10
149.595388
 20
371.123981
 30
0.0
 10
149.592630
 20
369.745224
 30
0.0
  0
SPLINE
  5
31c
100
AcDbEntity
  8
Layer_1
 62
5
100
AcDbSpline
 70
8
 71
3
 72
8
 73
4
 74
0
 40
0
 40
0
 40
0
 40
0
 40
1
 40
1
 40
1
 40
1
 10
149.592630
 20
369.745224
 30
0.0
 10
149.595388
 20
368.366467
 30
0.0
 10
150.713865
 20
367.250224
 30
0.0
 10
152.092625
 20
367.250224
 30
0.0
  0
SPLINE
  5
31d
100
AcDbEntity
  8
Layer_1
 62
5
100
AcDbSpline
 70
8
 71
3
 72
8
 73
4
 74
0
 40
0
 40
0
 40
0
 40
0
 40
1
 40
1
 40
1
 40
1
 10
152.092625
 20
367.250224
 30
0.0
 10
153.471385
 20
367.250224
 30
0.0
 10
154.589862
 20
368.366467
 30
0.0
 10
154.592620
 20
369.745224
 30
0.0
  0
LWPOLYLINE
  5
31e
100
AcDbEntity
  8
Layer_1
 62
5
100
AcDbPolyline
 90
1
 70
1
 10
154.592620
 20
399.745220
 30
0.0
  0
SPLINE
  5
31f
100
AcDbEntity
  8
Layer_1
 62
5
100
AcDbSpline
 70
8
 71
3
 72
8
 73
4
 74
0
 40
0
 40
0
 40
0
 40
0
 40
1
 40
1
 40
1
 40
1
 10
154.592620
 20
339.745225
 30
0.0
 10
154.589862
 20
341.123982
 30
0.0
 10
153.471385
 20
342.240225
 30
0.0
 10
152.092625
 20
342.240225
 30
0.0
  0
SPLINE
  5
320
100
AcDbEntity
  8
Layer_1
 62
5
100
AcDbSpline
 70
8
 71
3
 72
8
 73
4
 74
0
 40
0
 40
0
 40
0
 40
0
 40
1
 40
1
 40
1
 40
1
 10
152.092625
 20
342.240225
 30
0.0
 10
150.713865
 20
342.240225
 30
0.0
 10
149.595388
 20
341.123982
 30
0.0
 10
149.592630
 20
339.745225
 30
0.0
  0
SPLINE
  5
321
100
AcDbEntity
  8
Layer_1
 62
5
100
AcDbSpline
 70
8
 71
3
 72
8
 73
4
 74
0
 40
0
 40
0
 40
0
 40
0
 40
1
 40
1
 40
1
 40
1
 10
149.592630
 20
339.745225
 30
0.0
 10
149.595388
 20
338.366468
 30
0.0
 10
150.713865
 20
337.250225
 30
0.0
 10
152.092625
 20
337.250225
 30
0.0
  0
SPLINE
  5
322
100
AcDbEntity
  8
Layer_1
 62
5
100
AcDbSpline
 70
8
 71
3
 72
8
 73
4
 74
0
 40
0
 40
0
 40
0
 40
0
 40
1
 40
1
 40
1
 40
1
 10
152.092625
 20
337.250225
 30
0.0
 10
153.471385
 20
337.250225
 30
0.0
 10
154.589862
 20
338.366468
 30
0.0
 10
154.592620
 20
339.745225
 30
0.0
  0
LWPOLYLINE
  5
323
100
AcDbEntity
  8
Layer_1
 62
5
100
AcDbPolyline
 90
1
 70
1
 10
154.592620
 20
369.745224
 30
0.0
  0
SPLINE
  5
324
100
AcDbEntity
  8
Layer_1
 62
5
100
AcDbSpline
 70
8
 71
3
 72
8
 73
4
 74
0
 40
0
 40
0
 40
0
 40
0
 40
1
 40
1
 40
1
 40
1
 10
154.592620
 20
309.745225
 30
0.0
 10
154.589862
 20
311.123982
 30
0.0
 10
153.471385
 20
312.240225
 30
0.0
 10
152.092625
 20
312.240225
 30
0.0
  0
SPLINE
  5
325
100
AcDbEntity
  8
Layer_1
 62
5
100
AcDbSpline
 70
8
 71
3
 72
8
 73
4
 74
0
 40
0
 40
0
 40
0
 40
0
 40
1
 40
1
 40
1
 40
1
 10
152.092625
 20
312.240225
 30
0.0
 10
150.713865
 20
312.240225
 30
0.0
 10
149.595388
 20
311.123982
 30
0.0
 10
149.592630
 20
309.745225
 30
0.0
  0
SPLINE
  5
326
100
AcDbEntity
  8
Layer_1
 62
5
100
AcDbSpline
 70
8
 71
3
 72
8
 73
4
 74
0
 40
0
 40
0
 40
0
 40
0
 40
1
 40
1
 40
1
 40
1
 10
149.592630
 20
309.745225
 30
0.0
 10
149.595388
 20
308.366468
 30
0.0
 10
150.713865
 20
307.250225
 30
0.0
 10
152.092625
 20
307.250225
 30
0.0
  0
SPLINE
  5
327
100
AcDbEntity
  8
Layer_1
 62
5
100
AcDbSpline
 70
8
 71
3
 72
8
 73
4
 74
0
 40
0
 40
0
 40
0
 40
0
 40
1
 40
1
 40
1
 40
1
 10
152.092625
 20
307.250225
 30
0.0
 10
153.471385
 20
307.250225
 30
0.0
 10
154.589862
 20
308.366468
 30
0.0
 10
154.592620
 20
309.745225
 30
0.0
  0
LWPOLYLINE
  5
328
100
AcDbEntity
  8
Layer_1
 62
5
100
AcDbPolyline
 90
1
 70
1
 10
154.592620
 20
339.745225
 30
0.0
  0
SPLINE
  5
329
100
AcDbEntity
  8
Layer_1
 62
5
100
AcDbSpline
 70
8
 71
3
 72
8
 73
4
 74
0
 40
0
 40
0
 40
0
 40
0
 40
1
 40
1
 40
1
 40
1
 10
154.592620
 20
279.745225
 30
0.0
 10
154.589862
 20
281.123982
 30
0.0
 10
153.471385
 20
282.240225
 30
0.0
 10
152.092625
 20
282.240225
 30
0.0
  0
SPLINE
  5
32a
100
AcDbEntity
  8
Layer_1
 62
5
100
AcDbSpline
 70
8
 71
3
 72
8
 73
4
 74
0
 40
0
 40
0
 40
0
 40
0
 40
1
 40
1
 40
1
 40
1
 10
152.092625
 20
282.240225
 30
0.0
 10
150.713865
 20
282.240225
 30
0.0
 10
149.595388
 20
281.123982
 30
0.0
 10
149.592630
 20
279.745225
 30
0.0
  0
SPLINE
  5
32b
100
AcDbEntity
  8
Layer_1
 62
5
100
AcDbSpline
 70
8
 71
3
 72
8
 73
4
 74
0
 40
0
 40
0
 40
0
 40
0
 40
1
 40
1
 40
1
 40
1
 10
149.592630
 20
279.745225
 30
0.0
 10
149.595388
 20
278.366468
 30
0.0
 10
150.713865
 20
277.250225
 30
0.0
 10
152.092625
 20
277.250225
 30
0.0
  0
SPLINE
  5
32c
100
AcDbEntity
  8
Layer_1
 62
5
100
AcDbSpline
 70
8
 71
3
 72
8
 73
4
 74
0
 40
0
 40
0
 40
0
 40
0
 40
1
 40
1
 40
1
 40
1
 10
152.092625
 20
277.250225
 30
0.0
 10
153.471385
 20
277.250225
 30
0.0
 10
154.589862
 20
278.366468
 30
0.0
 10
154.592620
 20
279.745225
 30
0.0
  0
LWPOLYLINE
  5
32d
100
AcDbEntity
  8
Layer_1
 62
5
100
AcDbPolyline
 90
1
 70
1
 10
154.592620
 20
309.745225
 30
0.0
  0
SPLINE
  5
32e
100
AcDbEntity
  8
Layer_1
 62
5
100
AcDbSpline
 70
8
 71
3
 72
8
 73
4
 74
0
 40
0
 40
0
 40
0
 40
0
 40
1
 40
1
 40
1
 40
1
 10
154.592620
 20
249.745227
 30
0.0
 10
154.589862
 20
251.123984
 30
0.0
 10
153.471385
 20
252.240227
 30
0.0
 10
152.092625
 20
252.240227
 30
0.0
  0
SPLINE
  5
32f
100
AcDbEntity
  8
Layer_1
 62
5
100
AcDbSpline
 70
8
 71
3
 72
8
 73
4
 74
0
 40
0
 40
0
 40
0
 40
0
 40
1
 40
1
 40
1
 40
1
 10
152.092625
 20
252.240227
 30
0.0
 10
150.713865
 20
252.240227
 30
0.0
 10
149.595388
 20
251.123984
 30
0.0
 10
149.592630
 20
249.745227
 30
0.0
  0
SPLINE
  5
330
100
AcDbEntity
  8
Layer_1
 62
5
100
AcDbSpline
 70
8
 71
3
 72
8
 73
4
 74
0
 40
0
 40
0
 40
0
 40
0
 40
1
 40
1
 40
1
 40
1
 10
149.592630
 20
249.745227
 30
0.0
 10
149.595388
 20
248.366470
 30
0.0
 10
150.713865
 20
247.250227
 30
0.0
 10
152.092625
 20
247.250227
 30
0.0
  0
SPLINE
  5
331
100
AcDbEntity
  8
Layer_1
 62
5
100
AcDbSpline
 70
8
 71
3
 72
8
 73
4
 74
0
 40
0
 40
0
 40
0
 40
0
 40
1
 40
1
 40
1
 40
1
 10
152.092625
 20
247.250227
 30
0.0
 10
153.471385
 20
247.250227
 30
0.0
 10
154.589862
 20
248.366470
 30
0.0
 10
154.592620
 20
249.745227
 30
0.0
  0
LWPOLYLINE
  5
332
100
AcDbEntity
  8
Layer_1
 62
5
100
AcDbPolyline
 90
1
 70
1
 10
154.592620
 20
279.745225
 30
0.0
  0
SPLINE
  5
333
100
AcDbEntity
  8
Layer_1
 62
5
100
AcDbSpline
 70
8
 71
3
 72
8
 73
4
 74
0
 40
0
 40
0
 40
0
 40
0
 40
1
 40
1
 40
1
 40
1
 10
154.592620
 20
219.745227
 30
0.0
 10
154.589862
 20
221.123984
 30
0.0
 10
153.471385
 20
222.240227
 30
0.0
 10
152.092625
 20
222.240227
 30
0.0
  0
SPLINE
  5
334
100
AcDbEntity
  8
Layer_1
 62
5
100
AcDbSpline
 70
8
 71
3
 72
8
 73
4
 74
0
 40
0
 40
0
 40
0
 40
0
 40
1
 40
1
 40
1
 40
1
 10
152.092625
 20
222.240227
 30
0.0
 10
150.713865
 20
222.240227
 30
0.0
 10
149.595388
 20
221.123984
 30
0.0
 10
149.592630
 20
219.745227
 30
0.0
  0
SPLINE
  5
335
100
AcDbEntity
  8
Layer_1
 62
5
100
AcDbSpline
 70
8
 71
3
 72
8
 73
4
 74
0
 40
0
 40
0
 40
0
 40
0
 40
1
 40
1
 40
1
 40
1
 10
149.592630
 20
219.745227
 30
0.0
 10
149.595388
 20
218.366470
 30
0.0
 10
150.713865
 20
217.250227
 30
0.0
 10
152.092625
 20
217.250227
 30
0.0
  0
SPLINE
  5
336
100
AcDbEntity
  8
Layer_1
 62
5
100
AcDbSpline
 70
8
 71
3
 72
8
 73
4
 74
0
 40
0
 40
0
 40
0
 40
0
 40
1
 40
1
 40
1
 40
1
 10
152.092625
 20
217.250227
 30
0.0
 10
153.471385
 20
217.250227
 30
0.0
 10
154.589862
 20
218.366470
 30
0.0
 10
154.592620
 20
219.745227
 30
0.0
  0
LWPOLYLINE
  5
337
100
AcDbEntity
  8
Layer_1
 62
5
100
AcDbPolyline
 90
1
 70
1
 10
154.592620
 20
249.745227
 30
0.0
  0
SPLINE
  5
338
100
AcDbEntity
  8
Layer_1
 62
5
100
AcDbSpline
 70
8
 71
3
 72
8
 73
4
 74
0
 40
0
 40
0
 40
0
 40
0
 40
1
 40
1
 40
1
 40
1
 10
154.592620
 20
189.745230
 30
0.0
 10
154.589862
 20
191.123987
 30
0.0
 10
153.471385
 20
192.240230
 30
0.0
 10
152.092625
 20
192.240230
 30
0.0
  0
SPLINE
  5
339
100
AcDbEntity
  8
Layer_1
 62
5
100
AcDbSpline
 70
8
 71
3
 72
8
 73
4
 74
0
 40
0
 40
0
 40
0
 40
0
 40
1
 40
1
 40
1
 40
1
 10
152.092625
 20
192.240230
 30
0.0
 10
150.713865
 20
192.240230
 30
0.0
 10
149.595388
 20
191.123987
 30
0.0
 10
149.592630
 20
189.745230
 30
0.0
  0
SPLINE
  5
33a
100
AcDbEntity
  8
Layer_1
 62
5
100
AcDbSpline
 70
8
 71
3
 72
8
 73
4
 74
0
 40
0
 40
0
 40
0
 40
0
 40
1
 40
1
 40
1
 40
1
 10
149.592630
 20
189.745230
 30
0.0
 10
149.595388
 20
188.366473
 30
0.0
 10
150.713865
 20
187.250230
 30
0.0
 10
152.092625
 20
187.250230
 30
0.0
  0
SPLINE
  5
33b
100
AcDbEntity
  8
Layer_1
 62
5
100
AcDbSpline
 70
8
 71
3
 72
8
 73
4
 74
0
 40
0
 40
0
 40
0
 40
0
 40
1
 40
1
 40
1
 40
1
 10
152.092625
 20
187.250230
 30
0.0
 10
153.471385
 20
187.250230
 30
0.0
 10
154.589862
 20
188.366473
 30
0.0
 10
154.592620
 20
189.745230
 30
0.0
  0
LWPOLYLINE
  5
33c
100
AcDbEntity
  8
Layer_1
 62
5
100
AcDbPolyline
 90
1
 70
1
 10
154.592620
 20
219.745227
 30
0.0
  0
SPLINE
  5
33d
100
AcDbEntity
  8
Layer_1
 62
5
100
AcDbSpline
 70
8
 71
3
 72
8
 73
4
 74
0
 40
0
 40
0
 40
0
 40
0
 40
1
 40
1
 40
1
 40
1
 10
154.592620
 20
159.745230
 30
0.0
 10
154.589862
 20
161.123987
 30
0.0
 10
153.471385
 20
162.240230
 30
0.0
 10
152.092625
 20
162.240230
 30
0.0
  0
SPLINE
  5
33e
100
AcDbEntity
  8
Layer_1
 62
5
100
AcDbSpline
 70
8
 71
3
 72
8
 73
4
 74
0
 40
0
 40
0
 40
0
 40
0
 40
1
 40
1
 40
1
 40
1
 10
152.092625
 20
162.240230
 30
0.0
 10
150.713865
 20
162.240230
 30
0.0
 10
149.595388
 20
161.123987
 30
0.0
 10
149.592630
 20
159.745230
 30
0.0
  0
SPLINE
  5
33f
100
AcDbEntity
  8
Layer_1
 62
5
100
AcDbSpline
 70
8
 71
3
 72
8
 73
4
 74
0
 40
0
 40
0
 40
0
 40
0
 40
1
 40
1
 40
1
 40
1
 10
149.592630
 20
159.745230
 30
0.0
 10
149.595388
 20
158.366473
 30
0.0
 10
150.713865
 20
157.250230
 30
0.0
 10
152.092625
 20
157.250230
 30
0.0
  0
SPLINE
  5
340
100
AcDbEntity
  8
Layer_1
 62
5
100
AcDbSpline
 70
8
 71
3
 72
8
 73
4
 74
0
 40
0
 40
0
 40
0
 40
0
 40
1
 40
1
 40
1
 40
1
 10
152.092625
 20
157.250230
 30
0.0
 10
153.471385
 20
157.250230
 30
0.0
 10
154.589862
 20
158.366473
 30
0.0
 10
154.592620
 20
159.745230
 30
0.0
  0
LWPOLYLINE
  5
341
100
AcDbEntity
  8
Layer_1
 62
5
100
AcDbPolyline
 90
1
 70
1
 10
154.592620
 20
189.745230
 30
0.0
  0
SPLINE
  5
342
100
AcDbEntity
  8
Layer_1
 62
5
100
AcDbSpline
 70
8
 71
3
 72
8
 73
4
 74
0
 40
0
 40
0
 40
0
 40
0
 40
1
 40
1
 40
1
 40
1
 10
154.592620
 20
129.745230
 30
0.0
 10
154.589862
 20
131.123987
 30
0.0
 10
153.471385
 20
132.240230
 30
0.0
 10
152.092625
 20
132.240230
 30
0.0
  0
SPLINE
  5
343
100
AcDbEntity
  8
Layer_1
 62
5
100
AcDbSpline
 70
8
 71
3
 72
8
 73
4
 74
0
 40
0
 40
0
 40
0
 40
0
 40
1
 40
1
 40
1
 40
1
 10
152.092625
 20
132.240230
 30
0.0
 10
150.713865
 20
132.240230
 30
0.0
 10
149.595388
 20
131.123987
 30
0.0
 10
149.592630
 20
129.745230
 30
0.0
  0
SPLINE
  5
344
100
AcDbEntity
  8
Layer_1
 62
5
100
AcDbSpline
 70
8
 71
3
 72
8
 73
4
 74
0
 40
0
 40
0
 40
0
 40
0
 40
1
 40
1
 40
1
 40
1
 10
149.592630
 20
129.745230
 30
0.0
 10
149.595388
 20
128.366473
 30
0.0
 10
150.713865
 20
127.250230
 30
0.0
 10
152.092625
 20
127.250230
 30
0.0
  0
SPLINE
  5
345
100
AcDbEntity
  8
Layer_1
 62
5
100
AcDbSpline
 70
8
 71
3
 72
8
 73
4
 74
0
 40
0
 40
0
 40
0
 40
0
 40
1
 40
1
 40
1
 40
1
 10
152.092625
 20
127.250230
 30
0.0
 10
153.471385
 20
127.250230
 30
0.0
 10
154.589862
 20
128.366473
 30
0.0
 10
154.592620
 20
129.745230
 30
0.0
  0
LWPOLYLINE
  5
346
100
AcDbEntity
  8
Layer_1
 62
5
100
AcDbPolyline
 90
1
 70
1
 10
154.592620
 20
159.745230
 30
0.0
  0
SPLINE
  5
347
100
AcDbEntity
  8
Layer_1
 62
5
100
AcDbSpline
 70
8
 71
3
 72
8
 73
4
 74
0
 40
0
 40
0
 40
0
 40
0
 40
1
 40
1
 40
1
 40
1
 10
154.592620
 20
99.745230
 30
0.0
 10
154.589862
 20
101.123987
 30
0.0
 10
153.471385
 20
102.240230
 30
0.0
 10
152.092625
 20
102.240230
 30
0.0
  0
SPLINE
  5
348
100
AcDbEntity
  8
Layer_1
 62
5
100
AcDbSpline
 70
8
 71
3
 72
8
 73
4
 74
0
 40
0
 40
0
 40
0
 40
0
 40
1
 40
1
 40
1
 40
1
 10
152.092625
 20
102.240230
 30
0.0
 10
150.713865
 20
102.240230
 30
0.0
 10
149.595388
 20
101.123987
 30
0.0
 10
149.592630
 20
99.745230
 30
0.0
  0
SPLINE
  5
349
100
AcDbEntity
  8
Layer_1
 62
5
100
AcDbSpline
 70
8
 71
3
 72
8
 73
4
 74
0
 40
0
 40
0
 40
0
 40
0
 40
1
 40
1
 40
1
 40
1
 10
149.592630
 20
99.745230
 30
0.0
 10
149.595388
 20
98.366473
 30
0.0
 10
150.713865
 20
97.250230
 30
0.0
 10
152.092625
 20
97.250230
 30
0.0
  0
SPLINE
  5
34a
100
AcDbEntity
  8
Layer_1
 62
5
100
AcDbSpline
 70
8
 71
3
 72
8
 73
4
 74
0
 40
0
 40
0
 40
0
 40
0
 40
1
 40
1
 40
1
 40
1
 10
152.092625
 20
97.250230
 30
0.0
 10
153.471385
 20
97.250230
 30
0.0
 10
154.589862
 20
98.366473
 30
0.0
 10
154.592620
 20
99.745230
 30
0.0
  0
LWPOLYLINE
  5
34b
100
AcDbEntity
  8
Layer_1
 62
5
100
AcDbPolyline
 90
1
 70
1
 10
154.592620
 20
129.745230
 30
0.0
  0
SPLINE
  5
34c
100
AcDbEntity
  8
Layer_1
 62
5
100
AcDbSpline
 70
8
 71
3
 72
8
 73
4
 74
0
 40
0
 40
0
 40
0
 40
0
 40
1
 40
1
 40
1
 40
1
 10
184.592610
 20
399.745220
 30
0.0
 10
184.589852
 20
401.123977
 30
0.0
 10
183.471375
 20
402.240220
 30
0.0
 10
182.092615
 20
402.240220
 30
0.0
  0
SPLINE
  5
34d
100
AcDbEntity
  8
Layer_1
 62
5
100
AcDbSpline
 70
8
 71
3
 72
8
 73
4
 74
0
 40
0
 40
0
 40
0
 40
0
 40
1
 40
1
 40
1
 40
1
 10
182.092615
 20
402.240220
 30
0.0
 10
180.713855
 20
402.240220
 30
0.0
 10
179.595378
 20
401.123977
 30
0.0
 10
179.592620
 20
399.745220
 30
0.0
  0
SPLINE
  5
34e
100
AcDbEntity
  8
Layer_1
 62
5
100
AcDbSpline
 70
8
 71
3
 72
8
 73
4
 74
0
 40
0
 40
0
 40
0
 40
0
 40
1
 40
1
 40
1
 40
1
 10
179.592620
 20
399.745220
 30
0.0
 10
179.595378
 20
398.366463
 30
0.0
 10
180.713855
 20
397.250220
 30
0.0
 10
182.092615
 20
397.250220
 30
0.0
  0
SPLINE
  5
34f
100
AcDbEntity
  8
Layer_1
 62
5
100
AcDbSpline
 70
8
 71
3
 72
8
 73
4
 74
0
 40
0
 40
0
 40
0
 40
0
 40
1
 40
1
 40
1
 40
1
 10
182.092615
 20
397.250220
 30
0.0
 10
183.471375
 20
397.250220
 30
0.0
 10
184.589852
 20
398.366463
 30
0.0
 10
184.592610
 20
399.745220
 30
0.0
  0
LWPOLYLINE
  5
350
100
AcDbEntity
  8
Layer_1
 62
5
100
AcDbPolyline
 90
1
 70
1
 10
154.592620
 20
99.745230
 30
0.0
  0
SPLINE
  5
351
100
AcDbEntity
  8
Layer_1
 62
5
100
AcDbSpline
 70
8
 71
3
 72
8
 73
4
 74
0
 40
0
 40
0
 40
0
 40
0
 40
1
 40
1
 40
1
 40
1
 10
184.592610
 20
369.745224
 30
0.0
 10
184.589852
 20
371.123981
 30
0.0
 10
183.471375
 20
372.240224
 30
0.0
 10
182.092615
 20
372.240224
 30
0.0
  0
SPLINE
  5
352
100
AcDbEntity
  8
Layer_1
 62
5
100
AcDbSpline
 70
8
 71
3
 72
8
 73
4
 74
0
 40
0
 40
0
 40
0
 40
0
 40
1
 40
1
 40
1
 40
1
 10
182.092615
 20
372.240224
 30
0.0
 10
180.713855
 20
372.240224
 30
0.0
 10
179.595378
 20
371.123981
 30
0.0
 10
179.592620
 20
369.745224
 30
0.0
  0
SPLINE
  5
353
100
AcDbEntity
  8
Layer_1
 62
5
100
AcDbSpline
 70
8
 71
3
 72
8
 73
4
 74
0
 40
0
 40
0
 40
0
 40
0
 40
1
 40
1
 40
1
 40
1
 10
179.592620
 20
369.745224
 30
0.0
 10
179.595378
 20
368.366467
 30
0.0
 10
180.713855
 20
367.250224
 30
0.0
 10
182.092615
 20
367.250224
 30
0.0
  0
SPLINE
  5
354
100
AcDbEntity
  8
Layer_1
 62
5
100
AcDbSpline
 70
8
 71
3
 72
8
 73
4
 74
0
 40
0
 40
0
 40
0
 40
0
 40
1
 40
1
 40
1
 40
1
 10
182.092615
 20
367.250224
 30
0.0
 10
183.471375
 20
367.250224
 30
0.0
 10
184.589852
 20
368.366467
 30
0.0
 10
184.592610
 20
369.745224
 30
0.0
  0
LWPOLYLINE
  5
355
100
AcDbEntity
  8
Layer_1
 62
5
100
AcDbPolyline
 90
1
 70
1
 10
184.592610
 20
399.745220
 30
0.0
  0
SPLINE
  5
356
100
AcDbEntity
  8
Layer_1
 62
5
100
AcDbSpline
 70
8
 71
3
 72
8
 73
4
 74
0
 40
0
 40
0
 40
0
 40
0
 40
1
 40
1
 40
1
 40
1
 10
184.592610
 20
339.745225
 30
0.0
 10
184.589852
 20
341.123982
 30
0.0
 10
183.471375
 20
342.240225
 30
0.0
 10
182.092615
 20
342.240225
 30
0.0
  0
SPLINE
  5
357
100
AcDbEntity
  8
Layer_1
 62
5
100
AcDbSpline
 70
8
 71
3
 72
8
 73
4
 74
0
 40
0
 40
0
 40
0
 40
0
 40
1
 40
1
 40
1
 40
1
 10
182.092615
 20
342.240225
 30
0.0
 10
180.713855
 20
342.240225
 30
0.0
 10
179.595378
 20
341.123982
 30
0.0
 10
179.592620
 20
339.745225
 30
0.0
  0
SPLINE
  5
358
100
AcDbEntity
  8
Layer_1
 62
5
100
AcDbSpline
 70
8
 71
3
 72
8
 73
4
 74
0
 40
0
 40
0
 40
0
 40
0
 40
1
 40
1
 40
1
 40
1
 10
179.592620
 20
339.745225
 30
0.0
 10
179.595378
 20
338.366468
 30
0.0
 10
180.713855
 20
337.250225
 30
0.0
 10
182.092615
 20
337.250225
 30
0.0
  0
SPLINE
  5
359
100
AcDbEntity
  8
Layer_1
 62
5
100
AcDbSpline
 70
8
 71
3
 72
8
 73
4
 74
0
 40
0
 40
0
 40
0
 40
0
 40
1
 40
1
 40
1
 40
1
 10
182.092615
 20
337.250225
 30
0.0
 10
183.471375
 20
337.250225
 30
0.0
 10
184.589852
 20
338.366468
 30
0.0
 10
184.592610
 20
339.745225
 30
0.0
  0
LWPOLYLINE
  5
35a
100
AcDbEntity
  8
Layer_1
 62
5
100
AcDbPolyline
 90
1
 70
1
 10
184.592610
 20
369.745224
 30
0.0
  0
SPLINE
  5
35b
100
AcDbEntity
  8
Layer_1
 62
5
100
AcDbSpline
 70
8
 71
3
 72
8
 73
4
 74
0
 40
0
 40
0
 40
0
 40
0
 40
1
 40
1
 40
1
 40
1
 10
184.592610
 20
309.745225
 30
0.0
 10
184.589852
 20
311.123982
 30
0.0
 10
183.471375
 20
312.240225
 30
0.0
 10
182.092615
 20
312.240225
 30
0.0
  0
SPLINE
  5
35c
100
AcDbEntity
  8
Layer_1
 62
5
100
AcDbSpline
 70
8
 71
3
 72
8
 73
4
 74
0
 40
0
 40
0
 40
0
 40
0
 40
1
 40
1
 40
1
 40
1
 10
182.092615
 20
312.240225
 30
0.0
 10
180.713855
 20
312.240225
 30
0.0
 10
179.595378
 20
311.123982
 30
0.0
 10
179.592620
 20
309.745225
 30
0.0
  0
SPLINE
  5
35d
100
AcDbEntity
  8
Layer_1
 62
5
100
AcDbSpline
 70
8
 71
3
 72
8
 73
4
 74
0
 40
0
 40
0
 40
0
 40
0
 40
1
 40
1
 40
1
 40
1
 10
179.592620
 20
309.745225
 30
0.0
 10
179.595378
 20
308.366468
 30
0.0
 10
180.713855
 20
307.250225
 30
0.0
 10
182.092615
 20
307.250225
 30
0.0
  0
SPLINE
  5
35e
100
AcDbEntity
  8
Layer_1
 62
5
100
AcDbSpline
 70
8
 71
3
 72
8
 73
4
 74
0
 40
0
 40
0
 40
0
 40
0
 40
1
 40
1
 40
1
 40
1
 10
182.092615
 20
307.250225
 30
0.0
 10
183.471375
 20
307.250225
 30
0.0
 10
184.589852
 20
308.366468
 30
0.0
 10
184.592610
 20
309.745225
 30
0.0
  0
LWPOLYLINE
  5
35f
100
AcDbEntity
  8
Layer_1
 62
5
100
AcDbPolyline
 90
1
 70
1
 10
184.592610
 20
339.745225
 30
0.0
  0
SPLINE
  5
360
100
AcDbEntity
  8
Layer_1
 62
5
100
AcDbSpline
 70
8
 71
3
 72
8
 73
4
 74
0
 40
0
 40
0
 40
0
 40
0
 40
1
 40
1
 40
1
 40
1
 10
184.592610
 20
279.745225
 30
0.0
 10
184.589852
 20
281.123982
 30
0.0
 10
183.471375
 20
282.240225
 30
0.0
 10
182.092615
 20
282.240225
 30
0.0
  0
SPLINE
  5
361
100
AcDbEntity
  8
Layer_1
 62
5
100
AcDbSpline
 70
8
 71
3
 72
8
 73
4
 74
0
 40
0
 40
0
 40
0
 40
0
 40
1
 40
1
 40
1
 40
1
 10
182.092615
 20
282.240225
 30
0.0
 10
180.713855
 20
282.240225
 30
0.0
 10
179.595378
 20
281.123982
 30
0.0
 10
179.592620
 20
279.745225
 30
0.0
  0
SPLINE
  5
362
100
AcDbEntity
  8
Layer_1
 62
5
100
AcDbSpline
 70
8
 71
3
 72
8
 73
4
 74
0
 40
0
 40
0
 40
0
 40
0
 40
1
 40
1
 40
1
 40
1
 10
179.592620
 20
279.745225
 30
0.0
 10
179.595378
 20
278.366468
 30
0.0
 10
180.713855
 20
277.250225
 30
0.0
 10
182.092615
 20
277.250225
 30
0.0
  0
SPLINE
  5
363
100
AcDbEntity
  8
Layer_1
 62
5
100
AcDbSpline
 70
8
 71
3
 72
8
 73
4
 74
0
 40
0
 40
0
 40
0
 40
0
 40
1
 40
1
 40
1
 40
1
 10
182.092615
 20
277.250225
 30
0.0
 10
183.471375
 20
277.250225
 30
0.0
 10
184.589852
 20
278.366468
 30
0.0
 10
184.592610
 20
279.745225
 30
0.0
  0
LWPOLYLINE
  5
364
100
AcDbEntity
  8
Layer_1
 62
5
100
AcDbPolyline
 90
1
 70
1
 10
184.592610
 20
309.745225
 30
0.0
  0
SPLINE
  5
365
100
AcDbEntity
  8
Layer_1
 62
5
100
AcDbSpline
 70
8
 71
3
 72
8
 73
4
 74
0
 40
0
 40
0
 40
0
 40
0
 40
1
 40
1
 40
1
 40
1
 10
184.592610
 20
249.745227
 30
0.0
 10
184.589852
 20
251.123984
 30
0.0
 10
183.471375
 20
252.240227
 30
0.0
 10
182.092615
 20
252.240227
 30
0.0
  0
SPLINE
  5
366
100
AcDbEntity
  8
Layer_1
 62
5
100
AcDbSpline
 70
8
 71
3
 72
8
 73
4
 74
0
 40
0
 40
0
 40
0
 40
0
 40
1
 40
1
 40
1
 40
1
 10
182.092615
 20
252.240227
 30
0.0
 10
180.713855
 20
252.240227
 30
0.0
 10
179.595378
 20
251.123984
 30
0.0
 10
179.592620
 20
249.745227
 30
0.0
  0
SPLINE
  5
367
100
AcDbEntity
  8
Layer_1
 62
5
100
AcDbSpline
 70
8
 71
3
 72
8
 73
4
 74
0
 40
0
 40
0
 40
0
 40
0
 40
1
 40
1
 40
1
 40
1
 10
179.592620
 20
249.745227
 30
0.0
 10
179.595378
 20
248.366470
 30
0.0
 10
180.713855
 20
247.250227
 30
0.0
 10
182.092615
 20
247.250227
 30
0.0
  0
SPLINE
  5
368
100
AcDbEntity
  8
Layer_1
 62
5
100
AcDbSpline
 70
8
 71
3
 72
8
 73
4
 74
0
 40
0
 40
0
 40
0
 40
0
 40
1
 40
1
 40
1
 40
1
 10
182.092615
 20
247.250227
 30
0.0
 10
183.471375
 20
247.250227
 30
0.0
 10
184.589852
 20
248.366470
 30
0.0
 10
184.592610
 20
249.745227
 30
0.0
  0
LWPOLYLINE
  5
369
100
AcDbEntity
  8
Layer_1
 62
5
100
AcDbPolyline
 90
1
 70
1
 10
184.592610
 20
279.745225
 30
0.0
  0
SPLINE
  5
36a
100
AcDbEntity
  8
Layer_1
 62
5
100
AcDbSpline
 70
8
 71
3
 72
8
 73
4
 74
0
 40
0
 40
0
 40
0
 40
0
 40
1
 40
1
 40
1
 40
1
 10
184.592610
 20
219.745227
 30
0.0
 10
184.589852
 20
221.123984
 30
0.0
 10
183.471375
 20
222.240227
 30
0.0
 10
182.092615
 20
222.240227
 30
0.0
  0
SPLINE
  5
36b
100
AcDbEntity
  8
Layer_1
 62
5
100
AcDbSpline
 70
8
 71
3
 72
8
 73
4
 74
0
 40
0
 40
0
 40
0
 40
0
 40
1
 40
1
 40
1
 40
1
 10
182.092615
 20
222.240227
 30
0.0
 10
180.713855
 20
222.240227
 30
0.0
 10
179.595378
 20
221.123984
 30
0.0
 10
179.592620
 20
219.745227
 30
0.0
  0
SPLINE
  5
36c
100
AcDbEntity
  8
Layer_1
 62
5
100
AcDbSpline
 70
8
 71
3
 72
8
 73
4
 74
0
 40
0
 40
0
 40
0
 40
0
 40
1
 40
1
 40
1
 40
1
 10
179.592620
 20
219.745227
 30
0.0
 10
179.595378
 20
218.366470
 30
0.0
 10
180.713855
 20
217.250227
 30
0.0
 10
182.092615
 20
217.250227
 30
0.0
  0
SPLINE
  5
36d
100
AcDbEntity
  8
Layer_1
 62
5
100
AcDbSpline
 70
8
 71
3
 72
8
 73
4
 74
0
 40
0
 40
0
 40
0
 40
0
 40
1
 40
1
 40
1
 40
1
 10
182.092615
 20
217.250227
 30
0.0
 10
183.471375
 20
217.250227
 30
0.0
 10
184.589852
 20
218.366470
 30
0.0
 10
184.592610
 20
219.745227
 30
0.0
  0
LWPOLYLINE
  5
36e
100
AcDbEntity
  8
Layer_1
 62
5
100
AcDbPolyline
 90
1
 70
1
 10
184.592610
 20
249.745227
 30
0.0
  0
SPLINE
  5
36f
100
AcDbEntity
  8
Layer_1
 62
5
100
AcDbSpline
 70
8
 71
3
 72
8
 73
4
 74
0
 40
0
 40
0
 40
0
 40
0
 40
1
 40
1
 40
1
 40
1
 10
184.592610
 20
189.745230
 30
0.0
 10
184.589852
 20
191.123987
 30
0.0
 10
183.471375
 20
192.240230
 30
0.0
 10
182.092615
 20
192.240230
 30
0.0
  0
SPLINE
  5
370
100
AcDbEntity
  8
Layer_1
 62
5
100
AcDbSpline
 70
8
 71
3
 72
8
 73
4
 74
0
 40
0
 40
0
 40
0
 40
0
 40
1
 40
1
 40
1
 40
1
 10
182.092615
 20
192.240230
 30
0.0
 10
180.713855
 20
192.240230
 30
0.0
 10
179.595378
 20
191.123987
 30
0.0
 10
179.592620
 20
189.745230
 30
0.0
  0
SPLINE
  5
371
100
AcDbEntity
  8
Layer_1
 62
5
100
AcDbSpline
 70
8
 71
3
 72
8
 73
4
 74
0
 40
0
 40
0
 40
0
 40
0
 40
1
 40
1
 40
1
 40
1
 10
179.592620
 20
189.745230
 30
0.0
 10
179.595378
 20
188.366473
 30
0.0
 10
180.713855
 20
187.250230
 30
0.0
 10
182.092615
 20
187.250230
 30
0.0
  0
SPLINE
  5
372
100
AcDbEntity
  8
Layer_1
 62
5
100
AcDbSpline
 70
8
 71
3
 72
8
 73
4
 74
0
 40
0
 40
0
 40
0
 40
0
 40
1
 40
1
 40
1
 40
1
 10
182.092615
 20
187.250230
 30
0.0
 10
183.471375
 20
187.250230
 30
0.0
 10
184.589852
 20
188.366473
 30
0.0
 10
184.592610
 20
189.745230
 30
0.0
  0
LWPOLYLINE
  5
373
100
AcDbEntity
  8
Layer_1
 62
5
100
AcDbPolyline
 90
1
 70
1
 10
184.592610
 20
219.745227
 30
0.0
  0
SPLINE
  5
374
100
AcDbEntity
  8
Layer_1
 62
5
100
AcDbSpline
 70
8
 71
3
 72
8
 73
4
 74
0
 40
0
 40
0
 40
0
 40
0
 40
1
 40
1
 40
1
 40
1
 10
184.592610
 20
159.745230
 30
0.0
 10
184.589852
 20
161.123987
 30
0.0
 10
183.471375
 20
162.240230
 30
0.0
 10
182.092615
 20
162.240230
 30
0.0
  0
SPLINE
  5
375
100
AcDbEntity
  8
Layer_1
 62
5
100
AcDbSpline
 70
8
 71
3
 72
8
 73
4
 74
0
 40
0
 40
0
 40
0
 40
0
 40
1
 40
1
 40
1
 40
1
 10
182.092615
 20
162.240230
 30
0.0
 10
180.713855
 20
162.240230
 30
0.0
 10
179.595378
 20
161.123987
 30
0.0
 10
179.592620
 20
159.745230
 30
0.0
  0
SPLINE
  5
376
100
AcDbEntity
  8
Layer_1
 62
5
100
AcDbSpline
 70
8
 71
3
 72
8
 73
4
 74
0
 40
0
 40
0
 40
0
 40
0
 40
1
 40
1
 40
1
 40
1
 10
179.592620
 20
159.745230
 30
0.0
 10
179.595378
 20
158.366473
 30
0.0
 10
180.713855
 20
157.250230
 30
0.0
 10
182.092615
 20
157.250230
 30
0.0
  0
SPLINE
  5
377
100
AcDbEntity
  8
Layer_1
 62
5
100
AcDbSpline
 70
8
 71
3
 72
8
 73
4
 74
0
 40
0
 40
0
 40
0
 40
0
 40
1
 40
1
 40
1
 40
1
 10
182.092615
 20
157.250230
 30
0.0
 10
183.471375
 20
157.250230
 30
0.0
 10
184.589852
 20
158.366473
 30
0.0
 10
184.592610
 20
159.745230
 30
0.0
  0
LWPOLYLINE
  5
378
100
AcDbEntity
  8
Layer_1
 62
5
100
AcDbPolyline
 90
1
 70
1
 10
184.592610
 20
189.745230
 30
0.0
  0
SPLINE
  5
379
100
AcDbEntity
  8
Layer_1
 62
5
100
AcDbSpline
 70
8
 71
3
 72
8
 73
4
 74
0
 40
0
 40
0
 40
0
 40
0
 40
1
 40
1
 40
1
 40
1
 10
184.592610
 20
129.745230
 30
0.0
 10
184.589852
 20
131.123987
 30
0.0
 10
183.471375
 20
132.240230
 30
0.0
 10
182.092615
 20
132.240230
 30
0.0
  0
SPLINE
  5
37a
100
AcDbEntity
  8
Layer_1
 62
5
100
AcDbSpline
 70
8
 71
3
 72
8
 73
4
 74
0
 40
0
 40
0
 40
0
 40
0
 40
1
 40
1
 40
1
 40
1
 10
182.092615
 20
132.240230
 30
0.0
 10
180.713855
 20
132.240230
 30
0.0
 10
179.595378
 20
131.123987
 30
0.0
 10
179.592620
 20
129.745230
 30
0.0
  0
SPLINE
  5
37b
100
AcDbEntity
  8
Layer_1
 62
5
100
AcDbSpline
 70
8
 71
3
 72
8
 73
4
 74
0
 40
0
 40
0
 40
0
 40
0
 40
1
 40
1
 40
1
 40
1
 10
179.592620
 20
129.745230
 30
0.0
 10
179.595378
 20
128.366473
 30
0.0
 10
180.713855
 20
127.250230
 30
0.0
 10
182.092615
 20
127.250230
 30
0.0
  0
SPLINE
  5
37c
100
AcDbEntity
  8
Layer_1
 62
5
100
AcDbSpline
 70
8
 71
3
 72
8
 73
4
 74
0
 40
0
 40
0
 40
0
 40
0
 40
1
 40
1
 40
1
 40
1
 10
182.092615
 20
127.250230
 30
0.0
 10
183.471375
 20
127.250230
 30
0.0
 10
184.589852
 20
128.366473
 30
0.0
 10
184.592610
 20
129.745230
 30
0.0
  0
LWPOLYLINE
  5
37d
100
AcDbEntity
  8
Layer_1
 62
5
100
AcDbPolyline
 90
1
 70
1
 10
184.592610
 20
159.745230
 30
0.0
  0
SPLINE
  5
37e
100
AcDbEntity
  8
Layer_1
 62
5
100
AcDbSpline
 70
8
 71
3
 72
8
 73
4
 74
0
 40
0
 40
0
 40
0
 40
0
 40
1
 40
1
 40
1
 40
1
 10
184.592610
 20
99.745230
 30
0.0
 10
184.589852
 20
101.123987
 30
0.0
 10
183.471375
 20
102.240230
 30
0.0
 10
182.092615
 20
102.240230
 30
0.0
  0
SPLINE
  5
37f
100
AcDbEntity
  8
Layer_1
 62
5
100
AcDbSpline
 70
8
 71
3
 72
8
 73
4
 74
0
 40
0
 40
0
 40
0
 40
0
 40
1
 40
1
 40
1
 40
1
 10
182.092615
 20
102.240230
 30
0.0
 10
180.713855
 20
102.240230
 30
0.0
 10
179.595378
 20
101.123987
 30
0.0
 10
179.592620
 20
99.745230
 30
0.0
  0
SPLINE
  5
380
100
AcDbEntity
  8
Layer_1
 62
5
100
AcDbSpline
 70
8
 71
3
 72
8
 73
4
 74
0
 40
0
 40
0
 40
0
 40
0
 40
1
 40
1
 40
1
 40
1
 10
179.592620
 20
99.745230
 30
0.0
 10
179.595378
 20
98.366473
 30
0.0
 10
180.713855
 20
97.250230
 30
0.0
 10
182.092615
 20
97.250230
 30
0.0
  0
SPLINE
  5
381
100
AcDbEntity
  8
Layer_1
 62
5
100
AcDbSpline
 70
8
 71
3
 72
8
 73
4
 74
0
 40
0
 40
0
 40
0
 40
0
 40
1
 40
1
 40
1
 40
1
 10
182.092615
 20
97.250230
 30
0.0
 10
183.471375
 20
97.250230
 30
0.0
 10
184.589852
 20
98.366473
 30
0.0
 10
184.592610
 20
99.745230
 30
0.0
  0
LWPOLYLINE
  5
382
100
AcDbEntity
  8
Layer_1
 62
5
100
AcDbPolyline
 90
1
 70
1
 10
184.592610
 20
129.745230
 30
0.0
  0
SPLINE
  5
383
100
AcDbEntity
  8
Layer_1
 62
5
100
AcDbSpline
 70
8
 71
3
 72
8
 73
4
 74
0
 40
0
 40
0
 40
0
 40
0
 40
1
 40
1
 40
1
 40
1
 10
214.592630
 20
399.745220
 30
0.0
 10
214.592630
 20
400.638388
 30
0.0
 10
214.116131
 20
401.463708
 30
0.0
 10
213.342625
 20
401.910292
 30
0.0
  0
SPLINE
  5
384
100
AcDbEntity
  8
Layer_1
 62
5
100
AcDbSpline
 70
8
 71
3
 72
8
 73
4
 74
0
 40
0
 40
0
 40
0
 40
0
 40
1
 40
1
 40
1
 40
1
 10
213.342625
 20
401.910292
 30
0.0
 10
212.569119
 20
402.356876
 30
0.0
 10
211.616121
 20
402.356876
 30
0.0
 10
210.842615
 20
401.910292
 30
0.0
  0
SPLINE
  5
385
100
AcDbEntity
  8
Layer_1
 62
5
100
AcDbSpline
 70
8
 71
3
 72
8
 73
4
 74
0
 40
0
 40
0
 40
0
 40
0
 40
1
 40
1
 40
1
 40
1
 10
210.842615
 20
401.910292
 30
0.0
 10
210.069109
 20
401.463708
 30
0.0
 10
209.592610
 20
400.638388
 30
0.0
 10
209.592610
 20
399.745220
 30
0.0
  0
SPLINE
  5
386
100
AcDbEntity
  8
Layer_1
 62
5
100
AcDbSpline
 70
8
 71
3
 72
8
 73
4
 74
0
 40
0
 40
0
 40
0
 40
0
 40
1
 40
1
 40
1
 40
1
 10
209.592610
 20
399.745220
 30
0.0
 10
209.592610
 20
398.852052
 30
0.0
 10
210.069109
 20
398.026732
 30
0.0
 10
210.842615
 20
397.580148
 30
0.0
  0
SPLINE
  5
387
100
AcDbEntity
  8
Layer_1
 62
5
100
AcDbSpline
 70
8
 71
3
 72
8
 73
4
 74
0
 40
0
 40
0
 40
0
 40
0
 40
1
 40
1
 40
1
 40
1
 10
210.842615
 20
397.580148
 30
0.0
 10
211.616121
 20
397.133564
 30
0.0
 10
212.569119
 20
397.133564
 30
0.0
 10
213.342625
 20
397.580148
 30
0.0
  0
SPLINE
  5
388
100
AcDbEntity
  8
Layer_1
 62
5
100
AcDbSpline
 70
8
 71
3
 72
8
 73
4
 74
0
 40
0
 40
0
 40
0
 40
0
 40
1
 40
1
 40
1
 40
1
 10
213.342625
 20
397.580148
 30
0.0
 10
214.116131
 20
398.026732
 30
0.0
 10
214.592630
 20
398.852052
 30
0.0
 10
214.592630
 20
399.745220
 30
0.0
  0
LWPOLYLINE
  5
389
100
AcDbEntity
  8
Layer_1
 62
5
100
AcDbPolyline
 90
1
 70
1
 10
184.592610
 20
99.745230
 30
0.0
  0
SPLINE
  5
38a
100
AcDbEntity
  8
Layer_1
 62
5
100
AcDbSpline
 70
8
 71
3
 72
8
 73
4
 74
0
 40
0
 40
0
 40
0
 40
0
 40
1
 40
1
 40
1
 40
1
 10
214.592630
 20
369.745224
 30
0.0
 10
214.592630
 20
370.638392
 30
0.0
 10
214.116131
 20
371.463712
 30
0.0
 10
213.342625
 20
371.910296
 30
0.0
  0
SPLINE
  5
38b
100
AcDbEntity
  8
Layer_1
 62
5
100
AcDbSpline
 70
8
 71
3
 72
8
 73
4
 74
0
 40
0
 40
0
 40
0
 40
0
 40
1
 40
1
 40
1
 40
1
 10
213.342625
 20
371.910296
 30
0.0
 10
212.569119
 20
372.356880
 30
0.0
 10
211.616121
 20
372.356880
 30
0.0
 10
210.842615
 20
371.910296
 30
0.0
  0
SPLINE
  5
38c
100
AcDbEntity
  8
Layer_1
 62
5
100
AcDbSpline
 70
8
 71
3
 72
8
 73
4
 74
0
 40
0
 40
0
 40
0
 40
0
 40
1
 40
1
 40
1
 40
1
 10
210.842615
 20
371.910296
 30
0.0
 10
210.069109
 20
371.463712
 30
0.0
 10
209.592610
 20
370.638392
 30
0.0
 10
209.592610
 20
369.745224
 30
0.0
  0
SPLINE
  5
38d
100
AcDbEntity
  8
Layer_1
 62
5
100
AcDbSpline
 70
8
 71
3
 72
8
 73
4
 74
0
 40
0
 40
0
 40
0
 40
0
 40
1
 40
1
 40
1
 40
1
 10
209.592610
 20
369.745224
 30
0.0
 10
209.592610
 20
368.852056
 30
0.0
 10
210.069109
 20
368.026736
 30
0.0
 10
210.842615
 20
367.580152
 30
0.0
  0
SPLINE
  5
38e
100
AcDbEntity
  8
Layer_1
 62
5
100
AcDbSpline
 70
8
 71
3
 72
8
 73
4
 74
0
 40
0
 40
0
 40
0
 40
0
 40
1
 40
1
 40
1
 40
1
 10
210.842615
 20
367.580152
 30
0.0
 10
211.616121
 20
367.133568
 30
0.0
 10
212.569119
 20
367.133568
 30
0.0
 10
213.342625
 20
367.580152
 30
0.0
  0
SPLINE
  5
38f
100
AcDbEntity
  8
Layer_1
 62
5
100
AcDbSpline
 70
8
 71
3
 72
8
 73
4
 74
0
 40
0
 40
0
 40
0
 40
0
 40
1
 40
1
 40
1
 40
1
 10
213.342625
 20
367.580152
 30
0.0
 10
214.116131
 20
368.026736
 30
0.0
 10
214.592630
 20
368.852056
 30
0.0
 10
214.592630
 20
369.745224
 30
0.0
  0
LWPOLYLINE
  5
390
100
AcDbEntity
  8
Layer_1
 62
5
100
AcDbPolyline
 90
1
 70
1
 10
214.592630
 20
399.745220
 30
0.0
  0
SPLINE
  5
391
100
AcDbEntity
  8
Layer_1
 62
5
100
AcDbSpline
 70
8
 71
3
 72
8
 73
4
 74
0
 40
0
 40
0
 40
0
 40
0
 40
1
 40
1
 40
1
 40
1
 10
214.592630
 20
339.745225
 30
0.0
 10
214.592630
 20
340.638393
 30
0.0
 10
214.116131
 20
341.463713
 30
0.0
 10
213.342625
 20
341.910297
 30
0.0
  0
SPLINE
  5
392
100
AcDbEntity
  8
Layer_1
 62
5
100
AcDbSpline
 70
8
 71
3
 72
8
 73
4
 74
0
 40
0
 40
0
 40
0
 40
0
 40
1
 40
1
 40
1
 40
1
 10
213.342625
 20
341.910297
 30
0.0
 10
212.569119
 20
342.356881
 30
0.0
 10
211.616121
 20
342.356881
 30
0.0
 10
210.842615
 20
341.910297
 30
0.0
  0
SPLINE
  5
393
100
AcDbEntity
  8
Layer_1
 62
5
100
AcDbSpline
 70
8
 71
3
 72
8
 73
4
 74
0
 40
0
 40
0
 40
0
 40
0
 40
1
 40
1
 40
1
 40
1
 10
210.842615
 20
341.910297
 30
0.0
 10
210.069109
 20
341.463713
 30
0.0
 10
209.592610
 20
340.638393
 30
0.0
 10
209.592610
 20
339.745225
 30
0.0
  0
SPLINE
  5
394
100
AcDbEntity
  8
Layer_1
 62
5
100
AcDbSpline
 70
8
 71
3
 72
8
 73
4
 74
0
 40
0
 40
0
 40
0
 40
0
 40
1
 40
1
 40
1
 40
1
 10
209.592610
 20
339.745225
 30
0.0
 10
209.592610
 20
338.852057
 30
0.0
 10
210.069109
 20
338.026737
 30
0.0
 10
210.842615
 20
337.580153
 30
0.0
  0
SPLINE
  5
395
100
AcDbEntity
  8
Layer_1
 62
5
100
AcDbSpline
 70
8
 71
3
 72
8
 73
4
 74
0
 40
0
 40
0
 40
0
 40
0
 40
1
 40
1
 40
1
 40
1
 10
210.842615
 20
337.580153
 30
0.0
 10
211.616121
 20
337.133569
 30
0.0
 10
212.569119
 20
337.133569
 30
0.0
 10
213.342625
 20
337.580153
 30
0.0
  0
SPLINE
  5
396
100
AcDbEntity
  8
Layer_1
 62
5
100
AcDbSpline
 70
8
 71
3
 72
8
 73
4
 74
0
 40
0
 40
0
 40
0
 40
0
 40
1
 40
1
 40
1
 40
1
 10
213.342625
 20
337.580153
 30
0.0
 10
214.116131
 20
338.026737
 30
0.0
 10
214.592630
 20
338.852057
 30
0.0
 10
214.592630
 20
339.745225
 30
0.0
  0
LWPOLYLINE
  5
397
100
AcDbEntity
  8
Layer_1
 62
5
100
AcDbPolyline
 90
1
 70
1
 10
214.592630
 20
369.745224
 30
0.0
  0
SPLINE
  5
398
100
AcDbEntity
  8
Layer_1
 62
5
100
AcDbSpline
 70
8
 71
3
 72
8
 73
4
 74
0
 40
0
 40
0
 40
0
 40
0
 40
1
 40
1
 40
1
 40
1
 10
214.592630
 20
309.745225
 30
0.0
 10
214.592630
 20
310.638393
 30
0.0
 10
214.116131
 20
311.463713
 30
0.0
 10
213.342625
 20
311.910297
 30
0.0
  0
SPLINE
  5
399
100
AcDbEntity
  8
Layer_1
 62
5
100
AcDbSpline
 70
8
 71
3
 72
8
 73
4
 74
0
 40
0
 40
0
 40
0
 40
0
 40
1
 40
1
 40
1
 40
1
 10
213.342625
 20
311.910297
 30
0.0
 10
212.569119
 20
312.356881
 30
0.0
 10
211.616121
 20
312.356881
 30
0.0
 10
210.842615
 20
311.910297
 30
0.0
  0
SPLINE
  5
39a
100
AcDbEntity
  8
Layer_1
 62
5
100
AcDbSpline
 70
8
 71
3
 72
8
 73
4
 74
0
 40
0
 40
0
 40
0
 40
0
 40
1
 40
1
 40
1
 40
1
 10
210.842615
 20
311.910297
 30
0.0
 10
210.069109
 20
311.463713
 30
0.0
 10
209.592610
 20
310.638393
 30
0.0
 10
209.592610
 20
309.745225
 30
0.0
  0
SPLINE
  5
39b
100
AcDbEntity
  8
Layer_1
 62
5
100
AcDbSpline
 70
8
 71
3
 72
8
 73
4
 74
0
 40
0
 40
0
 40
0
 40
0
 40
1
 40
1
 40
1
 40
1
 10
209.592610
 20
309.745225
 30
0.0
 10
209.592610
 20
308.852057
 30
0.0
 10
210.069109
 20
308.026737
 30
0.0
 10
210.842615
 20
307.580153
 30
0.0
  0
SPLINE
  5
39c
100
AcDbEntity
  8
Layer_1
 62
5
100
AcDbSpline
 70
8
 71
3
 72
8
 73
4
 74
0
 40
0
 40
0
 40
0
 40
0
 40
1
 40
1
 40
1
 40
1
 10
210.842615
 20
307.580153
 30
0.0
 10
211.616121
 20
307.133569
 30
0.0
 10
212.569119
 20
307.133569
 30
0.0
 10
213.342625
 20
307.580153
 30
0.0
  0
SPLINE
  5
39d
100
AcDbEntity
  8
Layer_1
 62
5
100
AcDbSpline
 70
8
 71
3
 72
8
 73
4
 74
0
 40
0
 40
0
 40
0
 40
0
 40
1
 40
1
 40
1
 40
1
 10
213.342625
 20
307.580153
 30
0.0
 10
214.116131
 20
308.026737
 30
0.0
 10
214.592630
 20
308.852057
 30
0.0
 10
214.592630
 20
309.745225
 30
0.0
  0
LWPOLYLINE
  5
39e
100
AcDbEntity
  8
Layer_1
 62
5
100
AcDbPolyline
 90
1
 70
1
 10
214.592630
 20
339.745225
 30
0.0
  0
SPLINE
  5
39f
100
AcDbEntity
  8
Layer_1
 62
5
100
AcDbSpline
 70
8
 71
3
 72
8
 73
4
 74
0
 40
0
 40
0
 40
0
 40
0
 40
1
 40
1
 40
1
 40
1
 10
214.592630
 20
279.745225
 30
0.0
 10
214.592630
 20
280.638393
 30
0.0
 10
214.116131
 20
281.463713
 30
0.0
 10
213.342625
 20
281.910297
 30
0.0
  0
SPLINE
  5
3a0
100
AcDbEntity
  8
Layer_1
 62
5
100
AcDbSpline
 70
8
 71
3
 72
8
 73
4
 74
0
 40
0
 40
0
 40
0
 40
0
 40
1
 40
1
 40
1
 40
1
 10
213.342625
 20
281.910297
 30
0.0
 10
212.569119
 20
282.356881
 30
0.0
 10
211.616121
 20
282.356881
 30
0.0
 10
210.842615
 20
281.910297
 30
0.0
  0
SPLINE
  5
3a1
100
AcDbEntity
  8
Layer_1
 62
5
100
AcDbSpline
 70
8
 71
3
 72
8
 73
4
 74
0
 40
0
 40
0
 40
0
 40
0
 40
1
 40
1
 40
1
 40
1
 10
210.842615
 20
281.910297
 30
0.0
 10
210.069109
 20
281.463713
 30
0.0
 10
209.592610
 20
280.638393
 30
0.0
 10
209.592610
 20
279.745225
 30
0.0
  0
SPLINE
  5
3a2
100
AcDbEntity
  8
Layer_1
 62
5
100
AcDbSpline
 70
8
 71
3
 72
8
 73
4
 74
0
 40
0
 40
0
 40
0
 40
0
 40
1
 40
1
 40
1
 40
1
 10
209.592610
 20
279.745225
 30
0.0
 10
209.592610
 20
278.852057
 30
0.0
 10
210.069109
 20
278.026737
 30
0.0
 10
210.842615
 20
277.580153
 30
0.0
  0
SPLINE
  5
3a3
100
AcDbEntity
  8
Layer_1
 62
5
100
AcDbSpline
 70
8
 71
3
 72
8
 73
4
 74
0
 40
0
 40
0
 40
0
 40
0
 40
1
 40
1
 40
1
 40
1
 10
210.842615
 20
277.580153
 30
0.0
 10
211.616121
 20
277.133569
 30
0.0
 10
212.569119
 20
277.133569
 30
0.0
 10
213.342625
 20
277.580153
 30
0.0
  0
SPLINE
  5
3a4
100
AcDbEntity
  8
Layer_1
 62
5
100
AcDbSpline
 70
8
 71
3
 72
8
 73
4
 74
0
 40
0
 40
0
 40
0
 40
0
 40
1
 40
1
 40
1
 40
1
 10
213.342625
 20
277.580153
 30
0.0
 10
214.116131
 20
278.026737
 30
0.0
 10
214.592630
 20
278.852057
 30
0.0
 10
214.592630
 20
279.745225
 30
0.0
  0
LWPOLYLINE
  5
3a5
100
AcDbEntity
  8
Layer_1
 62
5
100
AcDbPolyline
 90
1
 70
1
 10
214.592630
 20
309.745225
 30
0.0
  0
SPLINE
  5
3a6
100
AcDbEntity
  8
Layer_1
 62
5
100
AcDbSpline
 70
8
 71
3
 72
8
 73
4
 74
0
 40
0
 40
0
 40
0
 40
0
 40
1
 40
1
 40
1
 40
1
 10
214.592630
 20
249.745227
 30
0.0
 10
214.592630
 20
250.638395
 30
0.0
 10
214.116131
 20
251.463715
 30
0.0
 10
213.342625
 20
251.910299
 30
0.0
  0
SPLINE
  5
3a7
100
AcDbEntity
  8
Layer_1
 62
5
100
AcDbSpline
 70
8
 71
3
 72
8
 73
4
 74
0
 40
0
 40
0
 40
0
 40
0
 40
1
 40
1
 40
1
 40
1
 10
213.342625
 20
251.910299
 30
0.0
 10
212.569119
 20
252.356883
 30
0.0
 10
211.616121
 20
252.356883
 30
0.0
 10
210.842615
 20
251.910299
 30
0.0
  0
SPLINE
  5
3a8
100
AcDbEntity
  8
Layer_1
 62
5
100
AcDbSpline
 70
8
 71
3
 72
8
 73
4
 74
0
 40
0
 40
0
 40
0
 40
0
 40
1
 40
1
 40
1
 40
1
 10
210.842615
 20
251.910299
 30
0.0
 10
210.069109
 20
251.463715
 30
0.0
 10
209.592610
 20
250.638395
 30
0.0
 10
209.592610
 20
249.745227
 30
0.0
  0
SPLINE
  5
3a9
100
AcDbEntity
  8
Layer_1
 62
5
100
AcDbSpline
 70
8
 71
3
 72
8
 73
4
 74
0
 40
0
 40
0
 40
0
 40
0
 40
1
 40
1
 40
1
 40
1
 10
209.592610
 20
249.745227
 30
0.0
 10
209.592610
 20
248.852059
 30
0.0
 10
210.069109
 20
248.026739
 30
0.0
 10
210.842615
 20
247.580155
 30
0.0
  0
SPLINE
  5
3aa
100
AcDbEntity
  8
Layer_1
 62
5
100
AcDbSpline
 70
8
 71
3
 72
8
 73
4
 74
0
 40
0
 40
0
 40
0
 40
0
 40
1
 40
1
 40
1
 40
1
 10
210.842615
 20
247.580155
 30
0.0
 10
211.616121
 20
247.133571
 30
0.0
 10
212.569119
 20
247.133571
 30
0.0
 10
213.342625
 20
247.580155
 30
0.0
  0
SPLINE
  5
3ab
100
AcDbEntity
  8
Layer_1
 62
5
100
AcDbSpline
 70
8
 71
3
 72
8
 73
4
 74
0
 40
0
 40
0
 40
0
 40
0
 40
1
 40
1
 40
1
 40
1
 10
213.342625
 20
247.580155
 30
0.0
 10
214.116131
 20
248.026739
 30
0.0
 10
214.592630
 20
248.852059
 30
0.0
 10
214.592630
 20
249.745227
 30
0.0
  0
LWPOLYLINE
  5
3ac
100
AcDbEntity
  8
Layer_1
 62
5
100
AcDbPolyline
 90
1
 70
1
 10
214.592630
 20
279.745225
 30
0.0
  0
SPLINE
  5
3ad
100
AcDbEntity
  8
Layer_1
 62
5
100
AcDbSpline
 70
8
 71
3
 72
8
 73
4
 74
0
 40
0
 40
0
 40
0
 40
0
 40
1
 40
1
 40
1
 40
1
 10
214.592630
 20
219.745227
 30
0.0
 10
214.592630
 20
220.638395
 30
0.0
 10
214.116131
 20
221.463715
 30
0.0
 10
213.342625
 20
221.910299
 30
0.0
  0
SPLINE
  5
3ae
100
AcDbEntity
  8
Layer_1
 62
5
100
AcDbSpline
 70
8
 71
3
 72
8
 73
4
 74
0
 40
0
 40
0
 40
0
 40
0
 40
1
 40
1
 40
1
 40
1
 10
213.342625
 20
221.910299
 30
0.0
 10
212.569119
 20
222.356883
 30
0.0
 10
211.616121
 20
222.356883
 30
0.0
 10
210.842615
 20
221.910299
 30
0.0
  0
SPLINE
  5
3af
100
AcDbEntity
  8
Layer_1
 62
5
100
AcDbSpline
 70
8
 71
3
 72
8
 73
4
 74
0
 40
0
 40
0
 40
0
 40
0
 40
1
 40
1
 40
1
 40
1
 10
210.842615
 20
221.910299
 30
0.0
 10
210.069109
 20
221.463715
 30
0.0
 10
209.592610
 20
220.638395
 30
0.0
 10
209.592610
 20
219.745227
 30
0.0
  0
SPLINE
  5
3b0
100
AcDbEntity
  8
Layer_1
 62
5
100
AcDbSpline
 70
8
 71
3
 72
8
 73
4
 74
0
 40
0
 40
0
 40
0
 40
0
 40
1
 40
1
 40
1
 40
1
 10
209.592610
 20
219.745227
 30
0.0
 10
209.592610
 20
218.852059
 30
0.0
 10
210.069109
 20
218.026739
 30
0.0
 10
210.842615
 20
217.580155
 30
0.0
  0
SPLINE
  5
3b1
100
AcDbEntity
  8
Layer_1
 62
5
100
AcDbSpline
 70
8
 71
3
 72
8
 73
4
 74
0
 40
0
 40
0
 40
0
 40
0
 40
1
 40
1
 40
1
 40
1
 10
210.842615
 20
217.580155
 30
0.0
 10
211.616121
 20
217.133571
 30
0.0
 10
212.569119
 20
217.133571
 30
0.0
 10
213.342625
 20
217.580155
 30
0.0
  0
SPLINE
  5
3b2
100
AcDbEntity
  8
Layer_1
 62
5
100
AcDbSpline
 70
8
 71
3
 72
8
 73
4
 74
0
 40
0
 40
0
 40
0
 40
0
 40
1
 40
1
 40
1
 40
1
 10
213.342625
 20
217.580155
 30
0.0
 10
214.116131
 20
218.026739
 30
0.0
 10
214.592630
 20
218.852059
 30
0.0
 10
214.592630
 20
219.745227
 30
0.0
  0
LWPOLYLINE
  5
3b3
100
AcDbEntity
  8
Layer_1
 62
5
100
AcDbPolyline
 90
1
 70
1
 10
214.592630
 20
249.745227
 30
0.0
  0
SPLINE
  5
3b4
100
AcDbEntity
  8
Layer_1
 62
5
100
AcDbSpline
 70
8
 71
3
 72
8
 73
4
 74
0
 40
0
 40
0
 40
0
 40
0
 40
1
 40
1
 40
1
 40
1
 10
214.592630
 20
189.745230
 30
0.0
 10
214.592630
 20
190.638398
 30
0.0
 10
214.116131
 20
191.463718
 30
0.0
 10
213.342625
 20
191.910302
 30
0.0
  0
SPLINE
  5
3b5
100
AcDbEntity
  8
Layer_1
 62
5
100
AcDbSpline
 70
8
 71
3
 72
8
 73
4
 74
0
 40
0
 40
0
 40
0
 40
0
 40
1
 40
1
 40
1
 40
1
 10
213.342625
 20
191.910302
 30
0.0
 10
212.569119
 20
192.356886
 30
0.0
 10
211.616121
 20
192.356886
 30
0.0
 10
210.842615
 20
191.910302
 30
0.0
  0
SPLINE
  5
3b6
100
AcDbEntity
  8
Layer_1
 62
5
100
AcDbSpline
 70
8
 71
3
 72
8
 73
4
 74
0
 40
0
 40
0
 40
0
 40
0
 40
1
 40
1
 40
1
 40
1
 10
210.842615
 20
191.910302
 30
0.0
 10
210.069109
 20
191.463718
 30
0.0
 10
209.592610
 20
190.638398
 30
0.0
 10
209.592610
 20
189.745230
 30
0.0
  0
SPLINE
  5
3b7
100
AcDbEntity
  8
Layer_1
 62
5
100
AcDbSpline
 70
8
 71
3
 72
8
 73
4
 74
0
 40
0
 40
0
 40
0
 40
0
 40
1
 40
1
 40
1
 40
1
 10
209.592610
 20
189.745230
 30
0.0
 10
209.592610
 20
188.852062
 30
0.0
 10
210.069109
 20
188.026742
 30
0.0
 10
210.842615
 20
187.580158
 30
0.0
  0
SPLINE
  5
3b8
100
AcDbEntity
  8
Layer_1
 62
5
100
AcDbSpline
 70
8
 71
3
 72
8
 73
4
 74
0
 40
0
 40
0
 40
0
 40
0
 40
1
 40
1
 40
1
 40
1
 10
210.842615
 20
187.580158
 30
0.0
 10
211.616121
 20
187.133574
 30
0.0
 10
212.569119
 20
187.133574
 30
0.0
 10
213.342625
 20
187.580158
 30
0.0
  0
SPLINE
  5
3b9
100
AcDbEntity
  8
Layer_1
 62
5
100
AcDbSpline
 70
8
 71
3
 72
8
 73
4
 74
0
 40
0
 40
0
 40
0
 40
0
 40
1
 40
1
 40
1
 40
1
 10
213.342625
 20
187.580158
 30
0.0
 10
214.116131
 20
188.026742
 30
0.0
 10
214.592630
 20
188.852062
 30
0.0
 10
214.592630
 20
189.745230
 30
0.0
  0
LWPOLYLINE
  5
3ba
100
AcDbEntity
  8
Layer_1
 62
5
100
AcDbPolyline
 90
1
 70
1
 10
214.592630
 20
219.745227
 30
0.0
  0
SPLINE
  5
3bb
100
AcDbEntity
  8
Layer_1
 62
5
100
AcDbSpline
 70
8
 71
3
 72
8
 73
4
 74
0
 40
0
 40
0
 40
0
 40
0
 40
1
 40
1
 40
1
 40
1
 10
214.592630
 20
159.745230
 30
0.0
 10
214.592630
 20
160.638398
 30
0.0
 10
214.116131
 20
161.463718
 30
0.0
 10
213.342625
 20
161.910302
 30
0.0
  0
SPLINE
  5
3bc
100
AcDbEntity
  8
Layer_1
 62
5
100
AcDbSpline
 70
8
 71
3
 72
8
 73
4
 74
0
 40
0
 40
0
 40
0
 40
0
 40
1
 40
1
 40
1
 40
1
 10
213.342625
 20
161.910302
 30
0.0
 10
212.569119
 20
162.356886
 30
0.0
 10
211.616121
 20
162.356886
 30
0.0
 10
210.842615
 20
161.910302
 30
0.0
  0
SPLINE
  5
3bd
100
AcDbEntity
  8
Layer_1
 62
5
100
AcDbSpline
 70
8
 71
3
 72
8
 73
4
 74
0
 40
0
 40
0
 40
0
 40
0
 40
1
 40
1
 40
1
 40
1
 10
210.842615
 20
161.910302
 30
0.0
 10
210.069109
 20
161.463718
 30
0.0
 10
209.592610
 20
160.638398
 30
0.0
 10
209.592610
 20
159.745230
 30
0.0
  0
SPLINE
  5
3be
100
AcDbEntity
  8
Layer_1
 62
5
100
AcDbSpline
 70
8
 71
3
 72
8
 73
4
 74
0
 40
0
 40
0
 40
0
 40
0
 40
1
 40
1
 40
1
 40
1
 10
209.592610
 20
159.745230
 30
0.0
 10
209.592610
 20
158.852062
 30
0.0
 10
210.069109
 20
158.026742
 30
0.0
 10
210.842615
 20
157.580158
 30
0.0
  0
SPLINE
  5
3bf
100
AcDbEntity
  8
Layer_1
 62
5
100
AcDbSpline
 70
8
 71
3
 72
8
 73
4
 74
0
 40
0
 40
0
 40
0
 40
0
 40
1
 40
1
 40
1
 40
1
 10
210.842615
 20
157.580158
 30
0.0
 10
211.616121
 20
157.133574
 30
0.0
 10
212.569119
 20
157.133574
 30
0.0
 10
213.342625
 20
157.580158
 30
0.0
  0
SPLINE
  5
3c0
100
AcDbEntity
  8
Layer_1
 62
5
100
AcDbSpline
 70
8
 71
3
 72
8
 73
4
 74
0
 40
0
 40
0
 40
0
 40
0
 40
1
 40
1
 40
1
 40
1
 10
213.342625
 20
157.580158
 30
0.0
 10
214.116131
 20
158.026742
 30
0.0
 10
214.592630
 20
158.852062
 30
0.0
 10
214.592630
 20
159.745230
 30
0.0
  0
LWPOLYLINE
  5
3c1
100
AcDbEntity
  8
Layer_1
 62
5
100
AcDbPolyline
 90
1
 70
1
 10
214.592630
 20
189.745230
 30
0.0
  0
SPLINE
  5
3c2
100
AcDbEntity
  8
Layer_1
 62
5
100
AcDbSpline
 70
8
 71
3
 72
8
 73
4
 74
0
 40
0
 40
0
 40
0
 40
0
 40
1
 40
1
 40
1
 40
1
 10
214.592630
 20
129.745230
 30
0.0
 10
214.592630
 20
130.638398
 30
0.0
 10
214.116131
 20
131.463718
 30
0.0
 10
213.342625
 20
131.910302
 30
0.0
  0
SPLINE
  5
3c3
100
AcDbEntity
  8
Layer_1
 62
5
100
AcDbSpline
 70
8
 71
3
 72
8
 73
4
 74
0
 40
0
 40
0
 40
0
 40
0
 40
1
 40
1
 40
1
 40
1
 10
213.342625
 20
131.910302
 30
0.0
 10
212.569119
 20
132.356886
 30
0.0
 10
211.616121
 20
132.356886
 30
0.0
 10
210.842615
 20
131.910302
 30
0.0
  0
SPLINE
  5
3c4
100
AcDbEntity
  8
Layer_1
 62
5
100
AcDbSpline
 70
8
 71
3
 72
8
 73
4
 74
0
 40
0
 40
0
 40
0
 40
0
 40
1
 40
1
 40
1
 40
1
 10
210.842615
 20
131.910302
 30
0.0
 10
210.069109
 20
131.463718
 30
0.0
 10
209.592610
 20
130.638398
 30
0.0
 10
209.592610
 20
129.745230
 30
0.0
  0
SPLINE
  5
3c5
100
AcDbEntity
  8
Layer_1
 62
5
100
AcDbSpline
 70
8
 71
3
 72
8
 73
4
 74
0
 40
0
 40
0
 40
0
 40
0
 40
1
 40
1
 40
1
 40
1
 10
209.592610
 20
129.745230
 30
0.0
 10
209.592610
 20
128.852062
 30
0.0
 10
210.069109
 20
128.026742
 30
0.0
 10
210.842615
 20
127.580158
 30
0.0
  0
SPLINE
  5
3c6
100
AcDbEntity
  8
Layer_1
 62
5
100
AcDbSpline
 70
8
 71
3
 72
8
 73
4
 74
0
 40
0
 40
0
 40
0
 40
0
 40
1
 40
1
 40
1
 40
1
 10
210.842615
 20
127.580158
 30
0.0
 10
211.616121
 20
127.133574
 30
0.0
 10
212.569119
 20
127.133574
 30
0.0
 10
213.342625
 20
127.580158
 30
0.0
  0
SPLINE
  5
3c7
100
AcDbEntity
  8
Layer_1
 62
5
100
AcDbSpline
 70
8
 71
3
 72
8
 73
4
 74
0
 40
0
 40
0
 40
0
 40
0
 40
1
 40
1
 40
1
 40
1
 10
213.342625
 20
127.580158
 30
0.0
 10
214.116131
 20
128.026742
 30
0.0
 10
214.592630
 20
128.852062
 30
0.0
 10
214.592630
 20
129.745230
 30
0.0
  0
LWPOLYLINE
  5
3c8
100
AcDbEntity
  8
Layer_1
 62
5
100
AcDbPolyline
 90
1
 70
1
 10
214.592630
 20
159.745230
 30
0.0
  0
SPLINE
  5
3c9
100
AcDbEntity
  8
Layer_1
 62
5
100
AcDbSpline
 70
8
 71
3
 72
8
 73
4
 74
0
 40
0
 40
0
 40
0
 40
0
 40
1
 40
1
 40
1
 40
1
 10
214.592630
 20
99.745230
 30
0.0
 10
214.592630
 20
100.638398
 30
0.0
 10
214.116131
 20
101.463718
 30
0.0
 10
213.342625
 20
101.910302
 30
0.0
  0
SPLINE
  5
3ca
100
AcDbEntity
  8
Layer_1
 62
5
100
AcDbSpline
 70
8
 71
3
 72
8
 73
4
 74
0
 40
0
 40
0
 40
0
 40
0
 40
1
 40
1
 40
1
 40
1
 10
213.342625
 20
101.910302
 30
0.0
 10
212.569119
 20
102.356886
 30
0.0
 10
211.616121
 20
102.356886
 30
0.0
 10
210.842615
 20
101.910302
 30
0.0
  0
SPLINE
  5
3cb
100
AcDbEntity
  8
Layer_1
 62
5
100
AcDbSpline
 70
8
 71
3
 72
8
 73
4
 74
0
 40
0
 40
0
 40
0
 40
0
 40
1
 40
1
 40
1
 40
1
 10
210.842615
 20
101.910302
 30
0.0
 10
210.069109
 20
101.463718
 30
0.0
 10
209.592610
 20
100.638398
 30
0.0
 10
209.592610
 20
99.745230
 30
0.0
  0
SPLINE
  5
3cc
100
AcDbEntity
  8
Layer_1
 62
5
100
AcDbSpline
 70
8
 71
3
 72
8
 73
4
 74
0
 40
0
 40
0
 40
0
 40
0
 40
1
 40
1
 40
1
 40
1
 10
209.592610
 20
99.745230
 30
0.0
 10
209.592610
 20
98.852062
 30
0.0
 10
210.069109
 20
98.026742
 30
0.0
 10
210.842615
 20
97.580158
 30
0.0
  0
SPLINE
  5
3cd
100
AcDbEntity
  8
Layer_1
 62
5
100
AcDbSpline
 70
8
 71
3
 72
8
 73
4
 74
0
 40
0
 40
0
 40
0
 40
0
 40
1
 40
1
 40
1
 40
1
 10
210.842615
 20
97.580158
 30
0.0
 10
211.616121
 20
97.133574
 30
0.0
 10
212.569119
 20
97.133574
 30
0.0
 10
213.342625
 20
97.580158
 30
0.0
  0
SPLINE
  5
3ce
100
AcDbEntity
  8
Layer_1
 62
5
100
AcDbSpline
 70
8
 71
3
 72
8
 73
4
 74
0
 40
0
 40
0
 40
0
 40
0
 40
1
 40
1
 40
1
 40
1
 10
213.342625
 20
97.580158
 30
0.0
 10
214.116131
 20
98.026742
 30
0.0
 10
214.592630
 20
98.852062
 30
0.0
 10
214.592630
 20
99.745230
 30
0.0
  0
LWPOLYLINE
  5
3cf
100
AcDbEntity
  8
Layer_1
 62
5
100
AcDbPolyline
 90
1
 70
1
 10
214.592630
 20
129.745230
 30
0.0
  0
SPLINE
  5
3d0
100
AcDbEntity
  8
Layer_1
 62
5
100
AcDbSpline
 70
8
 71
3
 72
8
 73
4
 74
0
 40
0
 40
0
 40
0
 40
0
 40
1
 40
1
 40
1
 40
1
 10
-36.907382
 20
355.745225
 30
0.0
 10
-36.908617
 20
358.505775
 30
0.0
 10
-39.146831
 20
360.742989
 30
0.0
 10
-41.907381
 20
360.742989
 30
0.0
  0
SPLINE
  5
3d1
100
AcDbEntity
  8
Layer_1
 62
5
100
AcDbSpline
 70
8
 71
3
 72
8
 73
4
 74
0
 40
0
 40
0
 40
0
 40
0
 40
1
 40
1
 40
1
 40
1
 10
-41.907381
 20
360.742989
 30
0.0
 10
-44.667932
 20
360.742989
 30
0.0
 10
-46.906146
 20
358.505775
 30
0.0
 10
-46.907381
 20
355.745225
 30
0.0
  0
SPLINE
  5
3d2
100
AcDbEntity
  8
Layer_1
 62
5
100
AcDbSpline
 70
8
 71
3
 72
8
 73
4
 74
0
 40
0
 40
0
 40
0
 40
0
 40
1
 40
1
 40
1
 40
1
 10
-46.907381
 20
355.745225
 30
0.0
 10
-46.906146
 20
352.984675
 30
0.0
 10
-44.667932
 20
350.747461
 30
0.0
 10
-41.907381
 20
350.747461
 30
0.0
  0
SPLINE
  5
3d3
100
AcDbEntity
  8
Layer_1
 62
5
100
AcDbSpline
 70
8
 71
3
 72
8
 73
4
 74
0
 40
0
 40
0
 40
0
 40
0
 40
1
 40
1
 40
1
 40
1
 10
-41.907381
 20
350.747461
 30
0.0
 10
-39.146831
 20
350.747461
 30
0.0
 10
-36.908617
 20
352.984675
 30
0.0
 10
-36.907382
 20
355.745225
 30
0.0
  0
LWPOLYLINE
  5
3d4
100
AcDbEntity
  8
Layer_1
 62
5
100
AcDbPolyline
 90
1
 70
1
 10
214.592630
 20
99.745230
 30
0.0
  0
SPLINE
  5
3d5
100
AcDbEntity
  8
Layer_1
 62
5
100
AcDbSpline
 70
8
 71
3
 72
8
 73
4
 74
0
 40
0
 40
0
 40
0
 40
0
 40
1
 40
1
 40
1
 40
1
 10
173.092630
 20
355.745225
 30
0.0
 10
173.092630
 20
357.531555
 30
0.0
 10
172.139634
 20
359.182191
 30
0.0
 10
170.592628
 20
360.075356
 30
0.0
  0
SPLINE
  5
3d6
100
AcDbEntity
  8
Layer_1
 62
5
100
AcDbSpline
 70
8
 71
3
 72
8
 73
4
 74
0
 40
0
 40
0
 40
0
 40
0
 40
1
 40
1
 40
1
 40
1
 10
170.592628
 20
360.075356
 30
0.0
 10
169.045621
 20
360.968521
 30
0.0
 10
167.139629
 20
360.968521
 30
0.0
 10
165.592623
 20
360.075356
 30
0.0
  0
SPLINE
  5
3d7
100
AcDbEntity
  8
Layer_1
 62
5
100
AcDbSpline
 70
8
 71
3
 72
8
 73
4
 74
0
 40
0
 40
0
 40
0
 40
0
 40
1
 40
1
 40
1
 40
1
 10
165.592623
 20
360.075356
 30
0.0
 10
164.045616
 20
359.182191
 30
0.0
 10
163.092620
 20
357.531555
 30
0.0
 10
163.092620
 20
355.745225
 30
0.0
  0
SPLINE
  5
3d8
100
AcDbEntity
  8
Layer_1
 62
5
100
AcDbSpline
 70
8
 71
3
 72
8
 73
4
 74
0
 40
0
 40
0
 40
0
 40
0
 40
1
 40
1
 40
1
 40
1
 10
163.092620
 20
355.745225
 30
0.0
 10
163.092620
 20
353.958895
 30
0.0
 10
164.045616
 20
352.308259
 30
0.0
 10
165.592623
 20
351.415094
 30
0.0
  0
SPLINE
  5
3d9
100
AcDbEntity
  8
Layer_1
 62
5
100
AcDbSpline
 70
8
 71
3
 72
8
 73
4
 74
0
 40
0
 40
0
 40
0
 40
0
 40
1
 40
1
 40
1
 40
1
 10
165.592623
 20
351.415094
 30
0.0
 10
167.139629
 20
350.521929
 30
0.0
 10
169.045621
 20
350.521929
 30
0.0
 10
170.592628
 20
351.415094
 30
0.0
  0
SPLINE
  5
3da
100
AcDbEntity
  8
Layer_1
 62
5
100
AcDbSpline
 70
8
 71
3
 72
8
 73
4
 74
0
 40
0
 40
0
 40
0
 40
0
 40
1
 40
1
 40
1
 40
1
 10
170.592628
 20
351.415094
 30
0.0
 10
172.139634
 20
352.308259
 30
0.0
 10
173.092630
 20
353.958895
 30
0.0
 10
173.092630
 20
355.745225
 30
0.0
  0
LWPOLYLINE
  5
3db
100
AcDbEntity
  8
Layer_1
 62
5
100
AcDbPolyline
 90
1
 70
1
 10
-36.907382
 20
355.745225
 30
0.0
  0
LWPOLYLINE
  5
3dc
100
AcDbEntity
  8
Layer_1
 62
5
100
AcDbPolyline
 90
1
 70
1
 10
173.092630
 20
355.745225
 30
0.0
  0
LWPOLYLINE
  5
3dd
100
AcDbEntity
  8
Layer_1
 62
1
100
AcDbPolyline
 90
4
 70
1
 10
-46.907434
 20
350.745145
 30
0.0
 10
-36.907507
 20
350.745145
 30
0.0
 10
-36.907507
 20
360.745337
 30
0.0
 10
-46.907434
 20
360.745337
 30
0.0
  0
LWPOLYLINE
  5
3de
100
AcDbEntity
  8
Layer_1
 62
1
100
AcDbPolyline
 90
4
 70
1
 10
163.093680
 20
350.745145
 30
0.0
 10
173.092280
 20
350.745145
 30
0.0
 10
173.092280
 20
360.745337
 30
0.0
 10
163.093680
 20
360.745337
 30
0.0
  0
LWPOLYLINE
  5
3df
100
AcDbEntity
  8
Layer_1
 62
1
100
AcDbPolyline
 90
4
 70
1
 10
-152.907370
 20
464.745110
 30
0.0
 10
277.208470
 20
464.745110
 30
0.0
 10
277.208480
 20
34.627320
 30
0.0
 10
-152.907370
 20
34.627330
 30
0.0
  0
LWPOLYLINE
  5
3e0
100
AcDbEntity
  8
Layer_1
 62
1
100
AcDbPolyline
 90
4
 70
1
 10
-137.907380
 20
315.745216
 30
0.0
 10
-149.907370
 20
315.745216
 30
0.0
 10
-149.907370
 20
259.745149
 30
0.0
 10
-137.907380
 20
259.745149
 30
0.0
  0
LWPOLYLINE
  5
3e1
100
AcDbEntity
  8
Layer_1
 62
1
100
AcDbPolyline
 90
4
 70
1
 10
-132.907330
 20
311.745219
 30
0.0
 10
-125.907250
 20
311.745219
 30
0.0
 10
-125.907250
 20
299.745227
 30
0.0
 10
-132.907330
 20
299.745227
 30
0.0
  0
ENDSEC
  0
SECTION
  2
OBJECTS
  0
DICTIONARY
  5
C
330
0
100
AcDbDictionary
  3
ACAD_GROUP
350
D
  3
ACAD_MLINESTYLE
350
17
  0
DICTIONARY
  5
D
330
C
100
AcDbDictionary
  0
DICTIONARY
  5
1A
330
C
100
AcDbDictionary
  0
DICTIONARY
  5
17
330
C
100
AcDbDictionary
  3
STANDARD
350
18
  0
DICTIONARY
  5
19
330
C
100
AcDbDictionary
  0
ENDSEC
  0
EOF
