M48
; DRILL file {KiCad 8.0.7} date 2025-07-02T12:25:16+0100
; FORMAT={-:-/ absolute / metric / decimal}
; #@! TF.CreationDate,2025-07-02T12:25:16+01:00
; #@! TF.GenerationSoftware,Kicad,Pcbnew,8.0.7
; #@! TF.FileFunction,Plated,1,2,PTH
FMAT,2
METRIC
; #@! TA.AperFunction,Plated,PTH,ComponentDrill
T1C0.610
; #@! TA.AperFunction,Plated,PTH,ComponentDrill
T2C0.750
; #@! TA.AperFunction,Plated,PTH,ComponentDrill
T3C0.800
; #@! TA.AperFunction,Plated,PTH,ComponentDrill
T4C0.813
; #@! TA.AperFunction,Plated,PTH,ComponentDrill
T5C0.900
; #@! TA.AperFunction,Plated,PTH,ComponentDrill
T6C1.000
; #@! TA.AperFunction,Plated,PTH,ComponentDrill
T7C1.200
; #@! TA.AperFunction,Plated,PTH,ComponentDrill
T8C1.829
%
G90
G05
T1
X53.26Y-221.61
X53.26Y-230.5
X55.8Y-221.61
X55.8Y-230.5
X65.96Y-221.61
X65.96Y-230.5
X68.5Y-221.61
X68.5Y-230.5
T2
X42.293Y-344.0
X42.293Y-350.0
X42.293Y-356.0
X43.563Y-342.0
X43.563Y-348.0
X43.563Y-354.0
X44.833Y-344.0
X44.833Y-350.0
X44.833Y-356.0
X48.147Y-344.0
X48.147Y-350.0
X48.147Y-356.0
X49.417Y-342.0
X49.417Y-348.0
X49.417Y-354.0
X50.687Y-344.0
X50.687Y-350.0
X50.687Y-356.0
X54.0Y-344.0
X54.0Y-350.0
X54.0Y-356.0
X55.27Y-342.0
X55.27Y-348.0
X55.27Y-354.0
X56.54Y-344.0
X56.54Y-350.0
X56.54Y-356.0
X56.96Y-191.5
X58.23Y-189.5
X59.5Y-191.5
X59.853Y-344.0
X59.853Y-350.0
X61.123Y-342.0
X61.123Y-348.0
X62.393Y-344.0
X62.393Y-350.0
X68.0Y-184.5
X68.0Y-186.5
X68.0Y-188.5
X89.5Y-243.0
X89.5Y-248.291
X89.5Y-253.582
X89.5Y-259.0
X90.77Y-245.0
X90.77Y-250.291
X90.77Y-255.582
X90.77Y-261.0
X92.04Y-243.0
X92.04Y-248.291
X92.04Y-253.582
X92.04Y-259.0
X95.73Y-200.673
X95.73Y-205.964
X95.73Y-211.254
X95.73Y-216.545
X95.73Y-221.836
X95.73Y-227.127
X95.73Y-232.418
X95.73Y-237.709
X95.73Y-243.0
X95.73Y-248.291
X95.73Y-253.582
X97.0Y-202.673
X97.0Y-207.964
X97.0Y-213.254
X97.0Y-218.545
X97.0Y-223.836
X97.0Y-229.127
X97.0Y-234.418
X97.0Y-239.709
X97.0Y-245.0
X97.0Y-250.291
X97.0Y-255.582
X98.27Y-200.673
X98.27Y-205.964
X98.27Y-211.254
X98.27Y-216.545
X98.27Y-221.836
X98.27Y-227.127
X98.27Y-232.418
X98.27Y-237.709
X98.27Y-243.0
X98.27Y-248.291
X98.27Y-253.582
T3
X42.85Y-330.38
X42.85Y-338.0
X46.4Y-330.38
X46.4Y-338.0
X49.95Y-330.38
X49.95Y-338.0
X53.5Y-330.38
X53.5Y-338.0
X57.05Y-330.38
X57.05Y-338.0
X60.6Y-330.38
X60.6Y-338.0
X64.15Y-330.38
X64.15Y-338.0
X65.34Y-255.75
X65.34Y-259.4
X65.34Y-263.05
X65.34Y-266.7
X65.34Y-270.35
X65.34Y-274.0
X67.7Y-330.38
X67.7Y-338.0
X67.88Y-282.72
X67.88Y-285.26
X67.88Y-287.8
X67.88Y-290.34
X67.88Y-292.88
X67.88Y-295.42
X67.88Y-297.96
X67.88Y-300.5
X67.88Y-306.095
X67.88Y-308.635
X67.88Y-311.175
X67.88Y-313.715
X67.88Y-316.255
X67.88Y-318.795
X67.88Y-321.335
X67.88Y-323.875
X68.18Y-195.47
X68.18Y-198.01
X68.18Y-200.55
X68.38Y-204.95
X68.38Y-209.0
X68.38Y-213.0
X68.38Y-217.1
X71.25Y-330.38
X71.25Y-338.0
X74.8Y-330.38
X74.8Y-338.0
X75.5Y-255.75
X75.5Y-259.4
X75.5Y-263.05
X75.5Y-266.7
X75.5Y-270.35
X75.5Y-274.0
X75.5Y-282.72
X75.5Y-285.26
X75.5Y-287.8
X75.5Y-290.34
X75.5Y-292.88
X75.5Y-295.42
X75.5Y-297.96
X75.5Y-300.5
X75.5Y-306.095
X75.5Y-308.635
X75.5Y-311.175
X75.5Y-313.715
X75.5Y-316.255
X75.5Y-318.795
X75.5Y-321.335
X75.5Y-323.875
X75.8Y-195.47
X75.8Y-198.01
X75.8Y-200.55
X76.0Y-204.95
X76.0Y-209.0
X76.0Y-213.0
X76.0Y-217.1
X78.35Y-330.38
X78.35Y-338.0
X90.73Y-199.38
X90.73Y-207.0
X90.73Y-210.047
X90.73Y-217.667
X90.73Y-220.713
X90.73Y-228.333
X90.73Y-231.38
X90.73Y-239.0
X90.8Y-175.913
X90.8Y-183.533
X90.8Y-187.233
X90.8Y-194.853
X93.34Y-175.913
X93.34Y-183.533
X93.34Y-187.233
X93.34Y-194.853
X95.88Y-175.913
X95.88Y-183.533
X95.88Y-187.233
X95.88Y-194.853
X98.42Y-175.913
X98.42Y-183.533
X98.42Y-187.233
X98.42Y-194.853
X100.96Y-175.913
X100.96Y-183.533
X100.96Y-187.233
X100.96Y-194.853
X101.5Y-246.0
X101.5Y-250.0
X101.5Y-254.0
X101.5Y-258.0
X101.5Y-262.0
X103.5Y-175.913
X103.5Y-183.533
X103.5Y-187.233
X103.5Y-194.853
X106.04Y-175.913
X106.04Y-183.533
X106.04Y-187.233
X106.04Y-194.853
X108.58Y-175.913
X108.58Y-183.533
X108.58Y-187.233
X108.58Y-194.853
X109.12Y-246.0
X109.12Y-250.0
X109.12Y-254.0
X109.12Y-258.0
X109.12Y-262.0
X115.38Y-169.185
X115.38Y-172.73
X115.38Y-176.275
X115.38Y-179.82
X115.38Y-183.365
X115.38Y-186.91
X115.38Y-190.455
X115.38Y-194.0
X115.38Y-197.5
X115.38Y-201.09
X115.38Y-204.635
X123.0Y-169.185
X123.0Y-172.73
X123.0Y-176.275
X123.0Y-179.82
X123.0Y-183.365
X123.0Y-186.91
X123.0Y-190.455
X123.0Y-194.0
X123.0Y-197.5
X123.0Y-201.09
X123.0Y-204.635
T4
X72.0Y-222.0
X77.0Y-222.0
T5
X73.5Y-228.0
X76.04Y-228.0
T6
X42.8Y-170.0
X43.37Y-287.49
X43.37Y-290.03
X43.37Y-292.57
X43.37Y-295.11
X43.37Y-297.65
X43.37Y-300.19
X43.37Y-302.73
X43.37Y-305.27
X43.37Y-307.81
X43.37Y-310.35
X43.37Y-312.89
X43.37Y-315.43
X43.37Y-317.97
X43.37Y-320.51
X43.37Y-323.05
X45.34Y-170.0
X47.15Y-361.125
X47.88Y-170.0
X49.69Y-361.125
X50.42Y-170.0
X52.23Y-361.125
X52.96Y-170.0
X54.77Y-361.125
X55.5Y-170.0
X57.31Y-361.125
X58.61Y-287.49
X58.61Y-290.03
X58.61Y-292.57
X58.61Y-295.11
X58.61Y-297.65
X58.61Y-300.19
X58.61Y-302.73
X58.61Y-305.27
X58.61Y-307.81
X58.61Y-310.35
X58.61Y-312.89
X58.61Y-315.43
X58.61Y-317.97
X58.61Y-320.51
X58.61Y-323.05
X59.85Y-361.125
X62.39Y-361.125
X63.5Y-170.0
X66.04Y-170.0
X66.25Y-236.0
X66.25Y-238.54
X66.25Y-241.08
X67.85Y-342.07
X67.85Y-344.61
X67.85Y-347.15
X67.85Y-349.69
X67.85Y-352.23
X67.85Y-354.77
X67.85Y-357.31
X67.85Y-359.85
X67.85Y-362.39
X67.85Y-364.93
X67.85Y-367.47
X68.58Y-170.0
X71.12Y-170.0
X73.66Y-170.0
X76.2Y-170.0
X78.74Y-170.0
X96.0Y-172.0
X98.54Y-172.0
X101.08Y-172.0
X103.62Y-172.0
X106.16Y-172.0
X108.7Y-172.0
X111.24Y-172.0
X113.5Y-211.573
X113.5Y-214.113
X113.5Y-216.653
X113.5Y-219.193
X113.5Y-221.733
X113.5Y-224.273
X113.5Y-226.813
X113.5Y-229.353
X113.5Y-231.893
X113.5Y-234.433
X113.5Y-236.973
X113.5Y-242.153
X113.5Y-244.693
X113.5Y-247.233
X113.5Y-249.773
X113.5Y-252.313
X113.5Y-254.853
X113.5Y-257.393
X113.5Y-259.933
X113.5Y-262.473
X113.5Y-265.013
T7
X52.5Y-178.85
X52.5Y-184.0
X62.66Y-178.85
X62.66Y-184.0
T8
X62.5Y-200.65
X62.5Y-207.0
T6
G00X44.75Y-182.5
M15
G01X42.25Y-182.5
M16
G05
G00X44.5Y-188.5
M15
G01X42.5Y-188.5
M16
G05
G00X48.2Y-184.5
M15
G01X48.2Y-186.5
M16
G05
M30
