%TF.GenerationSoftware,KiCad,Pcbnew,8.0.7*%
%TF.CreationDate,2025-07-02T12:24:07+01:00*%
%TF.ProjectId,KiCad,4b694361-642e-46b6-9963-61645f706362,v1*%
%TF.SameCoordinates,Original*%
%TF.FileFunction,Soldermask,Bot*%
%TF.FilePolarity,Negative*%
%FSLAX46Y46*%
G04 Gerber Fmt 4.6, Leading zero omitted, Abs format (unit mm)*
G04 Created by KiCad (PCBNEW 8.0.7) date 2025-07-02 12:24:07*
%MOMM*%
%LPD*%
G01*
G04 APERTURE LIST*
G04 Aperture macros list*
%AMRoundRect*
0 Rectangle with rounded corners*
0 $1 Rounding radius*
0 $2 $3 $4 $5 $6 $7 $8 $9 X,Y pos of 4 corners*
0 Add a 4 corners polygon primitive as box body*
4,1,4,$2,$3,$4,$5,$6,$7,$8,$9,$2,$3,0*
0 Add four circle primitives for the rounded corners*
1,1,$1+$1,$2,$3*
1,1,$1+$1,$4,$5*
1,1,$1+$1,$6,$7*
1,1,$1+$1,$8,$9*
0 Add four rect primitives between the rounded corners*
20,1,$1+$1,$2,$3,$4,$5,0*
20,1,$1+$1,$4,$5,$6,$7,0*
20,1,$1+$1,$6,$7,$8,$9,0*
20,1,$1+$1,$8,$9,$2,$3,0*%
G04 Aperture macros list end*
%ADD10R,1.320800X1.320800*%
%ADD11C,1.320800*%
%ADD12R,2.400000X2.400000*%
%ADD13O,2.400000X2.400000*%
%ADD14RoundRect,0.250000X0.625000X-0.350000X0.625000X0.350000X-0.625000X0.350000X-0.625000X-0.350000X0*%
%ADD15O,1.750000X1.200000*%
%ADD16C,1.600000*%
%ADD17O,1.600000X1.600000*%
%ADD18C,2.700000*%
%ADD19R,1.350000X1.800000*%
%ADD20RoundRect,0.337500X0.337500X0.562500X-0.337500X0.562500X-0.337500X-0.562500X0.337500X-0.562500X0*%
%ADD21RoundRect,0.337500X-0.337500X-0.562500X0.337500X-0.562500X0.337500X0.562500X-0.337500X0.562500X0*%
%ADD22R,1.600000X1.600000*%
%ADD23R,1.800000X1.800000*%
%ADD24C,1.800000*%
%ADD25R,1.700000X1.700000*%
%ADD26O,1.700000X1.700000*%
%ADD27O,5.204000X2.704000*%
%ADD28O,4.704000X2.454000*%
%ADD29O,2.454000X4.704000*%
%ADD30C,1.117600*%
%ADD31C,2.336800*%
G04 APERTURE END LIST*
D10*
%TO.C,C1*%
X72000000Y-222000000D03*
D11*
X76999990Y-222000000D03*
%TD*%
D12*
%TO.C,D2*%
X52500000Y-184000000D03*
D13*
X62660000Y-184000000D03*
%TD*%
D12*
%TO.C,D1*%
X52500000Y-178850000D03*
D13*
X62660000Y-178850000D03*
%TD*%
D14*
%TO.C,BT1*%
X68000000Y-188500000D03*
D15*
X68000000Y-186500000D03*
X68000000Y-184500000D03*
%TD*%
D16*
%TO.C,R47*%
X109120000Y-262000000D03*
D17*
X101500000Y-262000000D03*
%TD*%
D18*
%TO.C,M2.5*%
X76500000Y-373500000D03*
%TD*%
D19*
%TO.C,Q14*%
X98270000Y-210979492D03*
D20*
X97000000Y-213529492D03*
X95730000Y-210979492D03*
%TD*%
D19*
%TO.C,Q12*%
X98270000Y-200397656D03*
D20*
X97000000Y-202947656D03*
X95730000Y-200397656D03*
%TD*%
D16*
%TO.C,R49*%
X90730000Y-228333332D03*
D17*
X90730000Y-220713332D03*
%TD*%
D19*
%TO.C,Q27*%
X56960000Y-191775000D03*
D21*
X58230000Y-189225000D03*
X59500000Y-191775000D03*
%TD*%
D16*
%TO.C,R42*%
X109120000Y-250000000D03*
D17*
X101500000Y-250000000D03*
%TD*%
D16*
%TO.C,R43*%
X115380000Y-197500000D03*
D17*
X123000000Y-197500000D03*
%TD*%
D16*
%TO.C,R1*%
X42850000Y-330380000D03*
D17*
X42850000Y-338000000D03*
%TD*%
D22*
%TO.C,U6*%
X90800000Y-183532757D03*
D17*
X93340000Y-183532757D03*
X95880000Y-183532757D03*
X98420000Y-183532757D03*
X100960000Y-183532757D03*
X103500000Y-183532757D03*
X106040000Y-183532757D03*
X108580000Y-183532757D03*
X108580000Y-175912757D03*
X106040000Y-175912757D03*
X103500000Y-175912757D03*
X100960000Y-175912757D03*
X98420000Y-175912757D03*
X95880000Y-175912757D03*
X93340000Y-175912757D03*
X90800000Y-175912757D03*
%TD*%
D16*
%TO.C,R35*%
X68380000Y-213000000D03*
D17*
X76000000Y-213000000D03*
%TD*%
D19*
%TO.C,Q21*%
X92040000Y-253306836D03*
D20*
X90770000Y-255856836D03*
X89500000Y-253306836D03*
%TD*%
D16*
%TO.C,R17*%
X75500000Y-274000000D03*
D17*
X65340000Y-274000000D03*
%TD*%
D19*
%TO.C,Q23*%
X92040000Y-258725000D03*
D20*
X90770000Y-261275000D03*
X89500000Y-258725000D03*
%TD*%
D16*
%TO.C,R34*%
X76000000Y-209000000D03*
D17*
X68380000Y-209000000D03*
%TD*%
D19*
%TO.C,Q4*%
X59853334Y-344275000D03*
D21*
X61123334Y-341725000D03*
X62393334Y-344275000D03*
%TD*%
D22*
%TO.C,A1*%
X58610000Y-323050000D03*
D17*
X58610000Y-320510000D03*
X58610000Y-317970000D03*
X58610000Y-315430000D03*
X58610000Y-312890000D03*
X58610000Y-310350000D03*
X58610000Y-307810000D03*
X58610000Y-305270000D03*
X58610000Y-302730000D03*
X58610000Y-300190000D03*
X58610000Y-297650000D03*
X58610000Y-295110000D03*
X58610000Y-292570000D03*
X58610000Y-290030000D03*
X58610000Y-287490000D03*
X43370000Y-287490000D03*
X43370000Y-290030000D03*
X43370000Y-292570000D03*
X43370000Y-295110000D03*
X43370000Y-297650000D03*
X43370000Y-300190000D03*
X43370000Y-302730000D03*
X43370000Y-305270000D03*
X43370000Y-307810000D03*
X43370000Y-310350000D03*
X43370000Y-312890000D03*
X43370000Y-315430000D03*
X43370000Y-317970000D03*
X43370000Y-320510000D03*
X43370000Y-323050000D03*
%TD*%
D19*
%TO.C,Q15*%
X98270000Y-216270410D03*
D20*
X97000000Y-218820410D03*
X95730000Y-216270410D03*
%TD*%
D19*
%TO.C,Q20*%
X98270000Y-232143164D03*
D20*
X97000000Y-234693164D03*
X95730000Y-232143164D03*
%TD*%
D23*
%TO.C,D3*%
X73500000Y-228000000D03*
D24*
X76040000Y-228000000D03*
%TD*%
D16*
%TO.C,R48*%
X90730000Y-239000000D03*
D17*
X90730000Y-231380000D03*
%TD*%
D19*
%TO.C,Q22*%
X98270000Y-237434082D03*
D20*
X97000000Y-239984082D03*
X95730000Y-237434082D03*
%TD*%
D16*
%TO.C,R52*%
X90730000Y-207000000D03*
D17*
X90730000Y-199380000D03*
%TD*%
D25*
%TO.C,REF\u002A\u002A*%
X96000000Y-172000000D03*
D26*
X98540000Y-172000000D03*
X101080000Y-172000000D03*
X103620000Y-172000000D03*
X106160000Y-172000000D03*
X108700000Y-172000000D03*
X111240000Y-172000000D03*
%TD*%
D19*
%TO.C,Q18*%
X98270000Y-226852246D03*
D20*
X97000000Y-229402246D03*
X95730000Y-226852246D03*
%TD*%
D16*
%TO.C,R44*%
X109120000Y-254000000D03*
D17*
X101500000Y-254000000D03*
%TD*%
D19*
%TO.C,Q1*%
X42293334Y-344275000D03*
D21*
X43563334Y-341725000D03*
X44833334Y-344275000D03*
%TD*%
D16*
%TO.C,R29*%
X115380000Y-169184860D03*
D17*
X123000000Y-169184860D03*
%TD*%
D16*
%TO.C,R31*%
X115380000Y-176274900D03*
D17*
X123000000Y-176274900D03*
%TD*%
D18*
%TO.C,M2.5*%
X42000000Y-373500000D03*
%TD*%
D19*
%TO.C,Q9*%
X42293334Y-356275000D03*
D21*
X43563334Y-353725000D03*
X44833334Y-356275000D03*
%TD*%
D18*
%TO.C,M2.5*%
X90500000Y-270500000D03*
%TD*%
%TO.C,M2.5*%
X121000000Y-270500000D03*
%TD*%
D16*
%TO.C,R5*%
X57050000Y-330380000D03*
D17*
X57050000Y-338000000D03*
%TD*%
D19*
%TO.C,Q3*%
X54000000Y-344275000D03*
D21*
X55270000Y-341725000D03*
X56540000Y-344275000D03*
%TD*%
D25*
%TO.C,U5*%
X66250000Y-241080000D03*
D26*
X66250000Y-238540000D03*
X66250000Y-236000000D03*
%TD*%
D25*
%TO.C,J2*%
X113500000Y-211572757D03*
D26*
X113500000Y-214112757D03*
X113500000Y-216652757D03*
X113500000Y-219192757D03*
X113500000Y-221732757D03*
X113500000Y-224272757D03*
X113500000Y-226812757D03*
X113500000Y-229352757D03*
X113500000Y-231892757D03*
X113500000Y-234432757D03*
X113500000Y-236972757D03*
%TD*%
D19*
%TO.C,Q24*%
X98270000Y-242725000D03*
D20*
X97000000Y-245275000D03*
X95730000Y-242725000D03*
%TD*%
D22*
%TO.C,U1*%
X75500000Y-300500000D03*
D17*
X75500000Y-297960000D03*
X75500000Y-295420000D03*
X75500000Y-292880000D03*
X75500000Y-290340000D03*
X75500000Y-287800000D03*
X75500000Y-285260000D03*
X75500000Y-282720000D03*
X67880000Y-282720000D03*
X67880000Y-285260000D03*
X67880000Y-287800000D03*
X67880000Y-290340000D03*
X67880000Y-292880000D03*
X67880000Y-295420000D03*
X67880000Y-297960000D03*
X67880000Y-300500000D03*
%TD*%
D19*
%TO.C,Q17*%
X92040000Y-242725000D03*
D20*
X90770000Y-245275000D03*
X89500000Y-242725000D03*
%TD*%
D16*
%TO.C,R8*%
X67700000Y-330380000D03*
D17*
X67700000Y-338000000D03*
%TD*%
D25*
%TO.C,J1*%
X67850000Y-342070000D03*
D26*
X67850000Y-344610000D03*
X67850000Y-347150000D03*
X67850000Y-349690000D03*
X67850000Y-352230000D03*
X67850000Y-354770000D03*
X67850000Y-357310000D03*
X67850000Y-359850000D03*
X67850000Y-362390000D03*
X67850000Y-364930000D03*
X67850000Y-367470000D03*
%TD*%
D19*
%TO.C,Q11*%
X54000000Y-356275000D03*
D21*
X55270000Y-353725000D03*
X56540000Y-356275000D03*
%TD*%
D16*
%TO.C,R14*%
X75500000Y-259400000D03*
D17*
X65340000Y-259400000D03*
%TD*%
D19*
%TO.C,Q13*%
X98270000Y-205688574D03*
D20*
X97000000Y-208238574D03*
X95730000Y-205688574D03*
%TD*%
D27*
%TO.C,J3*%
X43500000Y-182500000D03*
D28*
X43500000Y-188500000D03*
D29*
X48200000Y-185500000D03*
%TD*%
D16*
%TO.C,R37*%
X115380000Y-186909960D03*
D17*
X123000000Y-186909960D03*
%TD*%
D18*
%TO.C,M2.5*%
X42000000Y-176500000D03*
%TD*%
D25*
%TO.C,U3*%
X63500000Y-170000000D03*
D26*
X66040000Y-170000000D03*
X68580000Y-170000000D03*
X71120000Y-170000000D03*
X73660000Y-170000000D03*
X76200000Y-170000000D03*
X78740000Y-170000000D03*
%TD*%
D16*
%TO.C,R40*%
X109120000Y-246000000D03*
D17*
X101500000Y-246000000D03*
%TD*%
D30*
%TO.C,U7*%
X68500000Y-221610000D03*
X65960000Y-221610000D03*
X55800000Y-221610000D03*
X53260000Y-221610000D03*
X53260000Y-230500000D03*
X55800000Y-230500000D03*
X65960000Y-230500000D03*
X68500000Y-230500000D03*
%TD*%
D16*
%TO.C,R38*%
X68380000Y-217100000D03*
D17*
X76000000Y-217100000D03*
%TD*%
D19*
%TO.C,Q26*%
X98270000Y-253306836D03*
D20*
X97000000Y-255856836D03*
X95730000Y-253306836D03*
%TD*%
D19*
%TO.C,Q7*%
X54000000Y-350275000D03*
D21*
X55270000Y-347725000D03*
X56540000Y-350275000D03*
%TD*%
D18*
%TO.C,M2.5*%
X76500000Y-176500000D03*
%TD*%
D16*
%TO.C,R33*%
X115380000Y-179819920D03*
D17*
X123000000Y-179819920D03*
%TD*%
D19*
%TO.C,Q25*%
X98270000Y-248015918D03*
D20*
X97000000Y-250565918D03*
X95730000Y-248015918D03*
%TD*%
D16*
%TO.C,R3*%
X49950000Y-330380000D03*
D17*
X49950000Y-338000000D03*
%TD*%
D22*
%TO.C,U2*%
X75500000Y-323875000D03*
D17*
X75500000Y-321335000D03*
X75500000Y-318795000D03*
X75500000Y-316255000D03*
X75500000Y-313715000D03*
X75500000Y-311175000D03*
X75500000Y-308635000D03*
X75500000Y-306095000D03*
X67880000Y-306095000D03*
X67880000Y-308635000D03*
X67880000Y-311175000D03*
X67880000Y-313715000D03*
X67880000Y-316255000D03*
X67880000Y-318795000D03*
X67880000Y-321335000D03*
X67880000Y-323875000D03*
%TD*%
D31*
%TO.C,SW1*%
X62500000Y-200650000D03*
X62500000Y-207000000D03*
%TD*%
D19*
%TO.C,Q19*%
X92040000Y-248015918D03*
D20*
X90770000Y-250565918D03*
X89500000Y-248015918D03*
%TD*%
D19*
%TO.C,Q8*%
X59853334Y-350275000D03*
D21*
X61123334Y-347725000D03*
X62393334Y-350275000D03*
%TD*%
D18*
%TO.C,M2.5*%
X90500000Y-164000000D03*
%TD*%
D16*
%TO.C,R6*%
X60600000Y-330380000D03*
D17*
X60600000Y-338000000D03*
%TD*%
D16*
%TO.C,R4*%
X53500000Y-330380000D03*
D17*
X53500000Y-338000000D03*
%TD*%
D16*
%TO.C,R30*%
X115380000Y-172729880D03*
D17*
X123000000Y-172729880D03*
%TD*%
D16*
%TO.C,R10*%
X74800000Y-330380000D03*
D17*
X74800000Y-338000000D03*
%TD*%
D25*
%TO.C,REF\u002A\u002A*%
X62390000Y-361125000D03*
D26*
X59850000Y-361125000D03*
X57310000Y-361125000D03*
X54770000Y-361125000D03*
X52230000Y-361125000D03*
X49690000Y-361125000D03*
X47150000Y-361125000D03*
%TD*%
D16*
%TO.C,R7*%
X64150000Y-330380000D03*
D17*
X64150000Y-338000000D03*
%TD*%
D19*
%TO.C,Q6*%
X48146667Y-350275000D03*
D21*
X49416667Y-347725000D03*
X50686667Y-350275000D03*
%TD*%
D16*
%TO.C,R11*%
X78350000Y-330380000D03*
D17*
X78350000Y-338000000D03*
%TD*%
D19*
%TO.C,Q10*%
X48146667Y-356275000D03*
D21*
X49416667Y-353725000D03*
X50686667Y-356275000D03*
%TD*%
D16*
%TO.C,R9*%
X71250000Y-330380000D03*
D17*
X71250000Y-338000000D03*
%TD*%
D16*
%TO.C,R45*%
X109120000Y-258000000D03*
D17*
X101500000Y-258000000D03*
%TD*%
D16*
%TO.C,R41*%
X115380000Y-194000000D03*
D17*
X123000000Y-194000000D03*
%TD*%
D19*
%TO.C,Q2*%
X48146667Y-344275000D03*
D21*
X49416667Y-341725000D03*
X50686667Y-344275000D03*
%TD*%
D18*
%TO.C,M2.5*%
X121000000Y-164000000D03*
%TD*%
D16*
%TO.C,R12*%
X75500000Y-266700000D03*
D17*
X65340000Y-266700000D03*
%TD*%
D16*
%TO.C,R51*%
X90730000Y-217666666D03*
D17*
X90730000Y-210046666D03*
%TD*%
D19*
%TO.C,Q16*%
X98270000Y-221561328D03*
D20*
X97000000Y-224111328D03*
X95730000Y-221561328D03*
%TD*%
D16*
%TO.C,R2*%
X46400000Y-330380000D03*
D17*
X46400000Y-338000000D03*
%TD*%
D16*
%TO.C,R39*%
X115380000Y-190454980D03*
D17*
X123000000Y-190454980D03*
%TD*%
D16*
%TO.C,R46*%
X115380000Y-201090040D03*
D17*
X123000000Y-201090040D03*
%TD*%
D16*
%TO.C,R36*%
X115380000Y-183364940D03*
D17*
X123000000Y-183364940D03*
%TD*%
D16*
%TO.C,R16*%
X75500000Y-270350000D03*
D17*
X65340000Y-270350000D03*
%TD*%
D19*
%TO.C,Q5*%
X42293334Y-350275000D03*
D21*
X43563334Y-347725000D03*
X44833334Y-350275000D03*
%TD*%
D16*
%TO.C,R50*%
X115380000Y-204635060D03*
D17*
X123000000Y-204635060D03*
%TD*%
D22*
%TO.C,U9*%
X90800000Y-194852757D03*
D17*
X93340000Y-194852757D03*
X95880000Y-194852757D03*
X98420000Y-194852757D03*
X100960000Y-194852757D03*
X103500000Y-194852757D03*
X106040000Y-194852757D03*
X108580000Y-194852757D03*
X108580000Y-187232757D03*
X106040000Y-187232757D03*
X103500000Y-187232757D03*
X100960000Y-187232757D03*
X98420000Y-187232757D03*
X95880000Y-187232757D03*
X93340000Y-187232757D03*
X90800000Y-187232757D03*
%TD*%
D16*
%TO.C,R32*%
X76000000Y-204950000D03*
D17*
X68380000Y-204950000D03*
%TD*%
D16*
%TO.C,R13*%
X75500000Y-263050000D03*
D17*
X65340000Y-263050000D03*
%TD*%
D25*
%TO.C,U4*%
X42800000Y-170000000D03*
D26*
X45340000Y-170000000D03*
X47880000Y-170000000D03*
X50420000Y-170000000D03*
X52960000Y-170000000D03*
X55500000Y-170000000D03*
%TD*%
D16*
%TO.C,R15*%
X75500000Y-255750000D03*
D17*
X65340000Y-255750000D03*
%TD*%
D25*
%TO.C,J4*%
X113500000Y-242152757D03*
D26*
X113500000Y-244692757D03*
X113500000Y-247232757D03*
X113500000Y-249772757D03*
X113500000Y-252312757D03*
X113500000Y-254852757D03*
X113500000Y-257392757D03*
X113500000Y-259932757D03*
X113500000Y-262472757D03*
X113500000Y-265012757D03*
%TD*%
D22*
%TO.C,U8*%
X75800000Y-200550000D03*
D17*
X75800000Y-198010000D03*
X75800000Y-195470000D03*
X68180000Y-195470000D03*
X68180000Y-198010000D03*
X68180000Y-200550000D03*
%TD*%
M02*
